<?xml version="1.0" encoding="UTF-8"?>
<svg id="Layer_2" data-name="Layer 2" xmlns="http://www.w3.org/2000/svg" width="334.5" height="115.01" viewBox="0 0 334.5 115.01">
  <g id="Layer_1_copy" data-name="Layer 1 copy">
    <g>
      <path d="M53.56,1.63h78.4c4.17,0,7.55,2.98,7.55,6.67v34.82c0,3.68-3.38,6.67-7.55,6.67H53.56c-4.17,0-7.55-2.99-7.55-6.67V8.29c0-3.68,3.38-6.67,7.55-6.67Z" fill="#fff" stroke="#999" stroke-miterlimit="10" stroke-width="3"/>
      <g isolation="isolate">
        <path d="M58.65,11.7c.36-.06.82-.11,1.42-.11.73,0,1.27.17,1.61.48.31.27.5.69.5,1.2s-.15.93-.44,1.22c-.39.42-1.03.63-1.75.63-.22,0-.43,0-.6-.05v2.29h-.74v-5.66ZM59.38,14.46c.16.04.37.06.61.06.89,0,1.44-.43,1.44-1.22s-.54-1.12-1.35-1.12c-.32,0-.57.03-.7.06v2.23Z"/>
        <path d="M67.89,14.84c-.04-.8-.09-1.76-.08-2.47h-.03c-.2.67-.43,1.38-.72,2.18l-1.01,2.78h-.56l-.93-2.73c-.27-.81-.5-1.55-.66-2.23h-.02c-.02.71-.06,1.67-.11,2.53l-.15,2.46h-.71l.4-5.73h.94l.98,2.77c.24.71.43,1.33.58,1.93h.03c.14-.58.35-1.21.6-1.93l1.02-2.77h.94l.36,5.73h-.72l-.14-2.52Z"/>
        <path d="M73.5,17.99v.43h-4.25v-.43h4.25Z"/>
        <path d="M74.05,16.46c.33.2.82.37,1.33.37.76,0,1.2-.4,1.2-.98,0-.54-.31-.84-1.08-1.14-.94-.33-1.51-.82-1.51-1.62,0-.89.74-1.56,1.85-1.56.59,0,1.01.14,1.27.28l-.2.6c-.19-.1-.57-.27-1.09-.27-.78,0-1.08.47-1.08.86,0,.54.35.8,1.14,1.11.97.37,1.46.84,1.46,1.68,0,.88-.65,1.65-2.01,1.65-.55,0-1.16-.16-1.46-.37l.19-.62Z"/>
        <path d="M82.34,17.17c-.27.14-.82.27-1.51.27-1.61,0-2.83-1.02-2.83-2.9s1.22-3.01,2.99-3.01c.71,0,1.16.15,1.36.26l-.18.6c-.28-.14-.68-.24-1.16-.24-1.34,0-2.24.86-2.24,2.36,0,1.4.81,2.3,2.2,2.3.45,0,.91-.09,1.21-.24l.15.59Z"/>
        <path d="M87.99,14.43c0,1.97-1.2,3.02-2.66,3.02s-2.58-1.17-2.58-2.91c0-1.82,1.13-3.01,2.66-3.01s2.58,1.2,2.58,2.9ZM83.54,14.53c0,1.22.66,2.32,1.83,2.32s1.84-1.08,1.84-2.38c0-1.14-.59-2.33-1.83-2.33s-1.84,1.13-1.84,2.39Z"/>
        <path d="M88.95,11.7c.36-.06.82-.11,1.42-.11.73,0,1.27.17,1.61.48.31.27.5.69.5,1.2s-.15.93-.44,1.22c-.39.42-1.03.63-1.75.63-.22,0-.43,0-.6-.05v2.29h-.74v-5.66ZM89.69,14.46c.16.04.37.06.61.06.89,0,1.44-.43,1.44-1.22s-.54-1.12-1.35-1.12c-.32,0-.57.03-.7.06v2.23Z"/>
        <path d="M96.44,14.67h-2.23v2.06h2.48v.62h-3.22v-5.73h3.09v.62h-2.35v1.81h2.23v.61Z"/>
        <path d="M101.25,17.99v.43h-4.25v-.43h4.25Z"/>
        <path d="M101.9,17.36v-5.73h.81l1.84,2.9c.43.67.76,1.28,1.03,1.86h.02c-.07-.77-.08-1.47-.08-2.36v-2.4h.7v5.73h-.75l-1.82-2.91c-.4-.64-.78-1.29-1.07-1.91h-.03c.04.73.06,1.42.06,2.37v2.45h-.7Z"/>
        <path d="M112.39,14.43c0,1.97-1.2,3.02-2.66,3.02s-2.58-1.17-2.58-2.91c0-1.82,1.13-3.01,2.66-3.01s2.58,1.2,2.58,2.9ZM107.94,14.53c0,1.22.66,2.32,1.83,2.32s1.84-1.08,1.84-2.38c0-1.14-.59-2.33-1.83-2.33s-1.84,1.13-1.84,2.39Z"/>
        <path d="M113.35,11.71c.45-.07.99-.12,1.57-.12,1.06,0,1.82.25,2.32.71.51.47.81,1.13.81,2.06s-.29,1.7-.82,2.23c-.54.54-1.42.82-2.53.82-.53,0-.97-.03-1.34-.07v-5.63ZM114.09,16.77c.19.03.46.04.75.04,1.58,0,2.44-.88,2.44-2.43,0-1.35-.76-2.21-2.32-2.21-.38,0-.67.03-.87.08v4.52Z"/>
        <path d="M121.98,14.67h-2.23v2.06h2.48v.62h-3.22v-5.73h3.09v.62h-2.35v1.81h2.23v.61Z"/>
      </g>
      <g isolation="isolate">
        <path d="M82.43,29.49l-.06-.52h-.03c-.23.32-.67.61-1.26.61-.83,0-1.26-.59-1.26-1.18,0-.99.88-1.54,2.47-1.53v-.08c0-.34-.09-.95-.93-.95-.38,0-.78.12-1.07.31l-.17-.49c.34-.22.83-.37,1.35-.37,1.26,0,1.56.86,1.56,1.68v1.54c0,.36.02.71.07.99h-.68ZM82.32,27.39c-.82-.02-1.74.13-1.74.93,0,.48.32.71.71.71.54,0,.88-.34.99-.69.03-.08.04-.16.04-.24v-.71Z"/>
        <path d="M84.25,26.66c0-.48,0-.9-.03-1.28h.65l.03.81h.03c.19-.55.64-.9,1.14-.9.08,0,.14,0,.21.03v.71c-.08-.02-.15-.03-.25-.03-.53,0-.9.4-1,.96-.02.1-.03.22-.03.35v2.19h-.74v-2.83Z"/>
        <path d="M90.5,25.38c-.02.3-.03.63-.03,1.13v2.39c0,.94-.19,1.52-.59,1.88-.4.38-.98.49-1.5.49s-1.04-.12-1.37-.34l.19-.57c.27.17.7.32,1.21.32.77,0,1.33-.4,1.33-1.44v-.46h-.02c-.23.38-.67.69-1.31.69-1.02,0-1.75-.87-1.75-2.01,0-1.39.91-2.18,1.85-2.18.71,0,1.1.38,1.28.71h.02l.03-.62h.65ZM89.73,27c0-.13,0-.24-.04-.34-.14-.43-.5-.79-1.05-.79-.71,0-1.22.6-1.22,1.56,0,.81.41,1.48,1.22,1.48.46,0,.88-.29,1.04-.77.04-.13.06-.27.06-.4v-.74Z"/>
        <path d="M94.64,29.34c-.2.1-.63.24-1.18.24-1.24,0-2.05-.84-2.05-2.1s.87-2.18,2.21-2.18c.44,0,.83.11,1.04.21l-.17.58c-.18-.1-.46-.2-.87-.2-.94,0-1.45.7-1.45,1.56,0,.95.61,1.54,1.43,1.54.42,0,.71-.11.92-.2l.13.56Z"/>
        <path d="M95.34,26.06c0-.31.21-.54.51-.54s.49.22.5.54c0,.3-.2.53-.51.53-.3,0-.5-.23-.5-.53ZM95.34,29.06c0-.31.21-.54.51-.54s.49.22.5.54c0,.3-.2.53-.51.53-.3,0-.5-.23-.5-.53Z"/>
        <path d="M100.71,26.67c0,1.88-.7,2.92-1.92,2.92-1.08,0-1.81-1.01-1.83-2.84,0-1.85.8-2.87,1.92-2.87s1.83,1.04,1.83,2.8ZM97.71,26.75c0,1.44.44,2.25,1.12,2.25.77,0,1.13-.89,1.13-2.3s-.35-2.25-1.12-2.25c-.65,0-1.13.8-1.13,2.3Z"/>
        <path d="M74.92,32.96h.75v6.03h-.75v-6.03Z"/>
        <path d="M80.65,36.9c0,1.52-1.05,2.18-2.05,2.18-1.11,0-1.97-.82-1.97-2.12,0-1.38.9-2.18,2.04-2.18s1.98.86,1.98,2.12ZM77.39,36.94c0,.9.52,1.58,1.25,1.58s1.25-.67,1.25-1.6c0-.7-.35-1.58-1.23-1.58s-1.27.82-1.27,1.6Z"/>
        <path d="M84.53,38.84c-.2.1-.63.24-1.18.24-1.24,0-2.05-.84-2.05-2.1s.87-2.18,2.21-2.18c.44,0,.83.11,1.04.21l-.17.58c-.18-.1-.46-.2-.87-.2-.94,0-1.45.7-1.45,1.56,0,.95.61,1.54,1.43,1.54.42,0,.71-.11.92-.2l.13.56Z"/>
        <path d="M87.68,38.99l-.06-.52h-.03c-.23.32-.67.61-1.26.61-.83,0-1.26-.59-1.26-1.18,0-.99.88-1.54,2.47-1.53v-.08c0-.34-.09-.95-.93-.95-.38,0-.78.12-1.07.31l-.17-.49c.34-.22.83-.37,1.35-.37,1.26,0,1.56.86,1.56,1.68v1.54c0,.36.02.71.07.99h-.68ZM87.57,36.89c-.82-.02-1.74.13-1.74.93,0,.48.32.71.71.71.54,0,.88-.34.99-.69.03-.08.04-.16.04-.24v-.71Z"/>
        <path d="M89.5,32.96h.75v6.03h-.75v-6.03Z"/>
        <path d="M91.4,38.22c.22.14.61.3.99.3.54,0,.8-.27.8-.61s-.21-.55-.76-.76c-.74-.26-1.09-.67-1.09-1.16,0-.66.54-1.21,1.42-1.21.42,0,.78.12,1.01.26l-.19.54c-.16-.1-.46-.24-.84-.24-.44,0-.69.25-.69.56,0,.34.25.49.78.7.71.27,1.08.63,1.08,1.24,0,.72-.56,1.23-1.54,1.23-.45,0-.87-.11-1.16-.28l.19-.57Z"/>
        <path d="M94.69,35.56c0-.31.21-.54.51-.54s.49.22.5.54c0,.3-.2.53-.51.53-.3,0-.5-.23-.5-.53ZM94.69,38.56c0-.31.21-.54.51-.54s.49.22.5.54c0,.3-.2.53-.51.53-.3,0-.5-.23-.5-.53Z"/>
        <path d="M98.51,39.94v-6.77h1.56v.47h-.98v5.84h.98v.47h-1.56Z"/>
        <path d="M105.55,33.16v6.78h-1.56v-.47h.98v-5.85h-.98v-.47h1.56Z"/>
      </g>
      <rect x="145.5" width="189" height="113.51" fill="#ccc"/>
      <path d="M.5,87.34v4.19h34.69v4.42l8.87-6.51-8.87-6.51v4.42H.5Z" fill="#e6e6e6" stroke="rgba(0, 0, 0, .75)" stroke-linecap="round" stroke-linejoin="round"/>
      <g isolation="isolate">
        <path d="M150.44,12.46v-2.29l-1.7-3.1h.79l.76,1.49c.21.41.37.74.54,1.11h.02c.15-.35.34-.7.54-1.11l.78-1.49h.79l-1.81,3.09v2.29h-.7Z"/>
        <path d="M153.79,10.77l-.56,1.69h-.72l1.83-5.39h.84l1.84,5.39h-.74l-.58-1.69h-1.91ZM155.55,10.22l-.53-1.55c-.12-.35-.2-.67-.28-.98h-.02c-.08.32-.17.65-.27.98l-.53,1.56h1.62Z"/>
        <path d="M157.81,7.15c.35-.07.86-.11,1.34-.11.74,0,1.22.14,1.56.44.27.24.42.61.42,1.02,0,.71-.45,1.18-1.02,1.38v.02c.42.14.66.53.79,1.09.18.75.3,1.27.42,1.48h-.72c-.09-.15-.21-.62-.36-1.29-.16-.74-.45-1.02-1.08-1.05h-.66v2.33h-.7v-5.32ZM158.51,9.6h.71c.74,0,1.22-.41,1.22-1.02,0-.7-.5-1-1.24-1.01-.34,0-.58.03-.69.06v1.97Z"/>
        <path d="M163.43,12.46l-1.76-5.39h.75l.84,2.65c.23.73.43,1.38.58,2.01h.02c.15-.62.38-1.3.62-2.01l.91-2.66h.74l-1.93,5.39h-.77Z"/>
        <path d="M169.16,7.51c0,.24-.17.43-.45.43-.25,0-.42-.19-.42-.43s.18-.44.44-.44.43.19.43.44ZM168.38,12.46v-3.87h.7v3.87h-.7Z"/>
        <path d="M170.25,9.64c0-.4,0-.73-.03-1.05h.62l.04.64h.02c.19-.37.64-.73,1.28-.73.54,0,1.37.32,1.37,1.65v2.31h-.7v-2.23c0-.62-.23-1.14-.9-1.14-.46,0-.82.33-.94.72-.03.09-.05.21-.05.33v2.33h-.7v-2.82Z"/>
        <path d="M174.6,11.74c.21.14.58.28.93.28.51,0,.75-.26.75-.58s-.2-.52-.72-.71c-.7-.25-1.02-.63-1.02-1.1,0-.62.5-1.14,1.33-1.14.39,0,.74.11.95.24l-.18.51c-.15-.1-.43-.22-.79-.22-.42,0-.65.24-.65.53,0,.32.23.46.74.66.67.26,1.02.59,1.02,1.17,0,.68-.53,1.16-1.45,1.16-.42,0-.82-.1-1.09-.26l.18-.54Z"/>
        <path d="M178.71,7.48v1.11h1.01v.54h-1.01v2.09c0,.48.14.75.53.75.18,0,.32-.02.41-.05l.03.53c-.14.06-.35.1-.62.1-.33,0-.59-.1-.76-.3-.2-.21-.27-.55-.27-1.01v-2.11h-.6v-.54h.6v-.93l.69-.18Z"/>
        <path d="M180.51,9.8c0-.46,0-.85-.03-1.21h.62l.02.76h.03c.18-.52.6-.85,1.07-.85.08,0,.13,0,.2.02v.66c-.07-.02-.14-.02-.24-.02-.5,0-.85.38-.94.9-.02.1-.03.21-.03.33v2.06h-.7v-2.66Z"/>
        <path d="M186.36,11.41c0,.4,0,.75.03,1.05h-.62l-.04-.63h-.02c-.18.31-.59.72-1.28.72-.61,0-1.33-.34-1.33-1.69v-2.26h.7v2.14c0,.74.22,1.23.86,1.23.47,0,.8-.33.93-.64.04-.1.06-.23.06-.36v-2.37h.7v2.81Z"/>
        <path d="M190.29,12.32c-.18.1-.59.22-1.11.22-1.17,0-1.93-.79-1.93-1.97s.82-2.05,2.08-2.05c.42,0,.78.1.98.2l-.16.54c-.17-.1-.43-.18-.82-.18-.89,0-1.37.66-1.37,1.46,0,.9.58,1.45,1.34,1.45.4,0,.66-.1.86-.19l.12.53Z"/>
        <path d="M192.07,7.48v1.11h1.01v.54h-1.01v2.09c0,.48.14.75.53.75.18,0,.32-.02.41-.05l.03.53c-.14.06-.35.1-.62.1-.33,0-.59-.1-.76-.3-.2-.21-.27-.55-.27-1.01v-2.11h-.6v-.54h.6v-.93l.69-.18Z"/>
        <path d="M194.65,7.51c0,.24-.17.43-.45.43-.25,0-.42-.19-.42-.43s.18-.44.44-.44.43.19.43.44ZM193.87,12.46v-3.87h.7v3.87h-.7Z"/>
        <path d="M199.24,10.5c0,1.43-.99,2.05-1.93,2.05-1.05,0-1.86-.77-1.86-1.99,0-1.3.85-2.06,1.92-2.06s1.86.81,1.86,1.99ZM196.17,10.54c0,.85.49,1.49,1.17,1.49s1.18-.63,1.18-1.5c0-.66-.33-1.49-1.16-1.49s-1.19.77-1.19,1.5Z"/>
        <path d="M200.13,9.64c0-.4,0-.73-.03-1.05h.62l.04.64h.02c.19-.37.64-.73,1.28-.73.54,0,1.37.32,1.37,1.65v2.31h-.7v-2.23c0-.62-.23-1.14-.89-1.14-.46,0-.82.33-.94.72-.03.09-.05.21-.05.33v2.33h-.7v-2.82Z"/>
        <path d="M204.47,11.74c.21.14.58.28.93.28.51,0,.75-.26.75-.58s-.2-.52-.72-.71c-.7-.25-1.02-.63-1.02-1.1,0-.62.5-1.14,1.33-1.14.39,0,.74.11.95.24l-.18.51c-.15-.1-.43-.22-.79-.22-.42,0-.65.24-.65.53,0,.32.23.46.74.66.67.26,1.02.59,1.02,1.17,0,.68-.53,1.16-1.45,1.16-.42,0-.82-.1-1.09-.26l.18-.54Z"/>
      </g>
      <g>
        <line x1="92.76" y1="49.78" x2="92.76" y2="58.03" fill="none" stroke="#000" stroke-miterlimit="10"/>
        <polygon points="90.95 56.74 92.84 63.78 94.73 56.74 90.95 56.74"/>
      </g>
      <g>
        <path d="M53.56,65.35h78.4c4.17,0,7.55,2.99,7.55,6.67v34.82c0,3.68-3.38,6.67-7.55,6.67H53.56c-4.17,0-7.55-2.99-7.55-6.67v-34.82c0-3.68,3.38-6.67,7.55-6.67Z" fill="#fff" stroke="#999" stroke-miterlimit="10" stroke-width="3"/>
        <g isolation="isolate">
          <path d="M63.79,74.97c.36-.06.82-.11,1.42-.11.73,0,1.27.17,1.61.48.31.27.5.69.5,1.2s-.15.93-.44,1.22c-.39.42-1.03.63-1.75.63-.22,0-.43,0-.6-.05v2.29h-.74v-5.66ZM64.53,77.73c.16.04.37.06.61.06.89,0,1.44-.43,1.44-1.22s-.54-1.12-1.35-1.12c-.32,0-.57.03-.7.06v2.23Z"/>
          <path d="M73.04,78.12c-.04-.8-.09-1.76-.08-2.47h-.03c-.2.67-.43,1.38-.72,2.18l-1.01,2.78h-.56l-.93-2.73c-.27-.81-.5-1.55-.66-2.23h-.02c-.02.71-.06,1.67-.11,2.53l-.15,2.46h-.71l.4-5.73h.94l.98,2.77c.24.71.43,1.33.58,1.93h.03c.14-.58.35-1.21.6-1.93l1.02-2.77h.94l.36,5.73h-.72l-.14-2.52Z"/>
          <path d="M78.65,81.27v.42h-4.25v-.42h4.25Z"/>
          <path d="M83.3,80.45c-.27.14-.82.27-1.51.27-1.61,0-2.83-1.02-2.83-2.9s1.22-3.01,2.99-3.01c.71,0,1.16.15,1.36.25l-.18.6c-.28-.14-.68-.24-1.16-.24-1.34,0-2.24.86-2.24,2.36,0,1.4.81,2.3,2.2,2.3.45,0,.91-.09,1.21-.24l.15.59Z"/>
          <path d="M85.19,78.83l-.59,1.8h-.77l1.95-5.73h.89l1.95,5.73h-.79l-.61-1.8h-2.03ZM87.06,78.25l-.56-1.65c-.13-.37-.21-.71-.3-1.05h-.02c-.08.34-.18.69-.29,1.04l-.56,1.66h1.73Z"/>
          <path d="M89.46,74.9h.74v5.11h2.45v.62h-3.19v-5.73Z"/>
          <path d="M93.47,74.9h.74v5.11h2.45v.62h-3.19v-5.73Z"/>
          <path d="M101.09,81.27v.42h-4.25v-.42h4.25Z"/>
          <path d="M101.73,80.63v-5.73h.81l1.84,2.9c.43.67.76,1.28,1.03,1.86h.02c-.07-.77-.08-1.47-.08-2.36v-2.4h.7v5.73h-.75l-1.82-2.91c-.4-.64-.78-1.29-1.07-1.91h-.03c.04.73.06,1.42.06,2.37v2.45h-.7Z"/>
          <path d="M112.22,77.71c0,1.97-1.2,3.02-2.66,3.02s-2.58-1.17-2.58-2.91c0-1.82,1.13-3.01,2.66-3.01s2.58,1.2,2.58,2.9ZM107.78,77.8c0,1.22.66,2.32,1.83,2.32s1.84-1.08,1.84-2.38c0-1.14-.59-2.33-1.83-2.33s-1.84,1.13-1.84,2.39Z"/>
          <path d="M113.18,74.98c.45-.07.99-.12,1.57-.12,1.06,0,1.82.25,2.32.71.51.47.81,1.13.81,2.06s-.29,1.7-.82,2.23c-.54.54-1.42.82-2.53.82-.53,0-.97-.03-1.34-.07v-5.63ZM113.92,80.05c.19.03.46.04.75.04,1.58,0,2.44-.88,2.44-2.43,0-1.35-.76-2.21-2.32-2.21-.38,0-.67.03-.87.08v4.52Z"/>
          <path d="M121.81,77.95h-2.23v2.07h2.48v.62h-3.22v-5.73h3.09v.62h-2.35v1.81h2.23v.61Z"/>
        </g>
        <g isolation="isolate">
          <path d="M72.3,90.5c0-.42,0-.77-.03-1.11h.66l.04.68h.02c.2-.39.68-.77,1.36-.77.57,0,1.45.34,1.45,1.75v2.46h-.75v-2.37c0-.66-.25-1.21-.95-1.21-.49,0-.88.35-1,.76-.03.09-.05.22-.05.35v2.47h-.75v-3Z"/>
          <path d="M79.3,93.5l-.06-.52h-.03c-.23.32-.67.61-1.26.61-.83,0-1.26-.59-1.26-1.18,0-.99.88-1.54,2.47-1.53v-.08c0-.34-.09-.95-.93-.95-.38,0-.78.12-1.07.31l-.17-.49c.34-.22.83-.37,1.35-.37,1.26,0,1.56.86,1.56,1.68v1.54c0,.36.02.71.07.99h-.68ZM79.18,91.4c-.82-.02-1.74.13-1.74.93,0,.48.32.71.71.71.54,0,.88-.34.99-.69.03-.08.04-.16.04-.24v-.71Z"/>
          <path d="M81.11,90.5c0-.42,0-.77-.03-1.11h.65l.03.66h.03c.23-.39.61-.76,1.29-.76.56,0,.99.34,1.16.82h.02c.13-.23.29-.41.46-.54.25-.19.52-.29.91-.29.54,0,1.35.36,1.35,1.79v2.42h-.73v-2.33c0-.79-.29-1.27-.89-1.27-.43,0-.76.31-.88.68-.03.1-.06.24-.06.37v2.54h-.73v-2.46c0-.65-.29-1.13-.86-1.13-.47,0-.81.37-.93.75-.04.11-.06.24-.06.37v2.48h-.73v-3Z"/>
          <path d="M88.62,91.58c.02,1.01.66,1.43,1.41,1.43.54,0,.86-.09,1.14-.21l.13.54c-.26.12-.71.26-1.37.26-1.27,0-2.02-.83-2.02-2.07s.73-2.22,1.93-2.22c1.34,0,1.7,1.18,1.7,1.94,0,.15-.02.27-.03.35h-2.89ZM90.81,91.04c0-.48-.2-1.22-1.04-1.22-.76,0-1.09.7-1.15,1.22h2.18Z"/>
          <path d="M92.28,90.06c0-.31.21-.54.51-.54s.49.22.5.54c0,.3-.2.53-.51.53-.3,0-.5-.23-.5-.53ZM92.28,93.06c0-.31.21-.54.51-.54s.49.22.5.54c0,.3-.2.53-.51.53-.3,0-.5-.23-.5-.53Z"/>
          <path d="M96.92,88.2v1.18h1.07v.57h-1.07v2.22c0,.51.14.8.56.8.2,0,.34-.03.43-.05l.03.56c-.14.06-.37.1-.66.1-.35,0-.63-.11-.81-.31-.21-.22-.29-.59-.29-1.07v-2.24h-.64v-.57h.64v-.99l.73-.2Z"/>
          <path d="M99.67,88.23c0,.26-.18.46-.48.46-.26,0-.45-.2-.45-.46s.2-.47.47-.47.46.2.46.47ZM98.84,93.5v-4.11h.75v4.11h-.75Z"/>
          <path d="M100.83,90.5c0-.42,0-.77-.03-1.11h.65l.03.66h.03c.23-.39.61-.76,1.29-.76.56,0,.99.34,1.16.82h.02c.13-.23.29-.41.46-.54.25-.19.52-.29.91-.29.54,0,1.35.36,1.35,1.79v2.42h-.73v-2.33c0-.79-.29-1.27-.89-1.27-.43,0-.76.31-.88.68-.03.1-.06.24-.06.37v2.54h-.73v-2.46c0-.65-.29-1.13-.86-1.13-.47,0-.81.37-.93.75-.04.11-.06.24-.06.37v2.48h-.73v-3Z"/>
          <path d="M108.33,91.58c.02,1.01.66,1.43,1.41,1.43.54,0,.86-.09,1.14-.21l.13.54c-.26.12-.71.26-1.37.26-1.27,0-2.02-.83-2.02-2.07s.73-2.22,1.93-2.22c1.34,0,1.7,1.18,1.7,1.94,0,.15-.02.27-.03.35h-2.89ZM110.52,91.04c0-.48-.2-1.22-1.04-1.22-.76,0-1.09.7-1.15,1.22h2.18Z"/>
          <path d="M112.07,92.73c.22.14.61.3.99.3.54,0,.8-.27.8-.61s-.21-.55-.76-.76c-.74-.26-1.09-.67-1.09-1.16,0-.66.54-1.21,1.42-1.21.42,0,.78.12,1.01.26l-.19.54c-.16-.1-.46-.24-.84-.24-.44,0-.69.25-.69.56,0,.34.25.49.78.7.71.27,1.08.63,1.08,1.24,0,.72-.56,1.23-1.54,1.23-.45,0-.87-.11-1.16-.28l.19-.57Z"/>
        </g>
      </g>
    </g>
  </g>
</svg>