<?xml version="1.0" encoding="UTF-8"?>
<svg id="Layer_2" data-name="Layer 2" xmlns="http://www.w3.org/2000/svg" width="492.69" height="382.74" viewBox="0 0 492.69 382.74">
  <g id="Layer_1_copy" data-name="Layer 1 copy">
    <g>
      <rect x="161.83" y="13.05" width="330.85" height="369.7" fill="#e6e6e6"/>
      <g isolation="isolate">
        <path d="M166.92,28.27c0-.35.24-.6.57-.6s.56.25.56.6-.22.6-.57.6c-.33,0-.56-.26-.56-.6Z"/>
        <path d="M168.89,28.27c0-.35.24-.6.57-.6s.56.25.56.6-.22.6-.57.6c-.33,0-.56-.26-.56-.6Z"/>
        <path d="M170.85,28.27c0-.35.24-.6.57-.6s.56.25.56.6-.22.6-.57.6c-.33,0-.56-.26-.56-.6Z"/>
        <path d="M179.01,22.02v5.56c0,.41,0,.88.04,1.19h-.75l-.04-.8h-.02c-.26.51-.82.9-1.57.9-1.11,0-1.97-.94-1.97-2.34,0-1.53.94-2.47,2.06-2.47.7,0,1.18.33,1.39.7h.02v-2.75h.84ZM178.17,26.04c0-.1,0-.25-.04-.35-.12-.53-.58-.97-1.21-.97-.87,0-1.38.76-1.38,1.78,0,.93.46,1.7,1.36,1.7.56,0,1.07-.37,1.23-1,.03-.11.04-.23.04-.36v-.8Z"/>
        <path d="M184.55,26.43c0,1.7-1.18,2.44-2.29,2.44-1.25,0-2.21-.91-2.21-2.37,0-1.54,1.01-2.44,2.28-2.44s2.22.96,2.22,2.37ZM180.9,26.48c0,1.01.58,1.77,1.4,1.77s1.4-.75,1.4-1.79c0-.78-.39-1.77-1.38-1.77s-1.42.91-1.42,1.79Z"/>
        <path d="M188.38,21.64v9.51h-.64v-9.51h.64Z"/>
        <path d="M189.89,25.41c0-.48,0-.87-.04-1.25h.74l.05.76h.02c.23-.44.76-.87,1.52-.87.64,0,1.63.38,1.63,1.96v2.75h-.84v-2.65c0-.74-.28-1.36-1.06-1.36-.55,0-.98.39-1.12.86-.04.1-.06.25-.06.39v2.77h-.84v-3.36Z"/>
        <path d="M195.92,21.64v9.51h-.64v-9.51h.64Z"/>
        <path d="M171.15,37.17c0-.59-.02-1.06-.04-1.5h.75l.04.79h.02c.34-.56.88-.89,1.64-.89,1.11,0,1.95.94,1.95,2.34,0,1.65-1.01,2.47-2.09,2.47-.61,0-1.14-.27-1.42-.72h-.02v2.5h-.83v-4.98ZM171.97,38.4c0,.12.02.24.04.34.15.58.66.98,1.25.98.88,0,1.4-.72,1.4-1.78,0-.92-.48-1.71-1.37-1.71-.57,0-1.1.41-1.26,1.04-.03.1-.06.23-.06.34v.79Z"/>
        <path d="M180.4,39.01c0,.48,0,.89.04,1.25h-.74l-.05-.75h-.02c-.22.37-.7.86-1.52.86-.72,0-1.59-.4-1.59-2.02v-2.69h.84v2.55c0,.87.27,1.46,1.03,1.46.56,0,.95-.39,1.1-.76.05-.12.08-.28.08-.43v-2.82h.84v3.35Z"/>
        <path d="M182.79,34.35v1.32h1.2v.64h-1.2v2.48c0,.57.16.89.63.89.22,0,.38-.03.48-.06l.04.63c-.16.07-.42.11-.74.11-.39,0-.7-.12-.9-.35-.24-.25-.32-.66-.32-1.2v-2.51h-.71v-.64h.71v-1.1l.82-.22Z"/>
        <path d="M184.82,39.41c.25.16.68.33,1.1.33.61,0,.89-.3.89-.68s-.24-.62-.86-.85c-.83-.29-1.22-.75-1.22-1.3,0-.74.6-1.35,1.59-1.35.47,0,.87.13,1.13.29l-.21.61c-.18-.11-.51-.27-.94-.27-.49,0-.77.29-.77.63,0,.38.28.55.87.78.8.3,1.21.7,1.21,1.39,0,.81-.63,1.38-1.72,1.38-.5,0-.97-.12-1.29-.31l.21-.64Z"/>
        <path d="M190.71,36.91c0-.48,0-.87-.04-1.25h.74l.05.76h.02c.23-.44.76-.87,1.52-.87.64,0,1.63.38,1.63,1.96v2.75h-.84v-2.65c0-.74-.28-1.36-1.06-1.36-.55,0-.98.39-1.12.86-.04.1-.06.25-.06.39v2.77h-.84v-3.36Z"/>
        <path d="M167.59,49.62c.02,1.13.74,1.6,1.58,1.6.6,0,.96-.1,1.27-.24l.14.6c-.29.13-.8.29-1.53.29-1.42,0-2.26-.93-2.26-2.32s.82-2.48,2.16-2.48c1.5,0,1.9,1.32,1.9,2.17,0,.17-.02.3-.03.39h-3.23ZM170.04,49.02c0-.53-.22-1.36-1.16-1.36-.85,0-1.22.78-1.28,1.36h2.44Z"/>
        <path d="M171.88,48.41c0-.48,0-.87-.04-1.25h.74l.05.76h.02c.23-.44.76-.87,1.52-.87.64,0,1.63.38,1.63,1.96v2.75h-.84v-2.65c0-.74-.28-1.36-1.06-1.36-.55,0-.98.39-1.12.86-.04.1-.06.25-.06.39v2.77h-.84v-3.36Z"/>
        <path d="M181.12,45.02v5.56c0,.41,0,.88.04,1.19h-.75l-.04-.8h-.02c-.26.51-.82.9-1.57.9-1.11,0-1.97-.94-1.97-2.34,0-1.53.94-2.47,2.06-2.47.7,0,1.18.33,1.39.7h.02v-2.75h.84ZM180.29,49.04c0-.1,0-.25-.04-.35-.12-.53-.58-.97-1.21-.97-.86,0-1.38.76-1.38,1.78,0,.93.46,1.7,1.36,1.7.56,0,1.07-.37,1.23-1,.03-.11.04-.23.04-.36v-.8Z"/>
      </g>
      <path d="M265.13,147.55h88.11c4.68,0,8.48,1.65,8.48,3.68v19.22c0,2.03-3.8,3.68-8.48,3.68h-88.11c-4.68,0-8.48-1.65-8.48-3.68v-19.22c0-2.03,3.8-3.68,8.48-3.68Z" fill="#fff" stroke="#999" stroke-miterlimit="10" stroke-width="3"/>
      <g isolation="isolate">
        <path d="M261.92,157.97c.29-.05.68-.09,1.17-.09.6,0,1.04.14,1.32.39.26.22.41.57.41.99s-.13.76-.37,1.01c-.32.34-.85.52-1.44.52-.18,0-.35,0-.49-.04v1.89h-.61v-4.66ZM262.52,160.24c.13.04.3.05.5.05.73,0,1.18-.36,1.18-1.01s-.44-.92-1.11-.92c-.27,0-.47.02-.57.05v1.83Z"/>
        <path d="M269.53,160.56c-.04-.66-.08-1.45-.07-2.04h-.02c-.16.55-.36,1.14-.59,1.79l-.83,2.29h-.46l-.76-2.25c-.22-.67-.41-1.27-.55-1.83h-.01c-.01.59-.05,1.38-.09,2.09l-.13,2.02h-.58l.33-4.72h.78l.81,2.28c.2.58.36,1.1.48,1.59h.02c.12-.48.29-.99.5-1.59l.84-2.28h.78l.29,4.72h-.6l-.12-2.07Z"/>
        <path d="M274.15,163.16v.35h-3.5v-.35h3.5Z"/>
        <path d="M274.68,157.97c.27-.06.69-.1,1.11-.1.61,0,1,.11,1.29.34.25.18.39.46.39.83,0,.46-.3.85-.8,1.04h0c.45.13.97.5.97,1.2,0,.41-.16.71-.4.95-.33.3-.86.44-1.63.44-.42,0-.74-.03-.95-.06v-4.64ZM275.29,159.91h.55c.64,0,1.02-.34,1.02-.79,0-.55-.42-.77-1.04-.77-.28,0-.44.02-.54.04v1.52ZM275.29,162.17c.12.02.29.03.51.03.63,0,1.21-.23,1.21-.92,0-.64-.55-.91-1.22-.91h-.5v1.8Z"/>
        <path d="M278.48,157.91h.61v4.21h2.02v.51h-2.63v-4.72Z"/>
        <path d="M285.54,160.22c0,1.62-.99,2.49-2.19,2.49s-2.12-.97-2.12-2.4c0-1.5.93-2.48,2.19-2.48s2.12.99,2.12,2.39ZM281.88,160.3c0,1.01.55,1.91,1.51,1.91s1.51-.89,1.51-1.96c0-.94-.49-1.92-1.51-1.92s-1.51.93-1.51,1.97Z"/>
        <path d="M289.63,162.48c-.22.11-.67.22-1.25.22-1.33,0-2.33-.84-2.33-2.39s1-2.48,2.46-2.48c.59,0,.96.13,1.12.21l-.15.5c-.23-.11-.56-.2-.95-.2-1.11,0-1.84.71-1.84,1.95,0,1.16.67,1.9,1.81,1.9.37,0,.75-.08.99-.2l.13.48Z"/>
        <path d="M290.39,157.91h.61v2.28h.02c.12-.18.25-.35.37-.5l1.44-1.77h.76l-1.71,2,1.84,2.72h-.72l-1.55-2.32-.45.52v1.8h-.61v-4.72Z"/>
        <path d="M297.15,163.16v.35h-3.5v-.35h3.5Z"/>
        <path d="M297.69,157.97c.29-.05.68-.09,1.17-.09.6,0,1.04.14,1.32.39.26.22.41.57.41.99s-.13.76-.37,1.01c-.32.34-.85.52-1.44.52-.18,0-.35,0-.49-.04v1.89h-.61v-4.66ZM298.29,160.24c.13.04.3.05.5.05.73,0,1.18-.36,1.18-1.01s-.44-.92-1.11-.92c-.27,0-.47.02-.57.05v1.83Z"/>
        <path d="M301.58,161.15l-.49,1.48h-.63l1.6-4.72h.74l1.61,4.72h-.65l-.5-1.48h-1.67ZM303.13,160.67l-.46-1.36c-.11-.31-.18-.59-.25-.86h-.01c-.07.28-.15.57-.24.85l-.46,1.37h1.42Z"/>
        <path d="M305.1,157.97c.31-.06.75-.1,1.17-.1.65,0,1.07.12,1.37.39.24.21.37.53.37.9,0,.62-.39,1.04-.89,1.2v.02c.37.13.58.46.69.95.15.66.27,1.11.37,1.3h-.63c-.08-.13-.18-.54-.31-1.13-.14-.65-.39-.9-.95-.92h-.57v2.04h-.61v-4.66ZM305.71,160.12h.62c.65,0,1.06-.36,1.06-.9,0-.61-.44-.88-1.09-.88-.29,0-.5.03-.6.06v1.72Z"/>
        <path d="M309.67,161.15l-.49,1.48h-.63l1.6-4.72h.74l1.61,4.72h-.65l-.5-1.48h-1.67ZM311.22,160.67l-.46-1.36c-.1-.31-.17-.59-.25-.86h-.01c-.07.28-.15.57-.24.85l-.46,1.37h1.42Z"/>
        <path d="M317.14,160.56c-.03-.66-.08-1.45-.07-2.04h-.02c-.16.55-.36,1.14-.6,1.79l-.83,2.29h-.46l-.76-2.25c-.22-.67-.41-1.27-.55-1.83h-.01c-.01.59-.05,1.38-.09,2.09l-.13,2.02h-.58l.33-4.72h.78l.8,2.28c.2.58.36,1.1.48,1.59h.02c.12-.48.29-.99.5-1.59l.84-2.28h.78l.29,4.72h-.59l-.12-2.07Z"/>
        <path d="M321.23,160.42h-1.84v1.7h2.04v.51h-2.65v-4.72h2.55v.51h-1.94v1.49h1.84v.5Z"/>
        <path d="M323.24,158.43h-1.44v-.52h3.49v.52h-1.44v4.2h-.62v-4.2Z"/>
        <path d="M328.27,160.42h-1.83v1.7h2.04v.51h-2.65v-4.72h2.55v.51h-1.94v1.49h1.83v.5Z"/>
        <path d="M329.27,157.97c.31-.06.75-.1,1.17-.1.65,0,1.07.12,1.37.39.24.21.37.53.37.9,0,.62-.39,1.04-.89,1.2v.02c.36.13.58.46.69.95.15.66.27,1.11.36,1.3h-.63c-.08-.13-.18-.54-.32-1.13-.14-.65-.39-.9-.95-.92h-.57v2.04h-.61v-4.66ZM329.88,160.12h.62c.65,0,1.06-.36,1.06-.9,0-.61-.44-.88-1.08-.88-.29,0-.5.03-.6.06v1.72Z"/>
        <path d="M332.95,161.89c.27.17.67.31,1.09.31.62,0,.99-.33.99-.8,0-.44-.25-.69-.89-.94-.77-.27-1.25-.67-1.25-1.34,0-.74.61-1.28,1.53-1.28.48,0,.83.11,1.04.23l-.17.5c-.15-.08-.47-.22-.9-.22-.64,0-.89.38-.89.71,0,.44.29.66.94.91.8.31,1.21.69,1.21,1.39,0,.73-.54,1.36-1.65,1.36-.46,0-.95-.13-1.21-.3l.15-.51Z"/>
        <path d="M339.46,163.16v.35h-3.5v-.35h3.5Z"/>
        <path d="M339.99,162.63v-4.72h.67l1.51,2.39c.35.55.62,1.05.85,1.53h.01c-.06-.64-.07-1.21-.07-1.95v-1.98h.57v4.72h-.62l-1.5-2.4c-.33-.53-.64-1.06-.88-1.58h-.02c.04.6.05,1.17.05,1.95v2.02h-.57Z"/>
        <path d="M348.63,160.22c0,1.62-.99,2.49-2.19,2.49s-2.12-.97-2.12-2.4c0-1.5.93-2.48,2.19-2.48s2.12.99,2.12,2.39ZM344.96,160.3c0,1.01.55,1.91,1.51,1.91s1.51-.89,1.51-1.96c0-.94-.49-1.92-1.5-1.92s-1.51.93-1.51,1.97Z"/>
        <path d="M349.41,157.97c.37-.06.81-.1,1.3-.1.88,0,1.5.2,1.91.59.42.38.67.93.67,1.69s-.24,1.4-.68,1.83c-.44.44-1.17.68-2.09.68-.43,0-.8-.02-1.11-.06v-4.64ZM350.02,162.15c.15.03.38.04.62.04,1.3,0,2.01-.73,2.01-2,0-1.11-.62-1.82-1.91-1.82-.32,0-.55.03-.71.06v3.73Z"/>
        <path d="M356.52,160.42h-1.83v1.7h2.04v.51h-2.65v-4.72h2.55v.51h-1.94v1.49h1.83v.5Z"/>
      </g>
      <g>
        <path d="M291.36,191.98c.02,1.07.7,1.51,1.5,1.51.57,0,.91-.1,1.21-.22l.13.57c-.28.13-.76.27-1.45.27-1.34,0-2.14-.88-2.14-2.2s.77-2.35,2.04-2.35c1.42,0,1.8,1.25,1.8,2.05,0,.16-.02.29-.03.37h-3.06ZM293.68,191.42c0-.5-.21-1.29-1.1-1.29-.8,0-1.15.74-1.21,1.29h2.31Z"/>
        <path d="M296.38,188.41v1.25h1.13v.6h-1.13v2.35c0,.54.15.85.59.85.21,0,.36-.03.46-.05l.04.59c-.15.06-.4.11-.7.11-.37,0-.67-.12-.85-.33-.23-.23-.31-.62-.31-1.13v-2.38h-.67v-.6h.67v-1.04l.77-.21Z"/>
        <path d="M301.46,193.86c-.21.11-.67.25-1.25.25-1.31,0-2.17-.89-2.17-2.22s.92-2.31,2.34-2.31c.47,0,.88.12,1.1.22l-.18.61c-.19-.11-.49-.21-.92-.21-1,0-1.54.74-1.54,1.65,0,1.01.65,1.63,1.51,1.63.45,0,.75-.12.97-.22l.14.59Z"/>
        <path d="M302.1,193.55c0-.33.23-.57.54-.57s.53.23.53.57-.21.57-.54.57c-.32,0-.53-.24-.53-.57Z"/>
        <path d="M303.97,193.55c0-.33.22-.57.54-.57s.53.23.53.57-.21.57-.54.57c-.32,0-.53-.24-.53-.57Z"/>
      </g>
      <path d="M233.04,106.13h69.06c3.67,0,6.65,1.65,6.65,3.68v19.22c0,2.03-2.98,3.68-6.65,3.68h-69.06c-3.67,0-6.65-1.65-6.65-3.68v-19.22c0-2.03,2.98-3.68,6.65-3.68Z" fill="#fff" stroke="#999" stroke-miterlimit="10" stroke-width="3"/>
      <g isolation="isolate">
        <path d="M241.46,116.54c.29-.05.68-.09,1.17-.09.6,0,1.04.14,1.32.39.26.22.41.57.41.99s-.13.76-.36,1.01c-.32.34-.85.52-1.44.52-.18,0-.35,0-.49-.04v1.89h-.61v-4.66ZM242.07,118.82c.13.04.3.05.5.05.74,0,1.18-.36,1.18-1.01s-.44-.92-1.11-.92c-.27,0-.47.02-.57.05v1.83Z"/>
        <path d="M249.08,119.13c-.04-.66-.08-1.45-.07-2.04h-.02c-.16.55-.36,1.14-.6,1.79l-.83,2.29h-.46l-.76-2.25c-.22-.67-.41-1.27-.55-1.83h-.01c-.01.59-.05,1.38-.09,2.09l-.13,2.02h-.58l.33-4.72h.78l.81,2.28c.2.58.36,1.1.48,1.59h.02c.12-.48.29-.99.5-1.59l.84-2.28h.78l.29,4.72h-.59l-.12-2.07Z"/>
        <path d="M253.69,121.73v.35h-3.5v-.35h3.5Z"/>
        <path d="M254.23,116.55c.27-.06.69-.1,1.11-.1.61,0,1,.11,1.29.34.25.18.39.46.39.83,0,.46-.3.85-.8,1.04h0c.45.13.97.5.97,1.2,0,.41-.16.71-.4.95-.33.3-.86.44-1.63.44-.42,0-.74-.03-.95-.06v-4.64ZM254.83,118.48h.55c.64,0,1.02-.34,1.02-.79,0-.55-.42-.77-1.04-.77-.28,0-.44.02-.54.04v1.52ZM254.83,120.74c.12.02.29.03.51.03.63,0,1.21-.23,1.21-.92,0-.64-.55-.91-1.22-.91h-.5v1.8Z"/>
        <path d="M258.02,116.49h.61v4.21h2.02v.51h-2.63v-4.72Z"/>
        <path d="M265.08,118.8c0,1.62-.99,2.49-2.19,2.49s-2.12-.97-2.12-2.4c0-1.5.93-2.48,2.19-2.48s2.12.99,2.12,2.39ZM261.42,118.87c0,1.01.55,1.91,1.51,1.91s1.51-.89,1.51-1.96c0-.94-.49-1.92-1.51-1.92s-1.51.93-1.51,1.97Z"/>
        <path d="M269.17,121.05c-.22.11-.67.22-1.25.22-1.33,0-2.33-.84-2.33-2.39s1-2.48,2.46-2.48c.59,0,.96.13,1.12.21l-.15.5c-.23-.11-.56-.2-.95-.2-1.11,0-1.84.71-1.84,1.95,0,1.16.67,1.9,1.81,1.9.37,0,.75-.08,1-.2l.13.48Z"/>
        <path d="M269.93,116.49h.61v2.28h.02c.13-.18.25-.35.37-.5l1.44-1.77h.76l-1.71,2,1.84,2.72h-.72l-1.55-2.32-.45.52v1.8h-.61v-4.72Z"/>
        <path d="M276.7,121.73v.35h-3.5v-.35h3.5Z"/>
        <path d="M277.23,121.21v-4.72h.67l1.51,2.39c.35.55.62,1.05.85,1.53h.01c-.06-.64-.07-1.21-.07-1.95v-1.98h.57v4.72h-.62l-1.5-2.4c-.33-.53-.64-1.06-.88-1.58h-.02c.04.6.05,1.17.05,1.95v2.02h-.57Z"/>
        <path d="M285.87,118.8c0,1.62-.99,2.49-2.19,2.49s-2.12-.97-2.12-2.4c0-1.5.93-2.48,2.19-2.48s2.12.99,2.12,2.39ZM282.2,118.87c0,1.01.55,1.91,1.51,1.91s1.51-.89,1.51-1.96c0-.94-.49-1.92-1.51-1.92s-1.51.93-1.51,1.97Z"/>
        <path d="M286.66,116.55c.37-.06.81-.1,1.3-.1.88,0,1.5.2,1.91.59.42.38.67.93.67,1.69s-.24,1.4-.68,1.83c-.44.44-1.17.68-2.09.68-.43,0-.8-.02-1.11-.06v-4.64ZM287.27,120.72c.15.03.38.04.62.04,1.3,0,2.01-.73,2.01-2,0-1.11-.62-1.82-1.91-1.82-.32,0-.55.03-.71.06v3.73Z"/>
        <path d="M293.76,118.99h-1.83v1.7h2.04v.51h-2.65v-4.72h2.55v.51h-1.94v1.49h1.83v.5Z"/>
      </g>
      <line x1="238.54" y1="134.09" x2="238.54" y2="160.27" fill="none" stroke="#000"/>
      <g>
        <line x1="253.89" y1="160.57" x2="238.13" y2="160.57" fill="none" stroke="#000"/>
        <polygon points="251.89 158.87 253.59 160.57 251.89 162.26 253.33 162.26 255.03 160.57 253.33 158.87 251.89 158.87"/>
      </g>
      <path d="M201.82,65.31h61.44c3.27,0,5.91,1.65,5.91,3.68v19.22c0,2.03-2.65,3.68-5.91,3.68h-61.44c-3.27,0-5.91-1.65-5.91-3.68v-19.22c0-2.03,2.65-3.68,5.91-3.68Z" fill="#e6e7e8" stroke="#999" stroke-miterlimit="10" stroke-width="3"/>
      <g isolation="isolate">
        <path d="M206.57,75.72c.29-.05.68-.09,1.17-.09.6,0,1.04.14,1.32.39.26.22.41.57.41.99s-.13.76-.36,1.01c-.32.34-.85.52-1.44.52-.18,0-.35,0-.49-.04v1.89h-.61v-4.66ZM207.18,78c.13.04.3.05.5.05.74,0,1.18-.36,1.18-1.01s-.44-.92-1.11-.92c-.27,0-.47.02-.57.05v1.83Z"/>
        <path d="M214.18,78.31c-.03-.66-.08-1.45-.07-2.04h-.02c-.16.55-.36,1.14-.6,1.79l-.83,2.29h-.46l-.76-2.25c-.22-.67-.41-1.27-.55-1.83h-.01c-.01.59-.05,1.38-.09,2.09l-.13,2.02h-.58l.33-4.72h.78l.81,2.28c.2.58.36,1.1.48,1.59h.02c.12-.48.29-.99.5-1.59l.84-2.28h.78l.29,4.72h-.6l-.12-2.07Z"/>
        <path d="M218.8,80.91v.35h-3.5v-.35h3.5Z"/>
        <path d="M219.25,79.64c.27.17.67.31,1.09.31.62,0,.99-.33.99-.8,0-.44-.25-.69-.89-.94-.77-.27-1.25-.67-1.25-1.34,0-.74.61-1.28,1.53-1.28.48,0,.83.11,1.04.23l-.17.5c-.15-.08-.47-.22-.9-.22-.64,0-.89.38-.89.71,0,.44.29.66.94.91.8.31,1.21.69,1.21,1.39,0,.73-.54,1.36-1.65,1.36-.46,0-.95-.13-1.21-.3l.15-.51Z"/>
        <path d="M226.08,80.23c-.22.11-.67.22-1.25.22-1.33,0-2.33-.84-2.33-2.39s1-2.48,2.46-2.48c.59,0,.96.13,1.12.21l-.15.5c-.23-.11-.56-.2-.95-.2-1.11,0-1.84.71-1.84,1.95,0,1.16.67,1.9,1.81,1.9.37,0,.75-.08,1-.2l.13.48Z"/>
        <path d="M230.73,77.98c0,1.62-.99,2.49-2.19,2.49s-2.12-.97-2.12-2.4c0-1.5.93-2.48,2.19-2.48s2.12.99,2.12,2.39ZM227.07,78.05c0,1.01.55,1.91,1.51,1.91s1.51-.89,1.51-1.96c0-.94-.49-1.92-1.51-1.92s-1.51.93-1.51,1.97Z"/>
        <path d="M231.52,75.72c.29-.05.68-.09,1.17-.09.6,0,1.04.14,1.32.39.26.22.41.57.41.99s-.13.76-.36,1.01c-.32.34-.85.52-1.44.52-.18,0-.35,0-.49-.04v1.89h-.61v-4.66ZM232.13,78c.13.04.3.05.5.05.74,0,1.18-.36,1.18-1.01s-.44-.92-1.11-.92c-.27,0-.47.02-.57.05v1.83Z"/>
        <path d="M237.69,78.17h-1.83v1.7h2.04v.51h-2.65v-4.72h2.55v.51h-1.94v1.49h1.83v.5Z"/>
        <path d="M241.66,80.91v.35h-3.5v-.35h3.5Z"/>
        <path d="M242.19,80.39v-4.72h.67l1.51,2.39c.35.55.62,1.05.85,1.53h.01c-.06-.64-.07-1.21-.07-1.95v-1.98h.57v4.72h-.62l-1.5-2.4c-.33-.53-.64-1.06-.88-1.58h-.02c.04.6.05,1.17.05,1.95v2.02h-.57Z"/>
        <path d="M250.83,77.98c0,1.62-.99,2.49-2.19,2.49s-2.12-.97-2.12-2.4c0-1.5.93-2.48,2.19-2.48s2.12.99,2.12,2.39ZM247.17,78.05c0,1.01.55,1.91,1.51,1.91s1.51-.89,1.51-1.96c0-.94-.49-1.92-1.51-1.92s-1.51.93-1.51,1.97Z"/>
        <path d="M251.62,75.73c.37-.06.81-.1,1.3-.1.88,0,1.5.2,1.91.59.42.38.67.93.67,1.69s-.24,1.4-.68,1.83c-.44.44-1.17.68-2.09.68-.43,0-.8-.02-1.11-.06v-4.64ZM252.23,79.9c.15.03.38.04.62.04,1.3,0,2.01-.73,2.01-2,0-1.11-.62-1.82-1.91-1.82-.31,0-.55.03-.71.06v3.73Z"/>
        <path d="M258.72,78.17h-1.83v1.7h2.04v.51h-2.65v-4.72h2.55v.51h-1.94v1.49h1.83v.5Z"/>
      </g>
      <line x1="208.52" y1="93.39" x2="208.52" y2="119.08" fill="none" stroke="#000"/>
      <g>
        <line x1="223.78" y1="119.46" x2="208.03" y2="119.46" fill="none" stroke="#000"/>
        <polygon points="221.79 117.76 223.49 119.46 221.79 121.15 223.23 121.15 224.92 119.46 223.23 117.76 221.79 117.76"/>
      </g>
      <line x1="271.75" y1="175.24" x2="271.75" y2="191.43" fill="none" stroke="#000"/>
      <g>
        <line x1="287.1" y1="191.46" x2="271.34" y2="191.46" fill="none" stroke="#000"/>
        <polygon points="285.11 189.77 286.8 191.46 285.11 193.16 286.55 193.16 288.24 191.46 286.55 189.77 285.11 189.77"/>
      </g>
      <path d="M293.02,250.16h54.11c2.88,0,5.21,1.65,5.21,3.68v19.22c0,2.03-2.33,3.68-5.21,3.68h-54.11c-2.88,0-5.21-1.65-5.21-3.68v-19.22c0-2.03,2.33-3.68,5.21-3.68Z" fill="#fff" stroke="#999" stroke-miterlimit="10" stroke-width="3"/>
      <g isolation="isolate">
        <path d="M296.99,260.57c.29-.05.68-.09,1.17-.09.6,0,1.04.14,1.32.39.26.22.41.57.41.99s-.13.76-.36,1.01c-.32.34-.85.52-1.44.52-.18,0-.35,0-.49-.04v1.89h-.61v-4.66ZM297.6,262.85c.13.04.3.05.5.05.74,0,1.18-.36,1.18-1.01s-.44-.92-1.11-.92c-.27,0-.47.02-.57.05v1.83Z"/>
        <path d="M304.61,263.16c-.04-.66-.08-1.45-.07-2.04h-.02c-.16.55-.36,1.14-.6,1.79l-.83,2.29h-.46l-.76-2.25c-.22-.67-.41-1.27-.55-1.83h-.01c-.01.59-.05,1.38-.09,2.09l-.13,2.02h-.58l.33-4.72h.78l.81,2.28c.2.58.36,1.1.48,1.59h.02c.12-.48.29-.99.5-1.59l.84-2.28h.78l.29,4.72h-.59l-.12-2.07Z"/>
        <path d="M309.23,265.76v.35h-3.5v-.35h3.5Z"/>
        <path d="M313.06,265.08c-.22.11-.67.22-1.25.22-1.33,0-2.33-.84-2.33-2.39s1-2.48,2.47-2.48c.59,0,.96.13,1.12.21l-.15.5c-.23-.11-.56-.2-.95-.2-1.11,0-1.84.71-1.84,1.95,0,1.16.67,1.9,1.81,1.9.37,0,.75-.08.99-.2l.13.48Z"/>
        <path d="M314.61,263.75l-.49,1.48h-.63l1.6-4.72h.74l1.61,4.72h-.65l-.5-1.48h-1.67ZM316.16,263.27l-.46-1.36c-.11-.31-.18-.59-.25-.86h-.01c-.07.28-.15.57-.24.85l-.46,1.37h1.42Z"/>
        <path d="M318.13,260.51h.61v4.21h2.02v.51h-2.63v-4.72Z"/>
        <path d="M321.43,260.51h.61v4.21h2.02v.51h-2.63v-4.72Z"/>
        <path d="M327.71,265.76v.35h-3.5v-.35h3.5Z"/>
        <path d="M328.24,265.23v-4.72h.67l1.51,2.39c.35.55.62,1.05.85,1.53h.01c-.06-.64-.07-1.21-.07-1.95v-1.98h.57v4.72h-.62l-1.5-2.4c-.33-.53-.64-1.06-.88-1.58h-.02c.04.6.05,1.17.05,1.95v2.02h-.57Z"/>
        <path d="M336.88,262.82c0,1.62-.99,2.49-2.19,2.49s-2.12-.97-2.12-2.4c0-1.5.93-2.48,2.19-2.48s2.12.99,2.12,2.39ZM333.21,262.9c0,1.01.55,1.91,1.51,1.91s1.51-.89,1.51-1.96c0-.94-.49-1.92-1.51-1.92s-1.51.93-1.51,1.97Z"/>
        <path d="M337.66,260.58c.37-.06.81-.1,1.3-.1.88,0,1.5.2,1.91.59.42.38.67.93.67,1.69s-.24,1.4-.68,1.83c-.44.44-1.17.68-2.09.68-.43,0-.8-.02-1.11-.06v-4.64ZM338.27,264.75c.15.03.38.04.62.04,1.3,0,2.01-.73,2.01-2,0-1.11-.62-1.82-1.91-1.82-.32,0-.55.03-.71.06v3.73Z"/>
        <path d="M344.77,263.02h-1.83v1.7h2.04v.51h-2.65v-4.72h2.55v.51h-1.94v1.49h1.83v.5Z"/>
      </g>
      <path d="M263.52,208.8h67.18c3.57,0,6.47,1.65,6.47,3.68v19.22c0,2.03-2.89,3.68-6.47,3.68h-67.18c-3.57,0-6.47-1.65-6.47-3.68v-19.22c0-2.03,2.89-3.68,6.47-3.68Z" fill="#fff" stroke="#999" stroke-miterlimit="10" stroke-width="3"/>
      <g isolation="isolate">
        <path d="M261.92,219.21c.29-.05.68-.09,1.17-.09.6,0,1.04.14,1.32.39.26.22.41.57.41.99s-.13.76-.36,1.01c-.32.34-.85.52-1.44.52-.18,0-.35,0-.49-.04v1.89h-.61v-4.66ZM262.53,221.49c.13.04.3.05.5.05.74,0,1.18-.36,1.18-1.01s-.44-.92-1.11-.92c-.27,0-.47.02-.57.05v1.83Z"/>
        <path d="M269.54,221.8c-.04-.66-.08-1.45-.07-2.04h-.02c-.16.55-.36,1.14-.6,1.79l-.83,2.29h-.46l-.76-2.25c-.22-.67-.41-1.27-.55-1.83h-.01c-.01.59-.05,1.38-.09,2.09l-.13,2.02h-.58l.33-4.72h.78l.81,2.28c.2.58.36,1.1.48,1.59h.02c.12-.48.29-.99.5-1.59l.84-2.28h.78l.29,4.72h-.59l-.12-2.07Z"/>
        <path d="M274.16,224.4v.35h-3.5v-.35h3.5Z"/>
        <path d="M274.6,223.14c.27.17.67.31,1.09.31.62,0,.99-.33.99-.8,0-.44-.25-.69-.89-.94-.77-.27-1.25-.67-1.25-1.34,0-.74.61-1.28,1.53-1.28.48,0,.83.11,1.04.23l-.17.5c-.15-.08-.47-.22-.9-.22-.64,0-.89.38-.89.71,0,.44.29.66.94.91.8.31,1.21.69,1.21,1.39,0,.73-.54,1.36-1.65,1.36-.46,0-.95-.13-1.21-.3l.15-.51Z"/>
        <path d="M279.04,219.68h-1.44v-.52h3.49v.52h-1.44v4.2h-.62v-4.2Z"/>
        <path d="M281.86,222.39l-.49,1.48h-.63l1.6-4.72h.74l1.61,4.72h-.65l-.5-1.48h-1.67ZM283.4,221.92l-.46-1.36c-.1-.31-.17-.59-.25-.86h-.01c-.07.28-.15.57-.24.85l-.46,1.37h1.42Z"/>
        <path d="M285.73,219.68h-1.44v-.52h3.49v.52h-1.44v4.2h-.62v-4.2Z"/>
        <path d="M290.76,221.66h-1.83v1.7h2.04v.51h-2.65v-4.72h2.55v.51h-1.94v1.49h1.83v.5Z"/>
        <path d="M295.74,221.8c-.03-.66-.08-1.45-.07-2.04h-.02c-.16.55-.36,1.14-.59,1.79l-.83,2.29h-.46l-.76-2.25c-.22-.67-.41-1.27-.55-1.83h-.01c-.01.59-.05,1.38-.09,2.09l-.13,2.02h-.58l.33-4.72h.78l.81,2.28c.2.58.36,1.1.48,1.59h.02c.12-.48.29-.99.5-1.59l.84-2.28h.78l.29,4.72h-.6l-.12-2.07Z"/>
        <path d="M299.83,221.66h-1.83v1.7h2.04v.51h-2.65v-4.72h2.55v.51h-1.94v1.49h1.83v.5Z"/>
        <path d="M300.83,223.88v-4.72h.67l1.51,2.39c.35.55.62,1.05.85,1.53h.01c-.06-.64-.07-1.21-.07-1.95v-1.98h.57v4.72h-.62l-1.5-2.4c-.33-.53-.64-1.06-.88-1.58h-.02c.04.6.05,1.17.05,1.95v2.02h-.57Z"/>
        <path d="M306.34,219.68h-1.44v-.52h3.49v.52h-1.44v4.2h-.62v-4.2Z"/>
        <path d="M308.79,223.14c.27.17.67.31,1.09.31.62,0,.99-.33.99-.8,0-.44-.25-.69-.89-.94-.77-.27-1.25-.67-1.25-1.34,0-.74.61-1.28,1.53-1.28.48,0,.83.11,1.04.23l-.17.5c-.15-.08-.47-.22-.9-.22-.64,0-.89.38-.89.71,0,.44.29.66.94.91.8.31,1.21.69,1.21,1.39,0,.73-.54,1.36-1.65,1.36-.46,0-.95-.13-1.21-.3l.15-.51Z"/>
        <path d="M315.3,224.4v.35h-3.5v-.35h3.5Z"/>
        <path d="M315.83,223.88v-4.72h.67l1.51,2.39c.35.55.62,1.05.85,1.53h.01c-.06-.64-.07-1.21-.07-1.95v-1.98h.57v4.72h-.62l-1.5-2.4c-.33-.53-.64-1.06-.88-1.58h-.02c.04.6.05,1.17.05,1.95v2.02h-.57Z"/>
        <path d="M324.47,221.47c0,1.62-.99,2.49-2.19,2.49s-2.12-.97-2.12-2.4c0-1.5.93-2.48,2.19-2.48s2.12.99,2.12,2.39ZM320.8,221.55c0,1.01.55,1.91,1.51,1.91s1.51-.89,1.51-1.96c0-.94-.49-1.92-1.51-1.92s-1.51.93-1.51,1.97Z"/>
        <path d="M325.26,219.22c.37-.06.81-.1,1.3-.1.88,0,1.5.2,1.91.59.42.38.67.93.67,1.69s-.24,1.4-.68,1.83c-.44.44-1.17.68-2.09.68-.43,0-.8-.02-1.11-.06v-4.64ZM325.86,223.39c.15.03.38.04.62.04,1.3,0,2.01-.73,2.01-2,0-1.11-.62-1.82-1.91-1.82-.32,0-.55.03-.71.06v3.73Z"/>
        <path d="M332.36,221.66h-1.83v1.7h2.04v.51h-2.65v-4.72h2.55v.51h-1.94v1.49h1.83v.5Z"/>
      </g>
      <line x1="269.67" y1="236.88" x2="269.67" y2="262.57" fill="none" stroke="#000"/>
      <g>
        <line x1="284.93" y1="262.95" x2="269.17" y2="262.95" fill="none" stroke="#000"/>
        <polygon points="282.94 261.25 284.63 262.95 282.94 264.65 284.38 264.65 286.07 262.95 284.38 261.25 282.94 261.25"/>
      </g>
      <g>
        <path d="M361.9,263.17c0-.56-.02-1.01-.04-1.42h.71l.04.75h.02c.32-.53.84-.85,1.55-.85,1.05,0,1.84.89,1.84,2.21,0,1.57-.95,2.34-1.98,2.34-.58,0-1.08-.25-1.34-.68h-.02v2.37h-.78v-4.72ZM362.68,264.34c0,.12.02.23.04.32.14.55.62.93,1.19.93.84,0,1.32-.68,1.32-1.68,0-.87-.46-1.62-1.3-1.62-.54,0-1.04.39-1.2.98-.03.1-.05.22-.05.32v.75Z"/>
        <path d="M370.67,264.92c0,.45,0,.85.04,1.19h-.7l-.04-.71h-.02c-.21.35-.67.81-1.44.81-.68,0-1.5-.38-1.5-1.91v-2.55h.79v2.41c0,.83.25,1.39.97,1.39.53,0,.9-.37,1.04-.72.04-.12.07-.26.07-.41v-2.67h.79v3.17Z"/>
        <path d="M372.93,260.5v1.25h1.13v.6h-1.13v2.35c0,.54.15.85.59.85.21,0,.36-.03.46-.05l.04.59c-.15.06-.4.11-.7.11-.37,0-.67-.12-.85-.33-.23-.23-.31-.62-.31-1.13v-2.38h-.67v-.6h.67v-1.04l.77-.21Z"/>
        <path d="M374.85,265.3c.23.15.65.31,1.04.31.58,0,.85-.29.85-.65s-.23-.58-.81-.8c-.78-.28-1.15-.71-1.15-1.23,0-.7.57-1.28,1.5-1.28.44,0,.83.13,1.07.27l-.2.58c-.17-.11-.49-.25-.89-.25-.47,0-.73.27-.73.59,0,.36.26.52.83.74.76.29,1.14.67,1.14,1.31,0,.76-.59,1.3-1.63,1.3-.48,0-.92-.12-1.22-.3l.2-.6Z"/>
      </g>
      <g>
        <line x1="254.29" y1="221.81" x2="238.54" y2="221.81" fill="none" stroke="#000"/>
        <polygon points="252.3 220.12 254 221.81 252.3 223.51 253.74 223.51 255.44 221.81 253.74 220.12 252.3 220.12"/>
      </g>
      <line x1="238.54" y1="161.04" x2="238.54" y2="221.81" fill="none" stroke="#000"/>
      <path d="M371.19,159.45c0-.45,0-.82-.04-1.18h.7l.05.72h.02c.22-.41.72-.82,1.44-.82.6,0,1.54.36,1.54,1.86v2.6h-.79v-2.51c0-.7-.26-1.29-1.01-1.29-.52,0-.93.37-1.06.81-.04.1-.05.23-.05.37v2.62h-.79v-3.18Z"/>
      <g>
        <line x1="193.48" y1="77.35" x2="131.96" y2="77.35" fill="none" stroke="#000"/>
        <polygon points="191.49 75.66 193.18 77.35 191.49 79.05 192.93 79.05 194.62 77.35 192.93 75.66 191.49 75.66"/>
      </g>
      <path d="M325.02,291.92h69.26c3.68,0,6.67,1.65,6.67,3.68v19.22c0,2.03-2.98,3.68-6.67,3.68h-69.26c-3.68,0-6.67-1.65-6.67-3.68v-19.22c0-2.03,2.98-3.68,6.67-3.68Z" fill="#fff" stroke="#999" stroke-miterlimit="10" stroke-width="3"/>
      <g isolation="isolate">
        <path d="M325.44,302.34c.29-.05.68-.09,1.17-.09.6,0,1.04.14,1.32.39.26.22.41.57.41.99s-.13.76-.36,1.01c-.32.34-.85.52-1.44.52-.18,0-.35,0-.49-.04v1.89h-.61v-4.66ZM326.05,304.61c.13.04.3.05.5.05.74,0,1.18-.36,1.18-1.01s-.44-.92-1.11-.92c-.27,0-.47.02-.57.05v1.83Z"/>
        <path d="M333.06,304.93c-.04-.66-.08-1.45-.07-2.04h-.02c-.16.55-.36,1.14-.6,1.79l-.83,2.29h-.46l-.76-2.25c-.22-.67-.41-1.27-.55-1.83h-.01c-.01.59-.05,1.38-.09,2.09l-.13,2.02h-.58l.33-4.72h.78l.81,2.28c.2.58.36,1.1.48,1.59h.02c.12-.48.29-.99.5-1.59l.84-2.28h.78l.29,4.72h-.59l-.12-2.07Z"/>
        <path d="M337.68,307.53v.35h-3.5v-.35h3.5Z"/>
        <path d="M338.97,305.52l-.49,1.48h-.63l1.6-4.72h.74l1.61,4.72h-.65l-.5-1.48h-1.67ZM340.52,305.04l-.46-1.36c-.11-.31-.18-.59-.25-.86h-.01c-.07.28-.15.57-.24.85l-.46,1.37h1.42Z"/>
        <path d="M342.49,302.35c.31-.06.75-.1,1.17-.1.65,0,1.07.12,1.37.39.24.21.37.53.37.9,0,.62-.39,1.04-.89,1.2v.02c.36.13.58.46.69.95.15.66.27,1.11.36,1.3h-.63c-.08-.13-.18-.54-.32-1.13-.14-.65-.39-.9-.95-.92h-.57v2.04h-.61v-4.66ZM343.1,304.5h.62c.65,0,1.06-.36,1.06-.9,0-.61-.44-.88-1.08-.88-.29,0-.5.03-.6.06v1.72Z"/>
        <path d="M349.87,306.79c-.27.1-.81.26-1.45.26-.71,0-1.3-.18-1.76-.62-.41-.39-.66-1.02-.66-1.76,0-1.41.97-2.44,2.56-2.44.55,0,.97.12,1.18.22l-.15.5c-.25-.11-.57-.2-1.04-.2-1.15,0-1.9.71-1.9,1.9s.72,1.91,1.82,1.91c.4,0,.67-.06.81-.13v-1.41h-.96v-.49h1.55v2.27Z"/>
        <path d="M351.41,302.28v2.79c0,1.06.47,1.51,1.1,1.51.7,0,1.15-.46,1.15-1.51v-2.79h.62v2.75c0,1.45-.76,2.04-1.79,2.04-.97,0-1.7-.55-1.7-2.02v-2.78h.62Z"/>
        <path d="M359.31,304.93c-.03-.66-.08-1.45-.07-2.04h-.02c-.16.55-.36,1.14-.59,1.79l-.83,2.29h-.46l-.76-2.25c-.22-.67-.41-1.27-.55-1.83h-.01c-.01.59-.05,1.38-.09,2.09l-.13,2.02h-.58l.33-4.72h.78l.81,2.28c.2.58.36,1.1.48,1.59h.02c.12-.48.29-.99.5-1.59l.84-2.28h.78l.29,4.72h-.6l-.12-2.07Z"/>
        <path d="M363.4,304.79h-1.83v1.7h2.04v.51h-2.65v-4.72h2.55v.51h-1.94v1.49h1.83v.5Z"/>
        <path d="M364.4,307v-4.72h.67l1.51,2.39c.35.55.62,1.05.85,1.53h.01c-.06-.64-.07-1.21-.07-1.95v-1.98h.57v4.72h-.62l-1.5-2.4c-.33-.53-.64-1.06-.88-1.58h-.02c.04.6.05,1.17.05,1.95v2.02h-.57Z"/>
        <path d="M369.91,302.8h-1.44v-.52h3.49v.52h-1.44v4.2h-.62v-4.2Z"/>
        <path d="M372.36,306.26c.27.17.67.31,1.09.31.62,0,.99-.33.99-.8,0-.44-.25-.69-.89-.94-.77-.27-1.25-.67-1.25-1.34,0-.74.61-1.28,1.53-1.28.48,0,.83.11,1.04.23l-.17.5c-.15-.08-.47-.22-.9-.22-.64,0-.89.38-.89.71,0,.44.29.66.94.91.8.31,1.21.69,1.21,1.39,0,.73-.54,1.36-1.65,1.36-.46,0-.95-.13-1.21-.3l.15-.51Z"/>
        <path d="M378.87,307.53v.35h-3.5v-.35h3.5Z"/>
        <path d="M379.4,307v-4.72h.67l1.51,2.39c.35.55.62,1.05.85,1.53h.01c-.06-.64-.07-1.21-.07-1.95v-1.98h.57v4.72h-.62l-1.5-2.4c-.33-.53-.64-1.06-.88-1.58h-.02c.04.6.05,1.17.05,1.95v2.02h-.57Z"/>
        <path d="M388.04,304.59c0,1.62-.99,2.49-2.19,2.49s-2.12-.97-2.12-2.4c0-1.5.93-2.48,2.19-2.48s2.12.99,2.12,2.39ZM384.38,304.67c0,1.01.55,1.91,1.51,1.91s1.51-.89,1.51-1.96c0-.94-.49-1.92-1.51-1.92s-1.51.93-1.51,1.97Z"/>
        <path d="M388.83,302.35c.37-.06.81-.1,1.3-.1.88,0,1.5.2,1.91.59.42.38.67.93.67,1.69s-.24,1.4-.68,1.83c-.44.44-1.17.68-2.09.68-.43,0-.8-.02-1.11-.06v-4.64ZM389.44,306.52c.15.03.38.04.62.04,1.3,0,2.01-.73,2.01-2,0-1.11-.62-1.82-1.91-1.82-.32,0-.55.03-.71.06v3.73Z"/>
        <path d="M395.93,304.79h-1.83v1.7h2.04v.51h-2.65v-4.72h2.55v.51h-1.94v1.49h1.83v.5Z"/>
      </g>
      <line x1="300.21" y1="278.65" x2="300.21" y2="304.34" fill="none" stroke="#000"/>
      <g>
        <line x1="315.48" y1="304.72" x2="299.72" y2="304.72" fill="none" stroke="#000"/>
        <polygon points="313.48 303.02 315.18 304.72 313.48 306.41 314.92 306.41 316.62 304.72 314.92 303.02 313.48 303.02"/>
      </g>
      <path d="M360.26,333.62h96.24c5.12,0,9.26,1.65,9.26,3.68v19.22c0,2.03-4.15,3.68-9.26,3.68h-96.24c-5.12,0-9.26-1.65-9.26-3.68v-19.22c0-2.03,4.15-3.68,9.26-3.68Z" fill="#fff" stroke="#999" stroke-miterlimit="10" stroke-width="3"/>
      <g isolation="isolate">
        <path d="M356.59,344.04c.29-.05.68-.09,1.17-.09.6,0,1.04.14,1.32.39.26.22.41.57.41.99s-.13.76-.36,1.01c-.32.34-.85.52-1.44.52-.18,0-.35,0-.49-.04v1.89h-.61v-4.66ZM357.2,346.31c.13.04.3.05.5.05.74,0,1.18-.36,1.18-1.01s-.44-.92-1.11-.92c-.27,0-.47.02-.57.05v1.83Z"/>
        <path d="M364.21,346.63c-.04-.66-.08-1.45-.07-2.04h-.02c-.16.55-.36,1.14-.59,1.79l-.83,2.29h-.46l-.76-2.25c-.22-.67-.41-1.27-.55-1.83h-.01c-.01.59-.05,1.38-.09,2.09l-.13,2.02h-.58l.33-4.72h.78l.81,2.28c.2.58.36,1.1.48,1.59h.02c.12-.48.29-.99.5-1.59l.84-2.28h.78l.29,4.72h-.59l-.12-2.07Z"/>
        <path d="M368.83,349.23v.35h-3.5v-.35h3.5Z"/>
        <path d="M369.36,343.98h.61v4.21h2.02v.51h-2.63v-4.72Z"/>
        <path d="M376.42,346.29c0,1.62-.99,2.49-2.19,2.49s-2.12-.97-2.12-2.4c0-1.5.93-2.48,2.19-2.48s2.12.99,2.12,2.39ZM372.76,346.37c0,1.01.55,1.91,1.51,1.91s1.51-.89,1.51-1.96c0-.94-.49-1.92-1.51-1.92s-1.51.93-1.51,1.97Z"/>
        <path d="M380.51,348.55c-.22.11-.67.22-1.25.22-1.33,0-2.33-.84-2.33-2.39s1-2.48,2.47-2.48c.59,0,.96.13,1.12.21l-.15.5c-.23-.11-.56-.2-.95-.2-1.11,0-1.84.71-1.84,1.95,0,1.16.67,1.9,1.81,1.9.37,0,.75-.08.99-.2l.13.48Z"/>
        <path d="M382.06,347.22l-.49,1.48h-.63l1.6-4.72h.74l1.61,4.72h-.65l-.5-1.48h-1.67ZM383.61,346.74l-.46-1.36c-.1-.31-.17-.59-.25-.86h-.01c-.07.28-.15.57-.24.85l-.46,1.37h1.42Z"/>
        <path d="M385.58,343.98h.61v4.21h2.02v.51h-2.63v-4.72Z"/>
        <path d="M391.86,349.23v.35h-3.5v-.35h3.5Z"/>
        <path d="M393.43,348.7l-1.54-4.72h.66l.73,2.33c.2.64.38,1.21.5,1.77h.01c.13-.55.33-1.14.54-1.76l.8-2.33h.65l-1.69,4.72h-.67Z"/>
        <path d="M396.66,347.22l-.49,1.48h-.63l1.6-4.72h.74l1.61,4.72h-.65l-.5-1.48h-1.67ZM398.21,346.74l-.46-1.36c-.11-.31-.18-.59-.25-.86h-.01c-.07.28-.15.57-.24.85l-.46,1.37h1.42Z"/>
        <path d="M400.18,344.04c.31-.06.75-.1,1.17-.1.65,0,1.07.12,1.37.39.24.21.37.53.37.9,0,.62-.39,1.04-.89,1.2v.02c.36.13.58.46.69.95.15.66.27,1.11.36,1.3h-.63c-.08-.13-.18-.54-.31-1.13-.14-.65-.39-.9-.95-.92h-.57v2.04h-.61v-4.66ZM400.79,346.19h.62c.65,0,1.06-.36,1.06-.9,0-.61-.44-.88-1.09-.88-.29,0-.5.03-.6.06v1.72Z"/>
        <path d="M404.56,343.98v4.72h-.61v-4.72h.61Z"/>
        <path d="M406.38,347.22l-.49,1.48h-.63l1.6-4.72h.73l1.61,4.72h-.65l-.5-1.48h-1.67ZM407.93,346.74l-.46-1.36c-.1-.31-.17-.59-.24-.86h-.01c-.07.28-.15.57-.24.85l-.46,1.37h1.42Z"/>
        <path d="M409.9,344.04c.27-.06.69-.1,1.11-.1.61,0,1,.11,1.29.34.25.18.39.46.39.83,0,.46-.3.85-.8,1.04h0c.45.13.97.5.97,1.2,0,.41-.16.71-.4.95-.33.3-.86.44-1.63.44-.42,0-.74-.03-.95-.06v-4.64ZM410.51,345.98h.55c.64,0,1.02-.34,1.02-.79,0-.55-.42-.77-1.04-.77-.28,0-.44.02-.54.04v1.52ZM410.51,348.24c.12.02.29.03.51.03.63,0,1.21-.23,1.21-.92,0-.64-.55-.91-1.22-.91h-.5v1.8Z"/>
        <path d="M413.7,343.98h.61v4.21h2.02v.51h-2.63v-4.72Z"/>
        <path d="M419.44,346.49h-1.83v1.7h2.04v.51h-2.65v-4.72h2.55v.51h-1.94v1.49h1.83v.5Z"/>
        <path d="M423.41,349.23v.35h-3.5v-.35h3.5Z"/>
        <path d="M423.94,344.04c.31-.06.75-.1,1.17-.1.65,0,1.07.12,1.37.39.24.21.37.53.37.9,0,.62-.39,1.04-.89,1.2v.02c.36.13.58.46.69.95.15.66.27,1.11.36,1.3h-.63c-.08-.13-.18-.54-.32-1.13-.14-.65-.39-.9-.95-.92h-.57v2.04h-.61v-4.66ZM424.55,346.19h.62c.65,0,1.06-.36,1.06-.9,0-.61-.44-.88-1.08-.88-.29,0-.5.03-.6.06v1.72Z"/>
        <path d="M430.15,346.49h-1.83v1.7h2.04v.51h-2.65v-4.72h2.55v.51h-1.94v1.49h1.83v.5Z"/>
        <path d="M431.92,347.22l-.49,1.48h-.63l1.6-4.72h.74l1.61,4.72h-.65l-.5-1.48h-1.67ZM433.47,346.74l-.46-1.36c-.1-.31-.17-.59-.25-.86h-.01c-.07.28-.15.57-.24.85l-.46,1.37h1.42Z"/>
        <path d="M435.44,344.04c.37-.06.81-.1,1.3-.1.88,0,1.5.2,1.91.59.42.38.67.93.67,1.69s-.24,1.4-.68,1.83c-.44.44-1.17.68-2.09.68-.43,0-.8-.02-1.11-.06v-4.64ZM436.05,348.22c.15.03.38.04.62.04,1.3,0,2.01-.73,2.01-2,0-1.11-.62-1.82-1.91-1.82-.32,0-.55.03-.71.06v3.73Z"/>
        <path d="M443.07,349.23v.35h-3.5v-.35h3.5Z"/>
        <path d="M443.6,348.7v-4.72h.67l1.51,2.39c.35.55.62,1.05.85,1.53h.01c-.05-.64-.07-1.21-.07-1.95v-1.98h.57v4.72h-.62l-1.5-2.4c-.33-.53-.64-1.06-.88-1.58h-.02c.04.6.05,1.17.05,1.95v2.02h-.57Z"/>
        <path d="M452.24,346.29c0,1.62-.99,2.49-2.19,2.49s-2.12-.97-2.12-2.4c0-1.5.93-2.48,2.19-2.48s2.12.99,2.12,2.39ZM448.58,346.37c0,1.01.55,1.91,1.51,1.91s1.51-.89,1.51-1.96c0-.94-.49-1.92-1.51-1.92s-1.51.93-1.51,1.97Z"/>
        <path d="M453.03,344.04c.37-.06.81-.1,1.3-.1.88,0,1.5.2,1.91.59.42.38.67.93.67,1.69s-.24,1.4-.68,1.83c-.44.44-1.17.68-2.09.68-.43,0-.8-.02-1.11-.06v-4.64ZM453.64,348.22c.15.03.38.04.62.04,1.3,0,2.01-.73,2.01-2,0-1.11-.62-1.82-1.91-1.82-.31,0-.55.03-.71.06v3.73Z"/>
        <path d="M460.14,346.49h-1.83v1.7h2.04v.51h-2.65v-4.72h2.55v.51h-1.94v1.49h1.83v.5Z"/>
      </g>
      <line x1="332.85" y1="320.35" x2="332.85" y2="346.03" fill="none" stroke="#000"/>
      <g>
        <line x1="348.12" y1="346.42" x2="332.36" y2="346.42" fill="none" stroke="#000"/>
        <polygon points="346.12 344.72 347.82 346.42 346.12 348.11 347.56 348.11 349.26 346.42 347.56 344.72 346.12 344.72"/>
      </g>
      <path d="M475.18,346.4c0-.45,0-.82-.04-1.18h.7l.05.72h.02c.22-.41.72-.82,1.44-.82.6,0,1.54.36,1.54,1.85v2.6h-.79v-2.51c0-.7-.26-1.29-1.01-1.29-.52,0-.93.37-1.06.81-.04.1-.05.23-.05.37v2.62h-.79v-3.18Z"/>
      <g>
        <path d="M280.69,81.26l-.06-.55h-.03c-.24.34-.71.65-1.33.65-.88,0-1.33-.62-1.33-1.25,0-1.05.94-1.63,2.62-1.62v-.09c0-.36-.1-1.01-.99-1.01-.41,0-.83.13-1.13.32l-.18-.52c.36-.23.88-.39,1.43-.39,1.33,0,1.66.91,1.66,1.78v1.63c0,.38.02.75.07,1.04h-.72ZM280.58,79.04c-.86-.02-1.85.13-1.85.98,0,.51.34.76.75.76.57,0,.93-.36,1.05-.73.03-.08.04-.17.04-.25v-.76Z"/>
        <path d="M282.62,78.26c0-.51,0-.95-.04-1.36h.69l.03.86h.04c.2-.59.67-.95,1.21-.95.09,0,.15,0,.23.03v.75c-.08-.02-.16-.03-.27-.03-.56,0-.95.42-1.06,1.02-.02.11-.04.23-.04.37v2.32h-.78v-3Z"/>
        <path d="M289.24,76.9c-.02.32-.04.67-.04,1.2v2.53c0,1-.2,1.61-.62,1.99-.42.4-1.04.52-1.58.52s-1.1-.13-1.45-.36l.2-.6c.29.18.74.34,1.28.34.81,0,1.4-.42,1.4-1.52v-.49h-.02c-.24.4-.71.73-1.39.73-1.08,0-1.85-.92-1.85-2.12,0-1.48.96-2.31,1.96-2.31.76,0,1.17.4,1.36.76h.02l.04-.66h.69ZM288.42,78.62c0-.14,0-.25-.05-.36-.14-.46-.53-.84-1.11-.84-.76,0-1.3.64-1.3,1.65,0,.85.43,1.57,1.29,1.57.49,0,.93-.31,1.1-.81.04-.13.06-.29.06-.42v-.78Z"/>
        <path d="M293.63,81.1c-.21.11-.67.25-1.25.25-1.31,0-2.17-.89-2.17-2.22s.92-2.31,2.34-2.31c.47,0,.88.12,1.1.23l-.18.61c-.19-.11-.49-.21-.92-.21-1,0-1.54.74-1.54,1.65,0,1.01.65,1.63,1.51,1.63.45,0,.75-.12.97-.22l.13.59Z"/>
        <path d="M294.36,77.62c0-.33.23-.57.54-.57s.52.23.53.57c0,.32-.21.56-.54.56-.32,0-.53-.24-.53-.56ZM294.36,80.8c0-.33.23-.57.54-.57s.52.23.53.57c0,.31-.21.56-.54.56-.32,0-.53-.24-.53-.56Z"/>
        <path d="M299.97,76.15h-.02l-1.02.55-.15-.6,1.28-.68h.67v5.85h-.76v-5.11Z"/>
        <path d="M302.61,82.37c.2-.53.44-1.49.54-2.15l.88-.09c-.21.77-.6,1.76-.86,2.19l-.57.05Z"/>
        <path d="M307.07,74.87h.79v6.39h-.79v-6.39Z"/>
        <path d="M313.14,79.04c0,1.61-1.12,2.31-2.17,2.31-1.18,0-2.09-.86-2.09-2.24,0-1.46.95-2.31,2.16-2.31s2.1.91,2.1,2.24ZM309.68,79.09c0,.95.55,1.67,1.32,1.67s1.32-.71,1.32-1.69c0-.74-.37-1.67-1.3-1.67s-1.34.86-1.34,1.69Z"/>
        <path d="M317.24,81.1c-.21.11-.67.25-1.25.25-1.31,0-2.17-.89-2.17-2.22s.92-2.31,2.34-2.31c.47,0,.88.12,1.1.23l-.18.61c-.19-.11-.49-.21-.92-.21-1,0-1.54.74-1.54,1.65,0,1.01.65,1.63,1.51,1.63.45,0,.75-.12.97-.22l.13.59Z"/>
        <path d="M320.58,81.26l-.06-.55h-.03c-.24.34-.71.65-1.33.65-.88,0-1.33-.62-1.33-1.25,0-1.05.94-1.63,2.62-1.62v-.09c0-.36-.1-1.01-.99-1.01-.41,0-.83.13-1.13.32l-.18-.52c.36-.23.88-.39,1.43-.39,1.33,0,1.66.91,1.66,1.78v1.63c0,.38.02.75.07,1.04h-.72ZM320.46,79.04c-.86-.02-1.85.13-1.85.98,0,.51.34.76.75.76.57,0,.93-.36,1.05-.73.03-.08.05-.17.05-.25v-.76Z"/>
        <path d="M322.51,74.87h.79v6.39h-.79v-6.39Z"/>
        <path d="M324.52,80.45c.23.15.65.31,1.04.31.58,0,.85-.29.85-.65s-.22-.58-.81-.8c-.78-.28-1.15-.71-1.15-1.23,0-.7.57-1.28,1.5-1.28.44,0,.83.13,1.07.27l-.2.58c-.17-.11-.49-.25-.89-.25-.47,0-.73.27-.73.59,0,.36.26.52.83.74.76.29,1.14.67,1.14,1.31,0,.77-.59,1.31-1.63,1.31-.48,0-.92-.12-1.22-.3l.2-.6Z"/>
        <path d="M328,77.62c0-.33.22-.57.54-.57s.52.23.53.57c0,.32-.21.56-.54.56-.32,0-.53-.24-.53-.56ZM328,80.8c0-.33.22-.57.54-.57s.52.23.53.57c0,.31-.21.56-.54.56-.32,0-.53-.24-.53-.56Z"/>
        <path d="M332.04,82.27v-7.18h1.65v.5h-1.04v6.19h1.04v.5h-1.65Z"/>
        <path d="M334.52,78.08c0-.45,0-.82-.04-1.18h.7l.04.72h.02c.22-.41.72-.82,1.44-.82.6,0,1.54.36,1.54,1.85v2.6h-.79v-2.51c0-.7-.26-1.29-1.01-1.29-.52,0-.93.37-1.06.81-.04.1-.05.23-.05.37v2.62h-.79v-3.18Z"/>
        <path d="M340.68,75.08v7.18h-1.65v-.5h1.04v-6.19h-1.04v-.5h1.65Z"/>
      </g>
    </g>
  </g>
</svg>