<?xml version="1.0" encoding="UTF-8"?>
<svg id="Layer_2" data-name="Layer 2" xmlns="http://www.w3.org/2000/svg" width="364.98" height="206.67" viewBox="0 0 364.98 206.67">
  <g id="Layer_1_copy" data-name="Layer 1 copy">
    <rect width="188.87" height="176.67" fill="#e6e6e6"/>
    <g isolation="isolate">
      <path d="M6.84,10.32h-.02l-1.07.58-.16-.64,1.35-.72h.71v6.18h-.81v-5.4Z"/>
      <path d="M14,12.56c0,2.1-.78,3.26-2.15,3.26-1.21,0-2.02-1.13-2.04-3.17,0-2.07.89-3.21,2.15-3.21s2.04,1.16,2.04,3.13ZM10.65,12.66c0,1.61.49,2.52,1.25,2.52.86,0,1.26-1,1.26-2.58s-.39-2.52-1.25-2.52c-.73,0-1.26.89-1.26,2.58Z"/>
      <path d="M14.83,15.23c0-.35.24-.6.57-.6s.56.25.56.6-.22.6-.57.6c-.33,0-.56-.26-.56-.6Z"/>
      <path d="M18.01,9.8v1.32h1.2v.64h-1.2v2.48c0,.57.16.89.63.89.22,0,.38-.03.48-.06l.04.63c-.16.07-.42.11-.74.11-.39,0-.7-.12-.9-.35-.24-.25-.32-.66-.32-1.2v-2.51h-.71v-.64h.71v-1.1l.82-.22Z"/>
      <path d="M21.08,9.83c0,.29-.2.51-.53.51-.29,0-.5-.23-.5-.51s.22-.52.52-.52.51.23.51.52ZM20.14,15.72v-4.6h.84v4.6h-.84Z"/>
      <path d="M22.37,12.36c0-.48,0-.87-.04-1.25h.73l.04.74h.03c.26-.44.68-.85,1.44-.85.63,0,1.1.38,1.3.92h.02c.14-.26.32-.46.51-.6.28-.21.58-.32,1.02-.32.61,0,1.51.4,1.51,2v2.71h-.82v-2.6c0-.88-.32-1.42-1-1.42-.48,0-.85.35-.99.76-.04.11-.07.27-.07.42v2.84h-.82v-2.76c0-.73-.32-1.26-.96-1.26-.52,0-.9.42-1.04.84-.05.12-.07.27-.07.41v2.78h-.82v-3.36Z"/>
      <path d="M30.76,13.57c.02,1.13.74,1.6,1.58,1.6.6,0,.96-.1,1.27-.24l.14.6c-.29.13-.8.29-1.53.29-1.42,0-2.26-.93-2.26-2.32s.82-2.48,2.16-2.48c1.5,0,1.9,1.32,1.9,2.17,0,.17-.02.3-.03.39h-3.23ZM33.21,12.97c0-.53-.22-1.36-1.16-1.36-.85,0-1.22.78-1.28,1.36h2.44Z"/>
      <path d="M34.94,14.86c.25.16.68.33,1.1.33.61,0,.89-.3.89-.68s-.24-.62-.86-.85c-.83-.29-1.22-.75-1.22-1.3,0-.74.6-1.35,1.59-1.35.47,0,.87.13,1.13.29l-.21.61c-.18-.11-.51-.27-.94-.27-.49,0-.77.29-.77.63,0,.38.28.55.87.78.8.3,1.21.7,1.21,1.39,0,.81-.63,1.38-1.72,1.38-.5,0-.97-.12-1.29-.31l.21-.64Z"/>
      <path d="M44.8,8.97v5.56c0,.41,0,.88.04,1.19h-.75l-.04-.8h-.02c-.26.51-.82.9-1.57.9-1.11,0-1.97-.94-1.97-2.34,0-1.53.94-2.47,2.06-2.47.7,0,1.18.33,1.39.7h.02v-2.75h.84ZM43.96,12.99c0-.1,0-.25-.04-.35-.12-.53-.58-.97-1.21-.97-.86,0-1.38.76-1.38,1.78,0,.93.46,1.7,1.36,1.7.56,0,1.07-.37,1.23-1,.03-.11.04-.23.04-.36v-.8Z"/>
      <path d="M50.35,13.38c0,1.7-1.18,2.44-2.29,2.44-1.25,0-2.21-.91-2.21-2.37,0-1.54,1.01-2.44,2.28-2.44s2.22.96,2.22,2.37ZM46.7,13.43c0,1.01.58,1.77,1.4,1.77s1.4-.75,1.4-1.79c0-.78-.39-1.77-1.38-1.77s-1.42.91-1.42,1.79Z"/>
      <path d="M54.17,8.59v9.51h-.64v-9.51h.64Z"/>
      <path d="M55.68,12.36c0-.48,0-.87-.04-1.25h.74l.05.76h.02c.23-.44.76-.87,1.52-.87.64,0,1.63.38,1.63,1.96v2.75h-.84v-2.65c0-.74-.28-1.36-1.06-1.36-.55,0-.98.39-1.12.86-.04.1-.06.25-.06.39v2.77h-.84v-3.36Z"/>
      <path d="M61.72,8.59v9.51h-.64v-9.51h.64Z"/>
      <path d="M9.32,24.12c0-.59-.02-1.06-.04-1.5h.75l.04.79h.02c.34-.56.88-.89,1.64-.89,1.11,0,1.95.94,1.95,2.34,0,1.65-1.01,2.47-2.09,2.47-.61,0-1.14-.27-1.42-.72h-.02v2.5h-.83v-4.98ZM10.14,25.35c0,.12.02.24.04.34.15.58.66.98,1.25.98.88,0,1.4-.72,1.4-1.78,0-.92-.48-1.71-1.37-1.71-.57,0-1.1.41-1.26,1.04-.03.1-.06.23-.06.34v.79Z"/>
      <path d="M18.57,25.97c0,.48,0,.89.04,1.25h-.74l-.05-.75h-.02c-.22.37-.7.86-1.52.86-.72,0-1.59-.4-1.59-2.02v-2.69h.84v2.55c0,.87.27,1.46,1.03,1.46.56,0,.95-.39,1.1-.76.05-.12.08-.28.08-.43v-2.82h.84v3.35Z"/>
      <path d="M20.96,21.3v1.32h1.2v.64h-1.2v2.48c0,.57.16.89.63.89.22,0,.38-.03.48-.06l.04.63c-.16.07-.42.11-.74.11-.39,0-.7-.12-.9-.35-.24-.25-.32-.66-.32-1.2v-2.51h-.71v-.64h.71v-1.1l.82-.22Z"/>
      <path d="M22.99,26.36c.25.16.68.33,1.1.33.61,0,.89-.3.89-.68s-.24-.62-.86-.85c-.83-.29-1.22-.75-1.22-1.3,0-.74.6-1.35,1.59-1.35.47,0,.87.13,1.13.29l-.21.61c-.18-.11-.51-.27-.94-.27-.49,0-.77.29-.77.63,0,.38.28.55.87.78.8.3,1.21.7,1.21,1.39,0,.81-.63,1.38-1.72,1.38-.5,0-.97-.12-1.29-.31l.21-.64Z"/>
      <path d="M28.88,23.86c0-.48,0-.87-.04-1.25h.74l.05.76h.02c.23-.44.76-.87,1.52-.87.64,0,1.63.38,1.63,1.96v2.75h-.84v-2.65c0-.74-.28-1.36-1.06-1.36-.55,0-.98.39-1.12.86-.04.1-.06.25-.06.39v2.77h-.84v-3.36Z"/>
      <path d="M5.75,36.57c.02,1.13.74,1.6,1.58,1.6.6,0,.96-.1,1.27-.24l.14.6c-.29.13-.8.29-1.53.29-1.42,0-2.26-.93-2.26-2.32s.82-2.48,2.16-2.48c1.5,0,1.9,1.32,1.9,2.17,0,.17-.02.3-.03.39h-3.23ZM8.21,35.97c0-.53-.22-1.36-1.16-1.36-.85,0-1.22.78-1.28,1.36h2.44Z"/>
      <path d="M10.05,35.36c0-.48,0-.87-.04-1.25h.74l.05.76h.02c.23-.44.76-.87,1.52-.87.64,0,1.63.38,1.63,1.96v2.75h-.84v-2.65c0-.74-.28-1.36-1.06-1.36-.55,0-.98.39-1.12.86-.04.1-.06.25-.06.39v2.77h-.84v-3.36Z"/>
      <path d="M19.29,31.97v5.56c0,.41,0,.88.04,1.19h-.75l-.04-.8h-.02c-.26.51-.82.9-1.57.9-1.11,0-1.97-.94-1.97-2.34,0-1.53.94-2.47,2.06-2.47.7,0,1.18.33,1.39.7h.02v-2.75h.84ZM18.46,35.99c0-.1,0-.25-.04-.35-.12-.53-.58-.97-1.21-.97-.86,0-1.38.76-1.38,1.78,0,.93.46,1.7,1.36,1.7.56,0,1.07-.37,1.23-1,.03-.11.04-.23.04-.36v-.8Z"/>
    </g>
    <path d="M100.02,134.5h54.11c2.88,0,5.21,1.65,5.21,3.68v19.22c0,2.03-2.33,3.68-5.21,3.68h-54.11c-2.88,0-5.21-1.65-5.21-3.68v-19.22c0-2.03,2.33-3.68,5.21-3.68Z" fill="#fff" stroke="#999" stroke-miterlimit="10" stroke-width="3"/>
    <g isolation="isolate">
      <path d="M99.02,144.92c.29-.05.68-.09,1.17-.09.6,0,1.04.14,1.32.39.26.22.41.57.41.99s-.13.76-.36,1.01c-.32.34-.85.52-1.44.52-.18,0-.35,0-.49-.04v1.89h-.61v-4.66ZM99.63,147.19c.13.04.3.05.5.05.74,0,1.18-.36,1.18-1.01s-.44-.92-1.11-.92c-.27,0-.47.02-.57.05v1.83Z"/>
      <path d="M106.64,147.51c-.03-.66-.08-1.45-.07-2.04h-.02c-.16.55-.36,1.14-.6,1.79l-.83,2.29h-.46l-.76-2.25c-.22-.67-.41-1.27-.55-1.83h-.01c-.01.59-.05,1.38-.09,2.09l-.13,2.02h-.58l.33-4.72h.78l.81,2.28c.2.58.36,1.1.48,1.59h.02c.12-.48.29-.99.5-1.59l.84-2.28h.78l.29,4.72h-.6l-.12-2.07Z"/>
      <path d="M111.25,150.11v.35h-3.5v-.35h3.5Z"/>
      <path d="M112.39,144.86v4.72h-.61v-4.72h.61Z"/>
      <path d="M113.46,149.58v-4.72h.67l1.51,2.39c.35.55.62,1.05.85,1.53h.01c-.06-.64-.07-1.21-.07-1.95v-1.98h.57v4.72h-.62l-1.5-2.4c-.33-.53-.64-1.06-.88-1.58h-.02c.04.6.05,1.17.05,1.95v2.02h-.57Z"/>
      <path d="M118.96,145.38h-1.44v-.52h3.49v.52h-1.44v4.2h-.62v-4.2Z"/>
      <path d="M123.99,147.37h-1.83v1.7h2.04v.51h-2.65v-4.72h2.55v.51h-1.94v1.49h1.83v.5Z"/>
      <path d="M128.58,149.37c-.27.1-.81.26-1.45.26-.71,0-1.3-.18-1.76-.62-.41-.39-.66-1.02-.66-1.76,0-1.41.97-2.44,2.56-2.44.55,0,.97.12,1.18.22l-.15.5c-.25-.11-.57-.2-1.04-.2-1.15,0-1.9.71-1.9,1.9s.72,1.91,1.82,1.91c.4,0,.67-.06.81-.13v-1.41h-.96v-.49h1.55v2.27Z"/>
      <path d="M131.95,147.37h-1.83v1.7h2.04v.51h-2.65v-4.72h2.55v.51h-1.94v1.49h1.83v.5Z"/>
      <path d="M132.95,144.93c.31-.06.75-.1,1.17-.1.65,0,1.07.12,1.37.39.24.21.37.53.37.9,0,.62-.39,1.04-.89,1.2v.02c.36.13.58.46.69.95.15.66.27,1.11.36,1.3h-.63c-.08-.13-.18-.54-.31-1.13-.14-.65-.39-.9-.95-.92h-.57v2.04h-.61v-4.66ZM133.56,147.07h.62c.65,0,1.06-.36,1.06-.9,0-.61-.44-.88-1.09-.88-.29,0-.5.03-.6.06v1.72Z"/>
      <path d="M139.69,150.11v.35h-3.5v-.35h3.5Z"/>
      <path d="M140.22,149.58v-4.72h.67l1.51,2.39c.35.55.62,1.05.85,1.53h.01c-.06-.64-.07-1.21-.07-1.95v-1.98h.57v4.72h-.62l-1.5-2.4c-.33-.53-.64-1.06-.88-1.58h-.02c.04.6.05,1.17.05,1.95v2.02h-.57Z"/>
      <path d="M148.86,147.17c0,1.62-.99,2.49-2.19,2.49s-2.12-.97-2.12-2.4c0-1.5.93-2.48,2.19-2.48s2.12.99,2.12,2.39ZM145.2,147.25c0,1.01.55,1.91,1.51,1.91s1.51-.89,1.51-1.96c0-.94-.49-1.92-1.51-1.92s-1.51.93-1.51,1.97Z"/>
      <path d="M149.65,144.93c.37-.06.81-.1,1.3-.1.88,0,1.5.2,1.91.59.42.38.67.93.67,1.69s-.24,1.4-.68,1.83c-.44.44-1.17.68-2.09.68-.43,0-.8-.02-1.11-.06v-4.64ZM150.26,149.1c.15.03.38.04.62.04,1.3,0,2.01-.73,2.01-2,0-1.11-.62-1.82-1.91-1.82-.31,0-.55.03-.71.06v3.73Z"/>
      <path d="M156.75,147.37h-1.83v1.7h2.04v.51h-2.65v-4.72h2.55v.51h-1.94v1.49h1.83v.5Z"/>
    </g>
    <g>
      <path d="M173.06,144.38h-.02l-1.02.55-.15-.6,1.28-.68h.67v5.85h-.77v-5.11Z"/>
      <path d="M179.85,146.5c0,1.99-.74,3.09-2.03,3.09-1.14,0-1.92-1.07-1.94-3.01,0-1.96.85-3.04,2.03-3.04s1.94,1.1,1.94,2.96ZM176.67,146.59c0,1.52.47,2.39,1.19,2.39.81,0,1.2-.95,1.2-2.44s-.37-2.39-1.19-2.39c-.69,0-1.2.85-1.2,2.44Z"/>
    </g>
    <path d="M71.21,93.08h69.06c3.67,0,6.65,1.65,6.65,3.68v19.22c0,2.03-2.98,3.68-6.65,3.68h-69.06c-3.67,0-6.65-1.65-6.65-3.68v-19.22c0-2.03,2.98-3.68,6.65-3.68Z" fill="#fff" stroke="#999" stroke-miterlimit="10" stroke-width="3"/>
    <g isolation="isolate">
      <path d="M81.89,103.49c.29-.05.68-.09,1.17-.09.6,0,1.04.14,1.32.39.26.22.41.57.41.99s-.13.76-.36,1.01c-.32.34-.85.52-1.44.52-.18,0-.35,0-.49-.04v1.89h-.61v-4.66ZM82.5,105.77c.13.04.3.05.5.05.74,0,1.18-.36,1.18-1.01s-.44-.92-1.11-.92c-.27,0-.47.02-.57.05v1.83Z"/>
      <path d="M89.5,106.09c-.03-.66-.08-1.45-.07-2.04h-.02c-.16.55-.36,1.14-.6,1.79l-.83,2.29h-.46l-.76-2.25c-.22-.67-.41-1.27-.55-1.83h-.01c-.01.59-.05,1.38-.09,2.09l-.13,2.02h-.58l.33-4.72h.78l.81,2.28c.2.58.36,1.1.48,1.59h.02c.12-.48.29-.99.5-1.59l.84-2.28h.78l.29,4.72h-.6l-.12-2.07Z"/>
      <path d="M94.12,108.68v.35h-3.5v-.35h3.5Z"/>
      <path d="M97.95,108c-.22.11-.67.22-1.25.22-1.33,0-2.33-.84-2.33-2.39s1-2.48,2.47-2.48c.59,0,.96.13,1.12.21l-.15.5c-.23-.11-.56-.2-.95-.2-1.11,0-1.84.71-1.84,1.95,0,1.16.67,1.9,1.81,1.9.37,0,.75-.08.99-.2l.13.48Z"/>
      <path d="M99.51,106.67l-.49,1.48h-.63l1.6-4.72h.74l1.61,4.72h-.65l-.5-1.48h-1.67ZM101.05,106.2l-.46-1.36c-.1-.31-.18-.59-.25-.86h-.01c-.07.28-.15.57-.24.85l-.46,1.37h1.42Z"/>
      <path d="M103.03,103.44h.61v4.21h2.02v.51h-2.63v-4.72Z"/>
      <path d="M106.33,103.44h.61v4.21h2.02v.51h-2.63v-4.72Z"/>
      <path d="M112.6,108.68v.35h-3.5v-.35h3.5Z"/>
      <path d="M113.13,108.16v-4.72h.67l1.51,2.39c.35.55.62,1.05.85,1.53h.01c-.06-.64-.07-1.21-.07-1.95v-1.98h.57v4.72h-.62l-1.5-2.4c-.33-.53-.64-1.06-.88-1.58h-.02c.04.6.05,1.17.05,1.95v2.02h-.57Z"/>
      <path d="M121.77,105.75c0,1.62-.99,2.49-2.19,2.49s-2.12-.97-2.12-2.4c0-1.5.93-2.48,2.19-2.48s2.12.99,2.12,2.39ZM118.11,105.83c0,1.01.55,1.91,1.51,1.91s1.51-.89,1.51-1.96c0-.94-.49-1.92-1.51-1.92s-1.51.93-1.51,1.97Z"/>
      <path d="M122.56,103.5c.37-.06.81-.1,1.3-.1.88,0,1.5.2,1.91.59.42.38.67.93.67,1.69s-.24,1.4-.68,1.83c-.44.44-1.17.68-2.09.68-.43,0-.8-.02-1.11-.06v-4.64ZM123.17,107.67c.15.03.38.04.62.04,1.3,0,2.01-.73,2.01-2,0-1.11-.62-1.82-1.91-1.82-.31,0-.55.03-.71.06v3.73Z"/>
      <path d="M129.67,105.95h-1.83v1.7h2.04v.51h-2.65v-4.72h2.55v.51h-1.94v1.49h1.83v.5Z"/>
    </g>
    <line x1="76.7" y1="121.04" x2="76.7" y2="147.22" fill="none" stroke="#000"/>
    <g>
      <line x1="92.05" y1="147.52" x2="76.3" y2="147.52" fill="none" stroke="#000"/>
      <polygon points="90.06 145.82 91.76 147.52 90.06 149.22 91.5 149.22 93.2 147.52 91.5 145.82 90.06 145.82"/>
    </g>
    <path d="M39.99,52.26h61.44c3.27,0,5.91,1.65,5.91,3.68v19.22c0,2.03-2.65,3.68-5.91,3.68h-61.44c-3.27,0-5.91-1.65-5.91-3.68v-19.22c0-2.03,2.65-3.68,5.91-3.68Z" fill="#e6e7e8" stroke="#999" stroke-miterlimit="10" stroke-width="3"/>
    <g isolation="isolate">
      <path d="M44.73,62.67c.29-.05.68-.09,1.17-.09.6,0,1.04.14,1.32.39.26.22.41.57.41.99s-.13.76-.36,1.01c-.32.34-.85.52-1.44.52-.18,0-.35,0-.49-.04v1.89h-.61v-4.66ZM45.34,64.95c.13.04.3.05.5.05.74,0,1.18-.36,1.18-1.01s-.44-.92-1.11-.92c-.27,0-.47.02-.57.05v1.83Z"/>
      <path d="M52.35,65.26c-.03-.66-.08-1.45-.07-2.04h-.02c-.16.55-.36,1.14-.6,1.79l-.83,2.29h-.46l-.76-2.25c-.22-.67-.41-1.27-.55-1.83h-.01c-.01.59-.05,1.38-.09,2.09l-.13,2.02h-.58l.33-4.72h.78l.81,2.28c.2.58.36,1.1.48,1.59h.02c.12-.48.29-.99.5-1.59l.84-2.28h.78l.29,4.72h-.6l-.12-2.07Z"/>
      <path d="M56.97,67.86v.35h-3.5v-.35h3.5Z"/>
      <path d="M57.42,66.59c.27.17.67.31,1.09.31.62,0,.99-.33.99-.8,0-.44-.25-.69-.89-.94-.77-.27-1.25-.67-1.25-1.34,0-.74.61-1.28,1.53-1.28.48,0,.83.11,1.04.23l-.17.5c-.15-.08-.47-.22-.9-.22-.64,0-.89.38-.89.71,0,.44.29.66.94.91.8.31,1.2.69,1.2,1.39,0,.73-.54,1.36-1.65,1.36-.46,0-.95-.13-1.21-.3l.15-.51Z"/>
      <path d="M64.25,67.18c-.22.11-.67.22-1.25.22-1.33,0-2.33-.84-2.33-2.39s1-2.48,2.47-2.48c.59,0,.96.13,1.12.21l-.15.5c-.23-.11-.56-.2-.95-.2-1.11,0-1.84.71-1.84,1.95,0,1.16.67,1.9,1.81,1.9.37,0,.75-.08.99-.2l.13.48Z"/>
      <path d="M68.9,64.93c0,1.62-.99,2.49-2.19,2.49s-2.12-.97-2.12-2.4c0-1.5.93-2.48,2.19-2.48s2.12.99,2.12,2.39ZM65.24,65c0,1.01.55,1.91,1.51,1.91s1.51-.89,1.51-1.96c0-.94-.49-1.92-1.51-1.92s-1.51.93-1.51,1.97Z"/>
      <path d="M69.69,62.67c.29-.05.68-.09,1.17-.09.6,0,1.04.14,1.32.39.26.22.41.57.41.99s-.13.76-.36,1.01c-.32.34-.85.52-1.44.52-.18,0-.35,0-.49-.04v1.89h-.61v-4.66ZM70.3,64.95c.13.04.3.05.5.05.74,0,1.18-.36,1.18-1.01s-.44-.92-1.11-.92c-.27,0-.47.02-.57.05v1.83Z"/>
      <path d="M75.86,65.12h-1.83v1.7h2.04v.51h-2.65v-4.72h2.55v.51h-1.94v1.49h1.83v.5Z"/>
      <path d="M79.83,67.86v.35h-3.5v-.35h3.5Z"/>
      <path d="M80.36,67.34v-4.72h.67l1.51,2.39c.35.55.62,1.05.85,1.53h.01c-.06-.64-.07-1.21-.07-1.95v-1.98h.57v4.72h-.62l-1.5-2.4c-.33-.53-.64-1.06-.88-1.58h-.02c.04.6.05,1.17.05,1.95v2.02h-.57Z"/>
      <path d="M89,64.93c0,1.62-.99,2.49-2.19,2.49s-2.12-.97-2.12-2.4c0-1.5.93-2.48,2.19-2.48s2.12.99,2.12,2.39ZM85.33,65c0,1.01.55,1.91,1.51,1.91s1.51-.89,1.51-1.96c0-.94-.49-1.92-1.51-1.92s-1.51.93-1.51,1.97Z"/>
      <path d="M89.79,62.68c.37-.06.81-.1,1.3-.1.88,0,1.5.2,1.91.59.42.38.67.93.67,1.69s-.24,1.4-.68,1.83c-.44.44-1.17.68-2.09.68-.43,0-.8-.02-1.11-.06v-4.64ZM90.4,66.85c.15.03.38.04.62.04,1.3,0,2.01-.73,2.01-2,0-1.11-.62-1.82-1.91-1.82-.31,0-.55.03-.71.06v3.73Z"/>
      <path d="M96.89,65.12h-1.83v1.7h2.04v.51h-2.65v-4.72h2.55v.51h-1.94v1.49h1.83v.5Z"/>
    </g>
    <line x1="46.69" y1="80.34" x2="46.69" y2="106.03" fill="none" stroke="#000"/>
    <g>
      <line x1="61.95" y1="106.41" x2="46.19" y2="106.41" fill="none" stroke="#000"/>
      <polygon points="59.96 104.71 61.65 106.41 59.96 108.1 61.4 108.1 63.09 106.41 61.4 104.71 59.96 104.71"/>
    </g>
    <rect x="207.45" y="41.72" width="157.53" height="164.94" fill="#e6e6e6"/>
    <g isolation="isolate">
      <path d="M212.53,56.95c0-.35.24-.6.57-.6s.56.25.56.6-.22.6-.57.6c-.33,0-.56-.26-.56-.6Z"/>
      <path d="M214.5,56.95c0-.35.24-.6.57-.6s.56.25.56.6-.22.6-.57.6c-.33,0-.56-.26-.56-.6Z"/>
      <path d="M216.47,56.95c0-.35.24-.6.57-.6s.56.25.56.6-.22.6-.57.6c-.33,0-.56-.26-.56-.6Z"/>
      <path d="M224.62,50.7v5.56c0,.41,0,.88.04,1.19h-.75l-.04-.8h-.02c-.26.51-.82.9-1.57.9-1.11,0-1.97-.94-1.97-2.34,0-1.53.94-2.47,2.06-2.47.7,0,1.18.33,1.39.7h.02v-2.75h.84ZM223.78,54.72c0-.1,0-.25-.04-.35-.12-.53-.58-.97-1.21-.97-.87,0-1.38.76-1.38,1.78,0,.93.46,1.7,1.36,1.7.56,0,1.07-.37,1.23-1,.03-.11.04-.23.04-.36v-.8Z"/>
      <path d="M230.17,55.11c0,1.7-1.18,2.44-2.29,2.44-1.25,0-2.21-.91-2.21-2.37,0-1.54,1.01-2.44,2.28-2.44s2.22.96,2.22,2.37ZM226.52,55.15c0,1.01.58,1.77,1.4,1.77s1.4-.75,1.4-1.79c0-.78-.39-1.77-1.38-1.77s-1.42.91-1.42,1.79Z"/>
      <path d="M233.99,50.31v9.51h-.64v-9.51h.64Z"/>
      <path d="M235.5,54.09c0-.48,0-.87-.04-1.25h.74l.05.76h.02c.23-.44.76-.87,1.52-.87.64,0,1.63.38,1.63,1.96v2.75h-.84v-2.65c0-.74-.28-1.36-1.06-1.36-.55,0-.98.39-1.12.86-.04.1-.06.25-.06.39v2.77h-.84v-3.36Z"/>
      <path d="M241.54,50.31v9.51h-.64v-9.51h.64Z"/>
      <path d="M216.76,65.85c0-.59-.02-1.06-.04-1.5h.75l.04.79h.02c.34-.56.88-.89,1.64-.89,1.11,0,1.95.94,1.95,2.34,0,1.65-1.01,2.47-2.09,2.47-.61,0-1.14-.27-1.42-.72h-.02v2.5h-.83v-4.98ZM217.59,67.07c0,.12.02.24.04.34.15.58.66.98,1.25.98.88,0,1.4-.72,1.4-1.78,0-.92-.48-1.71-1.37-1.71-.57,0-1.1.41-1.26,1.04-.03.1-.06.23-.06.34v.79Z"/>
      <path d="M226.02,67.69c0,.48,0,.89.04,1.25h-.74l-.05-.75h-.02c-.22.37-.7.86-1.52.86-.72,0-1.59-.4-1.59-2.02v-2.69h.84v2.55c0,.87.27,1.46,1.03,1.46.56,0,.95-.39,1.1-.76.05-.12.08-.28.08-.43v-2.82h.84v3.35Z"/>
      <path d="M228.41,63.02v1.32h1.2v.64h-1.2v2.48c0,.57.16.89.63.89.22,0,.38-.03.48-.06l.04.63c-.16.07-.42.11-.74.11-.39,0-.7-.12-.9-.35-.24-.25-.32-.66-.32-1.2v-2.51h-.71v-.64h.71v-1.1l.82-.22Z"/>
      <path d="M230.43,68.09c.25.16.68.33,1.1.33.61,0,.89-.3.89-.68s-.24-.62-.86-.85c-.83-.29-1.22-.75-1.22-1.3,0-.74.6-1.35,1.59-1.35.47,0,.87.13,1.13.29l-.21.61c-.18-.11-.51-.27-.94-.27-.49,0-.77.29-.77.63,0,.38.28.55.87.78.8.3,1.21.7,1.21,1.39,0,.81-.63,1.38-1.72,1.38-.5,0-.97-.12-1.29-.31l.21-.64Z"/>
      <path d="M236.32,65.59c0-.48,0-.87-.04-1.25h.74l.05.76h.02c.23-.44.76-.87,1.52-.87.64,0,1.63.38,1.63,1.96v2.75h-.84v-2.65c0-.74-.28-1.36-1.06-1.36-.55,0-.98.39-1.12.86-.04.1-.06.25-.06.39v2.77h-.84v-3.36Z"/>
      <path d="M213.2,78.3c.02,1.13.74,1.6,1.58,1.6.6,0,.96-.1,1.27-.24l.14.6c-.29.13-.8.29-1.53.29-1.42,0-2.26-.93-2.26-2.32s.82-2.48,2.16-2.48c1.5,0,1.9,1.32,1.9,2.17,0,.17-.02.3-.03.39h-3.23ZM215.65,77.7c0-.53-.22-1.36-1.16-1.36-.85,0-1.22.78-1.28,1.36h2.44Z"/>
      <path d="M217.49,77.09c0-.48,0-.87-.04-1.25h.74l.05.76h.02c.23-.44.76-.87,1.52-.87.64,0,1.63.38,1.63,1.96v2.75h-.84v-2.65c0-.74-.28-1.36-1.06-1.36-.55,0-.98.39-1.12.86-.04.1-.06.25-.06.39v2.77h-.84v-3.36Z"/>
      <path d="M226.74,73.7v5.56c0,.41,0,.88.04,1.19h-.75l-.04-.8h-.02c-.26.51-.82.9-1.57.9-1.11,0-1.97-.94-1.97-2.34,0-1.53.94-2.47,2.06-2.47.7,0,1.18.33,1.39.7h.02v-2.75h.84ZM225.9,77.72c0-.1,0-.25-.04-.35-.12-.53-.58-.97-1.21-.97-.86,0-1.38.76-1.38,1.78,0,.93.46,1.7,1.36,1.7.56,0,1.07-.37,1.23-1,.03-.11.04-.23.04-.36v-.8Z"/>
    </g>
    <path d="M278.66,134.8h69.06c3.67,0,6.65,1.65,6.65,3.68v19.22c0,2.03-2.98,3.68-6.65,3.68h-69.06c-3.67,0-6.65-1.65-6.65-3.68v-19.22c0-2.03,2.98-3.68,6.65-3.68Z" fill="#fff" stroke="#999" stroke-miterlimit="10" stroke-width="3"/>
    <g isolation="isolate">
      <path d="M287.07,145.22c.29-.05.68-.09,1.17-.09.6,0,1.04.14,1.32.39.26.22.41.57.41.99s-.13.76-.36,1.01c-.32.34-.85.52-1.44.52-.18,0-.35,0-.49-.04v1.89h-.61v-4.66ZM287.68,147.49c.13.04.3.05.5.05.74,0,1.18-.36,1.18-1.01s-.44-.92-1.11-.92c-.27,0-.47.02-.57.05v1.83Z"/>
      <path d="M294.69,147.81c-.04-.66-.08-1.45-.07-2.04h-.02c-.16.55-.36,1.14-.6,1.79l-.83,2.29h-.46l-.76-2.25c-.22-.67-.41-1.27-.55-1.83h-.01c-.01.59-.05,1.38-.09,2.09l-.13,2.02h-.58l.33-4.72h.78l.81,2.28c.2.58.36,1.1.48,1.59h.02c.12-.48.29-.99.5-1.59l.84-2.28h.78l.29,4.72h-.59l-.12-2.07Z"/>
      <path d="M299.31,150.41v.35h-3.5v-.35h3.5Z"/>
      <path d="M299.84,145.23c.27-.06.69-.1,1.11-.1.61,0,1,.11,1.29.34.25.18.39.46.39.83,0,.46-.3.85-.8,1.04h0c.45.13.97.5.97,1.2,0,.41-.16.71-.4.95-.33.3-.86.44-1.63.44-.42,0-.74-.03-.95-.06v-4.64ZM300.45,147.16h.55c.64,0,1.02-.34,1.02-.79,0-.55-.42-.77-1.04-.77-.28,0-.44.02-.54.04v1.52ZM300.45,149.42c.12.02.29.03.51.03.63,0,1.21-.23,1.21-.92,0-.64-.55-.91-1.22-.91h-.5v1.8Z"/>
      <path d="M303.63,145.16h.61v4.21h2.02v.51h-2.63v-4.72Z"/>
      <path d="M310.7,147.47c0,1.62-.99,2.49-2.19,2.49s-2.12-.97-2.12-2.4c0-1.5.93-2.48,2.19-2.48s2.12.99,2.12,2.39ZM307.04,147.55c0,1.01.55,1.91,1.51,1.91s1.51-.89,1.51-1.96c0-.94-.49-1.92-1.51-1.92s-1.51.93-1.51,1.97Z"/>
      <path d="M314.79,149.73c-.22.11-.67.22-1.25.22-1.33,0-2.33-.84-2.33-2.39s1-2.48,2.46-2.48c.59,0,.96.13,1.12.21l-.15.5c-.23-.11-.56-.2-.95-.2-1.11,0-1.84.71-1.84,1.95,0,1.16.67,1.9,1.81,1.9.37,0,.75-.08,1-.2l.13.48Z"/>
      <path d="M315.55,145.16h.61v2.28h.02c.13-.18.25-.35.37-.5l1.44-1.77h.76l-1.71,2,1.84,2.72h-.72l-1.55-2.32-.45.52v1.8h-.61v-4.72Z"/>
      <path d="M322.31,150.41v.35h-3.5v-.35h3.5Z"/>
      <path d="M322.84,149.88v-4.72h.67l1.51,2.39c.35.55.62,1.05.85,1.53h.01c-.06-.64-.07-1.21-.07-1.95v-1.98h.57v4.72h-.62l-1.5-2.4c-.33-.53-.64-1.06-.88-1.58h-.02c.04.6.05,1.17.05,1.95v2.02h-.57Z"/>
      <path d="M331.48,147.47c0,1.62-.99,2.49-2.19,2.49s-2.12-.97-2.12-2.4c0-1.5.93-2.48,2.19-2.48s2.12.99,2.12,2.39ZM327.82,147.55c0,1.01.55,1.91,1.51,1.91s1.51-.89,1.51-1.96c0-.94-.49-1.92-1.51-1.92s-1.51.93-1.51,1.97Z"/>
      <path d="M332.27,145.23c.37-.06.81-.1,1.3-.1.88,0,1.5.2,1.91.59.42.38.67.93.67,1.69s-.24,1.4-.68,1.83c-.44.44-1.17.68-2.09.68-.43,0-.8-.02-1.11-.06v-4.64ZM332.88,149.4c.15.03.38.04.62.04,1.3,0,2.01-.73,2.01-2,0-1.11-.62-1.82-1.91-1.82-.32,0-.55.03-.71.06v3.73Z"/>
      <path d="M339.38,147.67h-1.83v1.7h2.04v.51h-2.65v-4.72h2.55v.51h-1.94v1.49h1.83v.5Z"/>
    </g>
    <path d="M247.43,93.98h61.44c3.27,0,5.91,1.65,5.91,3.68v19.22c0,2.03-2.65,3.68-5.91,3.68h-61.44c-3.27,0-5.91-1.65-5.91-3.68v-19.22c0-2.03,2.65-3.68,5.91-3.68Z" fill="#e6e7e8" stroke="#999" stroke-miterlimit="10" stroke-width="3"/>
    <g isolation="isolate">
      <path d="M252.18,104.4c.29-.05.68-.09,1.17-.09.6,0,1.04.14,1.32.39.26.22.41.57.41.99s-.13.76-.36,1.01c-.32.34-.85.52-1.44.52-.18,0-.35,0-.49-.04v1.89h-.61v-4.66ZM252.79,106.67c.13.04.3.05.5.05.74,0,1.18-.36,1.18-1.01s-.44-.92-1.11-.92c-.27,0-.47.02-.57.05v1.83Z"/>
      <path d="M259.8,106.99c-.04-.66-.08-1.45-.07-2.04h-.02c-.16.55-.36,1.14-.6,1.79l-.83,2.29h-.46l-.76-2.25c-.22-.67-.41-1.27-.55-1.83h-.01c-.01.59-.05,1.38-.09,2.09l-.13,2.02h-.58l.33-4.72h.78l.81,2.28c.2.58.36,1.1.48,1.59h.02c.12-.48.29-.99.5-1.59l.84-2.28h.78l.29,4.72h-.59l-.12-2.07Z"/>
      <path d="M264.42,109.59v.35h-3.5v-.35h3.5Z"/>
      <path d="M264.86,108.32c.27.17.67.31,1.09.31.62,0,.99-.33.99-.8,0-.44-.25-.69-.89-.94-.77-.27-1.25-.67-1.25-1.34,0-.74.61-1.28,1.53-1.28.48,0,.83.11,1.04.23l-.17.5c-.15-.08-.47-.22-.9-.22-.64,0-.89.38-.89.71,0,.44.29.66.94.91.8.31,1.21.69,1.21,1.39,0,.73-.54,1.36-1.65,1.36-.46,0-.95-.13-1.21-.3l.15-.51Z"/>
      <path d="M271.7,108.91c-.22.11-.67.22-1.25.22-1.33,0-2.33-.84-2.33-2.39s1-2.48,2.46-2.48c.59,0,.96.13,1.12.21l-.15.5c-.23-.11-.56-.2-.95-.2-1.11,0-1.84.71-1.84,1.95,0,1.16.67,1.9,1.81,1.9.37,0,.75-.08,1-.2l.13.48Z"/>
      <path d="M276.35,106.65c0,1.62-.99,2.49-2.19,2.49s-2.12-.97-2.12-2.4c0-1.5.93-2.48,2.19-2.48s2.12.99,2.12,2.39ZM272.68,106.73c0,1.01.55,1.91,1.51,1.91s1.51-.89,1.51-1.96c0-.94-.49-1.92-1.51-1.92s-1.51.93-1.51,1.97Z"/>
      <path d="M277.14,104.4c.29-.05.68-.09,1.17-.09.6,0,1.04.14,1.32.39.26.22.41.57.41.99s-.13.76-.36,1.01c-.32.34-.85.52-1.44.52-.18,0-.35,0-.49-.04v1.89h-.61v-4.66ZM277.74,106.67c.13.04.3.05.5.05.74,0,1.18-.36,1.18-1.01s-.44-.92-1.11-.92c-.27,0-.47.02-.57.05v1.83Z"/>
      <path d="M283.3,106.85h-1.83v1.7h2.04v.51h-2.65v-4.72h2.55v.51h-1.94v1.49h1.83v.5Z"/>
      <path d="M287.27,109.59v.35h-3.5v-.35h3.5Z"/>
      <path d="M287.8,109.06v-4.72h.67l1.51,2.39c.35.55.62,1.05.85,1.53h.01c-.06-.64-.07-1.21-.07-1.95v-1.98h.57v4.72h-.62l-1.5-2.4c-.33-.53-.64-1.06-.88-1.58h-.02c.04.6.05,1.17.05,1.95v2.02h-.57Z"/>
      <path d="M296.44,106.65c0,1.62-.99,2.49-2.19,2.49s-2.12-.97-2.12-2.4c0-1.5.93-2.48,2.19-2.48s2.12.99,2.12,2.39ZM292.78,106.73c0,1.01.55,1.91,1.51,1.91s1.51-.89,1.51-1.96c0-.94-.49-1.92-1.51-1.92s-1.51.93-1.51,1.97Z"/>
      <path d="M297.23,104.4c.37-.06.81-.1,1.3-.1.88,0,1.5.2,1.91.59.42.38.67.93.67,1.69s-.24,1.4-.68,1.83c-.44.44-1.17.68-2.09.68-.43,0-.8-.02-1.11-.06v-4.64ZM297.84,108.58c.15.03.38.04.62.04,1.3,0,2.01-.73,2.01-2,0-1.11-.62-1.82-1.91-1.82-.31,0-.55.03-.71.06v3.73Z"/>
      <path d="M304.34,106.85h-1.83v1.7h2.04v.51h-2.65v-4.72h2.55v.51h-1.94v1.49h1.83v.5Z"/>
    </g>
    <line x1="254.13" y1="122.06" x2="254.13" y2="147.75" fill="none" stroke="#000"/>
    <g>
      <line x1="269.4" y1="148.13" x2="253.64" y2="148.13" fill="none" stroke="#000"/>
      <polygon points="267.4 146.44 269.1 148.13 267.4 149.83 268.84 149.83 270.54 148.13 268.84 146.44 267.4 146.44"/>
    </g>
    <g>
      <path d="M278.34,189.38c.02,1.07.7,1.51,1.49,1.51.57,0,.91-.1,1.21-.23l.13.57c-.28.13-.76.27-1.45.27-1.34,0-2.14-.88-2.14-2.2s.77-2.35,2.04-2.35c1.42,0,1.8,1.25,1.8,2.05,0,.16-.02.29-.03.37h-3.06ZM280.66,188.81c0-.5-.21-1.29-1.1-1.29-.8,0-1.15.74-1.22,1.29h2.31Z"/>
      <path d="M283.36,185.81v1.25h1.13v.6h-1.13v2.35c0,.54.15.85.59.85.21,0,.36-.03.46-.05l.04.59c-.15.06-.4.11-.7.11-.37,0-.67-.12-.86-.33-.22-.23-.31-.62-.31-1.13v-2.38h-.68v-.6h.68v-1.04l.77-.21Z"/>
      <path d="M288.43,191.25c-.21.11-.67.25-1.25.25-1.31,0-2.17-.89-2.17-2.22s.92-2.31,2.34-2.31c.47,0,.88.12,1.1.23l-.18.61c-.19-.11-.49-.21-.92-.21-1,0-1.54.74-1.54,1.65,0,1.01.65,1.63,1.51,1.63.45,0,.75-.12.97-.22l.13.59Z"/>
      <path d="M289.08,190.95c0-.33.22-.57.54-.57s.53.23.53.57-.21.57-.54.57c-.32,0-.53-.24-.53-.57Z"/>
      <path d="M290.94,190.95c0-.33.23-.57.54-.57s.53.23.53.57-.21.57-.54.57c-.32,0-.53-.24-.53-.57Z"/>
    </g>
    <g>
      <line x1="239.09" y1="106.03" x2="148.1" y2="106.03" fill="none" stroke="#000"/>
      <polygon points="237.1 104.33 238.8 106.03 237.1 107.72 238.54 107.72 240.24 106.03 238.54 104.33 237.1 104.33"/>
    </g>
    <g>
      <line x1="284.15" y1="178.2" x2="284.15" y2="162.44" fill="none" stroke="#000"/>
      <polygon points="285.84 176.21 284.15 177.91 282.45 176.21 282.45 177.65 284.15 179.34 285.84 177.65 285.84 176.21"/>
    </g>
  </g>
</svg>