<?xml version="1.0" encoding="UTF-8"?>
<svg id="Layer_2" data-name="Layer 2" xmlns="http://www.w3.org/2000/svg" width="334.5" height="116.45" viewBox="0 0 334.5 116.45">
  <g id="Layer_1_copy" data-name="Layer 1 copy">
    <rect x="145.5" y="1.44" width="189" height="113.51" fill="#ccc"/>
    <path d="M.5,23.03v4.19h34.69v4.42l8.87-6.51-8.87-6.51v4.42H.5Z" fill="#e6e6e6" stroke="rgba(0, 0, 0, .75)" stroke-linecap="round" stroke-linejoin="round"/>
    <g isolation="isolate">
      <path d="M150.44,13.91v-2.29l-1.7-3.1h.79l.76,1.49c.21.41.37.74.54,1.11h.02c.15-.35.34-.7.54-1.11l.78-1.49h.79l-1.81,3.09v2.29h-.7Z"/>
      <path d="M153.79,12.21l-.56,1.69h-.72l1.83-5.39h.84l1.84,5.39h-.74l-.58-1.69h-1.91ZM155.55,11.67l-.53-1.55c-.12-.35-.2-.67-.28-.98h-.02c-.08.32-.17.65-.27.98l-.53,1.56h1.62Z"/>
      <path d="M157.81,8.59c.35-.07.86-.11,1.34-.11.74,0,1.22.14,1.56.44.27.24.42.61.42,1.02,0,.71-.45,1.18-1.02,1.38v.02c.42.14.66.53.79,1.09.18.75.3,1.27.42,1.48h-.72c-.09-.15-.21-.62-.36-1.29-.16-.74-.45-1.02-1.08-1.05h-.66v2.33h-.7v-5.32ZM158.51,11.04h.71c.74,0,1.22-.41,1.22-1.02,0-.7-.5-1-1.24-1.01-.34,0-.58.03-.69.06v1.97Z"/>
      <path d="M163.43,13.91l-1.76-5.39h.75l.84,2.65c.23.73.43,1.38.58,2.01h.02c.15-.62.38-1.3.62-2.01l.91-2.66h.74l-1.93,5.39h-.77Z"/>
      <path d="M169.16,8.95c0,.24-.17.43-.45.43-.25,0-.42-.19-.42-.43s.18-.44.44-.44.43.19.43.44ZM168.38,13.91v-3.87h.7v3.87h-.7Z"/>
      <path d="M170.25,11.08c0-.4,0-.73-.03-1.05h.62l.04.64h.02c.19-.37.64-.73,1.28-.73.54,0,1.37.32,1.37,1.65v2.31h-.7v-2.23c0-.62-.23-1.14-.9-1.14-.46,0-.82.33-.94.72-.03.09-.05.21-.05.33v2.33h-.7v-2.82Z"/>
      <path d="M174.6,13.19c.21.14.58.28.93.28.51,0,.75-.26.75-.58s-.2-.52-.72-.71c-.7-.25-1.02-.63-1.02-1.1,0-.62.5-1.14,1.33-1.14.39,0,.74.11.95.24l-.18.51c-.15-.1-.43-.22-.79-.22-.42,0-.65.24-.65.53,0,.32.23.46.74.66.67.26,1.02.59,1.02,1.17,0,.68-.53,1.16-1.45,1.16-.42,0-.82-.1-1.09-.26l.18-.54Z"/>
      <path d="M178.71,8.92v1.11h1.01v.54h-1.01v2.09c0,.48.14.75.53.75.18,0,.32-.02.41-.05l.03.53c-.14.06-.35.1-.62.1-.33,0-.59-.1-.76-.3-.2-.21-.27-.55-.27-1.01v-2.11h-.6v-.54h.6v-.93l.69-.18Z"/>
      <path d="M180.51,11.24c0-.46,0-.85-.03-1.21h.62l.02.76h.03c.18-.52.6-.85,1.07-.85.08,0,.13,0,.2.02v.66c-.07-.02-.14-.02-.24-.02-.5,0-.85.38-.94.9-.02.1-.03.21-.03.33v2.06h-.7v-2.66Z"/>
      <path d="M186.36,12.85c0,.4,0,.75.03,1.05h-.62l-.04-.63h-.02c-.18.31-.59.72-1.28.72-.61,0-1.33-.34-1.33-1.69v-2.26h.7v2.14c0,.74.22,1.23.86,1.23.47,0,.8-.33.93-.64.04-.1.06-.23.06-.36v-2.37h.7v2.81Z"/>
      <path d="M190.29,13.76c-.18.1-.59.22-1.11.22-1.17,0-1.93-.79-1.93-1.97s.82-2.05,2.08-2.05c.42,0,.78.1.98.2l-.16.54c-.17-.1-.43-.18-.82-.18-.89,0-1.37.66-1.37,1.46,0,.9.58,1.45,1.34,1.45.4,0,.66-.1.86-.19l.12.53Z"/>
      <path d="M192.07,8.92v1.11h1.01v.54h-1.01v2.09c0,.48.14.75.53.75.18,0,.32-.02.41-.05l.03.53c-.14.06-.35.1-.62.1-.33,0-.59-.1-.76-.3-.2-.21-.27-.55-.27-1.01v-2.11h-.6v-.54h.6v-.93l.69-.18Z"/>
      <path d="M194.65,8.95c0,.24-.17.43-.45.43-.25,0-.42-.19-.42-.43s.18-.44.44-.44.43.19.43.44ZM193.87,13.91v-3.87h.7v3.87h-.7Z"/>
      <path d="M199.24,11.94c0,1.43-.99,2.05-1.93,2.05-1.05,0-1.86-.77-1.86-1.99,0-1.3.85-2.06,1.92-2.06s1.86.81,1.86,1.99ZM196.17,11.98c0,.85.49,1.49,1.17,1.49s1.18-.63,1.18-1.5c0-.66-.33-1.49-1.16-1.49s-1.19.77-1.19,1.5Z"/>
      <path d="M200.13,11.08c0-.4,0-.73-.03-1.05h.62l.04.64h.02c.19-.37.64-.73,1.28-.73.54,0,1.37.32,1.37,1.65v2.31h-.7v-2.23c0-.62-.23-1.14-.89-1.14-.46,0-.82.33-.94.72-.03.09-.05.21-.05.33v2.33h-.7v-2.82Z"/>
      <path d="M204.47,13.19c.21.14.58.28.93.28.51,0,.75-.26.75-.58s-.2-.52-.72-.71c-.7-.25-1.02-.63-1.02-1.1,0-.62.5-1.14,1.33-1.14.39,0,.74.11.95.24l-.18.51c-.15-.1-.43-.22-.79-.22-.42,0-.65.24-.65.53,0,.32.23.46.74.66.67.26,1.02.59,1.02,1.17,0,.68-.53,1.16-1.45,1.16-.42,0-.82-.1-1.09-.26l.18-.54Z"/>
    </g>
    <g>
      <line x1="92.76" y1="51.23" x2="92.76" y2="59.47" fill="none" stroke="#000" stroke-miterlimit="10"/>
      <polygon points="90.95 58.18 92.84 65.23 94.73 58.18 90.95 58.18"/>
    </g>
    <g isolation="isolate">
      <path d="M149.57,32.15c0-.46-.01-.84-.03-1.19h.59l.03.62h.02c.27-.44.7-.71,1.29-.71.88,0,1.54.74,1.54,1.85,0,1.31-.8,1.95-1.65,1.95-.48,0-.9-.21-1.12-.57h-.02v1.97h-.65v-3.93ZM150.23,33.12c0,.1.02.19.03.27.12.46.52.77.99.77.7,0,1.1-.57,1.1-1.4,0-.73-.38-1.35-1.08-1.35-.45,0-.87.32-1,.82-.02.08-.04.18-.04.27v.62Z"/>
      <path d="M156.88,33.61c0,.38,0,.71.03.99h-.59l-.04-.59h-.02c-.17.29-.56.68-1.2.68-.57,0-1.25-.32-1.25-1.59v-2.12h.66v2.01c0,.69.21,1.16.81,1.16.44,0,.75-.31.87-.6.04-.1.06-.22.06-.34v-2.23h.66v2.64Z"/>
      <path d="M158.77,29.92v1.04h.95v.5h-.95v1.96c0,.45.13.71.5.71.17,0,.3-.02.38-.04l.03.5c-.13.05-.33.09-.59.09-.31,0-.56-.1-.71-.28-.19-.2-.26-.52-.26-.95v-1.98h-.56v-.5h.56v-.87l.65-.17Z"/>
      <path d="M163.7,32.76c0,1.34-.93,1.93-1.81,1.93-.98,0-1.74-.72-1.74-1.87,0-1.22.8-1.93,1.8-1.93s1.75.76,1.75,1.87ZM160.82,32.79c0,.79.46,1.4,1.1,1.4s1.1-.59,1.1-1.41c0-.62-.31-1.4-1.09-1.4s-1.12.72-1.12,1.41Z"/>
      <path d="M164.5,34.6c.02-.25.03-.62.03-.94v-4.39h.65v2.28h.02c.23-.41.65-.67,1.24-.67.9,0,1.54.75,1.53,1.85,0,1.3-.82,1.94-1.63,1.94-.53,0-.95-.2-1.22-.68h-.02l-.03.6h-.57ZM165.18,33.15c0,.08.02.17.03.24.13.46.51.77.99.77.69,0,1.1-.56,1.1-1.4,0-.73-.38-1.35-1.08-1.35-.45,0-.87.31-1.01.81-.02.08-.04.17-.04.27v.65Z"/>
      <path d="M167.91,35.65c.3-.02.56-.11.72-.28.18-.21.25-.5.25-1.37v-3.04h.66v3.29c0,.71-.11,1.16-.44,1.49-.29.29-.77.41-1.13.41l-.07-.52ZM169.61,29.95c0,.22-.15.41-.41.41-.25,0-.41-.19-.41-.41,0-.23.17-.41.42-.41s.4.18.4.41Z"/>
      <path d="M170.98,32.91c.02.89.59,1.26,1.25,1.26.47,0,.76-.08,1.01-.19l.11.47c-.23.1-.63.22-1.21.22-1.12,0-1.79-.74-1.79-1.83s.65-1.96,1.7-1.96c1.19,0,1.5,1.04,1.5,1.71,0,.13-.01.24-.02.31h-2.55ZM172.92,32.43c0-.42-.17-1.07-.92-1.07-.67,0-.96.62-1.01,1.07h1.93Z"/>
      <path d="M176.96,34.47c-.17.09-.56.21-1.04.21-1.1,0-1.81-.74-1.81-1.85s.77-1.93,1.95-1.93c.39,0,.74.1.92.19l-.15.51c-.16-.09-.41-.17-.77-.17-.83,0-1.28.62-1.28,1.37,0,.84.54,1.36,1.26,1.36.38,0,.62-.1.81-.18l.11.5Z"/>
      <path d="M178.63,29.92v1.04h.95v.5h-.95v1.96c0,.45.13.71.5.71.17,0,.3-.02.38-.04l.03.5c-.13.05-.33.09-.59.09-.31,0-.56-.1-.71-.28-.19-.2-.26-.52-.26-.95v-1.98h-.56v-.5h.56v-.87l.65-.17Z"/>
      <path d="M183.13,30.34h-.01l-.85.46-.13-.5,1.07-.57h.56v4.88h-.64v-4.26Z"/>
      <path d="M188.78,32.11c0,1.66-.62,2.58-1.7,2.58-.95,0-1.6-.89-1.61-2.51,0-1.64.71-2.54,1.7-2.54s1.61.92,1.61,2.47ZM186.13,32.18c0,1.27.39,1.99.99,1.99.68,0,1-.79,1-2.03s-.31-1.99-.99-1.99c-.58,0-1,.71-1,2.03Z"/>
      <path d="M149.48,42.93c.2.13.54.26.87.26.48,0,.71-.24.71-.54,0-.32-.19-.49-.68-.67-.65-.23-.96-.59-.96-1.03,0-.59.47-1.07,1.25-1.07.37,0,.69.11.89.23l-.17.48c-.14-.09-.41-.21-.74-.21-.39,0-.61.23-.61.5,0,.3.22.44.69.62.63.24.95.56.95,1.1,0,.64-.5,1.09-1.36,1.09-.4,0-.77-.1-1.02-.25l.17-.5Z"/>
      <path d="M152.91,41.91c.01.89.59,1.26,1.25,1.26.47,0,.76-.08,1.01-.19l.11.47c-.23.1-.63.22-1.21.22-1.12,0-1.79-.74-1.79-1.83s.65-1.96,1.7-1.96c1.19,0,1.5,1.04,1.5,1.71,0,.13-.01.24-.02.31h-2.55ZM154.85,41.43c0-.42-.17-1.07-.92-1.07-.67,0-.96.62-1.01,1.07h1.93Z"/>
      <path d="M156.3,40.95c0-.38,0-.68-.03-.98h.59l.04.6h.02c.18-.35.6-.68,1.2-.68.5,0,1.28.3,1.28,1.55v2.17h-.66v-2.09c0-.58-.22-1.07-.84-1.07-.44,0-.77.31-.89.68-.03.08-.05.2-.05.31v2.18h-.66v-2.65Z"/>
      <path d="M163.6,38.27v4.39c0,.32,0,.69.03.94h-.59l-.03-.63h-.01c-.2.41-.65.71-1.24.71-.88,0-1.55-.74-1.55-1.85,0-1.21.74-1.95,1.63-1.95.56,0,.93.26,1.1.56h.02v-2.17h.66ZM162.94,41.45c0-.08,0-.2-.03-.28-.1-.42-.46-.77-.95-.77-.68,0-1.09.6-1.09,1.4,0,.74.36,1.34,1.07,1.34.44,0,.85-.29.97-.79.02-.09.03-.18.03-.29v-.63Z"/>
      <path d="M166.28,40.95c0-.38,0-.68-.03-.98h.58l.03.58h.02c.2-.34.54-.67,1.14-.67.5,0,.87.3,1.03.73h.01c.11-.2.25-.36.41-.47.22-.17.46-.25.8-.25.48,0,1.19.32,1.19,1.58v2.14h-.65v-2.06c0-.7-.25-1.12-.79-1.12-.38,0-.67.28-.78.6-.03.09-.05.21-.05.33v2.24h-.65v-2.18c0-.58-.25-1-.76-1-.41,0-.71.33-.82.66-.04.1-.05.21-.05.32v2.19h-.65v-2.65Z"/>
      <path d="M173.27,38.95c0,.23-.16.41-.42.41-.23,0-.4-.18-.4-.41s.17-.41.41-.41.41.18.41.41ZM172.54,43.6v-3.63h.66v3.63h-.66Z"/>
      <path d="M177.43,38.27v4.39c0,.32,0,.69.03.94h-.59l-.03-.63h-.01c-.2.41-.65.71-1.24.71-.88,0-1.55-.74-1.55-1.85,0-1.21.74-1.95,1.63-1.95.56,0,.93.26,1.1.56h.02v-2.17h.66ZM176.77,41.45c0-.08,0-.2-.03-.28-.1-.42-.46-.77-.95-.77-.68,0-1.09.6-1.09,1.4,0,.74.36,1.34,1.07,1.34.44,0,.85-.29.97-.79.02-.09.03-.18.03-.29v-.63Z"/>
      <path d="M178.36,40.57c0-.28.19-.47.45-.47s.44.2.44.47c0,.26-.17.46-.45.46-.26,0-.44-.2-.44-.46ZM178.36,43.22c0-.28.19-.47.45-.47s.44.2.44.47c0,.26-.17.47-.45.47-.26,0-.44-.2-.44-.47Z"/>
      <path d="M180.87,38.92v1.04h.95v.5h-.95v1.96c0,.45.13.71.5.71.17,0,.3-.02.38-.04l.03.5c-.13.05-.33.09-.59.09-.31,0-.55-.1-.71-.28-.19-.2-.25-.52-.25-.95v-1.98h-.56v-.5h.56v-.87l.65-.17Z"/>
      <path d="M183.29,38.95c0,.23-.16.41-.42.41-.23,0-.4-.18-.4-.41s.17-.41.41-.41.41.18.41.41ZM182.56,43.6v-3.63h.66v3.63h-.66Z"/>
      <path d="M184.31,40.95c0-.38,0-.68-.03-.98h.58l.03.58h.02c.2-.34.54-.67,1.14-.67.5,0,.87.3,1.03.73h.01c.11-.2.25-.36.41-.47.22-.17.46-.25.8-.25.48,0,1.19.32,1.19,1.58v2.14h-.65v-2.06c0-.7-.25-1.12-.79-1.12-.38,0-.67.28-.78.6-.03.09-.05.21-.05.33v2.24h-.65v-2.18c0-.58-.25-1-.76-1-.41,0-.71.33-.82.66-.04.1-.05.21-.05.32v2.19h-.65v-2.65Z"/>
      <path d="M190.93,41.91c.02.89.59,1.26,1.25,1.26.47,0,.76-.08,1.01-.19l.11.47c-.23.1-.63.22-1.21.22-1.12,0-1.79-.74-1.79-1.83s.65-1.96,1.7-1.96c1.19,0,1.5,1.04,1.5,1.71,0,.13-.01.24-.02.31h-2.55ZM192.87,41.43c0-.42-.17-1.07-.92-1.07-.67,0-.96.62-1.01,1.07h1.93Z"/>
      <path d="M194.23,42.93c.2.13.54.26.87.26.48,0,.71-.24.71-.54,0-.32-.19-.49-.68-.67-.65-.23-.96-.59-.96-1.03,0-.59.47-1.07,1.25-1.07.37,0,.69.11.89.23l-.17.48c-.14-.09-.41-.21-.74-.21-.39,0-.61.23-.61.5,0,.3.22.44.69.62.63.24.95.56.95,1.1,0,.64-.5,1.09-1.36,1.09-.4,0-.77-.1-1.02-.25l.17-.5Z"/>
      <path d="M200.9,43.6l-.05-.46h-.02c-.2.29-.59.54-1.11.54-.74,0-1.11-.52-1.11-1.04,0-.88.78-1.36,2.18-1.35v-.08c0-.3-.08-.84-.83-.84-.34,0-.69.1-.95.27l-.15-.43c.3-.2.74-.32,1.19-.32,1.11,0,1.38.76,1.38,1.49v1.36c0,.31.01.62.06.87h-.6ZM200.8,41.75c-.72-.01-1.54.11-1.54.82,0,.43.29.63.62.63.47,0,.77-.3.88-.61.02-.07.04-.14.04-.21v-.63Z"/>
      <path d="M202.5,41.1c0-.43,0-.8-.03-1.13h.58l.02.71h.03c.17-.49.56-.8,1.01-.8.08,0,.13,0,.19.02v.62c-.07-.01-.13-.02-.22-.02-.47,0-.8.35-.89.85-.02.09-.03.2-.03.31v1.94h-.65v-2.5Z"/>
      <path d="M208.02,39.97c-.02.26-.03.55-.03,1v2.11c0,.83-.17,1.34-.52,1.66-.35.33-.86.44-1.32.44s-.92-.11-1.21-.3l.17-.5c.24.15.62.29,1.07.29.67,0,1.17-.35,1.17-1.27v-.41h-.02c-.2.34-.59.61-1.16.61-.9,0-1.55-.77-1.55-1.77,0-1.23.8-1.93,1.64-1.93.63,0,.98.33,1.13.63h.01l.03-.55h.58ZM207.34,41.4c0-.11,0-.21-.04-.3-.12-.38-.44-.7-.92-.7-.63,0-1.08.53-1.08,1.37,0,.71.36,1.31,1.07,1.31.41,0,.77-.26.92-.68.04-.11.05-.24.05-.35v-.65Z"/>
      <path d="M211.67,43.47c-.17.09-.56.21-1.04.21-1.1,0-1.81-.74-1.81-1.85s.77-1.93,1.95-1.93c.39,0,.74.1.92.19l-.15.51c-.16-.09-.41-.17-.77-.17-.83,0-1.28.62-1.28,1.37,0,.84.54,1.36,1.26,1.36.38,0,.62-.1.81-.18l.11.5Z"/>
      <path d="M212.29,40.57c0-.28.19-.47.45-.47s.44.2.44.47c0,.26-.17.46-.45.46-.26,0-.44-.2-.44-.46ZM212.29,43.22c0-.28.19-.47.45-.47s.44.2.44.47c0,.26-.17.47-.45.47-.26,0-.44-.2-.44-.47Z"/>
      <path d="M218.62,41.11c0,1.66-.62,2.58-1.7,2.58-.95,0-1.6-.89-1.61-2.51,0-1.64.71-2.54,1.7-2.54s1.61.92,1.61,2.47ZM215.97,41.18c0,1.27.39,1.99.99,1.99.68,0,1-.79,1-2.03s-.31-1.99-.99-1.99c-.58,0-1,.71-1,2.03Z"/>
      <path d="M219.01,44.53c.17-.44.37-1.25.45-1.79l.74-.08c-.17.64-.5,1.47-.71,1.82l-.47.04Z"/>
      <path d="M222.55,43.6c.01-.25.03-.62.03-.94v-4.39h.65v2.28h.02c.23-.41.65-.67,1.24-.67.9,0,1.54.75,1.53,1.85,0,1.3-.82,1.94-1.63,1.94-.53,0-.95-.2-1.22-.68h-.02l-.03.6h-.57ZM223.23,42.15c0,.08.02.17.03.24.13.46.51.77.99.77.69,0,1.1-.56,1.1-1.4,0-.73-.38-1.35-1.08-1.35-.45,0-.87.31-1.01.81-.02.08-.04.17-.04.27v.65Z"/>
      <path d="M226.84,38.27h.66v5.33h-.66v-5.33Z"/>
      <path d="M231.9,41.76c0,1.34-.93,1.93-1.81,1.93-.98,0-1.74-.72-1.74-1.87,0-1.22.8-1.93,1.8-1.93s1.75.76,1.75,1.87ZM229.02,41.79c0,.79.46,1.4,1.1,1.4s1.1-.59,1.1-1.41c0-.62-.31-1.4-1.09-1.4s-1.12.72-1.12,1.41Z"/>
      <path d="M235.32,43.47c-.17.09-.56.21-1.04.21-1.1,0-1.81-.74-1.81-1.85s.77-1.93,1.95-1.93c.39,0,.74.1.92.19l-.15.51c-.16-.09-.41-.17-.77-.17-.83,0-1.28.62-1.28,1.37,0,.84.54,1.36,1.26,1.36.38,0,.62-.1.81-.18l.11.5Z"/>
      <path d="M236.74,41.63h.01c.09-.13.22-.29.32-.41l1.07-1.25h.79l-1.4,1.49,1.6,2.14h-.8l-1.25-1.74-.34.38v1.37h-.65v-5.33h.65v3.36Z"/>
      <path d="M241.93,38.95c0,.23-.16.41-.42.41-.23,0-.4-.18-.4-.41s.17-.41.41-.41.41.18.41.41ZM241.2,43.6v-3.63h.66v3.63h-.66Z"/>
      <path d="M242.95,40.95c0-.38,0-.68-.03-.98h.59l.04.6h.02c.18-.35.6-.68,1.2-.68.5,0,1.28.3,1.28,1.55v2.17h-.66v-2.09c0-.58-.22-1.07-.84-1.07-.44,0-.77.31-.89.68-.03.08-.04.2-.04.31v2.18h-.66v-2.65Z"/>
      <path d="M248.65,41.4l3.48-1.79v.52l-2.93,1.47h0s2.93,1.49,2.93,1.49v.52l-3.48-1.79v-.41Z"/>
      <path d="M253.17,40.95c0-.38,0-.68-.03-.98h.58l.03.58h.02c.2-.34.54-.67,1.14-.67.5,0,.87.3,1.03.73h.01c.11-.2.26-.36.41-.47.22-.17.46-.25.8-.25.48,0,1.19.32,1.19,1.58v2.14h-.65v-2.06c0-.7-.25-1.12-.79-1.12-.38,0-.67.28-.78.6-.03.09-.05.21-.05.33v2.24h-.65v-2.18c0-.58-.26-1-.76-1-.41,0-.71.33-.82.66-.04.1-.05.21-.05.32v2.19h-.65v-2.65Z"/>
      <path d="M261.44,43.6l-.05-.46h-.02c-.2.29-.59.54-1.11.54-.74,0-1.11-.52-1.11-1.04,0-.88.78-1.36,2.18-1.35v-.08c0-.3-.08-.84-.83-.84-.34,0-.69.1-.95.27l-.15-.43c.3-.2.74-.32,1.19-.32,1.11,0,1.38.76,1.38,1.49v1.36c0,.31.01.62.06.87h-.6ZM261.34,41.75c-.72-.01-1.54.11-1.54.82,0,.43.29.63.62.63.47,0,.77-.3.88-.61.02-.07.04-.14.04-.21v-.63Z"/>
      <path d="M263.78,38.95c0,.23-.16.41-.42.41-.23,0-.4-.18-.4-.41s.17-.41.41-.41.41.18.41.41ZM263.04,43.6v-3.63h.66v3.63h-.66Z"/>
      <path d="M264.8,40.95c0-.38,0-.68-.03-.98h.59l.04.6h.01c.18-.35.6-.68,1.2-.68.5,0,1.28.3,1.28,1.55v2.17h-.66v-2.09c0-.58-.22-1.07-.84-1.07-.44,0-.77.31-.89.68-.03.08-.04.2-.04.31v2.18h-.66v-2.65Z"/>
      <path d="M272.39,41.82l-3.48,1.79v-.52l2.96-1.47h0s-2.96-1.49-2.96-1.49v-.52l3.48,1.79v.42Z"/>
    </g>
    <path d="M53.59,66.8h78.34c4.16,0,7.54,2.99,7.54,6.67v34.82c0,3.68-3.38,6.67-7.54,6.67H53.59c-4.16,0-7.54-2.99-7.54-6.67v-34.82c0-3.68,3.38-6.67,7.54-6.67Z" fill="#fff" stroke="#999" stroke-miterlimit="10" stroke-width="3"/>
    <g isolation="isolate">
      <path d="M57.75,76.87c.36-.06.82-.11,1.42-.11.73,0,1.27.17,1.61.48.31.27.5.69.5,1.2s-.15.93-.44,1.22c-.39.42-1.03.63-1.75.63-.22,0-.43,0-.6-.05v2.29h-.74v-5.66ZM58.49,79.63c.16.04.37.06.61.06.89,0,1.44-.43,1.44-1.22s-.54-1.12-1.35-1.12c-.32,0-.57.03-.7.06v2.23Z"/>
      <path d="M67,80.01c-.04-.8-.09-1.76-.08-2.47h-.03c-.2.67-.43,1.39-.72,2.18l-1.01,2.78h-.56l-.93-2.73c-.27-.81-.5-1.55-.66-2.23h-.02c-.02.71-.06,1.67-.11,2.53l-.15,2.46h-.71l.4-5.73h.94l.98,2.77c.24.71.43,1.33.58,1.93h.03c.14-.58.35-1.21.6-1.93l1.02-2.77h.94l.36,5.73h-.72l-.14-2.52Z"/>
      <path d="M72.61,83.17v.42h-4.25v-.42h4.25Z"/>
      <path d="M73.99,76.8v5.73h-.74v-5.73h.74Z"/>
      <path d="M75.28,82.53v-5.73h.81l1.84,2.9c.43.67.76,1.27,1.03,1.86h.02c-.07-.77-.08-1.47-.08-2.36v-2.4h.7v5.73h-.75l-1.82-2.91c-.4-.64-.78-1.29-1.07-1.91h-.03c.04.73.06,1.42.06,2.37v2.45h-.7Z"/>
      <path d="M81.96,77.43h-1.74v-.63h4.24v.63h-1.75v5.1h-.75v-5.1Z"/>
      <path d="M88.07,79.84h-2.23v2.07h2.48v.62h-3.22v-5.73h3.09v.62h-2.35v1.81h2.23v.61Z"/>
      <path d="M93.64,82.27c-.33.12-.99.31-1.76.31-.87,0-1.58-.22-2.14-.76-.49-.48-.8-1.24-.8-2.13,0-1.71,1.18-2.96,3.1-2.96.66,0,1.18.14,1.43.26l-.18.6c-.31-.14-.69-.25-1.27-.25-1.39,0-2.3.87-2.3,2.3s.88,2.31,2.21,2.31c.48,0,.82-.07.99-.15v-1.71h-1.16v-.6h1.89v2.75Z"/>
      <path d="M97.74,79.84h-2.23v2.07h2.48v.62h-3.22v-5.73h3.09v.62h-2.35v1.81h2.23v.61Z"/>
      <path d="M98.96,76.88c.37-.08.91-.12,1.42-.12.79,0,1.3.14,1.66.47.29.26.45.65.45,1.09,0,.76-.48,1.26-1.08,1.46v.03c.44.15.71.56.84,1.16.19.8.32,1.35.44,1.57h-.76c-.09-.16-.22-.65-.38-1.37-.17-.79-.48-1.09-1.15-1.11h-.7v2.48h-.74v-5.65ZM99.69,79.49h.76c.79,0,1.29-.43,1.29-1.09,0-.74-.54-1.06-1.32-1.07-.36,0-.61.04-.73.07v2.09Z"/>
      <path d="M107.13,83.17v.42h-4.25v-.42h4.25Z"/>
      <path d="M107.78,82.53v-5.73h.81l1.84,2.9c.43.67.76,1.27,1.03,1.86h.02c-.07-.77-.08-1.47-.08-2.36v-2.4h.7v5.73h-.75l-1.82-2.91c-.4-.64-.78-1.29-1.07-1.91h-.03c.04.73.06,1.42.06,2.37v2.45h-.7Z"/>
      <path d="M118.27,79.61c0,1.97-1.2,3.02-2.66,3.02s-2.58-1.17-2.58-2.91,1.13-3.01,2.66-3.01,2.58,1.2,2.58,2.9ZM113.82,79.7c0,1.22.66,2.32,1.83,2.32s1.84-1.08,1.84-2.38c0-1.14-.59-2.33-1.83-2.33s-1.84,1.13-1.84,2.39Z"/>
      <path d="M119.23,76.88c.45-.07.99-.12,1.57-.12,1.06,0,1.82.25,2.32.71.51.47.81,1.13.81,2.06s-.29,1.7-.82,2.23c-.54.54-1.42.82-2.53.82-.53,0-.97-.03-1.34-.07v-5.63ZM119.97,81.94c.19.04.46.04.75.04,1.58,0,2.44-.88,2.44-2.43,0-1.35-.76-2.21-2.32-2.21-.38,0-.67.03-.87.08v4.52Z"/>
      <path d="M127.85,79.84h-2.23v2.07h2.48v.62h-3.22v-5.73h3.09v.62h-2.35v1.81h2.23v.61Z"/>
    </g>
    <g isolation="isolate">
      <path d="M76.77,91.28l.81,2.31c.14.37.25.71.33,1.05h.03c.09-.34.21-.68.35-1.05l.8-2.31h.78l-1.61,4.11h-.71l-1.56-4.11h.8Z"/>
      <path d="M82.81,95.39l-.06-.52h-.03c-.23.32-.67.61-1.26.61-.83,0-1.26-.59-1.26-1.18,0-1,.88-1.54,2.47-1.53v-.08c0-.34-.09-.95-.93-.95-.38,0-.78.12-1.07.31l-.17-.49c.34-.22.83-.37,1.35-.37,1.26,0,1.56.86,1.56,1.68v1.54c0,.36.02.71.07.99h-.68ZM82.7,93.3c-.82-.02-1.74.13-1.74.93,0,.48.32.71.71.71.54,0,.88-.34.99-.69.03-.08.04-.16.04-.24v-.71Z"/>
      <path d="M84.63,89.36h.75v6.03h-.75v-6.03Z"/>
      <path d="M90.08,94.27c0,.43,0,.8.03,1.12h-.66l-.04-.67h-.02c-.2.33-.63.76-1.36.76-.65,0-1.42-.36-1.42-1.8v-2.41h.75v2.28c0,.78.24,1.31.92,1.31.5,0,.85-.35.99-.68.04-.11.07-.25.07-.38v-2.53h.75v2.99Z"/>
      <path d="M91.74,93.47c.02,1.01.66,1.43,1.41,1.43.54,0,.86-.09,1.14-.21l.13.54c-.26.12-.71.25-1.37.25-1.27,0-2.02-.83-2.02-2.07s.73-2.22,1.93-2.22c1.34,0,1.7,1.18,1.7,1.94,0,.15-.02.27-.03.35h-2.89ZM93.93,92.94c0-.48-.2-1.22-1.04-1.22-.76,0-1.09.7-1.15,1.22h2.18Z"/>
      <path d="M95.4,91.96c0-.31.21-.54.51-.54s.49.22.5.54c0,.3-.2.53-.51.53-.3,0-.5-.23-.5-.53ZM95.4,94.96c0-.31.21-.54.51-.54s.49.22.5.54c0,.3-.2.53-.51.53-.3,0-.5-.23-.5-.53Z"/>
      <path d="M100.53,90.57h-.02l-.96.52-.14-.57,1.21-.65h.64v5.52h-.72v-4.83Z"/>
      <path d="M106.94,92.57c0,1.88-.7,2.91-1.92,2.91-1.08,0-1.81-1.01-1.83-2.84,0-1.85.8-2.87,1.92-2.87s1.83,1.04,1.83,2.8ZM103.94,92.66c0,1.44.44,2.25,1.12,2.25.77,0,1.13-.89,1.13-2.3s-.35-2.25-1.12-2.25c-.65,0-1.13.8-1.13,2.3Z"/>
    </g>
    <g>
      <path d="M53.56,1.5h78.4c4.17,0,7.55,2.99,7.55,6.67v34.82c0,3.68-3.38,6.67-7.55,6.67H53.56c-4.17,0-7.55-2.99-7.55-6.67V8.17c0-3.68,3.38-6.67,7.55-6.67Z" fill="#fff" stroke="#999" stroke-miterlimit="10" stroke-width="3"/>
      <g isolation="isolate">
        <path d="M63.79,11.12c.36-.06.82-.11,1.42-.11.73,0,1.27.17,1.61.48.31.27.5.69.5,1.2s-.15.93-.44,1.22c-.39.42-1.03.63-1.75.63-.22,0-.43,0-.6-.05v2.29h-.74v-5.66ZM64.53,13.88c.16.04.37.06.61.06.89,0,1.44-.43,1.44-1.22s-.54-1.12-1.35-1.12c-.32,0-.57.03-.7.06v2.23Z"/>
        <path d="M73.04,14.26c-.04-.8-.09-1.76-.08-2.47h-.03c-.2.67-.43,1.38-.72,2.18l-1.01,2.78h-.56l-.93-2.73c-.27-.81-.5-1.55-.66-2.23h-.02c-.02.71-.06,1.67-.11,2.53l-.15,2.46h-.71l.4-5.73h.94l.98,2.77c.24.71.43,1.33.58,1.93h.03c.14-.58.35-1.21.6-1.93l1.02-2.77h.94l.36,5.73h-.72l-.14-2.52Z"/>
        <path d="M78.65,17.42v.42h-4.25v-.42h4.25Z"/>
        <path d="M83.3,16.59c-.27.14-.82.27-1.51.27-1.61,0-2.83-1.02-2.83-2.9s1.22-3.01,2.99-3.01c.71,0,1.16.15,1.36.25l-.18.6c-.28-.14-.68-.24-1.16-.24-1.34,0-2.24.86-2.24,2.36,0,1.4.81,2.3,2.2,2.3.45,0,.91-.09,1.21-.24l.15.59Z"/>
        <path d="M85.19,14.98l-.59,1.8h-.77l1.95-5.73h.89l1.95,5.73h-.79l-.61-1.8h-2.03ZM87.06,14.4l-.56-1.65c-.13-.37-.21-.71-.3-1.05h-.02c-.08.34-.18.69-.29,1.04l-.56,1.66h1.73Z"/>
        <path d="M89.46,11.05h.74v5.11h2.45v.62h-3.19v-5.73Z"/>
        <path d="M93.47,11.05h.74v5.11h2.45v.62h-3.19v-5.73Z"/>
        <path d="M101.09,17.42v.42h-4.25v-.42h4.25Z"/>
        <path d="M101.73,16.78v-5.73h.81l1.84,2.9c.43.67.76,1.28,1.03,1.86h.02c-.07-.77-.08-1.47-.08-2.36v-2.4h.7v5.73h-.75l-1.82-2.91c-.4-.64-.78-1.29-1.07-1.91h-.03c.04.73.06,1.42.06,2.37v2.45h-.7Z"/>
        <path d="M112.22,13.85c0,1.97-1.2,3.02-2.66,3.02s-2.58-1.17-2.58-2.91c0-1.82,1.13-3.01,2.66-3.01s2.58,1.2,2.58,2.9ZM107.78,13.95c0,1.22.66,2.32,1.83,2.32s1.84-1.08,1.84-2.38c0-1.14-.59-2.33-1.83-2.33s-1.84,1.13-1.84,2.39Z"/>
        <path d="M113.18,11.13c.45-.07.99-.12,1.57-.12,1.06,0,1.82.25,2.32.71.51.47.81,1.13.81,2.06s-.29,1.7-.82,2.23c-.54.54-1.42.82-2.53.82-.53,0-.97-.03-1.34-.07v-5.63ZM113.92,16.19c.19.03.46.04.75.04,1.58,0,2.44-.88,2.44-2.43,0-1.35-.76-2.21-2.32-2.21-.38,0-.67.03-.87.08v4.52Z"/>
        <path d="M121.81,14.09h-2.23v2.07h2.48v.62h-3.22v-5.73h3.09v.62h-2.35v1.81h2.23v.61Z"/>
      </g>
      <g isolation="isolate">
        <path d="M72.3,26.64c0-.42,0-.77-.03-1.11h.66l.04.68h.02c.2-.39.68-.77,1.36-.77.57,0,1.45.34,1.45,1.75v2.46h-.75v-2.37c0-.66-.25-1.21-.95-1.21-.49,0-.88.35-1,.76-.03.09-.05.22-.05.35v2.47h-.75v-3Z"/>
        <path d="M79.3,29.64l-.06-.52h-.03c-.23.32-.67.61-1.26.61-.83,0-1.26-.59-1.26-1.18,0-.99.88-1.54,2.47-1.53v-.08c0-.34-.09-.95-.93-.95-.38,0-.78.12-1.07.31l-.17-.49c.34-.22.83-.37,1.35-.37,1.26,0,1.56.86,1.56,1.68v1.54c0,.36.02.71.07.99h-.68ZM79.18,27.55c-.82-.02-1.74.13-1.74.93,0,.48.32.71.71.71.54,0,.88-.34.99-.69.03-.08.04-.16.04-.24v-.71Z"/>
        <path d="M81.11,26.64c0-.42,0-.77-.03-1.11h.65l.03.66h.03c.23-.39.61-.76,1.29-.76.56,0,.99.34,1.16.82h.02c.13-.23.29-.41.46-.54.25-.19.52-.29.91-.29.54,0,1.35.36,1.35,1.79v2.42h-.73v-2.33c0-.79-.29-1.27-.89-1.27-.43,0-.76.31-.88.68-.03.1-.06.24-.06.37v2.54h-.73v-2.46c0-.65-.29-1.13-.86-1.13-.47,0-.81.37-.93.75-.04.11-.06.24-.06.37v2.48h-.73v-3Z"/>
        <path d="M88.62,27.72c.02,1.01.66,1.43,1.41,1.43.54,0,.86-.09,1.14-.21l.13.54c-.26.12-.71.25-1.37.25-1.27,0-2.02-.83-2.02-2.07s.73-2.22,1.93-2.22c1.34,0,1.7,1.18,1.7,1.94,0,.15-.02.27-.03.35h-2.89ZM90.81,27.19c0-.48-.2-1.22-1.04-1.22-.76,0-1.09.7-1.15,1.22h2.18Z"/>
        <path d="M92.28,26.21c0-.31.21-.54.51-.54s.49.22.5.54c0,.3-.2.53-.51.53-.3,0-.5-.23-.5-.53ZM92.28,29.21c0-.31.21-.54.51-.54s.49.22.5.54c0,.3-.2.53-.51.53-.3,0-.5-.23-.5-.53Z"/>
        <path d="M96.92,24.35v1.18h1.07v.57h-1.07v2.22c0,.51.14.8.56.8.2,0,.34-.03.43-.05l.03.56c-.14.06-.37.1-.66.1-.35,0-.63-.11-.81-.31-.21-.22-.29-.59-.29-1.07v-2.24h-.64v-.57h.64v-.99l.73-.2Z"/>
        <path d="M99.67,24.37c0,.25-.18.46-.48.46-.26,0-.45-.2-.45-.46s.2-.47.47-.47.46.2.46.47ZM98.84,29.64v-4.11h.75v4.11h-.75Z"/>
        <path d="M100.83,26.64c0-.42,0-.77-.03-1.11h.65l.03.66h.03c.23-.39.61-.76,1.29-.76.56,0,.99.34,1.16.82h.02c.13-.23.29-.41.46-.54.25-.19.52-.29.91-.29.54,0,1.35.36,1.35,1.79v2.42h-.73v-2.33c0-.79-.29-1.27-.89-1.27-.43,0-.76.31-.88.68-.03.1-.06.24-.06.37v2.54h-.73v-2.46c0-.65-.29-1.13-.86-1.13-.47,0-.81.37-.93.75-.04.11-.06.24-.06.37v2.48h-.73v-3Z"/>
        <path d="M108.33,27.72c.02,1.01.66,1.43,1.41,1.43.54,0,.86-.09,1.14-.21l.13.54c-.26.12-.71.25-1.37.25-1.27,0-2.02-.83-2.02-2.07s.73-2.22,1.93-2.22c1.34,0,1.7,1.18,1.7,1.94,0,.15-.02.27-.03.35h-2.89ZM110.52,27.19c0-.48-.2-1.22-1.04-1.22-.76,0-1.09.7-1.15,1.22h2.18Z"/>
        <path d="M112.07,28.88c.22.14.61.3.99.3.54,0,.8-.27.8-.61,0-.36-.21-.55-.76-.76-.74-.26-1.09-.67-1.09-1.16,0-.66.54-1.21,1.42-1.21.42,0,.78.12,1.01.25l-.19.54c-.16-.1-.46-.24-.84-.24-.44,0-.69.25-.69.56,0,.34.25.49.78.7.71.27,1.08.63,1.08,1.24,0,.72-.56,1.23-1.54,1.23-.45,0-.87-.11-1.16-.28l.19-.57Z"/>
      </g>
    </g>
  </g>
</svg>