<?xml version="1.0" encoding="UTF-8"?>
<svg id="Layer_2" data-name="Layer 2" xmlns="http://www.w3.org/2000/svg" width="334.5" height="135.97" viewBox="0 0 334.5 135.97">
  <g id="Layer_1_copy" data-name="Layer 1 copy">
    <g>
      <path d="M53.56,1.63h78.4c4.17,0,7.55,2.98,7.55,6.67v34.82c0,3.68-3.38,6.67-7.55,6.67H53.56c-4.17,0-7.55-2.99-7.55-6.67V8.29c0-3.68,3.38-6.67,7.55-6.67Z" fill="#fff" stroke="#999" stroke-miterlimit="10" stroke-width="3"/>
      <g isolation="isolate">
        <path d="M58.65,11.7c.36-.06.82-.11,1.42-.11.73,0,1.27.17,1.61.48.31.27.5.69.5,1.2s-.15.93-.44,1.22c-.39.42-1.03.63-1.75.63-.22,0-.43,0-.6-.05v2.29h-.74v-5.66ZM59.38,14.46c.16.04.37.06.61.06.89,0,1.44-.43,1.44-1.22s-.54-1.12-1.35-1.12c-.32,0-.57.03-.7.06v2.23Z"/>
        <path d="M67.89,14.84c-.04-.8-.09-1.76-.08-2.47h-.03c-.2.67-.43,1.38-.72,2.18l-1.01,2.78h-.56l-.93-2.73c-.27-.81-.5-1.55-.66-2.23h-.02c-.02.71-.06,1.67-.11,2.53l-.15,2.46h-.71l.4-5.73h.94l.98,2.77c.24.71.43,1.33.58,1.93h.03c.14-.58.35-1.21.6-1.93l1.02-2.77h.94l.36,5.73h-.72l-.14-2.52Z"/>
        <path d="M73.5,17.99v.43h-4.25v-.43h4.25Z"/>
        <path d="M74.05,16.46c.33.2.82.37,1.33.37.76,0,1.2-.4,1.2-.98,0-.54-.31-.84-1.08-1.14-.94-.33-1.51-.82-1.51-1.62,0-.89.74-1.56,1.85-1.56.59,0,1.01.14,1.27.28l-.2.6c-.19-.1-.57-.27-1.09-.27-.78,0-1.08.47-1.08.86,0,.54.35.8,1.14,1.11.97.37,1.46.84,1.46,1.68,0,.88-.65,1.65-2.01,1.65-.55,0-1.16-.16-1.46-.37l.19-.62Z"/>
        <path d="M82.34,17.17c-.27.14-.82.27-1.51.27-1.61,0-2.83-1.02-2.83-2.9s1.22-3.01,2.99-3.01c.71,0,1.16.15,1.36.26l-.18.6c-.28-.14-.68-.24-1.16-.24-1.34,0-2.24.86-2.24,2.36,0,1.4.81,2.3,2.2,2.3.45,0,.91-.09,1.21-.24l.15.59Z"/>
        <path d="M87.99,14.43c0,1.97-1.2,3.02-2.66,3.02s-2.58-1.17-2.58-2.91c0-1.82,1.13-3.01,2.66-3.01s2.58,1.2,2.58,2.9ZM83.54,14.53c0,1.22.66,2.32,1.83,2.32s1.84-1.08,1.84-2.38c0-1.14-.59-2.33-1.83-2.33s-1.84,1.13-1.84,2.39Z"/>
        <path d="M88.95,11.7c.36-.06.82-.11,1.42-.11.73,0,1.27.17,1.61.48.31.27.5.69.5,1.2s-.15.93-.44,1.22c-.39.42-1.03.63-1.75.63-.22,0-.43,0-.6-.05v2.29h-.74v-5.66ZM89.69,14.46c.16.04.37.06.61.06.89,0,1.44-.43,1.44-1.22s-.54-1.12-1.35-1.12c-.32,0-.57.03-.7.06v2.23Z"/>
        <path d="M96.44,14.67h-2.23v2.06h2.48v.62h-3.22v-5.73h3.09v.62h-2.35v1.81h2.23v.61Z"/>
        <path d="M101.25,17.99v.43h-4.25v-.43h4.25Z"/>
        <path d="M101.9,17.36v-5.73h.81l1.84,2.9c.43.67.76,1.28,1.03,1.86h.02c-.07-.77-.08-1.47-.08-2.36v-2.4h.7v5.73h-.75l-1.82-2.91c-.4-.64-.78-1.29-1.07-1.91h-.03c.04.73.06,1.42.06,2.37v2.45h-.7Z"/>
        <path d="M112.39,14.43c0,1.97-1.2,3.02-2.66,3.02s-2.58-1.17-2.58-2.91c0-1.82,1.13-3.01,2.66-3.01s2.58,1.2,2.58,2.9ZM107.94,14.53c0,1.22.66,2.32,1.83,2.32s1.84-1.08,1.84-2.38c0-1.14-.59-2.33-1.83-2.33s-1.84,1.13-1.84,2.39Z"/>
        <path d="M113.35,11.71c.45-.07.99-.12,1.57-.12,1.06,0,1.82.25,2.32.71.51.47.81,1.13.81,2.06s-.29,1.7-.82,2.23c-.54.54-1.42.82-2.53.82-.53,0-.97-.03-1.34-.07v-5.63ZM114.09,16.77c.19.03.46.04.75.04,1.58,0,2.44-.88,2.44-2.43,0-1.35-.76-2.21-2.32-2.21-.38,0-.67.03-.87.08v4.52Z"/>
        <path d="M121.98,14.67h-2.23v2.06h2.48v.62h-3.22v-5.73h3.09v.62h-2.35v1.81h2.23v.61Z"/>
      </g>
      <g isolation="isolate">
        <path d="M82.43,29.49l-.06-.52h-.03c-.23.32-.67.61-1.26.61-.83,0-1.26-.59-1.26-1.18,0-.99.88-1.54,2.47-1.53v-.08c0-.34-.09-.95-.93-.95-.38,0-.78.12-1.07.31l-.17-.49c.34-.22.83-.37,1.35-.37,1.26,0,1.56.86,1.56,1.68v1.54c0,.36.02.71.07.99h-.68ZM82.32,27.39c-.82-.02-1.74.13-1.74.93,0,.48.32.71.71.71.54,0,.88-.34.99-.69.03-.08.04-.16.04-.24v-.71Z"/>
        <path d="M84.25,26.66c0-.48,0-.9-.03-1.28h.65l.03.81h.03c.19-.55.64-.9,1.14-.9.08,0,.14,0,.21.03v.71c-.08-.02-.15-.03-.25-.03-.53,0-.9.4-1,.96-.02.1-.03.22-.03.35v2.19h-.74v-2.83Z"/>
        <path d="M90.5,25.38c-.02.3-.03.63-.03,1.13v2.39c0,.94-.19,1.52-.59,1.88-.4.38-.98.49-1.5.49s-1.04-.12-1.37-.34l.19-.57c.27.17.7.32,1.21.32.77,0,1.33-.4,1.33-1.44v-.46h-.02c-.23.38-.67.69-1.31.69-1.02,0-1.75-.87-1.75-2.01,0-1.39.91-2.18,1.85-2.18.71,0,1.1.38,1.28.71h.02l.03-.62h.65ZM89.73,27c0-.13,0-.24-.04-.34-.14-.43-.5-.79-1.05-.79-.71,0-1.22.6-1.22,1.56,0,.81.41,1.48,1.22,1.48.46,0,.88-.29,1.04-.77.04-.13.06-.27.06-.4v-.74Z"/>
        <path d="M94.64,29.34c-.2.1-.63.24-1.18.24-1.24,0-2.05-.84-2.05-2.1s.87-2.18,2.21-2.18c.44,0,.83.11,1.04.21l-.17.58c-.18-.1-.46-.2-.87-.2-.94,0-1.45.7-1.45,1.56,0,.95.61,1.54,1.43,1.54.42,0,.71-.11.92-.2l.13.56Z"/>
        <path d="M95.34,26.06c0-.31.21-.54.51-.54s.49.22.5.54c0,.3-.2.53-.51.53-.3,0-.5-.23-.5-.53ZM95.34,29.06c0-.31.21-.54.51-.54s.49.22.5.54c0,.3-.2.53-.51.53-.3,0-.5-.23-.5-.53Z"/>
        <path d="M100.71,26.67c0,1.88-.7,2.92-1.92,2.92-1.08,0-1.81-1.01-1.83-2.84,0-1.85.8-2.87,1.92-2.87s1.83,1.04,1.83,2.8ZM97.71,26.75c0,1.44.44,2.25,1.12,2.25.77,0,1.13-.89,1.13-2.3s-.35-2.25-1.12-2.25c-.65,0-1.13.8-1.13,2.3Z"/>
        <path d="M74.92,32.96h.75v6.03h-.75v-6.03Z"/>
        <path d="M80.65,36.9c0,1.52-1.05,2.18-2.05,2.18-1.11,0-1.97-.82-1.97-2.12,0-1.38.9-2.18,2.04-2.18s1.98.86,1.98,2.12ZM77.39,36.94c0,.9.52,1.58,1.25,1.58s1.25-.67,1.25-1.6c0-.7-.35-1.58-1.23-1.58s-1.27.82-1.27,1.6Z"/>
        <path d="M84.53,38.84c-.2.1-.63.24-1.18.24-1.24,0-2.05-.84-2.05-2.1s.87-2.18,2.21-2.18c.44,0,.83.11,1.04.21l-.17.58c-.18-.1-.46-.2-.87-.2-.94,0-1.45.7-1.45,1.56,0,.95.61,1.54,1.43,1.54.42,0,.71-.11.92-.2l.13.56Z"/>
        <path d="M87.68,38.99l-.06-.52h-.03c-.23.32-.67.61-1.26.61-.83,0-1.26-.59-1.26-1.18,0-.99.88-1.54,2.47-1.53v-.08c0-.34-.09-.95-.93-.95-.38,0-.78.12-1.07.31l-.17-.49c.34-.22.83-.37,1.35-.37,1.26,0,1.56.86,1.56,1.68v1.54c0,.36.02.71.07.99h-.68ZM87.57,36.89c-.82-.02-1.74.13-1.74.93,0,.48.32.71.71.71.54,0,.88-.34.99-.69.03-.08.04-.16.04-.24v-.71Z"/>
        <path d="M89.5,32.96h.75v6.03h-.75v-6.03Z"/>
        <path d="M91.4,38.22c.22.14.61.3.99.3.54,0,.8-.27.8-.61s-.21-.55-.76-.76c-.74-.26-1.09-.67-1.09-1.16,0-.66.54-1.21,1.42-1.21.42,0,.78.12,1.01.26l-.19.54c-.16-.1-.46-.24-.84-.24-.44,0-.69.25-.69.56,0,.34.25.49.78.7.71.27,1.08.63,1.08,1.24,0,.72-.56,1.23-1.54,1.23-.45,0-.87-.11-1.16-.28l.19-.57Z"/>
        <path d="M94.69,35.56c0-.31.21-.54.51-.54s.49.22.5.54c0,.3-.2.53-.51.53-.3,0-.5-.23-.5-.53ZM94.69,38.56c0-.31.21-.54.51-.54s.49.22.5.54c0,.3-.2.53-.51.53-.3,0-.5-.23-.5-.53Z"/>
        <path d="M98.51,39.94v-6.77h1.56v.47h-.98v5.84h.98v.47h-1.56Z"/>
        <path d="M105.55,33.16v6.78h-1.56v-.47h.98v-5.85h-.98v-.47h1.56Z"/>
      </g>
      <path d="M.5,27.39v4.19h34.69v4.42l8.87-6.51-8.87-6.51v4.42H.5Z" fill="#e6e6e6" stroke="rgba(0, 0, 0, .75)" stroke-linecap="round" stroke-linejoin="round"/>
      <g>
        <line x1="92.76" y1="51.32" x2="92.76" y2="65.03" fill="none" stroke="#000" stroke-miterlimit="10"/>
        <polygon points="90.95 63.74 92.84 70.78 94.73 63.74 90.95 63.74"/>
      </g>
      <g>
        <rect x="145.5" width="189" height="54.52" fill="#ccc"/>
        <g isolation="isolate">
          <path d="M150.44,12.46v-2.29l-1.7-3.1h.79l.76,1.49c.21.41.37.74.54,1.11h.02c.15-.35.34-.7.54-1.11l.78-1.49h.79l-1.81,3.09v2.29h-.7Z"/>
          <path d="M153.79,10.77l-.56,1.69h-.72l1.83-5.39h.84l1.84,5.39h-.74l-.58-1.69h-1.91ZM155.55,10.22l-.53-1.55c-.12-.35-.2-.67-.28-.98h-.02c-.08.32-.17.65-.27.98l-.53,1.56h1.62Z"/>
          <path d="M157.81,7.15c.35-.07.86-.11,1.34-.11.74,0,1.22.14,1.56.44.27.24.42.61.42,1.02,0,.71-.45,1.18-1.02,1.38v.02c.42.14.66.53.79,1.09.18.75.3,1.27.42,1.48h-.72c-.09-.15-.21-.62-.36-1.29-.16-.74-.45-1.02-1.08-1.05h-.66v2.33h-.7v-5.32ZM158.51,9.6h.71c.74,0,1.22-.41,1.22-1.02,0-.7-.5-1-1.24-1.01-.34,0-.58.03-.69.06v1.97Z"/>
          <path d="M163.43,12.46l-1.76-5.39h.75l.84,2.65c.23.73.43,1.38.58,2.01h.02c.15-.62.38-1.3.62-2.01l.91-2.66h.74l-1.93,5.39h-.77Z"/>
          <path d="M169.16,7.51c0,.24-.17.43-.45.43-.25,0-.42-.19-.42-.43s.18-.44.44-.44.43.19.43.44ZM168.38,12.46v-3.87h.7v3.87h-.7Z"/>
          <path d="M170.25,9.64c0-.4,0-.73-.03-1.05h.62l.04.64h.02c.19-.37.64-.73,1.28-.73.54,0,1.37.32,1.37,1.65v2.31h-.7v-2.23c0-.62-.23-1.14-.9-1.14-.46,0-.82.33-.94.72-.03.09-.05.21-.05.33v2.33h-.7v-2.82Z"/>
          <path d="M174.6,11.74c.21.14.58.28.93.28.51,0,.75-.26.75-.58s-.2-.52-.72-.71c-.7-.25-1.02-.63-1.02-1.1,0-.62.5-1.14,1.33-1.14.39,0,.74.11.95.24l-.18.51c-.15-.1-.43-.22-.79-.22-.42,0-.65.24-.65.53,0,.32.23.46.74.66.67.26,1.02.59,1.02,1.17,0,.68-.53,1.16-1.45,1.16-.42,0-.82-.1-1.09-.26l.18-.54Z"/>
          <path d="M178.71,7.48v1.11h1.01v.54h-1.01v2.09c0,.48.14.75.53.75.18,0,.32-.02.41-.05l.03.53c-.14.06-.35.1-.62.1-.33,0-.59-.1-.76-.3-.2-.21-.27-.55-.27-1.01v-2.11h-.6v-.54h.6v-.93l.69-.18Z"/>
          <path d="M180.51,9.8c0-.46,0-.85-.03-1.21h.62l.02.76h.03c.18-.52.6-.85,1.07-.85.08,0,.13,0,.2.02v.66c-.07-.02-.14-.02-.24-.02-.5,0-.85.38-.94.9-.02.1-.03.21-.03.33v2.06h-.7v-2.66Z"/>
          <path d="M186.36,11.41c0,.4,0,.75.03,1.05h-.62l-.04-.63h-.02c-.18.31-.59.72-1.28.72-.61,0-1.33-.34-1.33-1.69v-2.26h.7v2.14c0,.74.22,1.23.86,1.23.47,0,.8-.33.93-.64.04-.1.06-.23.06-.36v-2.37h.7v2.81Z"/>
          <path d="M190.29,12.32c-.18.1-.59.22-1.11.22-1.17,0-1.93-.79-1.93-1.97s.82-2.05,2.08-2.05c.42,0,.78.1.98.2l-.16.54c-.17-.1-.43-.18-.82-.18-.89,0-1.37.66-1.37,1.46,0,.9.58,1.45,1.34,1.45.4,0,.66-.1.86-.19l.12.53Z"/>
          <path d="M192.07,7.48v1.11h1.01v.54h-1.01v2.09c0,.48.14.75.53.75.18,0,.32-.02.41-.05l.03.53c-.14.06-.35.1-.62.1-.33,0-.59-.1-.76-.3-.2-.21-.27-.55-.27-1.01v-2.11h-.6v-.54h.6v-.93l.69-.18Z"/>
          <path d="M194.65,7.51c0,.24-.17.43-.45.43-.25,0-.42-.19-.42-.43s.18-.44.44-.44.43.19.43.44ZM193.87,12.46v-3.87h.7v3.87h-.7Z"/>
          <path d="M199.24,10.5c0,1.43-.99,2.05-1.93,2.05-1.05,0-1.86-.77-1.86-1.99,0-1.3.85-2.06,1.92-2.06s1.86.81,1.86,1.99ZM196.17,10.54c0,.85.49,1.49,1.17,1.49s1.18-.63,1.18-1.5c0-.66-.33-1.49-1.16-1.49s-1.19.77-1.19,1.5Z"/>
          <path d="M200.13,9.64c0-.4,0-.73-.03-1.05h.62l.04.64h.02c.19-.37.64-.73,1.28-.73.54,0,1.37.32,1.37,1.65v2.31h-.7v-2.23c0-.62-.23-1.14-.89-1.14-.46,0-.82.33-.94.72-.03.09-.05.21-.05.33v2.33h-.7v-2.82Z"/>
          <path d="M204.47,11.74c.21.14.58.28.93.28.51,0,.75-.26.75-.58s-.2-.52-.72-.71c-.7-.25-1.02-.63-1.02-1.1,0-.62.5-1.14,1.33-1.14.39,0,.74.11.95.24l-.18.51c-.15-.1-.43-.22-.79-.22-.42,0-.65.24-.65.53,0,.32.23.46.74.66.67.26,1.02.59,1.02,1.17,0,.68-.53,1.16-1.45,1.16-.42,0-.82-.1-1.09-.26l.18-.54Z"/>
        </g>
        <g isolation="isolate">
          <path d="M149.57,30.71c0-.46-.01-.84-.03-1.19h.59l.03.62h.02c.27-.44.7-.71,1.29-.71.88,0,1.54.74,1.54,1.85,0,1.31-.8,1.95-1.65,1.95-.48,0-.9-.21-1.12-.57h-.02v1.97h-.65v-3.93ZM150.23,31.68c0,.1.02.19.03.27.12.46.52.77.99.77.7,0,1.1-.57,1.1-1.4,0-.73-.38-1.35-1.08-1.35-.45,0-.87.32-1,.82-.02.08-.04.18-.04.27v.62Z"/>
          <path d="M156.88,32.17c0,.38,0,.71.03.99h-.59l-.04-.59h-.02c-.17.29-.56.68-1.2.68-.57,0-1.25-.32-1.25-1.59v-2.12h.66v2.01c0,.69.21,1.16.81,1.16.44,0,.75-.31.87-.6.04-.1.06-.22.06-.34v-2.23h.66v2.64Z"/>
          <path d="M158.77,28.48v1.04h.95v.5h-.95v1.96c0,.45.13.71.5.71.17,0,.3-.02.38-.04l.03.5c-.13.05-.33.09-.59.09-.31,0-.56-.1-.71-.28-.19-.2-.26-.52-.26-.95v-1.98h-.56v-.5h.56v-.87l.65-.17Z"/>
          <path d="M163.7,31.31c0,1.34-.93,1.93-1.81,1.93-.98,0-1.74-.72-1.74-1.87,0-1.22.8-1.93,1.8-1.93s1.75.76,1.75,1.87ZM160.82,31.35c0,.79.46,1.4,1.1,1.4s1.1-.59,1.1-1.41c0-.62-.31-1.4-1.09-1.4s-1.12.72-1.12,1.41Z"/>
          <path d="M164.5,33.16c.02-.25.03-.62.03-.94v-4.39h.65v2.28h.02c.23-.41.65-.67,1.24-.67.9,0,1.54.75,1.53,1.85,0,1.3-.82,1.94-1.63,1.94-.53,0-.95-.2-1.22-.68h-.02l-.03.6h-.57ZM165.18,31.7c0,.08.02.17.03.24.13.46.51.77.99.77.69,0,1.1-.56,1.1-1.4,0-.73-.38-1.35-1.08-1.35-.45,0-.87.31-1.01.81-.02.08-.04.17-.04.27v.65Z"/>
          <path d="M167.91,34.21c.3-.02.56-.11.72-.28.18-.21.25-.5.25-1.37v-3.04h.66v3.29c0,.71-.11,1.16-.44,1.49-.29.29-.77.41-1.13.41l-.07-.52ZM169.61,28.5c0,.22-.15.41-.41.41-.25,0-.41-.19-.41-.41,0-.23.17-.41.42-.41s.4.18.4.41Z"/>
          <path d="M170.98,31.46c.02.89.59,1.26,1.25,1.26.47,0,.76-.08,1.01-.19l.11.47c-.23.1-.63.22-1.21.22-1.12,0-1.79-.74-1.79-1.83s.65-1.96,1.7-1.96c1.19,0,1.5,1.04,1.5,1.71,0,.13-.01.24-.02.31h-2.55ZM172.92,30.99c0-.42-.17-1.07-.92-1.07-.67,0-.96.62-1.01,1.07h1.93Z"/>
          <path d="M176.96,33.02c-.17.09-.56.21-1.04.21-1.1,0-1.81-.74-1.81-1.85s.77-1.93,1.95-1.93c.39,0,.74.1.92.19l-.15.51c-.16-.09-.41-.17-.77-.17-.83,0-1.28.62-1.28,1.37,0,.84.54,1.36,1.26,1.36.38,0,.62-.1.81-.18l.11.5Z"/>
          <path d="M178.63,28.48v1.04h.95v.5h-.95v1.96c0,.45.13.71.5.71.17,0,.3-.02.38-.04l.03.5c-.13.05-.33.09-.59.09-.31,0-.56-.1-.71-.28-.19-.2-.26-.52-.26-.95v-1.98h-.56v-.5h.56v-.87l.65-.17Z"/>
          <path d="M183.13,28.89h-.01l-.85.46-.13-.5,1.07-.57h.56v4.88h-.64v-4.26Z"/>
          <path d="M188.78,30.67c0,1.66-.62,2.58-1.7,2.58-.95,0-1.6-.89-1.61-2.51,0-1.64.71-2.54,1.7-2.54s1.61.92,1.61,2.47ZM186.13,30.74c0,1.27.39,1.99.99,1.99.68,0,1-.79,1-2.03s-.31-1.99-.99-1.99c-.58,0-1,.71-1,2.03Z"/>
          <path d="M149.48,41.48c.2.13.54.26.87.26.48,0,.71-.24.71-.54,0-.32-.19-.49-.68-.67-.65-.23-.96-.59-.96-1.03,0-.59.47-1.07,1.25-1.07.37,0,.69.11.89.23l-.17.48c-.14-.09-.41-.21-.74-.21-.39,0-.61.23-.61.5,0,.3.22.44.69.62.63.24.95.56.95,1.1,0,.64-.5,1.09-1.36,1.09-.4,0-.77-.1-1.02-.25l.17-.5Z"/>
          <path d="M152.91,40.46c.01.89.59,1.26,1.25,1.26.47,0,.76-.08,1.01-.19l.11.47c-.23.1-.63.22-1.21.22-1.12,0-1.79-.74-1.79-1.83s.65-1.96,1.7-1.96c1.19,0,1.5,1.04,1.5,1.71,0,.13-.01.24-.02.31h-2.55ZM154.85,39.99c0-.42-.17-1.07-.92-1.07-.67,0-.96.62-1.01,1.07h1.93Z"/>
          <path d="M156.3,39.51c0-.38,0-.68-.03-.98h.59l.04.6h.02c.18-.35.6-.68,1.2-.68.5,0,1.28.3,1.28,1.55v2.17h-.66v-2.09c0-.58-.22-1.07-.84-1.07-.44,0-.77.31-.89.68-.03.08-.05.2-.05.31v2.18h-.66v-2.65Z"/>
          <path d="M163.6,36.83v4.39c0,.32,0,.69.03.94h-.59l-.03-.63h-.01c-.2.41-.65.71-1.24.71-.88,0-1.55-.74-1.55-1.85,0-1.21.74-1.95,1.63-1.95.56,0,.93.26,1.1.56h.02v-2.17h.66ZM162.94,40c0-.08,0-.2-.03-.28-.1-.42-.46-.77-.95-.77-.68,0-1.09.6-1.09,1.4,0,.74.36,1.34,1.07,1.34.44,0,.85-.29.97-.79.02-.09.03-.18.03-.29v-.63Z"/>
          <path d="M166.28,39.51c0-.38,0-.68-.03-.98h.58l.03.58h.02c.2-.34.54-.67,1.14-.67.5,0,.87.3,1.03.73h.01c.11-.2.25-.36.41-.47.22-.17.46-.25.8-.25.48,0,1.19.32,1.19,1.58v2.14h-.65v-2.06c0-.7-.25-1.12-.79-1.12-.38,0-.67.28-.78.6-.03.09-.05.21-.05.33v2.24h-.65v-2.18c0-.58-.25-1-.76-1-.41,0-.71.33-.82.66-.04.1-.05.21-.05.32v2.19h-.65v-2.65Z"/>
          <path d="M173.27,37.5c0,.23-.16.41-.42.41-.23,0-.4-.18-.4-.41s.17-.41.41-.41.41.18.41.41ZM172.54,42.16v-3.63h.66v3.63h-.66Z"/>
          <path d="M177.43,36.83v4.39c0,.32,0,.69.03.94h-.59l-.03-.63h-.01c-.2.41-.65.71-1.24.71-.88,0-1.55-.74-1.55-1.85,0-1.21.74-1.95,1.63-1.95.56,0,.93.26,1.1.56h.02v-2.17h.66ZM176.77,40c0-.08,0-.2-.03-.28-.1-.42-.46-.77-.95-.77-.68,0-1.09.6-1.09,1.4,0,.74.36,1.34,1.07,1.34.44,0,.85-.29.97-.79.02-.09.03-.18.03-.29v-.63Z"/>
          <path d="M178.36,39.13c0-.28.19-.47.45-.47s.44.2.44.47c0,.26-.17.46-.45.46-.26,0-.44-.2-.44-.46ZM178.36,41.78c0-.28.19-.47.45-.47s.44.2.44.47c0,.26-.17.47-.45.47-.26,0-.44-.2-.44-.47Z"/>
          <path d="M180.87,37.48v1.04h.95v.5h-.95v1.96c0,.45.13.71.5.71.17,0,.3-.02.38-.04l.03.5c-.13.05-.33.09-.59.09-.31,0-.55-.1-.71-.28-.19-.2-.25-.52-.25-.95v-1.98h-.56v-.5h.56v-.87l.65-.17Z"/>
          <path d="M183.29,37.5c0,.23-.16.41-.42.41-.23,0-.4-.18-.4-.41s.17-.41.41-.41.41.18.41.41ZM182.56,42.16v-3.63h.66v3.63h-.66Z"/>
          <path d="M184.31,39.51c0-.38,0-.68-.03-.98h.58l.03.58h.02c.2-.34.54-.67,1.14-.67.5,0,.87.3,1.03.73h.01c.11-.2.25-.36.41-.47.22-.17.46-.25.8-.25.48,0,1.19.32,1.19,1.58v2.14h-.65v-2.06c0-.7-.25-1.12-.79-1.12-.38,0-.67.28-.78.6-.03.09-.05.21-.05.33v2.24h-.65v-2.18c0-.58-.25-1-.76-1-.41,0-.71.33-.82.66-.04.1-.05.21-.05.32v2.19h-.65v-2.65Z"/>
          <path d="M190.93,40.46c.02.89.59,1.26,1.25,1.26.47,0,.76-.08,1.01-.19l.11.47c-.23.1-.63.22-1.21.22-1.12,0-1.79-.74-1.79-1.83s.65-1.96,1.7-1.96c1.19,0,1.5,1.04,1.5,1.71,0,.13-.01.24-.02.31h-2.55ZM192.87,39.99c0-.42-.17-1.07-.92-1.07-.67,0-.96.62-1.01,1.07h1.93Z"/>
          <path d="M194.23,41.48c.2.13.54.26.87.26.48,0,.71-.24.71-.54,0-.32-.19-.49-.68-.67-.65-.23-.96-.59-.96-1.03,0-.59.47-1.07,1.25-1.07.37,0,.69.11.89.23l-.17.48c-.14-.09-.41-.21-.74-.21-.39,0-.61.23-.61.5,0,.3.22.44.69.62.63.24.95.56.95,1.1,0,.64-.5,1.09-1.36,1.09-.4,0-.77-.1-1.02-.25l.17-.5Z"/>
          <path d="M200.9,42.16l-.05-.46h-.02c-.2.29-.59.54-1.11.54-.74,0-1.11-.52-1.11-1.04,0-.88.78-1.36,2.18-1.35v-.08c0-.3-.08-.84-.83-.84-.34,0-.69.1-.95.27l-.15-.43c.3-.2.74-.32,1.19-.32,1.11,0,1.38.76,1.38,1.49v1.36c0,.31.01.62.06.87h-.6ZM200.8,40.3c-.72-.01-1.54.11-1.54.82,0,.43.29.63.62.63.47,0,.77-.3.88-.61.02-.07.04-.14.04-.21v-.63Z"/>
          <path d="M202.5,39.66c0-.43,0-.8-.03-1.13h.58l.02.71h.03c.17-.49.56-.8,1.01-.8.08,0,.13,0,.19.02v.62c-.07-.01-.13-.02-.22-.02-.47,0-.8.35-.89.85-.02.09-.03.2-.03.31v1.94h-.65v-2.5Z"/>
          <path d="M208.02,38.53c-.02.26-.03.55-.03,1v2.11c0,.83-.17,1.34-.52,1.66-.35.33-.86.44-1.32.44s-.92-.11-1.21-.3l.17-.5c.24.15.62.29,1.07.29.67,0,1.17-.35,1.17-1.27v-.41h-.02c-.2.34-.59.61-1.16.61-.9,0-1.55-.77-1.55-1.77,0-1.23.8-1.93,1.64-1.93.63,0,.98.33,1.13.63h.01l.03-.55h.58ZM207.34,39.96c0-.11,0-.21-.04-.3-.12-.38-.44-.7-.92-.7-.63,0-1.08.53-1.08,1.37,0,.71.36,1.31,1.07,1.31.41,0,.77-.26.92-.68.04-.11.05-.24.05-.35v-.65Z"/>
          <path d="M211.67,42.02c-.17.09-.56.21-1.04.21-1.1,0-1.81-.74-1.81-1.85s.77-1.93,1.95-1.93c.39,0,.74.1.92.19l-.15.51c-.16-.09-.41-.17-.77-.17-.83,0-1.28.62-1.28,1.37,0,.84.54,1.36,1.26,1.36.38,0,.62-.1.81-.18l.11.5Z"/>
          <path d="M212.29,39.13c0-.28.19-.47.45-.47s.44.2.44.47c0,.26-.17.46-.45.46-.26,0-.44-.2-.44-.46ZM212.29,41.78c0-.28.19-.47.45-.47s.44.2.44.47c0,.26-.17.47-.45.47-.26,0-.44-.2-.44-.47Z"/>
          <path d="M218.62,39.67c0,1.66-.62,2.58-1.7,2.58-.95,0-1.6-.89-1.61-2.51,0-1.64.71-2.54,1.7-2.54s1.61.92,1.61,2.47ZM215.97,39.74c0,1.27.39,1.99.99,1.99.68,0,1-.79,1-2.03s-.31-1.99-.99-1.99c-.58,0-1,.71-1,2.03Z"/>
          <path d="M219.01,43.08c.17-.44.37-1.25.45-1.79l.74-.08c-.17.64-.5,1.47-.71,1.82l-.47.04Z"/>
          <path d="M222.55,42.16c.01-.25.03-.62.03-.94v-4.39h.65v2.28h.02c.23-.41.65-.67,1.24-.67.9,0,1.54.75,1.53,1.85,0,1.3-.82,1.94-1.63,1.94-.53,0-.95-.2-1.22-.68h-.02l-.03.6h-.57ZM223.23,40.7c0,.08.02.17.03.24.13.46.51.77.99.77.69,0,1.1-.56,1.1-1.4,0-.73-.38-1.35-1.08-1.35-.45,0-.87.31-1.01.81-.02.08-.04.17-.04.27v.65Z"/>
          <path d="M226.84,36.83h.66v5.33h-.66v-5.33Z"/>
          <path d="M231.9,40.31c0,1.34-.93,1.93-1.81,1.93-.98,0-1.74-.72-1.74-1.87,0-1.22.8-1.93,1.8-1.93s1.75.76,1.75,1.87ZM229.02,40.35c0,.79.46,1.4,1.1,1.4s1.1-.59,1.1-1.41c0-.62-.31-1.4-1.09-1.4s-1.12.72-1.12,1.41Z"/>
          <path d="M235.32,42.02c-.17.09-.56.21-1.04.21-1.1,0-1.81-.74-1.81-1.85s.77-1.93,1.95-1.93c.39,0,.74.1.92.19l-.15.51c-.16-.09-.41-.17-.77-.17-.83,0-1.28.62-1.28,1.37,0,.84.54,1.36,1.26,1.36.38,0,.62-.1.81-.18l.11.5Z"/>
          <path d="M236.74,40.19h.01c.09-.13.22-.29.32-.41l1.07-1.25h.79l-1.4,1.49,1.6,2.14h-.8l-1.25-1.74-.34.38v1.37h-.65v-5.33h.65v3.36Z"/>
          <path d="M241.93,37.5c0,.23-.16.41-.42.41-.23,0-.4-.18-.4-.41s.17-.41.41-.41.41.18.41.41ZM241.2,42.16v-3.63h.66v3.63h-.66Z"/>
          <path d="M242.95,39.51c0-.38,0-.68-.03-.98h.59l.04.6h.02c.18-.35.6-.68,1.2-.68.5,0,1.28.3,1.28,1.55v2.17h-.66v-2.09c0-.58-.22-1.07-.84-1.07-.44,0-.77.31-.89.68-.03.08-.04.2-.04.31v2.18h-.66v-2.65Z"/>
          <path d="M248.65,39.96l3.48-1.79v.52l-2.93,1.47h0s2.93,1.49,2.93,1.49v.52l-3.48-1.79v-.41Z"/>
          <path d="M253.17,39.51c0-.38,0-.68-.03-.98h.58l.03.58h.02c.2-.34.54-.67,1.14-.67.5,0,.87.3,1.03.73h.01c.11-.2.26-.36.41-.47.22-.17.46-.25.8-.25.48,0,1.19.32,1.19,1.58v2.14h-.65v-2.06c0-.7-.25-1.12-.79-1.12-.38,0-.67.28-.78.6-.03.09-.05.21-.05.33v2.24h-.65v-2.18c0-.58-.26-1-.76-1-.41,0-.71.33-.82.66-.04.1-.05.21-.05.32v2.19h-.65v-2.65Z"/>
          <path d="M261.44,42.16l-.05-.46h-.02c-.2.29-.59.54-1.11.54-.74,0-1.11-.52-1.11-1.04,0-.88.78-1.36,2.18-1.35v-.08c0-.3-.08-.84-.83-.84-.34,0-.69.1-.95.27l-.15-.43c.3-.2.74-.32,1.19-.32,1.11,0,1.38.76,1.38,1.49v1.36c0,.31.01.62.06.87h-.6ZM261.34,40.3c-.72-.01-1.54.11-1.54.82,0,.43.29.63.62.63.47,0,.77-.3.88-.61.02-.07.04-.14.04-.21v-.63Z"/>
          <path d="M263.78,37.5c0,.23-.16.41-.42.41-.23,0-.4-.18-.4-.41s.17-.41.41-.41.41.18.41.41ZM263.04,42.16v-3.63h.66v3.63h-.66Z"/>
          <path d="M264.8,39.51c0-.38,0-.68-.03-.98h.59l.04.6h.01c.18-.35.6-.68,1.2-.68.5,0,1.28.3,1.28,1.55v2.17h-.66v-2.09c0-.58-.22-1.07-.84-1.07-.44,0-.77.31-.89.68-.03.08-.04.2-.04.31v2.18h-.66v-2.65Z"/>
          <path d="M272.39,40.37l-3.48,1.79v-.52l2.96-1.47h0s-2.96-1.49-2.96-1.49v-.52l3.48,1.79v.42Z"/>
        </g>
      </g>
      <g>
        <path d="M53.56,71.88h78.4c4.17,0,7.55,2.98,7.55,6.67v34.82c0,3.68-3.38,6.67-7.55,6.67H53.56c-4.17,0-7.55-2.99-7.55-6.67v-34.82c0-3.68,3.38-6.67,7.55-6.67Z" fill="#fff" stroke="#999" stroke-miterlimit="10" stroke-width="3"/>
        <g isolation="isolate">
          <path d="M58.65,81.95c.36-.06.82-.11,1.42-.11.73,0,1.27.17,1.61.48.31.27.5.69.5,1.2s-.15.93-.44,1.22c-.39.42-1.03.63-1.75.63-.22,0-.43,0-.6-.05v2.29h-.74v-5.66ZM59.38,84.71c.16.04.37.06.61.06.89,0,1.44-.43,1.44-1.22s-.54-1.12-1.35-1.12c-.32,0-.57.03-.7.06v2.23Z"/>
          <path d="M67.89,85.1c-.04-.8-.09-1.76-.08-2.47h-.03c-.2.67-.43,1.39-.72,2.18l-1.01,2.78h-.56l-.93-2.73c-.27-.81-.5-1.55-.66-2.23h-.02c-.02.71-.06,1.67-.11,2.53l-.15,2.46h-.71l.4-5.73h.94l.98,2.77c.24.71.43,1.33.58,1.93h.03c.14-.58.35-1.21.6-1.93l1.02-2.77h.94l.36,5.73h-.72l-.14-2.52Z"/>
          <path d="M73.5,88.25v.43h-4.25v-.43h4.25Z"/>
          <path d="M74.05,86.71c.33.2.82.37,1.33.37.76,0,1.2-.4,1.2-.98,0-.54-.31-.84-1.08-1.14-.94-.33-1.51-.82-1.51-1.62,0-.89.74-1.56,1.85-1.56.59,0,1.01.14,1.27.28l-.2.6c-.19-.1-.57-.27-1.09-.27-.78,0-1.08.47-1.08.86,0,.54.35.8,1.14,1.1.97.37,1.46.84,1.46,1.68,0,.88-.65,1.65-2.01,1.65-.55,0-1.16-.16-1.46-.37l.19-.62Z"/>
          <path d="M82.34,87.42c-.27.14-.82.27-1.51.27-1.61,0-2.83-1.02-2.83-2.9s1.22-3.01,2.99-3.01c.71,0,1.16.15,1.36.25l-.18.6c-.28-.14-.68-.24-1.16-.24-1.34,0-2.24.86-2.24,2.36,0,1.4.81,2.3,2.2,2.3.45,0,.91-.09,1.21-.24l.15.59Z"/>
          <path d="M87.99,84.69c0,1.97-1.2,3.02-2.66,3.02s-2.58-1.17-2.58-2.91c0-1.82,1.13-3.01,2.66-3.01s2.58,1.2,2.58,2.9ZM83.54,84.78c0,1.22.66,2.32,1.83,2.32s1.84-1.08,1.84-2.38c0-1.14-.59-2.33-1.83-2.33s-1.84,1.13-1.84,2.39Z"/>
          <path d="M88.95,81.95c.36-.06.82-.11,1.42-.11.73,0,1.27.17,1.61.48.31.27.5.69.5,1.2s-.15.93-.44,1.22c-.39.42-1.03.63-1.75.63-.22,0-.43,0-.6-.05v2.29h-.74v-5.66ZM89.69,84.71c.16.04.37.06.61.06.89,0,1.44-.43,1.44-1.22s-.54-1.12-1.35-1.12c-.32,0-.57.03-.7.06v2.23Z"/>
          <path d="M96.44,84.93h-2.23v2.06h2.48v.62h-3.22v-5.73h3.09v.62h-2.35v1.81h2.23v.61Z"/>
          <path d="M101.25,88.25v.43h-4.25v-.43h4.25Z"/>
          <path d="M101.9,87.61v-5.73h.81l1.84,2.9c.43.67.76,1.27,1.03,1.86h.02c-.07-.77-.08-1.47-.08-2.36v-2.4h.7v5.73h-.75l-1.82-2.91c-.4-.64-.78-1.29-1.07-1.91h-.03c.04.73.06,1.42.06,2.37v2.45h-.7Z"/>
          <path d="M112.39,84.69c0,1.97-1.2,3.02-2.66,3.02s-2.58-1.17-2.58-2.91c0-1.82,1.13-3.01,2.66-3.01s2.58,1.2,2.58,2.9ZM107.94,84.78c0,1.22.66,2.32,1.83,2.32s1.84-1.08,1.84-2.38c0-1.14-.59-2.33-1.83-2.33s-1.84,1.13-1.84,2.39Z"/>
          <path d="M113.35,81.96c.45-.07.99-.12,1.57-.12,1.06,0,1.82.25,2.32.71.51.47.81,1.13.81,2.06s-.29,1.7-.82,2.23c-.54.54-1.42.82-2.53.82-.53,0-.97-.03-1.34-.07v-5.63ZM114.09,87.03c.19.03.46.04.75.04,1.58,0,2.44-.88,2.44-2.43,0-1.35-.76-2.21-2.32-2.21-.38,0-.67.03-.87.08v4.52Z"/>
          <path d="M121.98,84.93h-2.23v2.06h2.48v.62h-3.22v-5.73h3.09v.62h-2.35v1.81h2.23v.61Z"/>
        </g>
        <g isolation="isolate">
          <path d="M82.43,99.74l-.06-.52h-.03c-.23.32-.67.61-1.26.61-.83,0-1.26-.59-1.26-1.18,0-.99.88-1.54,2.47-1.53v-.08c0-.34-.09-.95-.93-.95-.38,0-.78.12-1.07.31l-.17-.49c.34-.22.83-.37,1.35-.37,1.26,0,1.56.86,1.56,1.68v1.54c0,.36.02.71.07.99h-.68ZM82.32,97.64c-.82-.02-1.74.13-1.74.93,0,.48.32.71.71.71.54,0,.88-.34.99-.69.03-.08.04-.16.04-.24v-.71Z"/>
          <path d="M84.25,96.91c0-.48,0-.9-.03-1.28h.65l.03.81h.03c.19-.55.64-.9,1.14-.9.08,0,.14,0,.21.03v.71c-.08-.02-.15-.03-.25-.03-.53,0-.9.4-1,.96-.02.1-.03.22-.03.35v2.19h-.74v-2.83Z"/>
          <path d="M90.5,95.63c-.02.3-.03.63-.03,1.13v2.39c0,.94-.19,1.52-.59,1.88-.4.37-.98.49-1.5.49s-1.04-.12-1.37-.34l.19-.57c.27.17.7.32,1.21.32.77,0,1.33-.4,1.33-1.44v-.46h-.02c-.23.38-.67.69-1.31.69-1.02,0-1.75-.87-1.75-2.01,0-1.39.91-2.18,1.85-2.18.71,0,1.1.37,1.28.71h.02l.03-.62h.65ZM89.73,97.25c0-.13,0-.24-.04-.34-.14-.43-.5-.79-1.05-.79-.71,0-1.22.6-1.22,1.55,0,.81.41,1.48,1.22,1.48.46,0,.88-.29,1.04-.77.04-.13.06-.27.06-.4v-.74Z"/>
          <path d="M94.64,99.59c-.2.1-.63.24-1.18.24-1.24,0-2.05-.84-2.05-2.1s.87-2.18,2.21-2.18c.44,0,.83.11,1.04.21l-.17.58c-.18-.1-.46-.2-.87-.2-.94,0-1.45.7-1.45,1.56,0,.95.61,1.54,1.43,1.54.42,0,.71-.11.92-.2l.13.56Z"/>
          <path d="M95.34,96.31c0-.31.21-.54.51-.54s.49.22.5.54c0,.3-.2.53-.51.53-.3,0-.5-.23-.5-.53ZM95.34,99.31c0-.31.21-.54.51-.54s.49.22.5.54c0,.3-.2.53-.51.53-.3,0-.5-.23-.5-.53Z"/>
          <path d="M98.66,94.92h-.02l-.96.52-.14-.57,1.21-.65h.64v5.52h-.72v-4.83Z"/>
          <path d="M72.56,103.21h.75v6.03h-.75v-6.03Z"/>
          <path d="M78.29,107.15c0,1.52-1.05,2.18-2.05,2.18-1.11,0-1.97-.82-1.97-2.12,0-1.38.9-2.18,2.04-2.18s1.98.86,1.98,2.12ZM75.03,107.2c0,.9.52,1.58,1.25,1.58s1.25-.67,1.25-1.6c0-.7-.35-1.58-1.23-1.58s-1.27.82-1.27,1.6Z"/>
          <path d="M82.17,109.09c-.2.1-.63.24-1.18.24-1.24,0-2.05-.84-2.05-2.1s.87-2.18,2.21-2.18c.44,0,.83.11,1.04.21l-.17.58c-.18-.1-.46-.2-.87-.2-.94,0-1.45.7-1.45,1.56,0,.95.61,1.54,1.43,1.54.42,0,.71-.11.92-.2l.13.56Z"/>
          <path d="M85.32,109.24l-.06-.52h-.03c-.23.32-.67.61-1.26.61-.83,0-1.26-.59-1.26-1.18,0-.99.88-1.54,2.47-1.53v-.08c0-.34-.09-.95-.93-.95-.38,0-.78.12-1.07.31l-.17-.49c.34-.22.83-.37,1.35-.37,1.26,0,1.56.86,1.56,1.68v1.54c0,.36.02.71.07.99h-.68ZM85.21,107.14c-.82-.02-1.74.13-1.74.93,0,.48.32.71.71.71.54,0,.88-.34.99-.69.03-.08.04-.16.04-.24v-.71Z"/>
          <path d="M87.14,103.21h.75v6.03h-.75v-6.03Z"/>
          <path d="M89.05,108.48c.22.14.61.3.99.3.54,0,.8-.27.8-.61,0-.36-.21-.55-.76-.76-.74-.26-1.09-.67-1.09-1.16,0-.66.54-1.21,1.42-1.21.42,0,.78.12,1.01.25l-.19.54c-.16-.1-.46-.24-.84-.24-.44,0-.69.25-.69.56,0,.34.25.49.78.7.71.27,1.08.63,1.08,1.24,0,.72-.56,1.23-1.54,1.23-.45,0-.87-.11-1.16-.28l.19-.57Z"/>
          <path d="M92.33,105.81c0-.31.21-.54.51-.54s.49.22.5.54c0,.3-.2.53-.51.53-.3,0-.5-.23-.5-.53ZM92.33,108.81c0-.31.21-.54.51-.54s.49.22.5.54c0,.3-.2.53-.51.53-.3,0-.5-.23-.5-.53Z"/>
          <path d="M96.15,110.2v-6.77h1.56v.47h-.98v5.84h.98v.47h-1.56Z"/>
          <path d="M100.29,106.24c0-.42,0-.77-.03-1.11h.66l.04.68h.02c.2-.39.68-.77,1.36-.77.57,0,1.45.34,1.45,1.75v2.46h-.75v-2.37c0-.66-.25-1.21-.95-1.21-.49,0-.88.35-1,.76-.03.09-.05.22-.05.35v2.47h-.75v-3Z"/>
          <path d="M107.91,103.41v6.78h-1.56v-.47h.98v-5.85h-.98v-.47h1.56Z"/>
        </g>
      </g>
      <rect x="221.05" y="133.55" width="5.44" height="2.42" fill="none"/>
      <rect x="145.5" y="62.32" width="189" height="67.27" fill="#ccc"/>
      <g isolation="isolate">
        <path d="M150.44,74.79v-2.29l-1.7-3.1h.79l.76,1.49c.21.41.37.74.54,1.11h.02c.15-.35.34-.7.54-1.11l.78-1.49h.79l-1.81,3.09v2.29h-.7Z"/>
        <path d="M153.79,73.09l-.56,1.69h-.72l1.83-5.39h.84l1.84,5.39h-.74l-.58-1.69h-1.91ZM155.55,72.55l-.53-1.55c-.12-.35-.2-.67-.28-.98h-.02c-.08.32-.17.65-.27.98l-.53,1.56h1.62Z"/>
        <path d="M157.81,69.47c.35-.07.86-.11,1.34-.11.74,0,1.22.14,1.56.44.27.24.42.61.42,1.02,0,.71-.45,1.18-1.02,1.38v.02c.42.14.66.53.79,1.09.18.75.3,1.27.42,1.48h-.72c-.09-.15-.21-.62-.36-1.29-.16-.74-.45-1.02-1.08-1.05h-.66v2.33h-.7v-5.32ZM158.51,71.93h.71c.74,0,1.22-.41,1.22-1.02,0-.7-.5-1-1.24-1.01-.34,0-.58.03-.69.06v1.97Z"/>
        <path d="M163.43,74.79l-1.76-5.39h.75l.84,2.65c.23.73.43,1.38.58,2.01h.02c.15-.62.38-1.3.62-2.01l.91-2.66h.74l-1.93,5.39h-.77Z"/>
        <path d="M169.16,69.83c0,.24-.17.43-.45.43-.25,0-.42-.19-.42-.43s.18-.44.44-.44.43.19.43.44ZM168.38,74.79v-3.87h.7v3.87h-.7Z"/>
        <path d="M170.25,71.97c0-.4,0-.73-.03-1.05h.62l.04.64h.02c.19-.37.64-.73,1.28-.73.54,0,1.37.32,1.37,1.65v2.31h-.7v-2.23c0-.62-.23-1.14-.9-1.14-.46,0-.82.33-.94.72-.03.09-.05.21-.05.33v2.33h-.7v-2.82Z"/>
        <path d="M174.6,74.07c.21.14.58.28.93.28.51,0,.75-.26.75-.58s-.2-.52-.72-.71c-.7-.25-1.02-.63-1.02-1.1,0-.62.5-1.14,1.33-1.14.39,0,.74.11.95.24l-.18.51c-.15-.1-.43-.22-.79-.22-.42,0-.65.24-.65.53,0,.32.23.46.74.66.67.26,1.02.59,1.02,1.17,0,.68-.53,1.16-1.45,1.16-.42,0-.82-.1-1.09-.26l.18-.54Z"/>
        <path d="M178.71,69.81v1.11h1.01v.54h-1.01v2.09c0,.48.14.75.53.75.18,0,.32-.02.41-.05l.03.53c-.14.06-.35.1-.62.1-.33,0-.59-.1-.76-.3-.2-.21-.27-.55-.27-1.01v-2.11h-.6v-.54h.6v-.93l.69-.18Z"/>
        <path d="M180.51,72.13c0-.46,0-.85-.03-1.21h.62l.02.76h.03c.18-.52.6-.85,1.07-.85.08,0,.13,0,.2.02v.66c-.07-.02-.14-.02-.24-.02-.5,0-.85.38-.94.9-.02.1-.03.21-.03.33v2.06h-.7v-2.66Z"/>
        <path d="M186.36,73.73c0,.4,0,.75.03,1.05h-.62l-.04-.63h-.02c-.18.31-.59.72-1.28.72-.61,0-1.33-.34-1.33-1.69v-2.26h.7v2.14c0,.74.22,1.23.86,1.23.47,0,.8-.33.93-.64.04-.1.06-.23.06-.36v-2.37h.7v2.81Z"/>
        <path d="M190.29,74.64c-.18.1-.59.22-1.11.22-1.17,0-1.93-.79-1.93-1.97s.82-2.05,2.08-2.05c.42,0,.78.1.98.2l-.16.54c-.17-.1-.43-.18-.82-.18-.89,0-1.37.66-1.37,1.46,0,.9.58,1.45,1.34,1.45.4,0,.66-.1.86-.19l.12.53Z"/>
        <path d="M192.07,69.81v1.11h1.01v.54h-1.01v2.09c0,.48.14.75.53.75.18,0,.32-.02.41-.05l.03.53c-.14.06-.35.1-.62.1-.33,0-.59-.1-.76-.3-.2-.21-.27-.55-.27-1.01v-2.11h-.6v-.54h.6v-.93l.69-.18Z"/>
        <path d="M194.65,69.83c0,.24-.17.43-.45.43-.25,0-.42-.19-.42-.43s.18-.44.44-.44.43.19.43.44ZM193.87,74.79v-3.87h.7v3.87h-.7Z"/>
        <path d="M199.24,72.82c0,1.43-.99,2.05-1.93,2.05-1.05,0-1.86-.77-1.86-1.99,0-1.3.85-2.06,1.92-2.06s1.86.81,1.86,1.99ZM196.17,72.86c0,.85.49,1.49,1.17,1.49s1.18-.63,1.18-1.5c0-.66-.33-1.49-1.16-1.49s-1.19.77-1.19,1.5Z"/>
        <path d="M200.13,71.97c0-.4,0-.73-.03-1.05h.62l.04.64h.02c.19-.37.64-.73,1.28-.73.54,0,1.37.32,1.37,1.65v2.31h-.7v-2.23c0-.62-.23-1.14-.89-1.14-.46,0-.82.33-.94.72-.03.09-.05.21-.05.33v2.33h-.7v-2.82Z"/>
        <path d="M204.47,74.07c.21.14.58.28.93.28.51,0,.75-.26.75-.58s-.2-.52-.72-.71c-.7-.25-1.02-.63-1.02-1.1,0-.62.5-1.14,1.33-1.14.39,0,.74.11.95.24l-.18.51c-.15-.1-.43-.22-.79-.22-.42,0-.65.24-.65.53,0,.32.23.46.74.66.67.26,1.02.59,1.02,1.17,0,.68-.53,1.16-1.45,1.16-.42,0-.82-.1-1.09-.26l.18-.54Z"/>
      </g>
      <g isolation="isolate">
        <path d="M149.57,93.04c0-.46-.01-.84-.03-1.19h.59l.03.62h.02c.27-.44.7-.71,1.29-.71.88,0,1.54.74,1.54,1.85,0,1.31-.8,1.95-1.65,1.95-.48,0-.9-.21-1.12-.57h-.02v1.97h-.65v-3.93ZM150.23,94c0,.1.02.19.03.27.12.46.52.77.99.77.7,0,1.1-.57,1.1-1.4,0-.73-.38-1.35-1.08-1.35-.45,0-.87.32-1,.82-.02.08-.04.18-.04.27v.62Z"/>
        <path d="M156.88,94.49c0,.38,0,.71.03.99h-.59l-.04-.59h-.02c-.17.29-.56.68-1.2.68-.57,0-1.25-.32-1.25-1.59v-2.12h.66v2.01c0,.69.21,1.16.81,1.16.44,0,.75-.31.87-.6.04-.1.06-.22.06-.34v-2.23h.66v2.64Z"/>
        <path d="M158.77,90.81v1.04h.95v.5h-.95v1.96c0,.45.13.71.5.71.17,0,.3-.02.38-.04l.03.5c-.13.05-.33.09-.59.09-.31,0-.56-.1-.71-.28-.19-.2-.26-.52-.26-.95v-1.98h-.56v-.5h.56v-.87l.65-.17Z"/>
        <path d="M160.36,94.81c.2.13.54.26.87.26.48,0,.71-.24.71-.54,0-.32-.19-.49-.68-.67-.65-.23-.96-.59-.96-1.03,0-.59.47-1.07,1.25-1.07.37,0,.69.11.89.23l-.17.48c-.14-.09-.41-.21-.74-.21-.39,0-.61.23-.61.5,0,.3.22.44.69.62.63.24.95.56.95,1.1,0,.64-.5,1.09-1.36,1.09-.4,0-.77-.1-1.02-.25l.17-.5Z"/>
        <path d="M163.79,93.79c.02.89.59,1.26,1.25,1.26.47,0,.76-.08,1.01-.19l.11.47c-.23.1-.63.22-1.21.22-1.12,0-1.79-.74-1.79-1.83s.65-1.96,1.7-1.96c1.19,0,1.5,1.04,1.5,1.71,0,.13-.01.24-.02.31h-2.55ZM165.73,93.31c0-.42-.17-1.07-.92-1.07-.67,0-.96.62-1.01,1.07h1.93Z"/>
        <path d="M167.18,90.15h.66v5.33h-.66v-5.33Z"/>
        <path d="M169.02,95.48v-3.13h-.51v-.5h.51v-.17c0-.51.11-.98.42-1.27.25-.24.58-.34.89-.34.23,0,.44.05.56.1l-.09.51c-.1-.04-.23-.08-.42-.08-.56,0-.71.5-.71,1.05v.2h.88v.5h-.88v3.13h-.65Z"/>
        <path d="M149.48,103.81c.2.13.54.26.87.26.48,0,.71-.24.71-.54,0-.32-.19-.49-.68-.67-.65-.23-.96-.59-.96-1.03,0-.59.47-1.07,1.25-1.07.37,0,.69.11.89.23l-.17.48c-.14-.09-.41-.21-.74-.21-.39,0-.61.23-.61.5,0,.3.22.44.69.62.63.24.95.56.95,1.1,0,.64-.5,1.09-1.36,1.09-.4,0-.77-.1-1.02-.25l.17-.5Z"/>
        <path d="M152.91,102.79c.01.89.59,1.26,1.25,1.26.47,0,.76-.08,1.01-.19l.11.47c-.23.1-.63.22-1.21.22-1.12,0-1.79-.74-1.79-1.83s.65-1.96,1.7-1.96c1.19,0,1.5,1.04,1.5,1.71,0,.13-.01.24-.02.31h-2.55ZM154.85,102.31c0-.42-.17-1.07-.92-1.07-.67,0-.96.62-1.01,1.07h1.93Z"/>
        <path d="M157.1,99.81v1.04h.95v.5h-.95v1.96c0,.45.13.71.5.71.17,0,.3-.02.38-.04l.03.5c-.13.05-.33.09-.59.09-.31,0-.56-.1-.71-.28-.19-.2-.26-.52-.26-.95v-1.98h-.56v-.5h.56v-.87l.65-.17Z"/>
        <path d="M158.78,99.15h.66v5.33h-.66v-5.33Z"/>
        <path d="M163.84,102.64c0,1.34-.93,1.93-1.81,1.93-.98,0-1.74-.72-1.74-1.87,0-1.22.8-1.93,1.8-1.93s1.75.76,1.75,1.87ZM160.96,102.67c0,.79.46,1.4,1.1,1.4s1.1-.59,1.1-1.41c0-.62-.31-1.4-1.09-1.4s-1.12.72-1.12,1.41Z"/>
        <path d="M167.26,104.35c-.17.09-.56.21-1.04.21-1.1,0-1.81-.74-1.81-1.85s.77-1.93,1.95-1.93c.39,0,.74.1.92.19l-.15.51c-.16-.09-.41-.17-.77-.17-.83,0-1.28.62-1.28,1.37,0,.84.54,1.36,1.26,1.36.38,0,.62-.1.81-.18l.11.5Z"/>
        <path d="M170.04,104.48l-.05-.46h-.02c-.2.29-.59.54-1.11.54-.74,0-1.11-.52-1.11-1.04,0-.88.78-1.36,2.18-1.35v-.08c0-.3-.08-.84-.83-.84-.34,0-.69.1-.95.27l-.15-.43c.3-.2.74-.32,1.19-.32,1.11,0,1.38.76,1.38,1.49v1.36c0,.31.01.62.06.87h-.6ZM169.94,102.63c-.72-.01-1.54.11-1.54.82,0,.43.29.63.62.63.47,0,.77-.3.88-.61.02-.07.04-.14.04-.21v-.63Z"/>
        <path d="M171.64,99.15h.66v5.33h-.66v-5.33Z"/>
        <path d="M176.62,105.05v.38h-3.75v-.38h3.75Z"/>
        <path d="M178.01,104.48l-1.28-5.06h.69l.6,2.56c.15.63.29,1.26.38,1.75h.02c.08-.5.24-1.1.41-1.76l.68-2.55h.68l.62,2.57c.14.6.28,1.2.35,1.73h.01c.11-.56.25-1.12.41-1.75l.67-2.55h.67l-1.43,5.06h-.68l-.64-2.63c-.16-.65-.26-1.14-.33-1.65h-.02c-.09.5-.2,1-.39,1.65l-.72,2.63h-.68Z"/>
        <path d="M187.07,104.32c-.24.12-.72.24-1.34.24-1.43,0-2.5-.9-2.5-2.56s1.07-2.66,2.64-2.66c.63,0,1.03.14,1.2.23l-.16.53c-.25-.12-.6-.21-1.02-.21-1.19,0-1.97.76-1.97,2.09,0,1.24.71,2.03,1.94,2.03.4,0,.8-.08,1.07-.21l.13.52Z"/>
        <path d="M191.07,105.05v.38h-3.75v-.38h3.75Z"/>
        <path d="M194.64,101.99c0,1.66-.62,2.58-1.7,2.58-.95,0-1.6-.89-1.61-2.51,0-1.64.71-2.54,1.7-2.54s1.61.92,1.61,2.47ZM191.99,102.07c0,1.27.39,1.99.99,1.99.68,0,1-.79,1-2.03s-.31-1.99-.99-1.99c-.58,0-1,.71-1,2.03Z"/>
        <path d="M197.05,101.83c0-.38,0-.68-.03-.98h.58l.04.6h.01c.18-.35.6-.68,1.2-.68.5,0,1.28.3,1.28,1.55v2.17h-.66v-2.09c0-.58-.22-1.07-.84-1.07-.44,0-.77.31-.89.68-.03.08-.04.2-.04.31v2.18h-.66v-2.65Z"/>
        <path d="M204.59,104.96c-.41.22-.83.3-1.34.3-1.23,0-2.28-.9-2.28-2.34,0-1.55,1.07-2.88,2.74-2.88,1.31,0,2.18.92,2.18,2.17,0,1.13-.63,1.79-1.34,1.79-.3,0-.58-.2-.56-.66h-.03c-.26.44-.61.66-1.06.66s-.81-.35-.81-.95c0-.93.74-1.78,1.78-1.78.32,0,.61.07.8.16l-.26,1.36c-.11.57-.02.83.23.84.38,0,.81-.5.81-1.37,0-1.09-.65-1.87-1.82-1.87-1.22,0-2.25.97-2.25,2.49,0,1.25.82,2.03,1.93,2.03.43,0,.83-.09,1.13-.26l.12.32ZM204.18,101.72c-.08-.02-.2-.05-.38-.05-.66,0-1.19.62-1.19,1.35,0,.33.17.57.5.57.44,0,.83-.55.92-1.02l.16-.85Z"/>
        <path d="M209.77,101.99c0,1.66-.62,2.58-1.7,2.58-.95,0-1.6-.89-1.61-2.51,0-1.64.71-2.54,1.7-2.54s1.61.92,1.61,2.47ZM207.12,102.07c0,1.27.39,1.99.99,1.99.68,0,1-.79,1-2.03s-.31-1.99-.99-1.99c-.58,0-1,.71-1,2.03Z"/>
        <path d="M152.86,111.64c0,1.34-.93,1.93-1.81,1.93-.98,0-1.74-.72-1.74-1.87,0-1.22.8-1.93,1.8-1.93s1.75.76,1.75,1.87ZM149.98,111.67c0,.79.46,1.4,1.1,1.4s1.1-.59,1.1-1.41c0-.62-.31-1.4-1.09-1.4s-1.12.72-1.12,1.41Z"/>
        <path d="M153.69,111.04c0-.46-.01-.84-.03-1.19h.59l.03.62h.02c.27-.44.7-.71,1.29-.71.88,0,1.54.74,1.54,1.85,0,1.31-.8,1.95-1.65,1.95-.48,0-.9-.21-1.12-.57h-.02v1.97h-.65v-3.93ZM154.34,112c0,.1.02.19.03.27.12.46.52.77.99.77.7,0,1.1-.57,1.1-1.4,0-.73-.38-1.35-1.08-1.35-.45,0-.87.32-1,.82-.02.08-.04.18-.04.27v.62Z"/>
        <path d="M158.75,108.81v1.04h.95v.5h-.95v1.96c0,.45.13.71.5.71.17,0,.3-.02.38-.04l.03.5c-.13.05-.33.09-.59.09-.31,0-.56-.1-.71-.28-.19-.2-.26-.52-.26-.95v-1.98h-.56v-.5h.56v-.87l.65-.17Z"/>
        <path d="M163.65,114.05v.38h-3.75v-.38h3.75Z"/>
        <path d="M164.1,112.81c.2.13.54.26.87.26.48,0,.71-.24.71-.54,0-.32-.19-.49-.68-.67-.65-.23-.96-.59-.96-1.03,0-.59.47-1.07,1.25-1.07.37,0,.69.11.89.23l-.17.48c-.14-.09-.41-.21-.74-.21-.39,0-.61.23-.61.5,0,.3.22.44.69.62.63.24.95.56.95,1.1,0,.64-.5,1.09-1.36,1.09-.4,0-.77-.1-1.02-.25l.17-.5Z"/>
        <path d="M167.53,111.79c.02.89.59,1.26,1.25,1.26.47,0,.76-.08,1.01-.19l.11.47c-.23.1-.63.22-1.21.22-1.12,0-1.79-.74-1.79-1.83s.65-1.96,1.7-1.96c1.19,0,1.5,1.04,1.5,1.71,0,.13-.01.24-.02.31h-2.55ZM169.46,111.31c0-.42-.17-1.07-.92-1.07-.67,0-.96.62-1.01,1.07h1.93Z"/>
        <path d="M170.92,110.83c0-.38,0-.68-.03-.98h.59l.04.6h.02c.18-.35.6-.68,1.2-.68.5,0,1.28.3,1.28,1.55v2.17h-.66v-2.09c0-.58-.22-1.07-.84-1.07-.44,0-.77.31-.89.68-.03.08-.05.2-.05.31v2.18h-.66v-2.65Z"/>
        <path d="M178.22,108.15v4.39c0,.32,0,.69.03.94h-.59l-.03-.63h-.02c-.2.41-.65.71-1.24.71-.88,0-1.55-.74-1.55-1.85,0-1.21.74-1.95,1.63-1.95.55,0,.93.26,1.1.56h.01v-2.17h.66ZM177.56,111.33c0-.08,0-.2-.03-.28-.1-.42-.46-.77-.95-.77-.68,0-1.09.6-1.09,1.4,0,.74.36,1.34,1.07,1.34.44,0,.85-.29.97-.79.02-.09.03-.18.03-.29v-.63Z"/>
        <path d="M182.52,114.05v.38h-3.75v-.38h3.75Z"/>
        <path d="M183.32,109.85l.48,1.85c.11.41.2.78.27,1.16h.02c.08-.37.2-.76.32-1.15l.59-1.85h.56l.56,1.82c.14.44.24.82.32,1.19h.02c.06-.37.16-.75.28-1.18l.52-1.82h.65l-1.17,3.63h-.6l-.56-1.73c-.13-.41-.23-.77-.32-1.19h-.02c-.09.44-.2.81-.33,1.2l-.58,1.73h-.6l-1.1-3.63h.68Z"/>
        <path d="M189.31,108.83c0,.23-.16.41-.42.41-.23,0-.4-.18-.4-.41s.17-.41.41-.41.41.18.41.41ZM188.58,113.48v-3.63h.66v3.63h-.66Z"/>
        <path d="M191.13,108.81v1.04h.95v.5h-.95v1.96c0,.45.13.71.5.71.17,0,.3-.02.38-.04l.03.5c-.13.05-.33.09-.59.09-.31,0-.56-.1-.71-.28-.19-.2-.26-.52-.26-.95v-1.98h-.56v-.5h.56v-.87l.65-.17Z"/>
        <path d="M192.82,108.15h.66v2.27h.01c.11-.19.27-.35.47-.47.2-.11.43-.19.68-.19.49,0,1.27.3,1.27,1.55v2.16h-.66v-2.09c0-.58-.22-1.08-.84-1.08-.43,0-.77.3-.89.66-.04.09-.04.19-.04.32v2.19h-.66v-5.33Z"/>
        <path d="M200.27,111.64c0,1.34-.93,1.93-1.81,1.93-.98,0-1.74-.72-1.74-1.87,0-1.22.8-1.93,1.8-1.93s1.75.76,1.75,1.87ZM197.38,111.67c0,.79.46,1.4,1.1,1.4s1.1-.59,1.1-1.41c0-.62-.31-1.4-1.09-1.4s-1.12.72-1.12,1.41Z"/>
        <path d="M204.14,112.49c0,.38,0,.71.03.99h-.58l-.04-.59h-.01c-.17.29-.56.68-1.2.68-.57,0-1.25-.32-1.25-1.59v-2.12h.66v2.01c0,.69.21,1.16.81,1.16.44,0,.75-.31.87-.6.04-.1.06-.22.06-.34v-2.23h.66v2.64Z"/>
        <path d="M206.02,108.81v1.04h.95v.5h-.95v1.96c0,.45.13.71.5.71.17,0,.3-.02.38-.04l.03.5c-.13.05-.33.09-.59.09-.31,0-.56-.1-.71-.28-.19-.2-.26-.52-.26-.95v-1.98h-.56v-.5h.56v-.87l.65-.17Z"/>
        <path d="M210.92,114.05v.38h-3.75v-.38h3.75Z"/>
        <path d="M211.43,113.48c.01-.25.03-.62.03-.94v-4.39h.65v2.28h.02c.23-.41.65-.67,1.24-.67.9,0,1.54.75,1.53,1.85,0,1.3-.82,1.94-1.63,1.94-.53,0-.95-.2-1.22-.68h-.02l-.03.6h-.57ZM212.11,112.03c0,.08.02.17.03.24.13.46.51.77.99.77.69,0,1.1-.56,1.1-1.4,0-.73-.38-1.35-1.08-1.35-.45,0-.87.31-1.01.81-.02.08-.04.17-.04.27v.65Z"/>
        <path d="M215.73,108.15h.66v5.33h-.66v-5.33Z"/>
        <path d="M220.79,111.64c0,1.34-.93,1.93-1.81,1.93-.98,0-1.74-.72-1.74-1.87,0-1.22.8-1.93,1.8-1.93s1.75.76,1.75,1.87ZM217.9,111.67c0,.79.46,1.4,1.1,1.4s1.1-.59,1.1-1.41c0-.62-.31-1.4-1.09-1.4s-1.12.72-1.12,1.41Z"/>
        <path d="M224.21,113.35c-.17.09-.56.21-1.04.21-1.1,0-1.81-.74-1.81-1.85s.77-1.93,1.95-1.93c.39,0,.74.1.92.19l-.15.51c-.16-.09-.41-.17-.77-.17-.83,0-1.28.62-1.28,1.37,0,.84.54,1.36,1.26,1.36.38,0,.62-.1.81-.18l.11.5Z"/>
        <path d="M225.63,111.52h.02c.09-.13.22-.29.32-.41l1.07-1.25h.8l-1.4,1.49,1.6,2.14h-.8l-1.25-1.74-.34.38v1.37h-.65v-5.33h.65v3.36Z"/>
        <path d="M230.08,110.83c0-.38,0-.68-.03-.98h.58l.03.58h.02c.2-.34.54-.67,1.14-.67.5,0,.87.3,1.03.73h.02c.11-.2.25-.36.41-.47.22-.17.46-.25.8-.25.48,0,1.19.32,1.19,1.58v2.14h-.65v-2.06c0-.7-.26-1.12-.79-1.12-.38,0-.67.28-.78.6-.03.09-.05.21-.05.33v2.24h-.65v-2.18c0-.58-.26-1-.76-1-.41,0-.71.33-.82.66-.04.1-.05.21-.05.32v2.19h-.65v-2.65Z"/>
        <path d="M237.08,108.83c0,.23-.16.41-.42.41-.23,0-.4-.18-.4-.41s.17-.41.41-.41.41.18.41.41ZM236.34,113.48v-3.63h.66v3.63h-.66Z"/>
        <path d="M241.23,108.15v4.39c0,.32,0,.69.03.94h-.59l-.03-.63h-.01c-.2.41-.65.71-1.24.71-.88,0-1.55-.74-1.55-1.85,0-1.21.74-1.95,1.63-1.95.56,0,.93.26,1.1.56h.01v-2.17h.66ZM240.57,111.33c0-.08,0-.2-.03-.28-.1-.42-.46-.77-.95-.77-.68,0-1.09.6-1.09,1.4,0,.74.36,1.34,1.07,1.34.44,0,.85-.29.97-.79.02-.09.03-.18.03-.29v-.63Z"/>
        <path d="M242.17,110.45c0-.28.19-.47.45-.47s.44.2.44.47c0,.26-.17.46-.45.46-.26,0-.44-.2-.44-.46ZM242.17,113.1c0-.28.19-.47.45-.47s.44.2.44.47c0,.26-.17.47-.45.47-.26,0-.44-.2-.44-.47Z"/>
        <path d="M243.88,111.04c0-.46-.01-.84-.03-1.19h.59l.03.62h.01c.27-.44.7-.71,1.29-.71.88,0,1.54.74,1.54,1.85,0,1.31-.8,1.95-1.65,1.95-.48,0-.9-.21-1.12-.57h-.01v1.97h-.65v-3.93ZM244.53,112c0,.1.01.19.03.27.12.46.52.77.99.77.7,0,1.1-.57,1.1-1.4,0-.73-.38-1.35-1.08-1.35-.45,0-.87.32-1,.82-.02.08-.04.18-.04.27v.62Z"/>
        <path d="M251.18,112.49c0,.38,0,.71.03.99h-.58l-.04-.59h-.01c-.17.29-.56.68-1.2.68-.57,0-1.25-.32-1.25-1.59v-2.12h.66v2.01c0,.69.21,1.16.81,1.16.44,0,.75-.31.87-.6.04-.1.06-.22.06-.34v-2.23h.66v2.64Z"/>
        <path d="M253.07,108.81v1.04h.95v.5h-.95v1.96c0,.45.13.71.5.71.17,0,.3-.02.38-.04l.03.5c-.13.05-.33.09-.58.09-.31,0-.56-.1-.71-.28-.19-.2-.25-.52-.25-.95v-1.98h-.56v-.5h.56v-.87l.65-.17Z"/>
        <path d="M254.67,112.81c.2.13.54.26.87.26.48,0,.71-.24.71-.54,0-.32-.19-.49-.68-.67-.65-.23-.96-.59-.96-1.03,0-.59.47-1.07,1.25-1.07.37,0,.69.11.89.23l-.17.48c-.14-.09-.41-.21-.74-.21-.39,0-.61.23-.61.5,0,.3.22.44.69.62.63.24.95.56.95,1.1,0,.64-.5,1.09-1.36,1.09-.4,0-.77-.1-1.02-.25l.17-.5Z"/>
        <path d="M257.22,114.41c.17-.44.37-1.25.45-1.79l.74-.08c-.17.64-.5,1.47-.71,1.82l-.47.04Z"/>
        <path d="M262.8,113.48l-.05-.46h-.02c-.2.29-.59.54-1.11.54-.74,0-1.11-.52-1.11-1.04,0-.88.78-1.36,2.18-1.35v-.08c0-.3-.08-.84-.83-.84-.34,0-.69.1-.95.27l-.15-.43c.3-.2.74-.32,1.19-.32,1.11,0,1.38.76,1.38,1.49v1.36c0,.31.01.62.06.87h-.6ZM262.7,111.63c-.72-.01-1.54.11-1.54.82,0,.43.29.63.62.63.47,0,.77-.3.88-.61.02-.07.04-.14.04-.21v-.63Z"/>
        <path d="M264.4,110.98c0-.43,0-.8-.03-1.13h.58l.02.71h.03c.17-.49.56-.8,1.01-.8.08,0,.13,0,.19.02v.62c-.07-.01-.14-.02-.23-.02-.47,0-.8.35-.89.85-.02.09-.03.2-.03.31v1.94h-.65v-2.5Z"/>
        <path d="M269.93,109.85c-.02.26-.03.55-.03,1v2.11c0,.83-.17,1.34-.52,1.66-.35.33-.86.44-1.32.44s-.92-.11-1.21-.3l.17-.5c.24.15.62.29,1.07.29.68,0,1.17-.35,1.17-1.27v-.41h-.01c-.2.34-.59.61-1.16.61-.9,0-1.55-.77-1.55-1.77,0-1.23.8-1.93,1.64-1.93.63,0,.98.33,1.13.63h.01l.03-.55h.58ZM269.24,111.28c0-.11,0-.21-.04-.3-.12-.38-.44-.7-.92-.7-.63,0-1.08.53-1.08,1.37,0,.71.36,1.31,1.07,1.31.41,0,.77-.26.92-.68.04-.11.05-.24.05-.35v-.65Z"/>
        <path d="M273.58,113.35c-.17.09-.56.21-1.04.21-1.1,0-1.81-.74-1.81-1.85s.77-1.93,1.95-1.93c.39,0,.74.1.92.19l-.15.51c-.16-.09-.41-.17-.77-.17-.83,0-1.28.62-1.28,1.37,0,.84.54,1.36,1.26,1.36.38,0,.62-.1.81-.18l.11.5Z"/>
        <path d="M274.19,110.45c0-.28.19-.47.45-.47s.44.2.44.47c0,.26-.17.46-.45.46-.26,0-.44-.2-.44-.46ZM274.19,113.1c0-.28.19-.47.45-.47s.44.2.44.47c0,.26-.17.47-.45.47-.26,0-.44-.2-.44-.47Z"/>
        <path d="M277.12,109.22h-.01l-.85.46-.13-.5,1.07-.57h.56v4.88h-.64v-4.26Z"/>
        <path d="M149.57,117.15h.66v5.33h-.66v-5.33Z"/>
        <path d="M151.71,120.79c.02.89.59,1.26,1.25,1.26.47,0,.76-.08,1.01-.19l.11.47c-.23.1-.63.22-1.21.22-1.12,0-1.79-.74-1.79-1.83s.65-1.96,1.7-1.96c1.19,0,1.5,1.04,1.5,1.71,0,.13-.01.24-.02.31h-2.55ZM153.65,120.31c0-.42-.17-1.07-.92-1.07-.67,0-.96.62-1.01,1.07h1.93Z"/>
        <path d="M157.11,122.48l-.05-.46h-.02c-.2.29-.59.54-1.11.54-.74,0-1.11-.52-1.11-1.04,0-.88.78-1.36,2.18-1.35v-.08c0-.3-.08-.84-.83-.84-.34,0-.69.1-.95.27l-.15-.43c.3-.2.74-.32,1.19-.32,1.11,0,1.38.76,1.38,1.49v1.36c0,.31.02.62.06.87h-.6ZM157.01,120.63c-.72-.01-1.54.11-1.54.82,0,.43.29.63.62.63.47,0,.77-.3.88-.61.02-.07.04-.14.04-.21v-.63Z"/>
        <path d="M158.91,118.85l.71,2.04c.12.33.22.63.29.93h.02c.08-.3.19-.6.31-.93l.71-2.04h.69l-1.43,3.63h-.63l-1.38-3.63h.71Z"/>
        <path d="M162.56,120.79c.02.89.59,1.26,1.25,1.26.47,0,.76-.08,1.01-.19l.11.47c-.23.1-.63.22-1.21.22-1.12,0-1.79-.74-1.79-1.83s.65-1.96,1.7-1.96c1.19,0,1.5,1.04,1.5,1.71,0,.13-.01.24-.02.31h-2.55ZM164.49,120.31c0-.42-.17-1.07-.92-1.07-.67,0-.96.62-1.01,1.07h1.93Z"/>
      </g>
    </g>
  </g>
</svg>