<?xml version="1.0" encoding="UTF-8"?>
<svg id="Layer_2" data-name="Layer 2" xmlns="http://www.w3.org/2000/svg" width="469.47" height="118.67" viewBox="0 0 469.47 118.67">
  <g id="Layer_1_copy" data-name="Layer 1 copy">
    <g>
      <path d="M228.22,76.62h72.06c7.16,0,12.97,2.9,12.97,6.48v18.72c0,3.58-5.81,6.48-12.97,6.48h-72.06c-7.16,0-12.97-2.9-12.97-6.48h0v-18.72c0-3.58,5.81-6.48,12.97-6.48h0Z" fill="#f2f2f2" stroke="#999" stroke-linecap="round" stroke-linejoin="round" stroke-width="3"/>
      <g isolation="isolate">
        <path d="M223.79,87.93c.5-.08,1.16-.16,2-.16,1.03,0,1.79.24,2.27.67.44.38.71.97.71,1.69s-.22,1.31-.62,1.73c-.55.59-1.45.89-2.47.89-.31,0-.6-.01-.84-.07v3.24h-1.04v-7.99ZM224.83,91.83c.23.06.52.08.86.08,1.26,0,2.03-.61,2.03-1.73s-.76-1.58-1.91-1.58c-.46,0-.8.04-.98.08v3.14Z" fill="#231f20"/>
        <path d="M236.84,92.37c-.06-1.13-.13-2.48-.12-3.49h-.04c-.28.95-.61,1.96-1.02,3.07l-1.43,3.92h-.79l-1.31-3.85c-.38-1.14-.71-2.18-.94-3.14h-.02c-.02,1.01-.08,2.36-.16,3.57l-.22,3.47h-1l.56-8.08h1.33l1.38,3.91c.34,1,.61,1.88.82,2.72h.04c.2-.82.49-1.7.85-2.72l1.44-3.91h1.33l.5,8.08h-1.02l-.2-3.55Z" fill="#231f20"/>
        <path d="M244.76,96.82v.6h-6v-.6h6Z" fill="#231f20"/>
        <path d="M247.21,88.72h-2.46v-.89h5.99v.89h-2.47v7.2h-1.06v-7.2Z" fill="#231f20"/>
        <path d="M258.22,91.79c0,2.78-1.69,4.26-3.75,4.26s-3.63-1.66-3.63-4.1c0-2.57,1.6-4.25,3.75-4.25s3.63,1.69,3.63,4.09ZM251.95,91.93c0,1.73.93,3.27,2.58,3.27s2.59-1.52,2.59-3.36c0-1.61-.84-3.29-2.58-3.29s-2.59,1.6-2.59,3.37Z" fill="#231f20"/>
        <path d="M259.58,87.84h1.04v3.9h.04c.22-.31.43-.6.64-.86l2.47-3.04h1.3l-2.93,3.43,3.15,4.65h-1.24l-2.66-3.97-.77.89v3.08h-1.04v-8.08Z" fill="#231f20"/>
        <path d="M270.27,92.13h-3.14v2.91h3.5v.88h-4.55v-8.08h4.37v.88h-3.32v2.55h3.14v.86Z" fill="#231f20"/>
        <path d="M271.99,95.92v-8.08h1.14l2.59,4.09c.6.95,1.07,1.8,1.45,2.63h.02c-.1-1.09-.12-2.08-.12-3.33v-3.38h.98v8.08h-1.06l-2.57-4.1c-.56-.9-1.1-1.82-1.51-2.7h-.04c.06,1.03.08,2,.08,3.35v3.45h-.98Z" fill="#231f20"/>
        <path d="M284.97,96.82v.6h-6v-.6h6Z" fill="#231f20"/>
        <path d="M290.07,92.13h-3.14v2.91h3.5v.88h-4.55v-8.08h4.37v.88h-3.32v2.55h3.14v.86Z" fill="#231f20"/>
        <path d="M298.7,91.79c0,2.78-1.69,4.26-3.75,4.26s-3.63-1.66-3.63-4.1c0-2.57,1.6-4.25,3.75-4.25s3.63,1.69,3.63,4.09ZM292.42,91.93c0,1.73.93,3.27,2.58,3.27s2.59-1.52,2.59-3.36c0-1.61-.84-3.29-2.58-3.29s-2.59,1.6-2.59,3.37Z" fill="#231f20"/>
        <path d="M300.06,87.84h4.35v.88h-3.31v2.69h3.06v.86h-3.06v3.66h-1.04v-8.08Z" fill="#231f20"/>
      </g>
    </g>
    <g>
      <path d="M18.45,1.5h94.17c9.36,0,16.95,4.03,16.95,9v26c0,4.97-7.59,9-16.95,9H18.45c-9.36,0-16.95-4.03-16.95-9h0V10.5C1.5,5.53,9.09,1.5,18.45,1.5h0Z" fill="#f2f2f2" stroke="#999" stroke-linecap="round" stroke-linejoin="round" stroke-width="3"/>
      <g isolation="isolate">
        <path d="M8.55,12.81c.5-.08,1.16-.16,2-.16,1.03,0,1.79.24,2.27.67.44.38.71.97.71,1.69s-.22,1.31-.62,1.73c-.55.59-1.45.89-2.47.89-.31,0-.6-.01-.84-.07v3.24h-1.04v-7.99ZM9.59,16.71c.23.06.52.08.86.08,1.26,0,2.03-.61,2.03-1.73s-.76-1.58-1.91-1.58c-.46,0-.8.04-.98.08v3.14Z" fill="#231f20"/>
        <path d="M21.6,17.25c-.06-1.13-.13-2.48-.12-3.49h-.04c-.28.95-.61,1.96-1.02,3.07l-1.43,3.92h-.79l-1.31-3.85c-.38-1.14-.71-2.18-.94-3.14h-.02c-.02,1.01-.08,2.36-.16,3.57l-.22,3.47h-1l.56-8.08h1.33l1.38,3.91c.34,1,.61,1.88.82,2.72h.04c.2-.82.49-1.7.85-2.72l1.44-3.91h1.33l.5,8.08h-1.02l-.2-3.55Z" fill="#231f20"/>
        <path d="M29.52,21.7v.6h-6v-.6h6Z" fill="#231f20"/>
        <path d="M31.97,13.6h-2.46v-.89h5.98v.89h-2.47v7.2h-1.06v-7.2Z" fill="#231f20"/>
        <path d="M42.98,16.67c0,2.78-1.69,4.26-3.75,4.26s-3.63-1.66-3.63-4.1c0-2.57,1.6-4.25,3.75-4.25s3.63,1.69,3.63,4.09ZM36.71,16.8c0,1.73.94,3.27,2.58,3.27s2.59-1.52,2.59-3.36c0-1.61-.84-3.29-2.58-3.29s-2.59,1.6-2.59,3.37Z" fill="#231f20"/>
        <path d="M44.34,12.71h1.04v3.9h.04c.22-.31.43-.6.64-.86l2.47-3.04h1.3l-2.93,3.43,3.15,4.65h-1.24l-2.66-3.97-.77.89v3.08h-1.04v-8.08Z" fill="#231f20"/>
        <path d="M55.03,17.01h-3.14v2.91h3.5v.88h-4.55v-8.08h4.37v.88h-3.32v2.55h3.14v.86Z" fill="#231f20"/>
        <path d="M56.75,20.8v-8.08h1.14l2.59,4.09c.6.95,1.07,1.8,1.45,2.63h.02c-.1-1.09-.12-2.08-.12-3.33v-3.38h.98v8.08h-1.06l-2.57-4.1c-.56-.9-1.1-1.82-1.51-2.7h-.04c.06,1.03.08,2,.08,3.35v3.45h-.98Z" fill="#231f20"/>
        <path d="M69.73,21.7v.6h-6v-.6h6Z" fill="#231f20"/>
        <path d="M71.69,12.71v8.08h-1.04v-8.08h1.04Z" fill="#231f20"/>
        <path d="M73.51,12.82c.64-.1,1.39-.17,2.22-.17,1.5,0,2.57.35,3.27,1.01.72.66,1.14,1.59,1.14,2.9s-.41,2.4-1.16,3.14c-.76.76-2,1.16-3.57,1.16-.74,0-1.37-.04-1.9-.1v-7.95ZM74.56,19.97c.26.05.65.06,1.06.06,2.23,0,3.44-1.25,3.44-3.43.01-1.91-1.07-3.12-3.27-3.12-.54,0-.95.05-1.22.11v6.38Z" fill="#231f20"/>
        <path d="M85.69,17.01h-3.14v2.91h3.5v.88h-4.55v-8.08h4.37v.88h-3.32v2.55h3.14v.86Z" fill="#231f20"/>
        <path d="M87.41,20.8v-8.08h1.14l2.59,4.09c.6.95,1.07,1.8,1.45,2.63h.02c-.1-1.09-.12-2.08-.12-3.33v-3.38h.98v8.08h-1.06l-2.57-4.1c-.56-.9-1.1-1.82-1.51-2.7h-.04c.06,1.03.08,2,.08,3.35v3.45h-.98Z" fill="#231f20"/>
        <path d="M96.84,13.6h-2.46v-.89h5.98v.89h-2.47v7.2h-1.06v-7.2Z" fill="#231f20"/>
        <path d="M102.31,12.71v8.08h-1.04v-8.08h1.04Z" fill="#231f20"/>
        <path d="M104.14,12.71h4.35v.88h-3.31v2.69h3.06v.86h-3.06v3.66h-1.04v-8.08Z" fill="#231f20"/>
        <path d="M111.02,12.71v8.08h-1.04v-8.08h1.04Z" fill="#231f20"/>
        <path d="M117.03,17.01h-3.14v2.91h3.5v.88h-4.55v-8.08h4.37v.88h-3.32v2.55h3.14v.86Z" fill="#231f20"/>
        <path d="M118.75,12.82c.53-.11,1.28-.17,2-.17,1.12,0,1.83.2,2.34.66.41.36.64.91.64,1.54,0,1.07-.67,1.78-1.52,2.06v.04c.62.22,1,.79,1.19,1.63.26,1.13.46,1.91.62,2.22h-1.08c-.13-.23-.31-.92-.54-1.93-.24-1.12-.67-1.54-1.62-1.57h-.98v3.5h-1.04v-7.98ZM119.8,16.5h1.07c1.12,0,1.82-.61,1.82-1.54,0-1.04-.76-1.5-1.86-1.51-.5,0-.86.05-1.03.1v2.95Z" fill="#231f20"/>
      </g>
      <g isolation="isolate">
        <path d="M57.5,33.54c0-.62-.02-1.12-.04-1.58h.79l.04.83h.02c.36-.59.93-.94,1.72-.94,1.17,0,2.05.99,2.05,2.46,0,1.74-1.06,2.6-2.2,2.6-.64,0-1.2-.28-1.49-.76h-.02v2.63h-.87v-5.24ZM58.37,34.83c0,.13.02.25.04.36.16.61.69,1.03,1.32,1.03.93,0,1.47-.76,1.47-1.87,0-.97-.51-1.8-1.44-1.8-.6,0-1.16.43-1.33,1.09-.03.11-.06.24-.06.36v.83Z" fill="#231f20"/>
        <path d="M67.24,35.48c0,.5.01.94.04,1.32h-.78l-.05-.79h-.02c-.23.39-.74.9-1.6.9-.76,0-1.67-.42-1.67-2.12v-2.83h.88v2.68c0,.92.28,1.54,1.08,1.54.59,0,1-.41,1.16-.8.05-.13.08-.29.08-.45v-2.97h.88v3.52Z" fill="#231f20"/>
        <path d="M69.76,30.57v1.39h1.26v.67h-1.26v2.61c0,.6.17.94.66.94.23,0,.4-.03.51-.06l.04.66c-.17.07-.44.12-.78.12-.41,0-.74-.13-.95-.37-.25-.26-.34-.69-.34-1.26v-2.64h-.75v-.67h.75v-1.16l.86-.23Z" fill="#231f20"/>
        <path d="M71.89,35.9c.26.17.72.35,1.16.35.64,0,.94-.32.94-.72s-.25-.65-.9-.89c-.87-.31-1.28-.79-1.28-1.37,0-.78.63-1.42,1.67-1.42.49,0,.92.14,1.19.3l-.22.64c-.19-.12-.54-.28-.99-.28-.52,0-.81.3-.81.66,0,.4.29.58.92.82.84.32,1.27.74,1.27,1.46,0,.85-.66,1.45-1.81,1.45-.53,0-1.02-.13-1.36-.33l.22-.67Z" fill="#231f20"/>
      </g>
    </g>
    <g>
      <path d="M160.32,1.5h108.68c10.8,0,19.56,4.03,19.56,9v26c0,4.97-8.76,9-19.56,9h-108.68c-10.8,0-19.56-4.03-19.56-9h0V10.5c0-4.97,8.76-9,19.56-9h0Z" fill="#f2f2f2" stroke="#999" stroke-linecap="round" stroke-linejoin="round" stroke-width="3"/>
      <g isolation="isolate">
        <path d="M147.01,12.81c.5-.08,1.16-.16,2-.16,1.03,0,1.79.24,2.27.67.44.38.71.97.71,1.69s-.22,1.31-.62,1.73c-.55.59-1.45.89-2.47.89-.31,0-.6-.01-.84-.07v3.24h-1.04v-7.99ZM148.05,16.71c.23.06.52.08.86.08,1.26,0,2.03-.61,2.03-1.73s-.76-1.58-1.91-1.58c-.46,0-.8.04-.98.08v3.14Z" fill="#231f20"/>
        <path d="M160.06,17.25c-.06-1.13-.13-2.48-.12-3.49h-.04c-.28.95-.61,1.96-1.02,3.07l-1.43,3.92h-.79l-1.31-3.85c-.38-1.14-.71-2.18-.94-3.14h-.02c-.02,1.01-.08,2.36-.16,3.57l-.22,3.47h-1l.56-8.08h1.33l1.38,3.91c.34,1,.61,1.88.82,2.72h.04c.2-.82.49-1.7.85-2.72l1.44-3.91h1.33l.5,8.08h-1.02l-.2-3.55Z" fill="#231f20"/>
        <path d="M167.98,21.7v.6h-6v-.6h6Z" fill="#231f20"/>
        <path d="M170.43,13.6h-2.46v-.89h5.98v.89h-2.47v7.2h-1.06v-7.2Z" fill="#231f20"/>
        <path d="M181.44,16.67c0,2.78-1.69,4.26-3.75,4.26s-3.63-1.66-3.63-4.1c0-2.57,1.6-4.25,3.75-4.25s3.63,1.69,3.63,4.09ZM175.17,16.8c0,1.73.94,3.27,2.58,3.27s2.59-1.52,2.59-3.36c0-1.61-.84-3.29-2.58-3.29s-2.59,1.6-2.59,3.37Z" fill="#231f20"/>
        <path d="M182.8,12.71h1.04v3.9h.04c.22-.31.43-.6.64-.86l2.47-3.04h1.3l-2.93,3.43,3.15,4.65h-1.23l-2.66-3.97-.77.89v3.08h-1.04v-8.08Z" fill="#231f20"/>
        <path d="M193.49,17.01h-3.14v2.91h3.5v.88h-4.55v-8.08h4.37v.88h-3.32v2.55h3.14v.86Z" fill="#231f20"/>
        <path d="M195.21,20.8v-8.08h1.14l2.59,4.09c.6.95,1.07,1.8,1.45,2.63h.02c-.1-1.09-.12-2.08-.12-3.33v-3.38h.98v8.08h-1.06l-2.57-4.1c-.56-.9-1.1-1.82-1.51-2.7h-.04c.06,1.03.08,2,.08,3.35v3.45h-.98Z" fill="#231f20"/>
        <path d="M208.19,21.7v.6h-6v-.6h6Z" fill="#231f20"/>
        <path d="M208.96,19.53c.47.29,1.15.53,1.87.53,1.07,0,1.69-.56,1.69-1.38,0-.76-.43-1.19-1.52-1.61-1.32-.47-2.13-1.15-2.13-2.29,0-1.26,1.04-2.2,2.61-2.2.83,0,1.43.19,1.79.4l-.29.85c-.26-.14-.8-.38-1.54-.38-1.1,0-1.52.66-1.52,1.21,0,.76.49,1.13,1.61,1.56,1.37.53,2.06,1.19,2.06,2.37,0,1.25-.92,2.33-2.83,2.33-.78,0-1.63-.23-2.06-.52l.26-.88Z" fill="#231f20"/>
        <path d="M216.56,13.6h-2.46v-.89h5.98v.89h-2.47v7.2h-1.06v-7.2Z" fill="#231f20"/>
        <path d="M220.99,12.82c.53-.11,1.28-.17,2-.17,1.12,0,1.83.2,2.34.66.41.36.64.91.64,1.54,0,1.07-.67,1.78-1.52,2.06v.04c.62.22,1,.79,1.19,1.63.26,1.13.46,1.91.62,2.22h-1.08c-.13-.23-.31-.92-.54-1.93-.24-1.12-.67-1.54-1.62-1.57h-.98v3.5h-1.04v-7.98ZM222.03,16.5h1.07c1.12,0,1.82-.61,1.82-1.54,0-1.04-.76-1.5-1.86-1.51-.5,0-.86.05-1.03.1v2.95Z" fill="#231f20"/>
        <path d="M228.49,12.71v8.08h-1.04v-8.08h1.04Z" fill="#231f20"/>
        <path d="M230.31,20.8v-8.08h1.14l2.59,4.09c.6.95,1.07,1.8,1.45,2.63h.02c-.1-1.09-.12-2.08-.12-3.33v-3.38h.98v8.08h-1.06l-2.57-4.1c-.56-.9-1.1-1.82-1.51-2.7h-.04c.06,1.03.08,2,.08,3.35v3.45h-.98Z" fill="#231f20"/>
        <path d="M244.36,20.44c-.47.17-1.39.44-2.48.44-1.22,0-2.23-.31-3.02-1.07-.7-.67-1.13-1.75-1.13-3.01.01-2.41,1.67-4.17,4.38-4.17.93,0,1.67.2,2.01.37l-.25.85c-.43-.19-.97-.35-1.79-.35-1.97,0-3.25,1.22-3.25,3.25s1.24,3.26,3.12,3.26c.68,0,1.15-.1,1.39-.22v-2.41h-1.64v-.84h2.66v3.89Z" fill="#231f20"/>
        <path d="M251.04,21.7v.6h-6v-.6h6Z" fill="#231f20"/>
        <path d="M251.96,12.82c.46-.1,1.18-.17,1.91-.17,1.04,0,1.71.18,2.22.59.42.31.67.79.67,1.43,0,.78-.52,1.46-1.37,1.78v.02c.77.19,1.67.83,1.67,2.03,0,.7-.28,1.22-.68,1.62-.56.52-1.48.76-2.79.76-.72,0-1.27-.05-1.62-.1v-7.95ZM253,16.13h.95c1.1,0,1.75-.58,1.75-1.36,0-.95-.72-1.32-1.78-1.32-.48,0-.75.04-.92.07v2.6ZM253,20c.2.04.5.05.88.05,1.08,0,2.08-.4,2.08-1.57,0-1.1-.95-1.56-2.09-1.56h-.86v3.08Z" fill="#231f20"/>
        <path d="M262.65,17.01h-3.14v2.91h3.5v.88h-4.55v-8.08h4.37v.88h-3.32v2.55h3.14v.86Z" fill="#231f20"/>
        <path d="M270.52,20.44c-.47.17-1.39.44-2.48.44-1.22,0-2.23-.31-3.02-1.07-.7-.67-1.13-1.75-1.13-3.01.01-2.41,1.67-4.17,4.38-4.17.94,0,1.67.2,2.01.37l-.25.85c-.43-.19-.97-.35-1.79-.35-1.97,0-3.25,1.22-3.25,3.25s1.24,3.26,3.12,3.26c.68,0,1.15-.1,1.39-.22v-2.41h-1.64v-.84h2.66v3.89Z" fill="#231f20"/>
        <path d="M273.16,12.71v8.08h-1.04v-8.08h1.04Z" fill="#231f20"/>
        <path d="M274.99,20.8v-8.08h1.14l2.59,4.09c.6.95,1.07,1.8,1.45,2.63h.02c-.1-1.09-.12-2.08-.12-3.33v-3.38h.98v8.08h-1.06l-2.57-4.1c-.56-.9-1.1-1.82-1.51-2.7h-.04c.06,1.03.08,2,.08,3.35v3.45h-.98Z" fill="#231f20"/>
      </g>
      <g isolation="isolate">
        <path d="M213.76,29.95l-.17,2.4h-.54l-.16-2.4h.87ZM215.25,29.95l-.17,2.4h-.53l-.17-2.4h.87Z" fill="#231f20"/>
      </g>
    </g>
    <g>
      <path d="M319.72,1.5h110.96c11.03,0,19.97,4.03,19.97,9v26c0,4.97-8.94,9-19.97,9h-110.96c-11.03,0-19.97-4.03-19.97-9h0V10.5c0-4.97,8.94-9,19.97-9h0Z" fill="#f2f2f2" stroke="#999" stroke-linecap="round" stroke-linejoin="round" stroke-width="3"/>
      <g isolation="isolate">
        <path d="M306.95,12.81c.5-.08,1.16-.16,2-.16,1.03,0,1.79.24,2.27.67.44.38.71.97.71,1.69s-.22,1.31-.62,1.73c-.55.59-1.45.89-2.47.89-.31,0-.6-.01-.84-.07v3.24h-1.04v-7.99ZM307.99,16.71c.23.06.52.08.86.08,1.26,0,2.03-.61,2.03-1.73s-.76-1.58-1.91-1.58c-.46,0-.8.04-.98.08v3.14Z" fill="#231f20"/>
        <path d="M320,17.25c-.06-1.13-.13-2.48-.12-3.49h-.04c-.28.95-.61,1.96-1.02,3.07l-1.43,3.92h-.79l-1.31-3.85c-.38-1.14-.71-2.18-.94-3.14h-.02c-.02,1.01-.08,2.36-.16,3.57l-.22,3.47h-1l.56-8.08h1.33l1.38,3.91c.34,1,.61,1.88.82,2.72h.04c.2-.82.49-1.7.85-2.72l1.44-3.91h1.33l.5,8.08h-1.02l-.2-3.55Z" fill="#231f20"/>
        <path d="M327.92,21.7v.6h-6v-.6h6Z" fill="#231f20"/>
        <path d="M330.37,13.6h-2.46v-.89h5.98v.89h-2.47v7.2h-1.05v-7.2Z" fill="#231f20"/>
        <path d="M341.38,16.67c0,2.78-1.69,4.26-3.75,4.26s-3.63-1.66-3.63-4.1c0-2.57,1.59-4.25,3.75-4.25s3.63,1.69,3.63,4.09ZM335.11,16.8c0,1.73.94,3.27,2.58,3.27s2.59-1.52,2.59-3.36c0-1.61-.84-3.29-2.58-3.29s-2.59,1.6-2.59,3.37Z" fill="#231f20"/>
        <path d="M342.74,12.71h1.04v3.9h.04c.22-.31.43-.6.64-.86l2.47-3.04h1.29l-2.93,3.43,3.15,4.65h-1.23l-2.66-3.97-.77.89v3.08h-1.04v-8.08Z" fill="#231f20"/>
        <path d="M353.43,17.01h-3.14v2.91h3.5v.88h-4.54v-8.08h4.37v.88h-3.32v2.55h3.14v.86Z" fill="#231f20"/>
        <path d="M355.15,20.8v-8.08h1.14l2.59,4.09c.6.95,1.07,1.8,1.45,2.63h.02c-.1-1.09-.12-2.08-.12-3.33v-3.38h.98v8.08h-1.05l-2.57-4.1c-.56-.9-1.1-1.82-1.51-2.7h-.04c.06,1.03.08,2,.08,3.35v3.45h-.98Z" fill="#231f20"/>
        <path d="M368.13,21.7v.6h-6v-.6h6Z" fill="#231f20"/>
        <path d="M368.9,19.53c.47.29,1.15.53,1.87.53,1.07,0,1.69-.56,1.69-1.38,0-.76-.43-1.19-1.52-1.61-1.32-.47-2.13-1.15-2.13-2.29,0-1.26,1.04-2.2,2.61-2.2.83,0,1.43.19,1.79.4l-.29.85c-.26-.14-.8-.38-1.54-.38-1.1,0-1.52.66-1.52,1.21,0,.76.49,1.13,1.61,1.56,1.37.53,2.06,1.19,2.06,2.37,0,1.25-.92,2.33-2.83,2.33-.78,0-1.63-.23-2.06-.52l.26-.88Z" fill="#231f20"/>
        <path d="M376.5,13.6h-2.46v-.89h5.98v.89h-2.47v7.2h-1.05v-7.2Z" fill="#231f20"/>
        <path d="M380.93,12.82c.53-.11,1.28-.17,2-.17,1.12,0,1.83.2,2.34.66.41.36.64.91.64,1.54,0,1.07-.67,1.78-1.52,2.06v.04c.62.22,1,.79,1.19,1.63.26,1.13.46,1.91.62,2.22h-1.08c-.13-.23-.31-.92-.54-1.93-.24-1.12-.67-1.54-1.62-1.57h-.98v3.5h-1.04v-7.98ZM381.97,16.5h1.07c1.12,0,1.82-.61,1.82-1.54,0-1.04-.76-1.5-1.86-1.51-.5,0-.86.05-1.03.1v2.95Z" fill="#231f20"/>
        <path d="M388.42,12.71v8.08h-1.04v-8.08h1.04Z" fill="#231f20"/>
        <path d="M390.25,20.8v-8.08h1.14l2.59,4.09c.6.95,1.07,1.8,1.45,2.63h.02c-.1-1.09-.12-2.08-.12-3.33v-3.38h.98v8.08h-1.05l-2.57-4.1c-.56-.9-1.1-1.82-1.51-2.7h-.04c.06,1.03.08,2,.08,3.35v3.45h-.98Z" fill="#231f20"/>
        <path d="M404.3,20.44c-.47.17-1.39.44-2.48.44-1.22,0-2.23-.31-3.02-1.07-.7-.67-1.13-1.75-1.13-3.01.01-2.41,1.67-4.17,4.38-4.17.94,0,1.67.2,2.01.37l-.25.85c-.43-.19-.97-.35-1.79-.35-1.97,0-3.25,1.22-3.25,3.25s1.24,3.26,3.12,3.26c.68,0,1.15-.1,1.39-.22v-2.41h-1.64v-.84h2.66v3.89Z" fill="#231f20"/>
        <path d="M410.98,21.7v.6h-6v-.6h6Z" fill="#231f20"/>
        <path d="M413.67,20.8l-2.64-8.08h1.13l1.26,3.98c.35,1.09.65,2.07.86,3.02h.02c.23-.94.56-1.96.92-3.01l1.37-3.99h1.12l-2.89,8.08h-1.15Z" fill="#231f20"/>
        <path d="M419.22,18.25l-.84,2.54h-1.08l2.75-8.08h1.26l2.76,8.08h-1.12l-.86-2.54h-2.87ZM421.87,17.44l-.79-2.33c-.18-.53-.3-1.01-.42-1.48h-.02c-.12.48-.25.97-.41,1.46l-.79,2.34h2.43Z" fill="#231f20"/>
        <path d="M425.25,12.71h1.04v7.21h3.45v.88h-4.5v-8.08Z" fill="#231f20"/>
        <path d="M431.53,12.71v4.79c0,1.81.8,2.58,1.88,2.58,1.2,0,1.97-.79,1.97-2.58v-4.79h1.06v4.71c0,2.48-1.31,3.5-3.06,3.5-1.65,0-2.9-.95-2.9-3.45v-4.76h1.06Z" fill="#231f20"/>
        <path d="M442.43,17.01h-3.14v2.91h3.5v.88h-4.54v-8.08h4.37v.88h-3.32v2.55h3.14v.86Z" fill="#231f20"/>
      </g>
      <g isolation="isolate">
        <path d="M352.09,30.06v2.82h3.26v-2.82h.88v6.74h-.88v-3.16h-3.26v3.16h-.87v-6.74h.87Z" fill="#231f20"/>
        <path d="M358.2,34.54c.02,1.19.78,1.68,1.66,1.68.63,0,1.01-.11,1.34-.25l.15.63c-.31.14-.84.3-1.61.3-1.49,0-2.38-.98-2.38-2.44s.86-2.61,2.27-2.61c1.58,0,2,1.39,2,2.28,0,.18-.02.32-.03.41h-3.4ZM360.78,33.91c0-.56-.23-1.43-1.22-1.43-.89,0-1.28.82-1.35,1.43h2.57Z" fill="#231f20"/>
        <path d="M362.72,29.7h.88v7.1h-.88v-7.1Z" fill="#231f20"/>
        <path d="M365.08,29.7h.88v7.1h-.88v-7.1Z" fill="#231f20"/>
        <path d="M371.82,34.34c0,1.79-1.24,2.57-2.41,2.57-1.31,0-2.32-.96-2.32-2.49,0-1.62,1.06-2.57,2.4-2.57s2.33,1.01,2.33,2.49ZM367.98,34.39c0,1.06.61,1.86,1.47,1.86s1.47-.79,1.47-1.88c0-.82-.41-1.86-1.45-1.86s-1.49.96-1.49,1.88Z" fill="#231f20"/>
        <path d="M375.82,36.8l-1.71-6.74h.92l.8,3.41c.2.84.38,1.68.5,2.33h.02c.11-.67.32-1.47.55-2.34l.9-3.4h.91l.82,3.42c.19.8.37,1.6.47,2.31h.02c.14-.74.33-1.49.54-2.33l.89-3.4h.89l-1.91,6.74h-.91l-.85-3.51c-.21-.86-.35-1.52-.44-2.2h-.02c-.12.67-.27,1.33-.52,2.2l-.96,3.51h-.91Z" fill="#231f20"/>
        <path d="M387.2,34.34c0,1.79-1.24,2.57-2.41,2.57-1.31,0-2.32-.96-2.32-2.49,0-1.62,1.06-2.57,2.4-2.57s2.33,1.01,2.33,2.49ZM383.36,34.39c0,1.06.61,1.86,1.47,1.86s1.47-.79,1.47-1.88c0-.82-.41-1.86-1.45-1.86s-1.49.96-1.49,1.88Z" fill="#231f20"/>
        <path d="M388.31,33.47c0-.57,0-1.06-.04-1.51h.77l.03.95h.04c.22-.65.75-1.06,1.34-1.06.1,0,.17,0,.25.03v.83c-.09-.02-.18-.03-.3-.03-.62,0-1.06.47-1.18,1.13-.02.12-.04.26-.04.41v2.58h-.87v-3.33Z" fill="#231f20"/>
        <path d="M391.62,29.7h.88v7.1h-.88v-7.1Z" fill="#231f20"/>
        <path d="M398.16,29.7v5.85c0,.43,0,.92.04,1.25h-.79l-.04-.84h-.02c-.27.54-.86.95-1.65.95-1.17,0-2.07-.99-2.07-2.46-.01-1.61.99-2.6,2.17-2.6.74,0,1.24.35,1.46.74h.02v-2.89h.88ZM397.28,33.93c0-.11,0-.26-.04-.37-.13-.56-.61-1.02-1.27-1.02-.91,0-1.45.8-1.45,1.87,0,.98.48,1.79,1.43,1.79.59,0,1.13-.39,1.29-1.05.03-.12.04-.24.04-.38v-.84Z" fill="#231f20"/>
      </g>
    </g>
    <g>
      <path d="M78.91,73.17h104.09c10.35,0,18.74,4.03,18.74,9v26c0,4.97-8.39,9-18.74,9h-104.09c-10.35,0-18.74-4.03-18.74-9h0v-26c0-4.97,8.39-9,18.74-9h0Z" fill="#f2f2f2" stroke="#999" stroke-linecap="round" stroke-linejoin="round" stroke-width="3"/>
      <g isolation="isolate">
        <path d="M68.32,84.48c.5-.08,1.16-.16,2-.16,1.03,0,1.79.24,2.27.67.44.38.71.97.71,1.69s-.22,1.31-.62,1.73c-.55.59-1.45.89-2.47.89-.31,0-.6-.01-.84-.07v3.24h-1.04v-7.99ZM69.36,88.38c.23.06.52.08.86.08,1.26,0,2.03-.61,2.03-1.73s-.76-1.58-1.91-1.58c-.46,0-.8.04-.98.08v3.14Z" fill="#231f20"/>
        <path d="M81.37,88.92c-.06-1.13-.13-2.48-.12-3.49h-.04c-.28.95-.61,1.96-1.02,3.07l-1.43,3.92h-.79l-1.31-3.85c-.38-1.14-.71-2.18-.94-3.14h-.02c-.02,1.01-.08,2.36-.16,3.57l-.22,3.47h-1l.56-8.08h1.33l1.38,3.91c.34,1,.61,1.88.82,2.72h.04c.2-.82.49-1.7.85-2.72l1.44-3.91h1.33l.5,8.08h-1.02l-.2-3.55Z" fill="#231f20"/>
        <path d="M89.29,93.37v.6h-6v-.6h6Z" fill="#231f20"/>
        <path d="M91.74,85.27h-2.46v-.89h5.98v.89h-2.47v7.2h-1.06v-7.2Z" fill="#231f20"/>
        <path d="M102.76,88.34c0,2.78-1.69,4.26-3.75,4.26s-3.63-1.66-3.63-4.1c0-2.57,1.6-4.25,3.75-4.25s3.63,1.69,3.63,4.09ZM96.48,88.47c0,1.73.94,3.27,2.58,3.27s2.59-1.52,2.59-3.36c0-1.61-.84-3.29-2.58-3.29s-2.59,1.6-2.59,3.37Z" fill="#231f20"/>
        <path d="M104.11,84.38h1.04v3.9h.04c.22-.31.43-.6.64-.86l2.47-3.04h1.3l-2.93,3.43,3.15,4.65h-1.23l-2.66-3.97-.77.89v3.08h-1.04v-8.08Z" fill="#231f20"/>
        <path d="M114.8,88.68h-3.14v2.91h3.5v.88h-4.55v-8.08h4.37v.88h-3.32v2.55h3.14v.86Z" fill="#231f20"/>
        <path d="M116.52,92.47v-8.08h1.14l2.59,4.09c.6.95,1.07,1.8,1.45,2.63h.02c-.1-1.09-.12-2.08-.12-3.33v-3.38h.98v8.08h-1.06l-2.57-4.1c-.56-.9-1.1-1.82-1.51-2.7h-.04c.06,1.03.08,2,.08,3.35v3.45h-.98Z" fill="#231f20"/>
        <path d="M129.5,93.37v.6h-6v-.6h6Z" fill="#231f20"/>
        <path d="M130.27,91.2c.47.29,1.15.53,1.87.53,1.07,0,1.69-.56,1.69-1.38,0-.76-.43-1.19-1.52-1.61-1.32-.47-2.13-1.15-2.13-2.29,0-1.26,1.04-2.2,2.61-2.2.83,0,1.43.19,1.79.4l-.29.85c-.26-.14-.8-.38-1.54-.38-1.1,0-1.52.66-1.52,1.21,0,.76.49,1.13,1.61,1.56,1.37.53,2.06,1.19,2.06,2.37,0,1.25-.92,2.33-2.83,2.33-.78,0-1.63-.23-2.06-.52l.26-.88Z" fill="#231f20"/>
        <path d="M137.87,85.27h-2.46v-.89h5.98v.89h-2.47v7.2h-1.06v-7.2Z" fill="#231f20"/>
        <path d="M142.3,84.49c.53-.11,1.28-.17,2-.17,1.12,0,1.83.2,2.34.66.41.36.64.91.64,1.54,0,1.07-.67,1.78-1.52,2.06v.04c.62.22,1,.79,1.19,1.63.26,1.13.46,1.91.62,2.22h-1.08c-.13-.23-.31-.92-.54-1.93-.24-1.12-.67-1.54-1.62-1.57h-.98v3.5h-1.04v-7.98ZM143.34,88.17h1.07c1.12,0,1.82-.61,1.82-1.54,0-1.04-.76-1.5-1.86-1.51-.5,0-.86.05-1.03.1v2.95Z" fill="#231f20"/>
        <path d="M149.8,84.38v8.08h-1.04v-8.08h1.04Z" fill="#231f20"/>
        <path d="M151.62,92.47v-8.08h1.14l2.59,4.09c.6.95,1.07,1.8,1.45,2.63h.02c-.1-1.09-.12-2.08-.12-3.33v-3.38h.98v8.08h-1.06l-2.57-4.1c-.56-.9-1.1-1.82-1.51-2.7h-.04c.06,1.03.08,2,.08,3.35v3.45h-.98Z" fill="#231f20"/>
        <path d="M165.67,92.11c-.47.17-1.39.44-2.48.44-1.22,0-2.23-.31-3.02-1.07-.7-.67-1.13-1.75-1.13-3.01.01-2.41,1.67-4.17,4.38-4.17.94,0,1.67.2,2.01.37l-.25.85c-.43-.19-.97-.35-1.79-.35-1.97,0-3.25,1.22-3.25,3.25s1.24,3.26,3.12,3.26c.68,0,1.15-.1,1.39-.22v-2.41h-1.64v-.84h2.66v3.89Z" fill="#231f20"/>
        <path d="M172.36,93.37v.6h-6v-.6h6Z" fill="#231f20"/>
        <path d="M177.46,88.68h-3.14v2.91h3.5v.88h-4.55v-8.08h4.37v.88h-3.32v2.55h3.14v.86Z" fill="#231f20"/>
        <path d="M179.17,92.47v-8.08h1.14l2.59,4.09c.6.95,1.07,1.8,1.45,2.63h.02c-.1-1.09-.12-2.08-.12-3.33v-3.38h.98v8.08h-1.06l-2.57-4.1c-.56-.9-1.1-1.82-1.51-2.7h-.04c.06,1.03.08,2,.08,3.35v3.45h-.98Z" fill="#231f20"/>
        <path d="M187.07,84.49c.64-.1,1.39-.17,2.22-.17,1.5,0,2.57.35,3.27,1.01.72.66,1.14,1.59,1.14,2.9s-.41,2.4-1.16,3.14c-.76.76-2,1.16-3.57,1.16-.74,0-1.37-.04-1.9-.1v-7.95ZM188.11,91.64c.26.05.65.06,1.06.06,2.23,0,3.44-1.25,3.44-3.43.01-1.91-1.07-3.12-3.27-3.12-.54,0-.95.05-1.22.11v6.38Z" fill="#231f20"/>
      </g>
      <g isolation="isolate">
        <path d="M130.65,101.38l-.17,2.4h-.54l-.16-2.4h.87ZM132.14,101.38l-.17,2.4h-.53l-.17-2.4h.87Z" fill="#231f20"/>
      </g>
    </g>
    <g>
      <path d="M462.65,22.88c0-.44.3-.76.72-.76s.71.31.71.76-.28.76-.72.76c-.42,0-.71-.32-.71-.76Z" fill="#231f20"/>
      <path d="M465.13,22.88c0-.44.3-.76.72-.76s.71.31.71.76-.28.76-.72.76c-.42,0-.71-.32-.71-.76Z" fill="#231f20"/>
      <path d="M467.61,22.88c0-.44.3-.76.72-.76s.71.31.71.76-.28.76-.72.76c-.42,0-.71-.32-.71-.76Z" fill="#231f20"/>
    </g>
    <g>
      <path d="M44.78,95.3c0-.44.3-.76.72-.76s.71.31.71.76-.28.76-.72.76c-.42,0-.71-.32-.71-.76Z" fill="#231f20"/>
      <path d="M47.27,95.3c0-.44.3-.76.72-.76s.71.31.71.76-.28.76-.72.76c-.42,0-.71-.32-.71-.76Z" fill="#231f20"/>
      <path d="M49.75,95.3c0-.44.3-.76.72-.76s.71.31.71.76-.28.76-.72.76c-.42,0-.71-.32-.71-.76Z" fill="#231f20"/>
    </g>
  </g>
</svg>