<?xml version="1.0" encoding="UTF-8"?>
<svg id="Layer_2" data-name="Layer 2" xmlns="http://www.w3.org/2000/svg" width="207.28" height="112.93" viewBox="0 0 207.28 112.93">
  <g id="Layer_1_copy" data-name="Layer 1 copy">
    <g>
      <rect x="36.61" y="17.48" width="137.2" height="23.12" fill="#e6e7e8" stroke="#231f20" stroke-miterlimit="10"/>
      <rect x="1" y="17.48" width="36.61" height="23.12" fill="#fff" stroke="#231f20" stroke-miterlimit="10"/>
      <g>
        <path d="M9.33,28.78c0-.74-.02-1.34-.05-1.89h.95l.05,1h.02c.43-.71,1.12-1.13,2.06-1.13,1.4,0,2.46,1.19,2.46,2.95,0,2.09-1.27,3.12-2.64,3.12-.77,0-1.44-.34-1.79-.91h-.02v3.15h-1.04v-6.29ZM10.37,30.33c0,.16.02.3.05.43.19.73.83,1.24,1.58,1.24,1.12,0,1.76-.91,1.76-2.24,0-1.16-.61-2.16-1.73-2.16-.72,0-1.39.52-1.6,1.31-.04.13-.07.29-.07.43v1Z" fill="#231f20"/>
        <path d="M21.01,31.11c0,.6.01,1.13.05,1.58h-.94l-.06-.95h-.02c-.28.47-.89,1.08-1.92,1.08-.91,0-2-.5-2-2.54v-3.39h1.06v3.21c0,1.1.34,1.85,1.3,1.85.71,0,1.2-.49,1.39-.96.06-.16.1-.35.1-.54v-3.56h1.06v4.22Z" fill="#231f20"/>
        <path d="M24.04,25.22v1.67h1.51v.8h-1.51v3.13c0,.72.2,1.13.79,1.13.28,0,.48-.04.61-.07l.05.79c-.2.08-.53.14-.94.14-.49,0-.89-.16-1.14-.44-.3-.31-.41-.83-.41-1.51v-3.17h-.9v-.8h.9v-1.39l1.03-.28Z" fill="#231f20"/>
        <path d="M26.59,31.61c.31.2.86.42,1.39.42.77,0,1.13-.38,1.13-.86s-.3-.78-1.08-1.07c-1.04-.37-1.54-.95-1.54-1.64,0-.94.76-1.7,2-1.7.59,0,1.1.17,1.43.36l-.26.77c-.23-.14-.65-.34-1.19-.34-.62,0-.97.36-.97.79,0,.48.35.7,1.1.98,1.01.38,1.52.89,1.52,1.75,0,1.02-.79,1.74-2.17,1.74-.64,0-1.22-.16-1.63-.4l.26-.8Z" fill="#231f20"/>
      </g>
      <g>
        <path d="M60.65,24.61v3.38h3.91v-3.38h1.06v8.08h-1.06v-3.79h-3.91v3.79h-1.04v-8.08h1.04Z" fill="#231f20"/>
        <path d="M67.99,29.98c.02,1.43.94,2.02,1.99,2.02.76,0,1.21-.13,1.61-.3l.18.75c-.37.17-1.01.36-1.93.36-1.79,0-2.85-1.18-2.85-2.93s1.03-3.13,2.72-3.13c1.9,0,2.4,1.67,2.4,2.73,0,.22-.02.38-.04.49h-4.08ZM71.08,29.23c.01-.67-.28-1.72-1.46-1.72-1.07,0-1.54.98-1.62,1.72h3.08Z" fill="#231f20"/>
        <path d="M73.41,24.18h1.06v8.52h-1.06v-8.52Z" fill="#231f20"/>
        <path d="M76.24,24.18h1.06v8.52h-1.06v-8.52Z" fill="#231f20"/>
        <path d="M84.33,29.74c0,2.15-1.49,3.08-2.89,3.08-1.57,0-2.78-1.15-2.78-2.99,0-1.94,1.27-3.08,2.88-3.08s2.79,1.21,2.79,2.99ZM79.72,29.8c0,1.27.73,2.23,1.76,2.23s1.76-.95,1.76-2.25c0-.98-.49-2.23-1.74-2.23s-1.79,1.15-1.79,2.25Z" fill="#231f20"/>
        <path d="M89.13,32.69l-2.05-8.08h1.1l.96,4.09c.24,1.01.46,2.02.6,2.79h.02c.13-.8.38-1.76.66-2.81l1.08-4.08h1.09l.98,4.1c.23.96.44,1.92.56,2.77h.02c.17-.89.4-1.79.65-2.79l1.07-4.08h1.07l-2.29,8.08h-1.09l-1.02-4.21c-.25-1.03-.42-1.82-.53-2.64h-.02c-.14.8-.32,1.6-.62,2.64l-1.15,4.21h-1.09Z" fill="#231f20"/>
        <path d="M102.78,29.74c0,2.15-1.49,3.08-2.89,3.08-1.57,0-2.78-1.15-2.78-2.99,0-1.94,1.27-3.08,2.88-3.08s2.79,1.21,2.79,2.99ZM98.18,29.8c0,1.27.73,2.23,1.76,2.23s1.76-.95,1.76-2.25c0-.98-.49-2.23-1.74-2.23s-1.79,1.15-1.79,2.25Z" fill="#231f20"/>
        <path d="M104.12,28.7c0-.68-.01-1.27-.05-1.81h.92l.04,1.14h.05c.26-.78.9-1.27,1.61-1.27.12,0,.2.01.3.04v1c-.11-.02-.22-.04-.36-.04-.74,0-1.27.56-1.42,1.36-.02.14-.05.31-.05.49v3.09h-1.04v-3.99Z" fill="#231f20"/>
        <path d="M108.09,24.18h1.06v8.52h-1.06v-8.52Z" fill="#231f20"/>
        <path d="M115.93,24.18v7.02c0,.52.01,1.1.05,1.5h-.95l-.05-1.01h-.02c-.32.65-1.03,1.14-1.98,1.14-1.4,0-2.48-1.19-2.48-2.95-.01-1.93,1.19-3.12,2.6-3.12.89,0,1.49.42,1.75.89h.02v-3.47h1.06ZM114.88,29.25c0-.13-.01-.31-.05-.44-.16-.67-.73-1.22-1.52-1.22-1.09,0-1.74.96-1.74,2.24,0,1.17.58,2.15,1.72,2.15.71,0,1.35-.47,1.55-1.26.04-.14.05-.29.05-.46v-1.01Z" fill="#231f20"/>
      </g>
      <path d="M44.41,24.48l-.2,2.88h-.65l-.19-2.88h1.04ZM46.2,24.48l-.2,2.88h-.64l-.2-2.88h1.04Z" fill="#231f20"/>
      <path d="M130.37,24.48l-.2,2.88h-.65l-.19-2.88h1.04ZM132.16,24.48l-.2,2.88h-.64l-.2-2.88h1.04Z" fill="#231f20"/>
      <g>
        <path d="M149.75,28.9h-3.14v2.91h3.5v.88h-4.55v-8.08h4.37v.88h-3.32v2.55h3.14v.86Z" fill="#231f20"/>
        <path d="M158.38,28.57c0,2.78-1.69,4.26-3.75,4.26s-3.63-1.66-3.63-4.1c0-2.57,1.6-4.25,3.75-4.25s3.63,1.69,3.63,4.09ZM152.11,28.7c0,1.73.94,3.27,2.58,3.27s2.59-1.52,2.59-3.36c0-1.61-.84-3.29-2.58-3.29s-2.59,1.6-2.59,3.37Z" fill="#231f20"/>
        <path d="M159.74,24.61h4.35v.88h-3.31v2.69h3.06v.86h-3.06v3.66h-1.04v-8.08Z" fill="#231f20"/>
      </g>
      <g isolation="isolate">
        <path d="M.61,105.6c.34-.06.78-.1,1.34-.1.69,0,1.19.16,1.51.45.3.26.47.65.47,1.13s-.14.87-.42,1.15c-.37.39-.97.59-1.65.59-.21,0-.4,0-.56-.05v2.16h-.7v-5.33ZM1.3,108.2c.15.04.34.06.58.06.84,0,1.35-.41,1.35-1.15s-.5-1.05-1.27-1.05c-.3,0-.54.02-.66.06v2.09Z" fill="#010101"/>
        <path d="M9.31,108.56c-.04-.75-.09-1.65-.08-2.33h-.02c-.18.63-.41,1.3-.68,2.05l-.95,2.61h-.53l-.87-2.57c-.26-.76-.47-1.46-.62-2.09h-.02c-.02.67-.06,1.58-.1,2.38l-.14,2.31h-.66l.38-5.39h.89l.92,2.61c.22.66.41,1.25.54,1.81h.02c.14-.54.33-1.13.57-1.81l.96-2.61h.89l.34,5.39h-.68l-.14-2.37Z" fill="#010101"/>
        <path d="M14.59,111.53v.4h-4v-.4h4Z" fill="#010101"/>
        <path d="M16.22,106.13h-1.64v-.59h3.99v.59h-1.65v4.8h-.7v-4.8Z" fill="#010101"/>
        <path d="M23.57,108.18c0,1.85-1.13,2.84-2.5,2.84s-2.42-1.1-2.42-2.73c0-1.71,1.06-2.83,2.5-2.83s2.42,1.13,2.42,2.73ZM19.38,108.26c0,1.15.62,2.18,1.72,2.18s1.73-1.02,1.73-2.24c0-1.07-.56-2.19-1.72-2.19s-1.73,1.06-1.73,2.25Z" fill="#010101"/>
        <path d="M24.47,105.54h.7v2.6h.02c.14-.21.29-.4.42-.58l1.65-2.02h.86l-1.95,2.29,2.1,3.1h-.82l-1.77-2.65-.51.59v2.05h-.7v-5.39Z" fill="#010101"/>
        <path d="M31.6,108.4h-2.09v1.94h2.33v.58h-3.03v-5.39h2.91v.58h-2.21v1.7h2.09v.58Z" fill="#010101"/>
        <path d="M32.74,110.93v-5.39h.76l1.73,2.73c.4.63.71,1.2.97,1.75h.02c-.06-.73-.08-1.38-.08-2.22v-2.25h.66v5.39h-.7l-1.71-2.73c-.38-.6-.74-1.22-1.01-1.8h-.02c.04.69.06,1.33.06,2.23v2.3h-.66Z" fill="#010101"/>
        <path d="M41.4,111.53v.4h-4v-.4h4Z" fill="#010101"/>
        <path d="M41.91,110.08c.31.19.77.35,1.25.35.71,0,1.13-.38,1.13-.92,0-.5-.29-.79-1.02-1.07-.88-.31-1.42-.77-1.42-1.53,0-.84.7-1.46,1.74-1.46.55,0,.95.13,1.19.26l-.19.57c-.18-.1-.54-.26-1.02-.26-.74,0-1.02.44-1.02.81,0,.5.33.75,1.07,1.04.91.35,1.38.79,1.38,1.58,0,.83-.62,1.55-1.89,1.55-.52,0-1.09-.15-1.38-.34l.18-.58Z" fill="#010101"/>
        <path d="M46.97,106.13h-1.64v-.59h3.99v.59h-1.65v4.8h-.7v-4.8Z" fill="#010101"/>
        <path d="M49.93,105.61c.35-.07.86-.11,1.34-.11.74,0,1.22.14,1.56.44.27.24.42.61.42,1.02,0,.71-.45,1.18-1.02,1.38v.02c.42.14.66.53.79,1.09.18.75.3,1.27.42,1.48h-.72c-.09-.15-.21-.62-.36-1.29-.16-.74-.45-1.02-1.08-1.05h-.66v2.33h-.7v-5.32ZM50.62,108.06h.71c.74,0,1.22-.41,1.22-1.02,0-.7-.5-1-1.24-1.01-.34,0-.58.03-.69.06v1.97Z" fill="#010101"/>
        <path d="M54.93,105.54v5.39h-.7v-5.39h.7Z" fill="#010101"/>
        <path d="M56.14,110.93v-5.39h.76l1.73,2.73c.4.63.71,1.2.97,1.75h.02c-.06-.73-.08-1.38-.08-2.22v-2.25h.66v5.39h-.7l-1.71-2.73c-.38-.6-.74-1.22-1.01-1.8h-.02c.04.69.06,1.33.06,2.23v2.3h-.66Z" fill="#010101"/>
        <path d="M65.51,110.69c-.31.11-.93.3-1.66.3-.82,0-1.49-.21-2.01-.71-.46-.45-.75-1.17-.75-2.01,0-1.61,1.11-2.78,2.92-2.78.62,0,1.11.14,1.34.25l-.17.57c-.29-.13-.65-.23-1.19-.23-1.31,0-2.17.82-2.17,2.17s.82,2.17,2.08,2.17c.46,0,.77-.06.93-.14v-1.61h-1.1v-.56h1.77v2.59Z" fill="#010101"/>
        <path d="M69.96,111.53v.4h-4v-.4h4Z" fill="#010101"/>
        <path d="M70.58,105.61c.3-.06.78-.11,1.27-.11.7,0,1.14.12,1.48.39.28.21.45.53.45.95,0,.52-.34.98-.91,1.18v.02c.51.13,1.11.55,1.11,1.35,0,.46-.18.82-.46,1.08-.38.34-.98.5-1.86.5-.48,0-.85-.03-1.08-.06v-5.3ZM71.27,107.82h.63c.74,0,1.17-.38,1.17-.9,0-.63-.48-.88-1.18-.88-.32,0-.5.02-.62.05v1.74ZM71.27,110.4c.14.02.34.03.58.03.72,0,1.38-.26,1.38-1.05,0-.74-.63-1.04-1.39-1.04h-.58v2.06Z" fill="#010101"/>
        <path d="M77.7,108.4h-2.09v1.94h2.33v.58h-3.03v-5.39h2.91v.58h-2.21v1.7h2.09v.58Z" fill="#010101"/>
        <path d="M82.95,110.69c-.31.11-.93.3-1.66.3-.82,0-1.49-.21-2.01-.71-.46-.45-.75-1.17-.75-2.01,0-1.61,1.11-2.78,2.92-2.78.62,0,1.11.14,1.34.25l-.17.57c-.29-.13-.65-.23-1.19-.23-1.31,0-2.17.82-2.17,2.17s.82,2.17,2.08,2.17c.46,0,.77-.06.93-.14v-1.61h-1.1v-.56h1.77v2.59Z" fill="#010101"/>
        <path d="M84.71,105.54v5.39h-.7v-5.39h.7Z" fill="#010101"/>
        <path d="M85.93,110.93v-5.39h.76l1.73,2.73c.4.63.71,1.2.97,1.75h.02c-.06-.73-.08-1.38-.08-2.22v-2.25h.66v5.39h-.7l-1.71-2.73c-.38-.6-.74-1.22-1.01-1.8h-.02c.04.69.06,1.33.06,2.23v2.3h-.66Z" fill="#010101"/>
      </g>
      <rect x="52.85" y="47.31" width="120.96" height="23.12" fill="#e6e7e8" stroke="#231f20" stroke-miterlimit="10"/>
      <rect x="37.66" y="47.31" width="15.19" height="23.12" fill="#fff" stroke="#231f20" stroke-miterlimit="10"/>
      <g>
        <path d="M61.27,54.09v3.38h3.91v-3.38h1.06v8.08h-1.06v-3.79h-3.91v3.79h-1.04v-8.08h1.04Z" fill="#231f20"/>
        <path d="M68.6,59.46c.02,1.43.94,2.02,1.99,2.02.76,0,1.21-.13,1.61-.3l.18.75c-.37.17-1.01.36-1.93.36-1.79,0-2.85-1.18-2.85-2.93s1.03-3.13,2.72-3.13c1.9,0,2.4,1.67,2.4,2.73,0,.22-.02.38-.04.49h-4.08ZM71.69,58.7c.01-.67-.28-1.72-1.46-1.72-1.07,0-1.54.98-1.62,1.72h3.08Z" fill="#231f20"/>
        <path d="M74.02,53.65h1.06v8.52h-1.06v-8.52Z" fill="#231f20"/>
        <path d="M76.85,53.65h1.06v8.52h-1.06v-8.52Z" fill="#231f20"/>
        <path d="M84.94,59.22c0,2.15-1.49,3.08-2.89,3.08-1.57,0-2.78-1.15-2.78-2.99,0-1.94,1.27-3.08,2.88-3.08s2.79,1.21,2.79,2.99ZM80.33,59.28c0,1.27.73,2.23,1.76,2.23s1.76-.95,1.76-2.25c0-.98-.49-2.23-1.74-2.23s-1.79,1.15-1.79,2.25Z" fill="#231f20"/>
        <path d="M89.74,62.17l-2.05-8.08h1.1l.96,4.09c.24,1.01.46,2.02.6,2.79h.02c.13-.8.38-1.76.66-2.81l1.08-4.08h1.09l.98,4.1c.23.96.44,1.92.56,2.77h.02c.17-.89.4-1.79.65-2.79l1.07-4.08h1.07l-2.29,8.08h-1.09l-1.02-4.21c-.25-1.03-.42-1.82-.53-2.64h-.02c-.14.8-.32,1.6-.62,2.64l-1.15,4.21h-1.09Z" fill="#231f20"/>
        <path d="M103.39,59.22c0,2.15-1.49,3.08-2.89,3.08-1.57,0-2.78-1.15-2.78-2.99,0-1.94,1.27-3.08,2.88-3.08s2.79,1.21,2.79,2.99ZM98.79,59.28c0,1.27.73,2.23,1.76,2.23s1.76-.95,1.76-2.25c0-.98-.49-2.23-1.74-2.23s-1.79,1.15-1.79,2.25Z" fill="#231f20"/>
        <path d="M104.73,58.18c0-.68-.01-1.27-.05-1.81h.92l.04,1.14h.05c.26-.78.9-1.27,1.61-1.27.12,0,.2.01.3.04v1c-.11-.02-.22-.04-.36-.04-.74,0-1.27.56-1.42,1.36-.02.14-.05.31-.05.49v3.09h-1.04v-3.99Z" fill="#231f20"/>
        <path d="M108.7,53.65h1.06v8.52h-1.06v-8.52Z" fill="#231f20"/>
        <path d="M116.55,53.65v7.02c0,.52.01,1.1.05,1.5h-.95l-.05-1.01h-.02c-.32.65-1.03,1.14-1.98,1.14-1.4,0-2.48-1.19-2.48-2.95-.01-1.93,1.19-3.12,2.6-3.12.89,0,1.49.42,1.75.89h.02v-3.47h1.06ZM115.49,58.73c0-.13-.01-.31-.05-.44-.16-.67-.73-1.22-1.52-1.22-1.09,0-1.74.96-1.74,2.24,0,1.17.58,2.15,1.72,2.15.71,0,1.35-.47,1.55-1.26.04-.14.05-.29.05-.46v-1.01Z" fill="#231f20"/>
      </g>
      <path d="M45.02,53.96l-.2,2.88h-.65l-.19-2.88h1.04ZM46.81,53.96l-.2,2.88h-.64l-.2-2.88h1.04Z" fill="#231f20"/>
      <path d="M130.98,53.96l-.2,2.88h-.65l-.19-2.88h1.04ZM132.77,53.96l-.2,2.88h-.64l-.2-2.88h1.04Z" fill="#231f20"/>
      <g>
        <path d="M150.37,58.06h-3.14v2.91h3.5v.88h-4.55v-8.08h4.37v.88h-3.32v2.55h3.14v.86Z" fill="#231f20"/>
        <path d="M158.99,57.73c0,2.78-1.69,4.26-3.75,4.26s-3.63-1.66-3.63-4.1c0-2.57,1.6-4.25,3.75-4.25s3.63,1.69,3.63,4.09ZM152.72,57.86c0,1.73.94,3.27,2.58,3.27s2.59-1.52,2.59-3.36c0-1.61-.84-3.29-2.58-3.29s-2.59,1.6-2.59,3.37Z" fill="#231f20"/>
        <path d="M160.35,53.77h4.35v.88h-3.31v2.69h3.06v.86h-3.06v3.66h-1.04v-8.08Z" fill="#231f20"/>
      </g>
      <g>
        <line x1="45.29" y1="100.89" x2="45.29" y2="79.57" fill="none" stroke="#010101"/>
        <polygon points="48.07 81.55 45.17 70.71 42.26 81.55 48.07 81.55" fill="#010101"/>
      </g>
      <g isolation="isolate">
        <path d="M180.29,1.38c.3-.06.78-.11,1.27-.11.7,0,1.14.12,1.48.39.28.21.45.53.45.95,0,.52-.34.98-.91,1.18v.02c.51.13,1.11.55,1.11,1.35,0,.46-.18.82-.46,1.08-.38.34-.98.5-1.86.5-.48,0-.85-.03-1.08-.06V1.38ZM180.98,3.59h.63c.74,0,1.17-.38,1.17-.9,0-.63-.48-.88-1.18-.88-.32,0-.5.02-.62.05v1.74ZM180.98,6.17c.14.02.34.03.58.03.72,0,1.38-.26,1.38-1.05,0-.74-.63-1.04-1.39-1.04h-.58v2.06Z" fill="#010101"/>
        <path d="M185.38,1.74c0,.24-.17.43-.45.43-.25,0-.42-.19-.42-.43s.18-.44.44-.44.43.19.43.44ZM184.6,6.7v-3.87h.7v3.87h-.7Z" fill="#010101"/>
        <path d="M186.47,3.87c0-.4,0-.73-.03-1.05h.62l.04.64h.02c.19-.37.64-.73,1.28-.73.54,0,1.37.32,1.37,1.65v2.31h-.7v-2.23c0-.62-.23-1.14-.9-1.14-.46,0-.82.33-.94.72-.03.09-.05.21-.05.33v2.33h-.7v-2.82Z" fill="#010101"/>
        <path d="M194.25,1.02v4.68c0,.34,0,.74.03,1h-.63l-.03-.67h-.02c-.22.43-.69.76-1.32.76-.94,0-1.66-.79-1.66-1.97,0-1.29.79-2.08,1.74-2.08.59,0,.99.28,1.17.59h.02V1.02h.7ZM193.55,4.4c0-.09,0-.21-.03-.3-.1-.45-.49-.82-1.02-.82-.73,0-1.16.64-1.16,1.5,0,.78.38,1.43,1.14,1.43.47,0,.9-.31,1.03-.84.02-.1.03-.19.03-.3v-.67Z" fill="#010101"/>
        <path d="M196.21,1.74c0,.24-.17.43-.45.43-.25,0-.42-.19-.42-.43s.18-.44.44-.44.43.19.43.44ZM195.42,6.7v-3.87h.7v3.87h-.7Z" fill="#010101"/>
        <path d="M197.29,3.87c0-.4,0-.73-.03-1.05h.62l.04.64h.02c.19-.37.64-.73,1.28-.73.54,0,1.37.32,1.37,1.65v2.31h-.7v-2.23c0-.62-.23-1.14-.9-1.14-.46,0-.82.33-.94.72-.03.09-.05.21-.05.33v2.33h-.7v-2.82Z" fill="#010101"/>
        <path d="M205.07,2.83c-.02.28-.03.59-.03,1.06v2.25c0,.89-.18,1.43-.55,1.77-.38.35-.92.46-1.41.46-.46,0-.97-.11-1.29-.32l.18-.54c.26.16.66.3,1.14.3.72,0,1.25-.38,1.25-1.35v-.43h-.02c-.22.36-.63.65-1.23.65-.96,0-1.65-.82-1.65-1.89,0-1.31.86-2.05,1.74-2.05.67,0,1.04.35,1.21.67h.02l.03-.58h.62ZM204.34,4.35c0-.12,0-.22-.04-.32-.13-.41-.47-.74-.98-.74-.67,0-1.15.57-1.15,1.46,0,.76.38,1.39,1.14,1.39.43,0,.82-.27.98-.72.04-.12.06-.26.06-.38v-.7Z" fill="#010101"/>
        <path d="M206.04,3.47c0-.3.2-.5.48-.5s.46.21.47.5c0,.28-.18.5-.48.5-.28,0-.47-.22-.47-.5ZM206.04,6.29c0-.29.2-.5.48-.5s.46.21.47.5c0,.28-.18.5-.48.5-.28,0-.47-.22-.47-.5Z" fill="#010101"/>
      </g>
      <g isolation="isolate">
        <path d="M191.26,23.72h-.02l-.9.49-.14-.54,1.14-.61h.6v5.2h-.68v-4.54Z" fill="#010101"/>
        <path d="M196.01,28.26v-1.42h-2.42v-.46l2.32-3.32h.76v3.23h.73v.55h-.73v1.42h-.66ZM196.01,26.29v-1.74c0-.27,0-.54.02-.82h-.02c-.16.3-.29.53-.43.77l-1.27,1.77v.02h1.7Z" fill="#010101"/>
      </g>
      <g isolation="isolate">
        <path d="M191.26,56.14h-.02l-.9.49-.14-.54,1.14-.61h.6v5.2h-.68v-4.54Z" fill="#010101"/>
        <path d="M196.01,60.68v-1.42h-2.42v-.46l2.32-3.32h.76v3.23h.73v.55h-.73v1.42h-.66ZM196.01,58.71v-1.74c0-.27,0-.54.02-.82h-.02c-.16.3-.29.53-.43.77l-1.27,1.77v.02h1.7Z" fill="#010101"/>
      </g>
    </g>
  </g>
</svg>