<?xml version="1.0" encoding="UTF-8"?>
<svg id="Layer_2" data-name="Layer 2" xmlns="http://www.w3.org/2000/svg" width="171.26" height="24.12" viewBox="0 0 171.26 24.12">
  <g id="Layer_1_copy" data-name="Layer 1 copy">
    <g>
      <rect x=".5" y=".5" width="170.26" height="23.12" fill="#e6e7e8" stroke="#231f20" stroke-miterlimit="10"/>
      <g>
        <path d="M6.28,11.81c0-.74-.02-1.34-.05-1.89h.95l.05,1h.02c.43-.71,1.12-1.13,2.06-1.13,1.4,0,2.46,1.19,2.46,2.95,0,2.09-1.27,3.12-2.64,3.12-.77,0-1.44-.34-1.79-.91h-.02v3.15h-1.04v-6.29ZM7.32,13.35c0,.16.02.3.05.43.19.73.83,1.24,1.58,1.24,1.12,0,1.76-.91,1.76-2.24,0-1.16-.61-2.16-1.73-2.16-.72,0-1.39.52-1.6,1.31-.04.13-.07.29-.07.43v1Z" fill="#231f20"/>
        <path d="M17.96,14.13c0,.6.01,1.13.05,1.58h-.94l-.06-.95h-.02c-.28.47-.89,1.08-1.92,1.08-.91,0-2-.5-2-2.54v-3.39h1.06v3.21c0,1.1.34,1.85,1.3,1.85.71,0,1.2-.49,1.39-.96.06-.16.1-.35.1-.54v-3.56h1.06v4.22Z" fill="#231f20"/>
        <path d="M20.99,8.24v1.67h1.51v.8h-1.51v3.13c0,.72.2,1.13.79,1.13.28,0,.48-.04.61-.07l.05.79c-.2.08-.53.14-.94.14-.49,0-.89-.16-1.14-.44-.3-.31-.41-.83-.41-1.51v-3.17h-.9v-.8h.9v-1.39l1.03-.28Z" fill="#231f20"/>
        <path d="M23.55,14.64c.31.2.86.42,1.39.42.77,0,1.13-.38,1.13-.86s-.3-.78-1.08-1.07c-1.04-.37-1.54-.95-1.54-1.64,0-.94.76-1.7,2-1.7.59,0,1.1.17,1.43.36l-.26.77c-.23-.14-.65-.34-1.19-.34-.62,0-.97.36-.97.79,0,.48.35.7,1.1.98,1.01.38,1.52.89,1.52,1.75,0,1.02-.79,1.74-2.17,1.74-.64,0-1.22-.16-1.63-.4l.26-.8Z" fill="#231f20"/>
      </g>
      <g>
        <path d="M57.6,7.63v3.38h3.91v-3.38h1.06v8.08h-1.06v-3.79h-3.91v3.79h-1.04V7.63h1.04Z" fill="#231f20"/>
        <path d="M64.94,13c.02,1.43.94,2.02,1.99,2.02.76,0,1.21-.13,1.61-.3l.18.75c-.37.17-1.01.36-1.93.36-1.79,0-2.85-1.18-2.85-2.93s1.03-3.13,2.72-3.13c1.9,0,2.4,1.67,2.4,2.73,0,.22-.02.38-.04.49h-4.08ZM68.03,12.25c.01-.67-.28-1.72-1.46-1.72-1.07,0-1.54.98-1.62,1.72h3.08Z" fill="#231f20"/>
        <path d="M70.36,7.2h1.06v8.52h-1.06V7.2Z" fill="#231f20"/>
        <path d="M73.19,7.2h1.06v8.52h-1.06V7.2Z" fill="#231f20"/>
        <path d="M81.28,12.77c0,2.15-1.49,3.08-2.89,3.08-1.57,0-2.78-1.15-2.78-2.99,0-1.94,1.27-3.08,2.88-3.08s2.79,1.21,2.79,2.99ZM76.67,12.82c0,1.27.73,2.23,1.76,2.23s1.76-.95,1.76-2.25c0-.98-.49-2.23-1.74-2.23s-1.79,1.15-1.79,2.25Z" fill="#231f20"/>
        <path d="M86.08,15.72l-2.05-8.08h1.1l.96,4.09c.24,1.01.46,2.02.6,2.79h.02c.13-.8.38-1.76.66-2.81l1.08-4.08h1.09l.98,4.1c.23.96.44,1.92.56,2.77h.02c.17-.89.4-1.79.65-2.79l1.07-4.08h1.07l-2.29,8.08h-1.09l-1.02-4.21c-.25-1.03-.42-1.82-.53-2.64h-.02c-.14.8-.32,1.6-.62,2.64l-1.15,4.21h-1.09Z" fill="#231f20"/>
        <path d="M99.73,12.77c0,2.15-1.49,3.08-2.89,3.08-1.57,0-2.78-1.15-2.78-2.99,0-1.94,1.27-3.08,2.88-3.08s2.79,1.21,2.79,2.99ZM95.13,12.82c0,1.27.73,2.23,1.76,2.23s1.76-.95,1.76-2.25c0-.98-.49-2.23-1.74-2.23s-1.79,1.15-1.79,2.25Z" fill="#231f20"/>
        <path d="M101.07,11.72c0-.68-.01-1.27-.05-1.81h.92l.04,1.14h.05c.26-.78.9-1.27,1.61-1.27.12,0,.2.01.3.04v1c-.11-.02-.22-.04-.36-.04-.74,0-1.27.56-1.42,1.36-.02.14-.05.31-.05.49v3.09h-1.04v-3.99Z" fill="#231f20"/>
        <path d="M105.04,7.2h1.06v8.52h-1.06V7.2Z" fill="#231f20"/>
        <path d="M112.89,7.2v7.02c0,.52.01,1.1.05,1.5h-.95l-.05-1.01h-.02c-.32.65-1.03,1.14-1.98,1.14-1.4,0-2.48-1.19-2.48-2.95-.01-1.93,1.19-3.12,2.6-3.12.89,0,1.49.42,1.75.89h.02v-3.47h1.06ZM111.83,12.27c0-.13-.01-.31-.05-.44-.16-.67-.73-1.22-1.52-1.22-1.09,0-1.74.96-1.74,2.24,0,1.17.58,2.15,1.72,2.15.71,0,1.35-.47,1.55-1.26.04-.14.05-.29.05-.46v-1.01Z" fill="#231f20"/>
      </g>
      <path d="M41.36,7.5l-.2,2.88h-.65l-.19-2.88h1.04ZM43.15,7.5l-.2,2.88h-.64l-.2-2.88h1.04Z" fill="#231f20"/>
      <path d="M127.32,7.5l-.2,2.88h-.65l-.19-2.88h1.04ZM129.11,7.5l-.2,2.88h-.64l-.2-2.88h1.04Z" fill="#231f20"/>
      <g>
        <path d="M146.71,11.93h-3.14v2.91h3.5v.88h-4.55V7.63h4.37v.88h-3.32v2.55h3.14v.86Z" fill="#231f20"/>
        <path d="M155.33,11.59c0,2.78-1.69,4.26-3.75,4.26s-3.63-1.66-3.63-4.1c0-2.57,1.6-4.25,3.75-4.25s3.63,1.69,3.63,4.09ZM149.06,11.72c0,1.73.94,3.27,2.58,3.27s2.59-1.52,2.59-3.36c0-1.61-.84-3.29-2.58-3.29s-2.59,1.6-2.59,3.37Z" fill="#231f20"/>
        <path d="M156.69,7.63h4.35v.88h-3.31v2.69h3.06v.86h-3.06v3.66h-1.04V7.63Z" fill="#231f20"/>
      </g>
    </g>
  </g>
</svg>