<?xml version="1.0" encoding="UTF-8"?>
<svg id="Layer_2" data-name="Layer 2" xmlns="http://www.w3.org/2000/svg" width="200.78" height="50.22" viewBox="0 0 200.78 50.22">
  <g id="Layer_1_copy" data-name="Layer 1 copy">
    <g>
      <path d="M8.04,1.5h67.92c3.61,0,6.54,2.93,6.54,6.54v34.14c0,3.61-2.93,6.54-6.54,6.54H8.04c-3.61,0-6.54-2.93-6.54-6.54V8.04c0-3.61,2.93-6.54,6.54-6.54Z" fill="#fff" stroke="#999" stroke-miterlimit="10" stroke-width="3"/>
      <g isolation="isolate">
        <path d="M19.85,13.25c.27-.05.63-.08,1.09-.08.56,0,.97.13,1.23.36.24.21.38.53.38.92s-.12.71-.34.94c-.3.32-.79.48-1.34.48-.17,0-.33,0-.46-.04v1.75h-.57v-4.33ZM20.41,15.36c.12.03.28.05.47.05.68,0,1.1-.33,1.1-.94s-.41-.86-1.03-.86c-.25,0-.44.02-.53.04v1.7Z"/>
        <path d="M26.92,15.65c-.03-.61-.07-1.35-.06-1.89h-.02c-.15.51-.33,1.06-.55,1.66l-.77,2.12h-.43l-.71-2.09c-.21-.62-.38-1.18-.51-1.7h-.01c-.01.55-.05,1.28-.08,1.94l-.12,1.88h-.54l.31-4.38h.72l.75,2.12c.18.54.33,1.02.44,1.48h.02c.11-.44.27-.92.46-1.48l.78-2.12h.72l.27,4.38h-.55l-.11-1.92Z"/>
        <path d="M31.21,18.07v.33h-3.25v-.33h3.25Z"/>
        <path d="M34.76,17.44c-.21.1-.62.21-1.16.21-1.23,0-2.16-.78-2.16-2.22s.93-2.3,2.29-2.3c.55,0,.89.12,1.04.2l-.14.46c-.21-.1-.52-.18-.88-.18-1.03,0-1.71.66-1.71,1.81,0,1.07.62,1.76,1.68,1.76.34,0,.7-.07.92-.18l.12.45Z"/>
        <path d="M36.21,16.2l-.46,1.38h-.58l1.49-4.38h.68l1.5,4.38h-.6l-.47-1.38h-1.55ZM37.64,15.76l-.43-1.26c-.1-.29-.16-.55-.23-.8h-.01c-.06.26-.14.53-.22.79l-.43,1.27h1.32Z"/>
        <path d="M39.48,13.2h.57v3.91h1.87v.47h-2.44v-4.38Z"/>
        <path d="M42.54,13.2h.57v3.91h1.87v.47h-2.44v-4.38Z"/>
        <path d="M48.37,18.07v.33h-3.25v-.33h3.25Z"/>
        <path d="M48.86,17.58v-4.38h.62l1.4,2.22c.33.51.58.98.79,1.42h.01c-.05-.59-.06-1.12-.06-1.81v-1.83h.53v4.38h-.57l-1.39-2.22c-.31-.49-.6-.99-.82-1.46h-.02c.03.56.05,1.08.05,1.81v1.87h-.53Z"/>
        <path d="M56.88,15.34c0,1.51-.92,2.31-2.03,2.31s-1.97-.9-1.97-2.22c0-1.39.86-2.3,2.03-2.3s1.97.92,1.97,2.22ZM53.48,15.41c0,.94.51,1.78,1.4,1.78s1.4-.83,1.4-1.82c0-.87-.46-1.78-1.4-1.78s-1.4.86-1.4,1.83Z"/>
        <path d="M57.62,13.26c.34-.05.75-.09,1.2-.09.81,0,1.39.19,1.77.55.39.36.62.86.62,1.57s-.22,1.3-.63,1.7c-.41.41-1.09.63-1.94.63-.4,0-.74-.02-1.03-.05v-4.31ZM58.18,17.13c.14.03.35.03.57.03,1.21,0,1.87-.68,1.87-1.86,0-1.03-.58-1.69-1.77-1.69-.29,0-.51.03-.66.06v3.46Z"/>
        <path d="M64.21,15.52h-1.7v1.58h1.9v.47h-2.46v-4.38h2.37v.47h-1.8v1.38h1.7v.47Z"/>
      </g>
      <g isolation="isolate">
        <path d="M36.47,29.42c0-.4-.01-.73-.03-1.03h.51l.03.54h.01c.23-.38.6-.61,1.12-.61.76,0,1.33.64,1.33,1.6,0,1.13-.69,1.69-1.43,1.69-.42,0-.78-.18-.97-.49h-.01v1.71h-.57v-3.41ZM37.04,30.26c0,.08.01.16.03.23.1.4.45.67.86.67.6,0,.96-.49.96-1.22,0-.63-.33-1.17-.94-1.17-.39,0-.75.28-.86.71-.02.07-.04.16-.04.23v.54Z"/>
        <path d="M42.8,30.68c0,.33,0,.61.03.86h-.51l-.03-.51h-.01c-.15.25-.48.58-1.04.58-.49,0-1.09-.27-1.09-1.38v-1.84h.57v1.74c0,.6.18,1,.7,1,.38,0,.65-.27.75-.52.03-.08.05-.19.05-.29v-1.93h.57v2.29Z"/>
        <path d="M44.44,27.49v.9h.82v.44h-.82v1.7c0,.39.11.61.43.61.15,0,.26-.02.33-.04l.03.43c-.11.04-.29.08-.51.08-.27,0-.48-.08-.62-.24-.16-.17-.22-.45-.22-.82v-1.72h-.49v-.44h.49v-.75l.56-.15Z"/>
        <path d="M45.82,30.95c.17.11.47.23.75.23.42,0,.61-.21.61-.47,0-.27-.16-.42-.58-.58-.57-.2-.83-.51-.83-.89,0-.51.41-.92,1.09-.92.32,0,.6.09.77.2l-.14.42c-.12-.08-.35-.18-.64-.18-.34,0-.53.2-.53.43,0,.26.19.38.6.53.55.21.83.48.83.95,0,.55-.43.94-1.18.94-.34,0-.66-.08-.88-.21l.14-.44Z"/>
      </g>
    </g>
    <g>
      <path d="M124.81,1.5h67.92c3.61,0,6.54,2.93,6.54,6.54v34.14c0,3.61-2.93,6.54-6.54,6.54h-67.92c-3.61,0-6.54-2.93-6.54-6.54V8.04c0-3.61,2.93-6.54,6.54-6.54Z" fill="#fff" stroke="#999" stroke-miterlimit="10" stroke-width="3"/>
      <g isolation="isolate">
        <path d="M133.59,13.25c.27-.05.63-.08,1.09-.08.56,0,.97.13,1.23.36.24.21.38.53.38.92s-.12.71-.34.94c-.3.32-.79.48-1.34.48-.17,0-.33,0-.46-.04v1.75h-.57v-4.33ZM134.16,15.36c.12.03.28.05.47.05.68,0,1.1-.33,1.1-.94s-.41-.86-1.03-.86c-.25,0-.44.02-.53.04v1.7Z"/>
        <path d="M140.67,15.65c-.03-.61-.07-1.35-.06-1.89h-.02c-.15.51-.33,1.06-.55,1.66l-.77,2.12h-.43l-.71-2.09c-.21-.62-.38-1.18-.51-1.7h-.01c-.01.55-.05,1.28-.08,1.94l-.12,1.88h-.54l.31-4.38h.72l.75,2.12c.18.54.33,1.02.44,1.48h.02c.11-.44.27-.92.46-1.48l.78-2.12h.72l.27,4.38h-.55l-.11-1.92Z"/>
        <path d="M144.96,18.07v.33h-3.25v-.33h3.25Z"/>
        <path d="M145.37,16.89c.25.16.62.29,1.01.29.58,0,.92-.31.92-.75,0-.41-.23-.64-.83-.87-.71-.25-1.16-.62-1.16-1.24,0-.68.57-1.19,1.42-1.19.45,0,.77.1.97.21l-.16.46c-.14-.08-.44-.21-.83-.21-.6,0-.83.36-.83.66,0,.41.27.61.87.84.74.29,1.12.64,1.12,1.29,0,.68-.5,1.26-1.53,1.26-.42,0-.88-.12-1.12-.28l.14-.47Z"/>
        <path d="M149.49,13.68h-1.33v-.48h3.24v.48h-1.34v3.9h-.57v-3.9Z"/>
        <path d="M151.89,13.26c.29-.06.7-.09,1.09-.09.6,0,.99.11,1.27.36.22.19.34.49.34.83,0,.58-.36.96-.83,1.12v.02c.34.12.54.43.64.88.14.61.25,1.03.34,1.2h-.58c-.07-.12-.17-.5-.29-1.05-.13-.6-.36-.83-.88-.85h-.53v1.9h-.57v-4.32ZM152.45,15.25h.58c.6,0,.99-.33.99-.83,0-.57-.41-.81-1.01-.82-.27,0-.47.03-.56.05v1.6Z"/>
        <path d="M155.95,13.2v4.38h-.57v-4.38h.57Z"/>
        <path d="M156.94,17.58v-4.38h.62l1.4,2.22c.33.51.58.98.79,1.42h.01c-.05-.59-.06-1.12-.06-1.81v-1.83h.53v4.38h-.57l-1.39-2.22c-.31-.49-.6-.99-.82-1.46h-.02c.03.56.05,1.08.05,1.81v1.87h-.53Z"/>
        <path d="M164.55,17.38c-.25.09-.75.24-1.35.24-.66,0-1.21-.17-1.64-.58-.38-.36-.61-.95-.61-1.63,0-1.31.9-2.26,2.37-2.26.51,0,.9.11,1.09.2l-.14.46c-.23-.1-.53-.19-.97-.19-1.07,0-1.76.66-1.76,1.76s.67,1.77,1.69,1.77c.37,0,.62-.05.75-.12v-1.31h-.89v-.46h1.44v2.11Z"/>
        <path d="M168.17,18.07v.33h-3.25v-.33h3.25Z"/>
        <path d="M168.66,17.58v-4.38h.62l1.4,2.22c.33.51.58.98.79,1.42h.01c-.05-.59-.06-1.12-.06-1.81v-1.83h.53v4.38h-.57l-1.39-2.22c-.31-.49-.6-.99-.82-1.46h-.02c.03.56.05,1.08.05,1.81v1.87h-.53Z"/>
        <path d="M176.68,15.34c0,1.51-.92,2.31-2.03,2.31s-1.97-.9-1.97-2.22c0-1.39.86-2.3,2.03-2.3s1.97.92,1.97,2.22ZM173.28,15.41c0,.94.51,1.78,1.4,1.78s1.4-.83,1.4-1.82c0-.87-.46-1.78-1.4-1.78s-1.4.86-1.4,1.83Z"/>
        <path d="M177.42,13.26c.34-.05.75-.09,1.2-.09.81,0,1.39.19,1.77.55.39.36.62.86.62,1.57s-.22,1.3-.63,1.7c-.41.41-1.09.63-1.94.63-.4,0-.74-.02-1.03-.05v-4.31ZM177.98,17.13c.14.03.35.03.57.03,1.21,0,1.87-.68,1.87-1.86,0-1.03-.58-1.69-1.77-1.69-.29,0-.51.03-.66.06v3.46Z"/>
        <path d="M184.01,15.52h-1.7v1.58h1.9v.47h-2.46v-4.38h2.37v.47h-1.8v1.38h1.7v.47Z"/>
      </g>
      <g isolation="isolate">
        <path d="M144.1,27.16v1.83h2.12v-1.83h.57v4.38h-.57v-2.05h-2.12v2.05h-.57v-4.38h.57Z"/>
        <path d="M148.07,30.07c.01.77.51,1.09,1.08,1.09.41,0,.66-.07.87-.16l.1.41c-.2.09-.55.2-1.05.2-.97,0-1.55-.64-1.55-1.59s.56-1.7,1.48-1.7c1.03,0,1.3.9,1.3,1.48,0,.12-.01.21-.02.27h-2.21ZM149.74,29.66c0-.36-.15-.93-.79-.93-.58,0-.83.53-.88.93h1.67Z"/>
        <path d="M151,26.92h.57v4.62h-.57v-4.62Z"/>
        <path d="M152.54,26.92h.57v4.62h-.57v-4.62Z"/>
        <path d="M156.92,29.94c0,1.16-.81,1.67-1.57,1.67-.85,0-1.51-.62-1.51-1.62,0-1.05.69-1.67,1.56-1.67s1.51.66,1.51,1.62ZM154.42,29.97c0,.69.4,1.21.96,1.21s.96-.51.96-1.22c0-.53-.27-1.21-.94-1.21s-.97.62-.97,1.22Z"/>
        <path d="M159.52,31.54l-1.11-4.38h.6l.52,2.22c.13.55.25,1.09.33,1.51h.01c.07-.44.21-.96.36-1.52l.58-2.21h.59l.53,2.22c.12.52.24,1.04.31,1.5h.01c.09-.48.21-.97.35-1.51l.58-2.21h.58l-1.24,4.38h-.59l-.55-2.28c-.14-.56-.23-.99-.29-1.43h-.01c-.08.44-.18.87-.34,1.43l-.62,2.28h-.59Z"/>
        <path d="M166.92,29.94c0,1.16-.81,1.67-1.57,1.67-.85,0-1.51-.62-1.51-1.62,0-1.05.69-1.67,1.56-1.67s1.51.66,1.51,1.62ZM164.42,29.97c0,.69.4,1.21.96,1.21s.96-.51.96-1.22c0-.53-.27-1.21-.94-1.21s-.97.62-.97,1.22Z"/>
        <path d="M167.64,29.37c0-.37,0-.69-.03-.98h.5l.02.62h.03c.14-.42.49-.69.87-.69.06,0,.11,0,.16.02v.54c-.06-.01-.12-.02-.2-.02-.4,0-.69.3-.77.73-.01.08-.03.17-.03.27v1.68h-.57v-2.17Z"/>
        <path d="M169.79,26.92h.57v4.62h-.57v-4.62Z"/>
        <path d="M174.04,26.92v3.8c0,.28,0,.6.03.81h-.51l-.03-.55h-.01c-.18.35-.56.62-1.07.62-.76,0-1.35-.64-1.35-1.6,0-1.05.64-1.69,1.41-1.69.48,0,.81.23.95.48h.01v-1.88h.57ZM173.47,29.67c0-.07,0-.17-.03-.24-.08-.36-.4-.66-.83-.66-.59,0-.94.52-.94,1.22,0,.64.31,1.16.93,1.16.38,0,.73-.25.84-.68.02-.08.03-.16.03-.25v-.55Z"/>
      </g>
    </g>
  </g>
</svg>