<?xml version="1.0" encoding="UTF-8"?>
<svg id="Layer_2" data-name="Layer 2" xmlns="http://www.w3.org/2000/svg" width="194.11" height="64.57" viewBox="0 0 194.11 64.57">
  <g id="Layer_1_copy" data-name="Layer 1 copy">
    <g>
      <rect x="56.41" y=".5" width="137.2" height="23.12" fill="#e6e7e8" stroke="#231f20" stroke-miterlimit="10"/>
      <rect x="20.8" y=".5" width="36.61" height="23.12" fill="#fff" stroke="#231f20" stroke-miterlimit="10"/>
      <g>
        <path d="M29.13,11.81c0-.74-.02-1.34-.05-1.89h.95l.05,1h.02c.43-.71,1.12-1.13,2.06-1.13,1.4,0,2.46,1.19,2.46,2.95,0,2.09-1.27,3.12-2.64,3.12-.77,0-1.44-.34-1.79-.91h-.02v3.15h-1.04v-6.29ZM30.17,13.35c0,.16.02.3.05.43.19.73.83,1.24,1.58,1.24,1.12,0,1.76-.91,1.76-2.24,0-1.16-.61-2.16-1.73-2.16-.72,0-1.39.52-1.6,1.31-.04.13-.07.29-.07.43v1Z" fill="#231f20"/>
        <path d="M40.81,14.13c0,.6.01,1.13.05,1.58h-.94l-.06-.95h-.02c-.28.47-.89,1.08-1.92,1.08-.91,0-2-.5-2-2.54v-3.39h1.06v3.21c0,1.1.34,1.85,1.3,1.85.71,0,1.2-.49,1.39-.96.06-.16.1-.35.1-.54v-3.56h1.06v4.22Z" fill="#231f20"/>
        <path d="M43.84,8.24v1.67h1.51v.8h-1.51v3.13c0,.72.2,1.13.79,1.13.28,0,.48-.04.61-.07l.05.79c-.2.08-.53.14-.94.14-.49,0-.89-.16-1.14-.44-.3-.31-.41-.83-.41-1.51v-3.17h-.9v-.8h.9v-1.39l1.03-.28Z" fill="#231f20"/>
        <path d="M46.39,14.64c.31.2.86.42,1.39.42.77,0,1.13-.38,1.13-.86s-.3-.78-1.08-1.07c-1.04-.37-1.54-.95-1.54-1.64,0-.94.76-1.7,2-1.7.59,0,1.1.17,1.43.36l-.26.77c-.23-.14-.65-.34-1.19-.34-.62,0-.97.36-.97.79,0,.48.35.7,1.1.98,1.01.38,1.52.89,1.52,1.75,0,1.02-.79,1.74-2.17,1.74-.64,0-1.22-.16-1.63-.4l.26-.8Z" fill="#231f20"/>
      </g>
      <g>
        <path d="M80.45,7.63v3.38h3.91v-3.38h1.06v8.08h-1.06v-3.79h-3.91v3.79h-1.04V7.63h1.04Z" fill="#231f20"/>
        <path d="M87.78,13c.02,1.43.94,2.02,1.99,2.02.76,0,1.21-.13,1.61-.3l.18.75c-.37.17-1.01.36-1.93.36-1.79,0-2.85-1.18-2.85-2.93s1.03-3.13,2.72-3.13c1.9,0,2.4,1.67,2.4,2.73,0,.22-.02.38-.04.49h-4.08ZM90.88,12.25c.01-.67-.28-1.72-1.46-1.72-1.07,0-1.54.98-1.62,1.72h3.08Z" fill="#231f20"/>
        <path d="M93.21,7.2h1.06v8.52h-1.06V7.2Z" fill="#231f20"/>
        <path d="M96.04,7.2h1.06v8.52h-1.06V7.2Z" fill="#231f20"/>
        <path d="M104.13,12.77c0,2.15-1.49,3.08-2.89,3.08-1.57,0-2.78-1.15-2.78-2.99,0-1.94,1.27-3.08,2.88-3.08s2.79,1.21,2.79,2.99ZM99.52,12.82c0,1.27.73,2.23,1.76,2.23s1.76-.95,1.76-2.25c0-.98-.49-2.23-1.74-2.23s-1.79,1.15-1.79,2.25Z" fill="#231f20"/>
        <path d="M108.93,15.72l-2.05-8.08h1.1l.96,4.09c.24,1.01.46,2.02.6,2.79h.02c.13-.8.38-1.76.66-2.81l1.08-4.08h1.09l.98,4.1c.23.96.44,1.92.56,2.77h.02c.17-.89.4-1.79.65-2.79l1.07-4.08h1.07l-2.29,8.08h-1.09l-1.02-4.21c-.25-1.03-.42-1.82-.53-2.64h-.02c-.14.8-.32,1.6-.62,2.64l-1.15,4.21h-1.09Z" fill="#231f20"/>
        <path d="M122.58,12.77c0,2.15-1.49,3.08-2.89,3.08-1.57,0-2.78-1.15-2.78-2.99,0-1.94,1.27-3.08,2.88-3.08s2.79,1.21,2.79,2.99ZM117.98,12.82c0,1.27.73,2.23,1.76,2.23s1.76-.95,1.76-2.25c0-.98-.49-2.23-1.74-2.23s-1.79,1.15-1.79,2.25Z" fill="#231f20"/>
        <path d="M123.92,11.72c0-.68-.01-1.27-.05-1.81h.92l.04,1.14h.05c.26-.78.9-1.27,1.61-1.27.12,0,.2.01.3.04v1c-.11-.02-.22-.04-.36-.04-.74,0-1.27.56-1.42,1.36-.02.14-.05.31-.05.49v3.09h-1.04v-3.99Z" fill="#231f20"/>
        <path d="M127.89,7.2h1.06v8.52h-1.06V7.2Z" fill="#231f20"/>
        <path d="M135.73,7.2v7.02c0,.52.01,1.1.05,1.5h-.95l-.05-1.01h-.02c-.32.65-1.03,1.14-1.98,1.14-1.4,0-2.48-1.19-2.48-2.95-.01-1.93,1.19-3.12,2.6-3.12.89,0,1.49.42,1.75.89h.02v-3.47h1.06ZM134.68,12.27c0-.13-.01-.31-.05-.44-.16-.67-.73-1.22-1.52-1.22-1.09,0-1.74.96-1.74,2.24,0,1.17.58,2.15,1.72,2.15.71,0,1.35-.47,1.55-1.26.04-.14.05-.29.05-.46v-1.01Z" fill="#231f20"/>
      </g>
      <path d="M64.21,7.5l-.2,2.88h-.65l-.19-2.88h1.04ZM66,7.5l-.2,2.88h-.64l-.2-2.88h1.04Z" fill="#231f20"/>
      <path d="M150.17,7.5l-.2,2.88h-.65l-.19-2.88h1.04ZM151.95,7.5l-.2,2.88h-.64l-.2-2.88h1.04Z" fill="#231f20"/>
      <g>
        <path d="M169.55,11.93h-3.14v2.91h3.5v.88h-4.55V7.63h4.37v.88h-3.32v2.55h3.14v.86Z" fill="#231f20"/>
        <path d="M178.18,11.59c0,2.78-1.69,4.26-3.75,4.26s-3.63-1.66-3.63-4.1c0-2.57,1.6-4.25,3.75-4.25s3.63,1.69,3.63,4.09ZM171.91,11.72c0,1.73.94,3.27,2.58,3.27s2.59-1.52,2.59-3.36c0-1.61-.84-3.29-2.58-3.29s-2.59,1.6-2.59,3.37Z" fill="#231f20"/>
        <path d="M179.54,7.63h4.35v.88h-3.31v2.69h3.06v.86h-3.06v3.66h-1.04V7.63Z" fill="#231f20"/>
      </g>
      <g>
        <line x1="38.89" y1="55.39" x2="38.89" y2="34.07" fill="none" stroke="#010101"/>
        <polygon points="41.67 36.06 38.77 25.21 35.86 36.06 41.67 36.06" fill="#010101"/>
      </g>
      <g isolation="isolate">
        <path d="M.61,57.25c.34-.06.78-.1,1.34-.1.69,0,1.19.16,1.51.45.3.26.47.65.47,1.13s-.14.87-.42,1.15c-.37.39-.97.59-1.65.59-.21,0-.4,0-.56-.05v2.16h-.7v-5.33ZM1.3,59.84c.15.04.34.06.58.06.84,0,1.35-.41,1.35-1.15s-.5-1.05-1.27-1.05c-.3,0-.54.02-.66.06v2.09Z" fill="#010101"/>
        <path d="M9.31,60.2c-.04-.75-.09-1.65-.08-2.33h-.02c-.18.63-.41,1.3-.68,2.05l-.95,2.61h-.53l-.87-2.57c-.26-.76-.47-1.46-.62-2.09h-.02c-.02.67-.06,1.58-.1,2.38l-.14,2.31h-.66l.38-5.39h.89l.92,2.61c.22.66.41,1.25.54,1.81h.02c.14-.54.33-1.13.57-1.81l.96-2.61h.89l.34,5.39h-.68l-.14-2.37Z" fill="#010101"/>
        <path d="M14.59,63.17v.4h-4v-.4h4Z" fill="#010101"/>
        <path d="M16.22,57.77h-1.64v-.59h3.99v.59h-1.65v4.8h-.7v-4.8Z" fill="#010101"/>
        <path d="M23.57,59.82c0,1.85-1.13,2.84-2.5,2.84s-2.42-1.1-2.42-2.73c0-1.71,1.06-2.83,2.5-2.83s2.42,1.13,2.42,2.73ZM19.38,59.91c0,1.15.62,2.18,1.72,2.18s1.73-1.02,1.73-2.24c0-1.07-.56-2.19-1.72-2.19s-1.73,1.06-1.73,2.25Z" fill="#010101"/>
        <path d="M24.47,57.18h.7v2.6h.02c.14-.21.29-.4.42-.58l1.65-2.02h.86l-1.95,2.29,2.1,3.1h-.82l-1.77-2.65-.51.59v2.05h-.7v-5.39Z" fill="#010101"/>
        <path d="M31.6,60.04h-2.09v1.94h2.33v.58h-3.03v-5.39h2.91v.58h-2.21v1.7h2.09v.58Z" fill="#010101"/>
        <path d="M32.74,62.57v-5.39h.76l1.73,2.73c.4.63.71,1.2.97,1.75h.02c-.06-.73-.08-1.38-.08-2.22v-2.25h.66v5.39h-.7l-1.71-2.73c-.38-.6-.74-1.22-1.01-1.8h-.02c.04.69.06,1.33.06,2.23v2.3h-.66Z" fill="#010101"/>
        <path d="M41.4,63.17v.4h-4v-.4h4Z" fill="#010101"/>
        <path d="M42.7,57.18v5.39h-.7v-5.39h.7Z" fill="#010101"/>
        <path d="M43.92,57.25c.42-.06.93-.11,1.48-.11,1,0,1.71.23,2.18.67.48.44.76,1.06.76,1.94s-.27,1.6-.78,2.09c-.5.5-1.34.78-2.38.78-.5,0-.91-.02-1.26-.06v-5.3ZM44.61,62.02c.18.03.43.04.7.04,1.49,0,2.29-.83,2.29-2.29,0-1.27-.71-2.08-2.18-2.08-.36,0-.63.03-.82.07v4.25Z" fill="#010101"/>
        <path d="M52.04,60.04h-2.09v1.94h2.33v.58h-3.03v-5.39h2.91v.58h-2.21v1.7h2.09v.58Z" fill="#010101"/>
        <path d="M53.18,62.57v-5.39h.76l1.73,2.73c.4.63.71,1.2.97,1.75h.02c-.06-.73-.08-1.38-.08-2.22v-2.25h.66v5.39h-.7l-1.71-2.73c-.38-.6-.74-1.22-1.01-1.8h-.02c.04.69.06,1.33.06,2.23v2.3h-.66Z" fill="#010101"/>
        <path d="M59.47,57.77h-1.64v-.59h3.99v.59h-1.65v4.8h-.7v-4.8Z" fill="#010101"/>
        <path d="M63.12,57.18v5.39h-.7v-5.39h.7Z" fill="#010101"/>
        <path d="M64.33,57.18h2.9v.58h-2.21v1.79h2.04v.58h-2.04v2.44h-.7v-5.39Z" fill="#010101"/>
        <path d="M68.93,57.18v5.39h-.7v-5.39h.7Z" fill="#010101"/>
        <path d="M72.93,60.04h-2.09v1.94h2.33v.58h-3.03v-5.39h2.91v.58h-2.21v1.7h2.09v.58Z" fill="#010101"/>
        <path d="M74.08,57.25c.35-.07.86-.11,1.33-.11.74,0,1.22.14,1.56.44.27.24.42.61.42,1.02,0,.71-.45,1.18-1.02,1.38v.02c.42.14.66.53.79,1.09.18.75.3,1.27.42,1.48h-.72c-.09-.15-.21-.62-.36-1.29-.16-.74-.45-1.02-1.08-1.05h-.66v2.33h-.7v-5.32ZM74.77,59.71h.71c.74,0,1.21-.41,1.21-1.02,0-.7-.5-1-1.24-1.01-.34,0-.58.03-.69.06v1.97Z" fill="#010101"/>
      </g>
    </g>
  </g>
</svg>