<?xml version="1.0" encoding="UTF-8"?>
<svg id="Layer_2" data-name="Layer 2" xmlns="http://www.w3.org/2000/svg" width="84" height="50.22" viewBox="0 0 84 50.22">
  <g id="Layer_1_copy" data-name="Layer 1 copy">
    <g>
      <path d="M8.04,1.5h67.92c3.61,0,6.54,2.93,6.54,6.54v34.14c0,3.61-2.93,6.54-6.54,6.54H8.04c-3.61,0-6.54-2.93-6.54-6.54V8.04c0-3.61,2.93-6.54,6.54-6.54Z" fill="#fff" stroke="#999" stroke-miterlimit="10" stroke-width="3"/>
      <g isolation="isolate">
        <path d="M19.85,13.25c.27-.05.63-.08,1.09-.08.56,0,.97.13,1.23.36.24.21.38.53.38.92s-.12.71-.34.94c-.3.32-.79.48-1.34.48-.17,0-.33,0-.46-.04v1.75h-.57v-4.33ZM20.41,15.36c.12.03.28.05.47.05.68,0,1.1-.33,1.1-.94s-.41-.86-1.03-.86c-.25,0-.44.02-.53.04v1.7Z"/>
        <path d="M26.92,15.65c-.03-.61-.07-1.35-.06-1.89h-.02c-.15.51-.33,1.06-.55,1.66l-.77,2.12h-.43l-.71-2.09c-.21-.62-.38-1.18-.51-1.7h-.01c-.01.55-.05,1.28-.08,1.94l-.12,1.88h-.54l.31-4.38h.72l.75,2.12c.18.54.33,1.02.44,1.48h.02c.11-.44.27-.92.46-1.48l.78-2.12h.72l.27,4.38h-.55l-.11-1.92Z"/>
        <path d="M31.21,18.07v.33h-3.25v-.33h3.25Z"/>
        <path d="M34.76,17.44c-.21.1-.62.21-1.16.21-1.23,0-2.16-.78-2.16-2.22s.93-2.3,2.29-2.3c.55,0,.89.12,1.04.2l-.14.46c-.21-.1-.52-.18-.88-.18-1.03,0-1.71.66-1.71,1.81,0,1.07.62,1.76,1.68,1.76.34,0,.7-.07.92-.18l.12.45Z"/>
        <path d="M36.21,16.2l-.46,1.38h-.58l1.49-4.38h.68l1.5,4.38h-.6l-.47-1.38h-1.55ZM37.64,15.76l-.43-1.26c-.1-.29-.16-.55-.23-.8h-.01c-.06.26-.14.53-.22.79l-.43,1.27h1.32Z"/>
        <path d="M39.48,13.2h.57v3.91h1.87v.47h-2.44v-4.38Z"/>
        <path d="M42.54,13.2h.57v3.91h1.87v.47h-2.44v-4.38Z"/>
        <path d="M48.37,18.07v.33h-3.25v-.33h3.25Z"/>
        <path d="M48.86,17.58v-4.38h.62l1.4,2.22c.33.51.58.98.79,1.42h.01c-.05-.59-.06-1.12-.06-1.81v-1.83h.53v4.38h-.57l-1.39-2.22c-.31-.49-.6-.99-.82-1.46h-.02c.03.56.05,1.08.05,1.81v1.87h-.53Z"/>
        <path d="M56.88,15.34c0,1.51-.92,2.31-2.03,2.31s-1.97-.9-1.97-2.22c0-1.39.86-2.3,2.03-2.3s1.97.92,1.97,2.22ZM53.48,15.41c0,.94.51,1.78,1.4,1.78s1.4-.83,1.4-1.82c0-.87-.46-1.78-1.4-1.78s-1.4.86-1.4,1.83Z"/>
        <path d="M57.62,13.26c.34-.05.75-.09,1.2-.09.81,0,1.39.19,1.77.55.39.36.62.86.62,1.57s-.22,1.3-.63,1.7c-.41.41-1.09.63-1.94.63-.4,0-.74-.02-1.03-.05v-4.31ZM58.18,17.13c.14.03.35.03.57.03,1.21,0,1.87-.68,1.87-1.86,0-1.03-.58-1.69-1.77-1.69-.29,0-.51.03-.66.06v3.46Z"/>
        <path d="M64.21,15.52h-1.7v1.58h1.9v.47h-2.46v-4.38h2.37v.47h-1.8v1.38h1.7v.47Z"/>
      </g>
      <g isolation="isolate">
        <path d="M36.47,29.42c0-.4-.01-.73-.03-1.03h.51l.03.54h.01c.23-.38.6-.61,1.12-.61.76,0,1.33.64,1.33,1.6,0,1.13-.69,1.69-1.43,1.69-.42,0-.78-.18-.97-.49h-.01v1.71h-.57v-3.41ZM37.04,30.26c0,.08.01.16.03.23.1.4.45.67.86.67.6,0,.96-.49.96-1.22,0-.63-.33-1.17-.94-1.17-.39,0-.75.28-.86.71-.02.07-.04.16-.04.23v.54Z"/>
        <path d="M42.8,30.68c0,.33,0,.61.03.86h-.51l-.03-.51h-.01c-.15.25-.48.58-1.04.58-.49,0-1.09-.27-1.09-1.38v-1.84h.57v1.74c0,.6.18,1,.7,1,.38,0,.65-.27.75-.52.03-.08.05-.19.05-.29v-1.93h.57v2.29Z"/>
        <path d="M44.44,27.49v.9h.82v.44h-.82v1.7c0,.39.11.61.43.61.15,0,.26-.02.33-.04l.03.43c-.11.04-.29.08-.51.08-.27,0-.48-.08-.62-.24-.16-.17-.22-.45-.22-.82v-1.72h-.49v-.44h.49v-.75l.56-.15Z"/>
        <path d="M45.82,30.95c.17.11.47.23.75.23.42,0,.61-.21.61-.47,0-.27-.16-.42-.58-.58-.57-.2-.83-.51-.83-.89,0-.51.41-.92,1.09-.92.32,0,.6.09.77.2l-.14.42c-.12-.08-.35-.18-.64-.18-.34,0-.53.2-.53.43,0,.26.19.38.6.53.55.21.83.48.83.95,0,.55-.43.94-1.18.94-.34,0-.66-.08-.88-.21l.14-.44Z"/>
      </g>
    </g>
  </g>
</svg>