<?xml version="1.0" encoding="UTF-8" standalone="no"?>
<svg
   xmlns:dc="http://purl.org/dc/elements/1.1/"
   xmlns:cc="http://creativecommons.org/ns#"
   xmlns:rdf="http://www.w3.org/1999/02/22-rdf-syntax-ns#"
   xmlns:svg="http://www.w3.org/2000/svg"
   xmlns="http://www.w3.org/2000/svg"
   xmlns:sodipodi="http://sodipodi.sourceforge.net/DTD/sodipodi-0.dtd"
   xmlns:inkscape="http://www.inkscape.org/namespaces/inkscape"
   version="1.1"
   id="svg2"
   xml:space="preserve"
   width="465.33334"
   height="364"
   viewBox="0 0 465.33334 364"
   sodipodi:docname="ast1.eps"><metadata
     id="metadata8"><rdf:RDF><cc:Work
         rdf:about=""><dc:format>image/svg+xml</dc:format><dc:type
           rdf:resource="http://purl.org/dc/dcmitype/StillImage" /></cc:Work></rdf:RDF></metadata><defs
     id="defs6" /><sodipodi:namedview
     pagecolor="#ffffff"
     bordercolor="#666666"
     borderopacity="1"
     objecttolerance="10"
     gridtolerance="10"
     guidetolerance="10"
     inkscape:pageopacity="0"
     inkscape:pageshadow="2"
     inkscape:window-width="640"
     inkscape:window-height="480"
     id="namedview4" /><g
     id="g10"
     inkscape:groupmode="layer"
     inkscape:label="ink_ext_XXXXXX"
     transform="matrix(1.3333333,0,0,-1.3333333,0,364)"><g
       id="g12"
       transform="scale(0.1)"><path
         d="M 0,0 H 3490 V 2730 H 0 Z"
         style="fill:#ffffff;fill-opacity:1;fill-rule:nonzero;stroke:none"
         id="path14" /><path
         d="M -20986.7,-21870 H 40466.6 V 17530 H -20986.7 Z"
         style="fill:#ffffff;fill-opacity:1;fill-rule:nonzero;stroke:none"
         id="path16" /><path
         d="M 907.543,2725 H 2154.97 c 5.52,0 10,-4.48 10,-10 v -240.02 c 0,-5.52 -4.48,-10 -10,-10 H 907.543 c -5.523,0 -10,4.48 -10,10 V 2715 c 0,5.52 4.477,10 10,10 z"
         style="fill:#fff7de;fill-opacity:1;fill-rule:nonzero;stroke:none"
         id="path18" /><path
         d="M 907.543,2725 H 2154.97 c 5.52,0 10,-4.48 10,-10 v -240.02 c 0,-5.52 -4.48,-10 -10,-10 H 907.543 c -5.52,0 -10,4.48 -10,10 V 2715 c 0,5.52 4.48,10 10,10 z"
         style="fill:none;stroke:#000000;stroke-width:10;stroke-linecap:round;stroke-linejoin:round;stroke-miterlimit:10;stroke-dasharray:none;stroke-opacity:1"
         id="path20" /><g
         id="g22"
         transform="scale(10)"><text
           transform="matrix(1,0,0,-1,131.522,255.5)"
           style="font-variant:normal;font-weight:normal;font-size:12px;font-family:Monaco;-inkscape-font-specification:Monaco;writing-mode:lr-tb;fill:#000000;fill-opacity:1;fill-rule:nonzero;stroke:none"
           id="text26"><tspan
             x="0 7.2011719 14.402344 21.603516 28.804688 36.005859"
             y="0"
             sodipodi:role="line"
             id="tspan24">Assign</tspan></text></g><path
         d="M 1182.5,2384.99 898.477,1684.54"
         style="fill:none;stroke:#000000;stroke-width:20;stroke-linecap:round;stroke-linejoin:round;stroke-miterlimit:10;stroke-dasharray:none;stroke-opacity:1"
         id="path28" /><path
         d="m 862.402,1595.57 69.434,75.44 -66.723,27.05 z"
         style="fill:#000000;fill-opacity:1;fill-rule:nonzero;stroke:none"
         id="path30" /><path
         d="m 862.402,1595.57 69.434,75.44 -66.723,27.05 z"
         style="fill:none;stroke:#000000;stroke-width:20;stroke-linecap:butt;stroke-linejoin:miter;stroke-miterlimit:10;stroke-dasharray:none;stroke-opacity:1"
         id="path32" /><path
         d="m 1817.54,2384.99 283.69,-693.92"
         style="fill:none;stroke:#000000;stroke-width:20;stroke-linecap:round;stroke-linejoin:round;stroke-miterlimit:10;stroke-dasharray:none;stroke-opacity:1"
         id="path34" /><path
         d="m 2137.55,1602.21 -3,102.49 -66.64,-27.25 z"
         style="fill:#000000;fill-opacity:1;fill-rule:nonzero;stroke:none"
         id="path36" /><path
         d="m 2137.56,1602.21 -3.01,102.49 -66.64,-27.25 z"
         style="fill:none;stroke:#000000;stroke-width:20;stroke-linecap:butt;stroke-linejoin:miter;stroke-miterlimit:10;stroke-dasharray:none;stroke-opacity:1"
         id="path38" /><g
         id="g40"
         transform="scale(10)"><text
           transform="matrix(1,0,0,-1,44.7543,199.89)"
           style="font-variant:normal;font-weight:normal;font-size:14px;font-family:HelveticaNeue;-inkscape-font-specification:HelveticaNeue;writing-mode:lr-tb;fill:#000000;fill-opacity:1;fill-rule:nonzero;stroke:none"
           id="text44"><tspan
             x="0 6.4819999 14 18.27 26.306 33.824001 170.76556 178.54956 186.06757 189.17557 196.95956"
             y="0"
             sodipodi:role="line"
             id="tspan42">TargetValue</tspan></text></g><path
         d="m 15,1564.99 h 1247.43 c 5.52,0 10,-4.48 10,-10 v -378.37 c 0,-5.52 -4.48,-10 -10,-10 H 15 c -5.52344,0 -10,4.48 -10,10 v 378.37 c 0,5.52 4.47656,10 10,10 z"
         style="fill:#fff7de;fill-opacity:1;fill-rule:nonzero;stroke:none"
         id="path46" /><path
         d="m 15,1564.99 h 1247.43 c 5.52,0 10,-4.48 10,-10 v -378.37 c 0,-5.52 -4.48,-10 -10,-10 H 15 c -5.52344,0 -10,4.48 -10,10 v 378.37 c 0,5.52 4.47656,10 10,10 z"
         style="fill:none;stroke:#000000;stroke-width:10;stroke-linecap:round;stroke-linejoin:round;stroke-miterlimit:10;stroke-dasharray:none;stroke-opacity:1"
         id="path48" /><g
         id="g50"
         transform="scale(10)"><text
           transform="matrix(1,0,0,-1,53.0695,139.499)"
           style="font-variant:normal;font-weight:normal;font-size:12px;font-family:Monaco;-inkscape-font-specification:Monaco;writing-mode:lr-tb;fill:#000000;fill-opacity:1;fill-rule:nonzero;stroke:none"
           id="text54"><tspan
             x="0 7.2011719 14.402344"
             y="0"
             sodipodi:role="line"
             id="tspan52">Var</tspan></text><text
           transform="matrix(1,0,0,-1,39.8675,125.497)"
           style="font-variant:normal;font-weight:normal;font-size:10px;font-family:Monaco;-inkscape-font-specification:Monaco;writing-mode:lr-tb;fill:#000000;fill-opacity:1;fill-rule:nonzero;stroke:none"
           id="text58"><tspan
             x="0 6.0009766 12.001953 18.00293 24.003906 30.004883 36.005859 42.006844"
             y="0"
             sodipodi:role="line"
             id="tspan56">name=arr</tspan></text></g><path
         d="m 2220,404.98 h 1247.43 c 5.52,0 10,-4.476 10,-10 V 16.6133 c 0,-5.5235 -4.48,-10.00002 -10,-10.00002 H 2220 c -5.52,0 -10,4.47652 -10,10.00002 V 394.98 c 0,5.524 4.48,10 10,10 z"
         style="fill:#fff7de;fill-opacity:1;fill-rule:nonzero;stroke:none"
         id="path60" /><path
         d="m 2220,404.98 h 1247.43 c 5.52,0 10,-4.476 10,-10 V 16.6133 c 0,-5.5235 -4.48,-10.00002 -10,-10.00002 H 2220 c -5.52,0 -10,4.47652 -10,10.00002 V 394.98 c 0,5.524 4.48,10 10,10 z"
         style="fill:none;stroke:#000000;stroke-width:10;stroke-linecap:round;stroke-linejoin:round;stroke-miterlimit:10;stroke-dasharray:none;stroke-opacity:1"
         id="path62" /><g
         id="g64"
         transform="scale(10)"><text
           transform="matrix(1,0,0,-1,237.564,23.498)"
           style="font-variant:normal;font-weight:normal;font-size:12px;font-family:Monaco;-inkscape-font-specification:Monaco;writing-mode:lr-tb;fill:#000000;fill-opacity:1;fill-rule:nonzero;stroke:none"
           id="text68"><tspan
             x="0 7.2011719 14.402344 21.603516 28.804688 36.005859 43.207031 50.408203 57.609375 64.810547 72.011719 79.212891 86.414062"
             y="0"
             sodipodi:role="line"
             id="tspan66">NumberLiteral</tspan></text><text
           transform="matrix(1,0,0,-1,251.3663,9.496)"
           style="font-variant:normal;font-weight:normal;font-size:10px;font-family:Monaco;-inkscape-font-specification:Monaco;writing-mode:lr-tb;fill:#000000;fill-opacity:1;fill-rule:nonzero;stroke:none"
           id="text72"><tspan
             x="0 6.0009766 12.001953 18.00293 24.003906 30.004883 36.005859 42.006836 48.007812 54.008789 60.009766"
             y="0"
             sodipodi:role="line"
             id="tspan70">value=67890</tspan></text></g><path
         d="m 725,404.98 h 1247.43 c 5.52,0 10,-4.476 10,-10 V 16.6133 c 0,-5.5235 -4.48,-10.00002 -10,-10.00002 H 725 c -5.523,0 -10,4.47652 -10,10.00002 V 394.98 c 0,5.524 4.477,10 10,10 z"
         style="fill:#fff7de;fill-opacity:1;fill-rule:nonzero;stroke:none"
         id="path74" /><path
         d="m 725,404.98 h 1247.43 c 5.52,0 10,-4.476 10,-10 V 16.6133 c 0,-5.5235 -4.48,-10.00002 -10,-10.00002 H 725 c -5.523,0 -10,4.47652 -10,10.00002 V 394.98 c 0,5.524 4.477,10 10,10 z"
         style="fill:none;stroke:#000000;stroke-width:10;stroke-linecap:round;stroke-linejoin:round;stroke-miterlimit:10;stroke-dasharray:none;stroke-opacity:1"
         id="path76" /><g
         id="g78"
         transform="scale(10)"><text
           transform="matrix(1,0,0,-1,88.0637,23.498)"
           style="font-variant:normal;font-weight:normal;font-size:12px;font-family:Monaco;-inkscape-font-specification:Monaco;writing-mode:lr-tb;fill:#000000;fill-opacity:1;fill-rule:nonzero;stroke:none"
           id="text82"><tspan
             x="0 7.2011719 14.402344 21.603516 28.804688 36.005859 43.207031 50.408203 57.609375 64.810547 72.011719 79.212891 86.414062"
             y="0"
             sodipodi:role="line"
             id="tspan80">NumberLiteral</tspan></text><text
           transform="matrix(1,0,0,-1,101.866,9.496)"
           style="font-variant:normal;font-weight:normal;font-size:10px;font-family:Monaco;-inkscape-font-specification:Monaco;writing-mode:lr-tb;fill:#000000;fill-opacity:1;fill-rule:nonzero;stroke:none"
           id="text86"><tspan
             x="0 6.0009766 12.001953 18.00293 24.003906 30.004883 36.005859 42.006836 48.007812 54.008789 60.009766"
             y="0"
             sodipodi:role="line"
             id="tspan84">value=12345</tspan></text></g><path
         d="M 1496.27,1564.99 H 2743.7 c 5.52,0 10,-4.48 10,-10 v -378.37 c 0,-5.52 -4.48,-10 -10,-10 H 1496.27 c -5.52,0 -10,4.48 -10,10 v 378.37 c 0,5.52 4.48,10 10,10 z"
         style="fill:#fff7de;fill-opacity:1;fill-rule:nonzero;stroke:none"
         id="path88" /><path
         d="M 1496.27,1564.99 H 2743.7 c 5.52,0 10,-4.48 10,-10 v -378.37 c 0,-5.52 -4.48,-10 -10,-10 H 1496.27 c -5.52,0 -10,4.48 -10,10 v 378.37 c 0,5.52 4.48,10 10,10 z"
         style="fill:none;stroke:#000000;stroke-width:10;stroke-linecap:round;stroke-linejoin:round;stroke-miterlimit:10;stroke-dasharray:none;stroke-opacity:1"
         id="path90" /><g
         id="g92"
         transform="scale(10)"><text
           transform="matrix(1,0,0,-1,168.791,139.499)"
           style="font-variant:normal;font-weight:normal;font-size:12px;font-family:Monaco;-inkscape-font-specification:Monaco;writing-mode:lr-tb;fill:#000000;fill-opacity:1;fill-rule:nonzero;stroke:none"
           id="text96"><tspan
             x="0 7.2011719 14.402344 21.603516 28.804688 36.005859 43.207031 50.408203 57.609375 64.810547 72.011719 79.212891"
             y="0"
             sodipodi:role="line"
             id="tspan94">ArrayLiteral</tspan></text><text
           transform="matrix(1,0,0,-1,166.991,125.497)"
           style="font-variant:normal;font-weight:normal;font-size:10px;font-family:Monaco;-inkscape-font-specification:Monaco;writing-mode:lr-tb;fill:#000000;fill-opacity:1;fill-rule:nonzero;stroke:none"
           id="text100"><tspan
             x="0 6.0009766 12.001953 18.00293 24.003906 30.004883 36.005859 42.006836 48.007812 54.008789 60.009766 66.010742 72.011719 78.012695 84.013672"
             y="0"
             sodipodi:role="line"
             id="tspan98">element_count=2</tspan></text></g><path
         d="M 1771.23,1224.98 1487.2,524.527"
         style="fill:none;stroke:#000000;stroke-width:20;stroke-linecap:round;stroke-linejoin:round;stroke-miterlimit:10;stroke-dasharray:none;stroke-opacity:1"
         id="path102" /><path
         d="m 1451.13,435.563 69.43,75.437 -66.72,27.055 z"
         style="fill:#000000;fill-opacity:1;fill-rule:nonzero;stroke:none"
         id="path104" /><path
         d="m 1451.13,435.563 69.44,75.437 -66.73,27.055 z"
         style="fill:none;stroke:#000000;stroke-width:20;stroke-linecap:butt;stroke-linejoin:miter;stroke-miterlimit:10;stroke-dasharray:none;stroke-opacity:1"
         id="path106" /><path
         d="M 2406.27,1224.98 2671.31,548.438"
         style="fill:none;stroke:#000000;stroke-width:20;stroke-linecap:round;stroke-linejoin:round;stroke-miterlimit:10;stroke-dasharray:none;stroke-opacity:1"
         id="path108" /><path
         d="m 2706.33,459.051 -1.5,102.515 -67.04,-26.261 z"
         style="fill:#000000;fill-opacity:1;fill-rule:nonzero;stroke:none"
         id="path110" /><path
         d="m 2706.33,459.051 -1.5,102.515 -67.04,-26.261 z"
         style="fill:none;stroke:#000000;stroke-width:20;stroke-linecap:butt;stroke-linejoin:miter;stroke-miterlimit:10;stroke-dasharray:none;stroke-opacity:1"
         id="path112" /></g></g></svg>
