<?xml version="1.0" encoding="UTF-8" standalone="no"?>
<svg
   xmlns:dc="http://purl.org/dc/elements/1.1/"
   xmlns:cc="http://creativecommons.org/ns#"
   xmlns:rdf="http://www.w3.org/1999/02/22-rdf-syntax-ns#"
   xmlns:svg="http://www.w3.org/2000/svg"
   xmlns="http://www.w3.org/2000/svg"
   xmlns:sodipodi="http://sodipodi.sourceforge.net/DTD/sodipodi-0.dtd"
   xmlns:inkscape="http://www.inkscape.org/namespaces/inkscape"
   version="1.1"
   id="svg2"
   xml:space="preserve"
   width="465.33334"
   height="364"
   viewBox="0 0 465.33334 364"
   sodipodi:docname="ast1d.eps"><metadata
     id="metadata8"><rdf:RDF><cc:Work
         rdf:about=""><dc:format>image/svg+xml</dc:format><dc:type
           rdf:resource="http://purl.org/dc/dcmitype/StillImage" /></cc:Work></rdf:RDF></metadata><defs
     id="defs6"><clipPath
       clipPathUnits="userSpaceOnUse"
       id="clipPath20"><path
         d="M 0,0 H 2617.5 V 2047.5 H 0 Z"
         id="path18" /></clipPath></defs><sodipodi:namedview
     pagecolor="#ffffff"
     bordercolor="#666666"
     borderopacity="1"
     objecttolerance="10"
     gridtolerance="10"
     guidetolerance="10"
     inkscape:pageopacity="0"
     inkscape:pageshadow="2"
     inkscape:window-width="640"
     inkscape:window-height="480"
     id="namedview4" /><g
     id="g10"
     inkscape:groupmode="layer"
     inkscape:label="ink_ext_XXXXXX"
     transform="matrix(1.3333333,0,0,-1.3333333,0,364)"><g
       id="g12"
       transform="scale(0.1)"><g
         id="g14"><g
           id="g16"
           clip-path="url(#clipPath20)"><path
             d="M 0,0 H 2617.5 V 2047.5 H 0 Z"
             style="fill:#ffffff;fill-opacity:1;fill-rule:nonzero;stroke:none"
             id="path22" /><path
             d="m -15740,-16402.5 h 46090 v 29550 h -46090 z"
             style="fill:#ffffff;fill-opacity:1;fill-rule:nonzero;stroke:none"
             id="path24" /><path
             d="m 680.656,2043.75 h 935.574 c 4.14,0 7.5,-3.36 7.5,-7.5 v -180.02 c 0,-4.14 -3.36,-7.5 -7.5,-7.5 H 680.656 c -4.14,0 -7.5,3.36 -7.5,7.5 v 180.02 c 0,4.14 3.36,7.5 7.5,7.5 z"
             style="fill:#fff7de;fill-opacity:1;fill-rule:nonzero;stroke:none"
             id="path26" /><path
             d="m 680.66,2043.75 h 935.57 c 4.14,0 7.5,-3.36 7.5,-7.5 v -180.02 c 0,-4.14 -3.36,-7.5 -7.5,-7.5 H 680.66 c -4.144,0 -7.5,3.36 -7.5,7.5 v 180.02 c 0,4.14 3.356,7.5 7.5,7.5 z"
             style="fill:none;stroke:#000000;stroke-width:7.5;stroke-linecap:round;stroke-linejoin:round;stroke-miterlimit:10;stroke-dasharray:none;stroke-opacity:1"
             id="path28" /><g
             id="g30"
             transform="scale(10)"><text
               transform="matrix(1,0,0,-1,98.6418,191.625)"
               style="font-variant:normal;font-weight:normal;font-size:9px;font-family:Monaco;-inkscape-font-specification:Monaco;writing-mode:lr-tb;fill:#000000;fill-opacity:1;fill-rule:nonzero;stroke:none"
               id="text34"><tspan
                 x="0 5.4008789 10.801758 16.202637 21.603516 27.004395"
                 y="0"
                 sodipodi:role="line"
                 id="tspan32">Assign</tspan></text></g><path
             d="M 886.875,1788.74 673.855,1263.4"
             style="fill:none;stroke:#000000;stroke-width:15;stroke-linecap:round;stroke-linejoin:round;stroke-miterlimit:10;stroke-dasharray:none;stroke-opacity:1"
             id="path36" /><path
             d="m 646.801,1196.68 52.078,56.58 -50.043,20.29 z"
             style="fill:#000000;fill-opacity:1;fill-rule:nonzero;stroke:none"
             id="path38" /><path
             d="m 646.801,1196.68 52.078,56.58 -50.043,20.29 z"
             style="fill:none;stroke:#000000;stroke-width:15;stroke-linecap:butt;stroke-linejoin:miter;stroke-miterlimit:10;stroke-dasharray:none;stroke-opacity:1"
             id="path40" /><path
             d="M 1363.16,1788.74 1575.92,1268.3"
             style="fill:none;stroke:#000000;stroke-width:15;stroke-linecap:round;stroke-linejoin:round;stroke-miterlimit:10;stroke-dasharray:none;stroke-opacity:1"
             id="path42" /><path
             d="m 1603.17,1201.66 -2.26,76.86 -49.98,-20.43 z"
             style="fill:#000000;fill-opacity:1;fill-rule:nonzero;stroke:none"
             id="path44" /><path
             d="m 1603.17,1201.66 -2.26,76.86 -49.98,-20.43 z"
             style="fill:none;stroke:#000000;stroke-width:15;stroke-linecap:butt;stroke-linejoin:miter;stroke-miterlimit:10;stroke-dasharray:none;stroke-opacity:1"
             id="path46" /><g
             id="g48"
             transform="scale(10)"><text
               transform="matrix(1,0,0,-1,33.566,149.918)"
               style="font-variant:normal;font-weight:normal;font-size:10.5px;font-family:HelveticaNeue;-inkscape-font-specification:HelveticaNeue;writing-mode:lr-tb;fill:#000000;fill-opacity:1;fill-rule:nonzero;stroke:none"
               id="text52"><tspan
                 x="0 4.8614998 10.5 13.7025 19.7295 25.368 128.07385 133.91185 139.55035 141.88135 147.71936"
                 y="0"
                 sodipodi:role="line"
                 id="tspan50">TargetValue</tspan></text></g><path
             d="m 11.25,1173.74 h 935.57 c 4.141,0 7.5,-3.35 7.5,-7.5 V 882.465 c 0,-4.141 -3.359,-7.5 -7.5,-7.5 H 11.25 c -4.14062,0 -7.5,3.359 -7.5,7.5 v 283.775 c 0,4.15 3.35938,7.5 7.5,7.5 z"
             style="fill:#fff7de;fill-opacity:1;fill-rule:nonzero;stroke:none"
             id="path54" /><path
             d="m 11.25,1173.74 h 935.57 c 4.141,0 7.5,-3.35 7.5,-7.5 V 882.465 c 0,-4.141 -3.359,-7.5 -7.5,-7.5 H 11.25 c -4.14062,0 -7.5,3.359 -7.5,7.5 v 283.775 c 0,4.15 3.35938,7.5 7.5,7.5 z"
             style="fill:none;stroke:#000000;stroke-width:7.5;stroke-linecap:round;stroke-linejoin:round;stroke-miterlimit:10;stroke-dasharray:none;stroke-opacity:1"
             id="path56" /><g
             id="g58"
             transform="scale(10)"><text
               transform="matrix(1,0,0,-1,39.8023,104.624)"
               style="font-variant:normal;font-weight:normal;font-size:9px;font-family:Monaco;-inkscape-font-specification:Monaco;writing-mode:lr-tb;fill:#000000;fill-opacity:1;fill-rule:nonzero;stroke:none"
               id="text62"><tspan
                 x="0 5.4008789 10.801758"
                 y="0"
                 sodipodi:role="line"
                 id="tspan60">Var</tspan></text><text
               transform="matrix(1,0,0,-1,29.90074,94.1224)"
               style="font-variant:normal;font-weight:normal;font-size:7.5px;font-family:Monaco;-inkscape-font-specification:Monaco;writing-mode:lr-tb;fill:#000000;fill-opacity:1;fill-rule:nonzero;stroke:none"
               id="text66"><tspan
                 x="0 4.5007324 9.0014648 13.502197 18.00293 22.503662 27.004395 31.505127"
                 y="0"
                 sodipodi:role="line"
                 id="tspan64">name=arr</tspan></text></g><path
             d="m 1665,303.734 h 935.57 c 4.14,0 7.5,-3.355 7.5,-7.5 V 12.457 c 0,-4.14059 -3.36,-7.49997 -7.5,-7.49997 H 1665 c -4.14,0 -7.5,3.35938 -7.5,7.49997 v 283.777 c 0,4.145 3.36,7.5 7.5,7.5 z"
             style="fill:#fff7de;fill-opacity:1;fill-rule:nonzero;stroke:none"
             id="path68" /><path
             d="m 1665,303.734 h 935.57 c 4.14,0 7.5,-3.355 7.5,-7.5 V 12.457 c 0,-4.14059 -3.36,-7.49997 -7.5,-7.49997 H 1665 c -4.14,0 -7.5,3.35938 -7.5,7.49997 v 283.777 c 0,4.145 3.36,7.5 7.5,7.5 z"
             style="fill:none;stroke:#000000;stroke-width:7.5;stroke-linecap:round;stroke-linejoin:round;stroke-miterlimit:10;stroke-dasharray:none;stroke-opacity:1"
             id="path70" /><g
             id="g72"
             transform="scale(10)"><text
               transform="matrix(1,0,0,-1,178.173,17.6234)"
               style="font-variant:normal;font-weight:normal;font-size:9px;font-family:Monaco;-inkscape-font-specification:Monaco;writing-mode:lr-tb;fill:#000000;fill-opacity:1;fill-rule:nonzero;stroke:none"
               id="text76"><tspan
                 x="0 5.4008789 10.801758 16.202637 21.603516 27.004395 32.405273 37.806152 43.207031 48.60791 54.008789 59.409668 64.810547"
                 y="0"
                 sodipodi:role="line"
                 id="tspan74">NumberLiteral</tspan></text><text
               transform="matrix(1,0,0,-1,188.525,7.1222)"
               style="font-variant:normal;font-weight:normal;font-size:7.5px;font-family:Monaco;-inkscape-font-specification:Monaco;writing-mode:lr-tb;fill:#000000;fill-opacity:1;fill-rule:nonzero;stroke:none"
               id="text80"><tspan
                 x="0 4.5007324 9.0014648 13.502197 18.00293 22.503662 27.004395 31.505127 36.005859 40.506592 45.007324"
                 y="0"
                 sodipodi:role="line"
                 id="tspan78">value=67890</tspan></text></g><path
             d="m 543.75,303.734 h 935.57 c 4.14,0 7.5,-3.355 7.5,-7.5 V 12.457 c 0,-4.14059 -3.36,-7.49997 -7.5,-7.49997 H 543.75 c -4.141,0 -7.5,3.35938 -7.5,7.49997 v 283.777 c 0,4.145 3.359,7.5 7.5,7.5 z"
             style="fill:#fff7de;fill-opacity:1;fill-rule:nonzero;stroke:none"
             id="path82" /><path
             d="m 543.75,303.734 h 935.57 c 4.14,0 7.5,-3.355 7.5,-7.5 V 12.457 c 0,-4.14059 -3.36,-7.49997 -7.5,-7.49997 H 543.75 c -4.141,0 -7.5,3.35938 -7.5,7.49997 v 283.777 c 0,4.145 3.359,7.5 7.5,7.5 z"
             style="fill:none;stroke:#000000;stroke-width:7.5;stroke-linecap:round;stroke-linejoin:round;stroke-miterlimit:10;stroke-dasharray:none;stroke-opacity:1"
             id="path84" /><g
             id="g86"
             transform="scale(10)"><text
               transform="matrix(1,0,0,-1,66.0477,17.6234)"
               style="font-variant:normal;font-weight:normal;font-size:9px;font-family:Monaco;-inkscape-font-specification:Monaco;writing-mode:lr-tb;fill:#000000;fill-opacity:1;fill-rule:nonzero;stroke:none"
               id="text90"><tspan
                 x="0 5.4008789 10.801758 16.202637 21.603516 27.004395 32.405273 37.806152 43.207031 48.60791 54.008789 59.409668 64.810547"
                 y="0"
                 sodipodi:role="line"
                 id="tspan88">NumberLiteral</tspan></text><text
               transform="matrix(1,0,0,-1,76.3997,7.1222)"
               style="font-variant:normal;font-weight:normal;font-size:7.5px;font-family:Monaco;-inkscape-font-specification:Monaco;writing-mode:lr-tb;fill:#000000;fill-opacity:1;fill-rule:nonzero;stroke:none"
               id="text94"><tspan
                 x="0 4.5007324 9.0014648 13.502197 18.00293 22.503662 27.004395 31.505127 36.005859 40.506592 45.007324"
                 y="0"
                 sodipodi:role="line"
                 id="tspan92">value=12345</tspan></text></g><path
             d="m 1122.2,1173.74 h 935.57 c 4.15,0 7.5,-3.35 7.5,-7.5 V 882.465 c 0,-4.141 -3.35,-7.5 -7.5,-7.5 H 1122.2 c -4.14,0 -7.5,3.359 -7.5,7.5 v 283.775 c 0,4.15 3.36,7.5 7.5,7.5 z"
             style="fill:#fff7de;fill-opacity:1;fill-rule:nonzero;stroke:none"
             id="path96" /><path
             d="m 1122.2,1173.74 h 935.57 c 4.15,0 7.5,-3.35 7.5,-7.5 V 882.465 c 0,-4.141 -3.35,-7.5 -7.5,-7.5 H 1122.2 c -4.14,0 -7.5,3.359 -7.5,7.5 v 283.775 c 0,4.15 3.36,7.5 7.5,7.5 z"
             style="fill:none;stroke:#000000;stroke-width:7.5;stroke-linecap:round;stroke-linejoin:round;stroke-miterlimit:10;stroke-dasharray:none;stroke-opacity:1"
             id="path98" /><g
             id="g100"
             transform="scale(10)"><text
               transform="matrix(1,0,0,-1,126.594,104.624)"
               style="font-variant:normal;font-weight:normal;font-size:9px;font-family:Monaco;-inkscape-font-specification:Monaco;writing-mode:lr-tb;fill:#000000;fill-opacity:1;fill-rule:nonzero;stroke:none"
               id="text104"><tspan
                 x="0 5.4008789 10.801758 16.202637 21.603516 27.004395 32.405273 37.806152 43.207031 48.60791 54.008789 59.409668"
                 y="0"
                 sodipodi:role="line"
                 id="tspan102">ArrayLiteral</tspan></text><text
               transform="matrix(1,0,0,-1,125.24361,94.1224)"
               style="font-variant:normal;font-weight:normal;font-size:7.5px;font-family:Monaco;-inkscape-font-specification:Monaco;writing-mode:lr-tb;fill:#000000;fill-opacity:1;fill-rule:nonzero;stroke:none"
               id="text108"><tspan
                 x="0 4.5007324 9.0014648 13.502197 18.00293 22.503662 27.004395 31.505127 36.005859 40.506592 45.007324 49.508057 54.008789 58.509521 63.010254"
                 y="0"
                 sodipodi:role="line"
                 id="tspan106">element_count=2</tspan></text></g><path
             d="M 1328.42,918.734 1115.4,393.395"
             style="fill:none;stroke:#000000;stroke-width:15;stroke-linecap:round;stroke-linejoin:round;stroke-miterlimit:10;stroke-dasharray:none;stroke-opacity:1"
             id="path110" /><path
             d="m 1088.35,326.672 52.07,56.578 -50.04,20.289 z"
             style="fill:#000000;fill-opacity:1;fill-rule:nonzero;stroke:none"
             id="path112" /><path
             d="m 1088.35,326.672 52.07,56.578 -50.04,20.289 z"
             style="fill:none;stroke:#000000;stroke-width:15;stroke-linecap:butt;stroke-linejoin:miter;stroke-miterlimit:10;stroke-dasharray:none;stroke-opacity:1"
             id="path114" /><path
             d="M 1804.7,918.734 2003.48,411.328"
             style="fill:none;stroke:#000000;stroke-width:15;stroke-linecap:round;stroke-linejoin:round;stroke-miterlimit:10;stroke-dasharray:none;stroke-opacity:1"
             id="path116" /><path
             d="m 2029.75,344.289 -1.12,76.887 -50.29,-19.699 z"
             style="fill:#000000;fill-opacity:1;fill-rule:nonzero;stroke:none"
             id="path118" /><path
             d="m 2029.75,344.289 -1.12,76.887 -50.28,-19.699 z"
             style="fill:none;stroke:#000000;stroke-width:15;stroke-linecap:butt;stroke-linejoin:miter;stroke-miterlimit:10;stroke-dasharray:none;stroke-opacity:1"
             id="path120" /></g></g></g></g></svg>
