<?xml version="1.0" encoding="UTF-8" standalone="no"?>
<svg
   xmlns:dc="http://purl.org/dc/elements/1.1/"
   xmlns:cc="http://creativecommons.org/ns#"
   xmlns:rdf="http://www.w3.org/1999/02/22-rdf-syntax-ns#"
   xmlns:svg="http://www.w3.org/2000/svg"
   xmlns="http://www.w3.org/2000/svg"
   xmlns:sodipodi="http://sodipodi.sourceforge.net/DTD/sodipodi-0.dtd"
   xmlns:inkscape="http://www.inkscape.org/namespaces/inkscape"
   version="1.1"
   id="svg2"
   xml:space="preserve"
   width="472"
   height="74.666664"
   viewBox="0 0 472 74.666664"
   sodipodi:docname="bind.eps"><metadata
     id="metadata8"><rdf:RDF><cc:Work
         rdf:about=""><dc:format>image/svg+xml</dc:format><dc:type
           rdf:resource="http://purl.org/dc/dcmitype/StillImage" /></cc:Work></rdf:RDF></metadata><defs
     id="defs6" /><sodipodi:namedview
     pagecolor="#ffffff"
     bordercolor="#666666"
     borderopacity="1"
     objecttolerance="10"
     gridtolerance="10"
     guidetolerance="10"
     inkscape:pageopacity="0"
     inkscape:pageshadow="2"
     inkscape:window-width="640"
     inkscape:window-height="480"
     id="namedview4" /><g
     id="g10"
     inkscape:groupmode="layer"
     inkscape:label="ink_ext_XXXXXX"
     transform="matrix(1.3333333,0,0,-1.3333333,0,74.666667)"><g
       id="g12"
       transform="scale(0.1)"><path
         d="M 0,0 H 3540 V 560 H 0 Z"
         style="fill:#ffffff;fill-opacity:1;fill-rule:nonzero;stroke:none"
         id="path14" /><path
         d="M -34266.7,-11570 H 27186.6 V 27830 H -34266.7 Z"
         style="fill:#ffffff;fill-opacity:1;fill-rule:nonzero;stroke:none"
         id="path16" /><path
         d="m 20,550 h 1247.43 c 5.52,0 10,-4.477 10,-10 V 23.2813 c 0,-5.5235 -4.48,-10 -10,-10 H 20 c -5.5234,0 -10,4.4765 -10,10 V 540 c 0,5.523 4.4766,10 10,10 z"
         style="fill:#fff7de;fill-opacity:1;fill-rule:nonzero;stroke:none"
         id="path18" /><path
         d="m 20,550 h 1247.43 c 5.52,0 10,-4.477 10,-10 V 23.2813 c 0,-5.5235 -4.48,-10 -10,-10 H 20 c -5.5234,0 -10,4.4765 -10,10 V 540 c 0,5.523 4.4766,10 10,10 z"
         style="fill:none;stroke:#000000;stroke-width:10;stroke-linecap:round;stroke-linejoin:round;stroke-miterlimit:10;stroke-dasharray:none;stroke-opacity:1"
         id="path20" /><g
         id="g22"
         transform="scale(10)"><text
           transform="matrix(1,0,0,-1,53.5695,38)"
           style="font-variant:normal;font-weight:normal;font-size:12px;font-family:Monaco;-inkscape-font-specification:Monaco;writing-mode:lr-tb;fill:#000000;fill-opacity:1;fill-rule:nonzero;stroke:none"
           id="text26"><tspan
             x="0 7.2011719 14.402344"
             y="0"
             sodipodi:role="line"
             id="tspan24">Var</tspan></text><text
           transform="matrix(1,0,0,-1,40.3675,23.998)"
           style="font-variant:normal;font-weight:normal;font-size:10px;font-family:Monaco;-inkscape-font-specification:Monaco;writing-mode:lr-tb;fill:#000000;fill-opacity:1;fill-rule:nonzero;stroke:none"
           id="text32"><tspan
             x="0 6.0009766 12.001953 18.00293 24.003906 30.004883 36.005859 42.006844"
             y="0"
             sodipodi:role="line"
             id="tspan28">name=arr</tspan><tspan
             x="-27.004299 -21.003323 -15.002345 -9.0013685 -3.0003891 3.0005875 9.001564 15.002546 21.003523 27.004499 33.005478 39.006454 45.007431 51.008408 57.009384 63.010372 69.011345"
             y="13.8348"
             sodipodi:role="line"
             id="tspan30">type=Array(Int32)</tspan></text></g><path
         d="m 2270,550 h 1247.43 c 5.52,0 10,-4.477 10,-10 V 23.2813 c 0,-5.5235 -4.48,-10 -10,-10 H 2270 c -5.52,0 -10,4.4765 -10,10 V 540 c 0,5.523 4.48,10 10,10 z"
         style="fill:#fff7de;fill-opacity:1;fill-rule:nonzero;stroke:none"
         id="path34" /><path
         d="m 2270,550 h 1247.43 c 5.52,0 10,-4.477 10,-10 V 23.2813 c 0,-5.5235 -4.48,-10 -10,-10 H 2270 c -5.52,0 -10,4.4765 -10,10 V 540 c 0,5.523 4.48,10 10,10 z"
         style="fill:none;stroke:#000000;stroke-width:10;stroke-linecap:round;stroke-linejoin:round;stroke-miterlimit:10;stroke-dasharray:none;stroke-opacity:1"
         id="path36" /><g
         id="g38"
         transform="scale(10)"><text
           transform="matrix(1,0,0,-1,246.164,38)"
           style="font-variant:normal;font-weight:normal;font-size:12px;font-family:Monaco;-inkscape-font-specification:Monaco;writing-mode:lr-tb;fill:#000000;fill-opacity:1;fill-rule:nonzero;stroke:none"
           id="text42"><tspan
             x="0 7.2011719 14.402344 21.603516 28.804688 36.005859 43.207031 50.408203 57.609375 64.810547 72.011719 79.212891"
             y="0"
             sodipodi:role="line"
             id="tspan40">ArrayLiteral</tspan></text><text
           transform="matrix(1,0,0,-1,244.36361,23.998)"
           style="font-variant:normal;font-weight:normal;font-size:10px;font-family:Monaco;-inkscape-font-specification:Monaco;writing-mode:lr-tb;fill:#000000;fill-opacity:1;fill-rule:nonzero;stroke:none"
           id="text48"><tspan
             x="0 6.0009766 12.001953 18.00293 24.003906 30.004883 36.005859 42.006836 48.007812 54.008789 60.009766 66.010742 72.011719 78.012695 84.013672"
             y="0"
             sodipodi:role="line"
             id="tspan44">element_count=2</tspan><tspan
             x="-6.0007801 0.00019655999 6.001173 12.00215 18.003126 24.004103 30.005079 36.006058 42.007034 48.008011 54.008987 60.009964 66.010941 72.011917 78.012894 84.01387 90.014847"
             y="13.8348"
             sodipodi:role="line"
             id="tspan46">type=Array(Int32)</tspan></text></g><path
         d="M 1277.43,281.641 H 2131"
         style="fill:none;stroke:#000000;stroke-width:20;stroke-linecap:round;stroke-linejoin:miter;stroke-miterlimit:10;stroke-dasharray:80, 80;stroke-dashoffset:0;stroke-opacity:1"
         id="path50" /><path
         d="m 2227,281.641 -96,36 v -72 z"
         style="fill:#000000;fill-opacity:1;fill-rule:nonzero;stroke:none"
         id="path52" /><path
         d="m 2227,281.641 -96,36 v -72 z"
         style="fill:none;stroke:#000000;stroke-width:20;stroke-linecap:butt;stroke-linejoin:miter;stroke-miterlimit:10;stroke-dasharray:none;stroke-opacity:1"
         id="path54" /><g
         id="g56"
         transform="scale(10)"><text
           transform="matrix(1,0,0,-1,163.123,9.72031)"
           style="font-variant:normal;font-weight:normal;font-size:14px;font-family:HelveticaNeue;-inkscape-font-specification:HelveticaNeue;writing-mode:lr-tb;fill:#000000;fill-opacity:1;fill-rule:nonzero;stroke:none"
           id="text60"><tspan
             x="0 8.302 11.41 19.194"
             y="0"
             sodipodi:role="line"
             id="tspan58">bind</tspan></text></g></g></g></svg>
