<?xml version="1.0" encoding="UTF-8" standalone="no"?>
<svg
   xmlns:dc="http://purl.org/dc/elements/1.1/"
   xmlns:cc="http://creativecommons.org/ns#"
   xmlns:rdf="http://www.w3.org/1999/02/22-rdf-syntax-ns#"
   xmlns:svg="http://www.w3.org/2000/svg"
   xmlns="http://www.w3.org/2000/svg"
   xmlns:sodipodi="http://sodipodi.sourceforge.net/DTD/sodipodi-0.dtd"
   xmlns:inkscape="http://www.inkscape.org/namespaces/inkscape"
   version="1.1"
   id="svg2"
   xml:space="preserve"
   width="566.66669"
   height="438.66666"
   viewBox="0 0 566.66669 438.66666"
   sodipodi:docname="expanded-ast.eps"><metadata
     id="metadata8"><rdf:RDF><cc:Work
         rdf:about=""><dc:format>image/svg+xml</dc:format><dc:type
           rdf:resource="http://purl.org/dc/dcmitype/StillImage" /></cc:Work></rdf:RDF></metadata><defs
     id="defs6" /><sodipodi:namedview
     pagecolor="#ffffff"
     bordercolor="#666666"
     borderopacity="1"
     objecttolerance="10"
     gridtolerance="10"
     guidetolerance="10"
     inkscape:pageopacity="0"
     inkscape:pageshadow="2"
     inkscape:window-width="640"
     inkscape:window-height="480"
     id="namedview4" /><g
     id="g10"
     inkscape:groupmode="layer"
     inkscape:label="ink_ext_XXXXXX"
     transform="matrix(1.3333333,0,0,-1.3333333,0,438.66667)"><g
       id="g12"
       transform="scale(0.1)"><path
         d="M 0,0 H 4250 V 3290 H 0 Z"
         style="fill:#ffffff;fill-opacity:1;fill-rule:nonzero;stroke:none"
         id="path14" /><path
         d="M -42436.7,-18190 H 19016.6 V 21210 H -42436.7 Z"
         style="fill:#ffffff;fill-opacity:1;fill-rule:nonzero;stroke:none"
         id="path16" /><path
         d="M 738.773,3285 H 1986.2 c 5.52,0 10,-4.48 10,-10 v -240.02 c 0,-5.52 -4.48,-10 -10,-10 H 738.773 c -5.523,0 -10,4.48 -10,10 V 3275 c 0,5.52 4.477,10 10,10 z"
         style="fill:#fff7de;fill-opacity:1;fill-rule:nonzero;stroke:none"
         id="path18" /><path
         d="M 738.773,3285 H 1986.2 c 5.52,0 10,-4.48 10,-10 v -240.02 c 0,-5.52 -4.48,-10 -10,-10 H 738.773 c -5.523,0 -10,4.48 -10,10 V 3275 c 0,5.52 4.477,10 10,10 z"
         style="fill:none;stroke:#000000;stroke-width:10;stroke-linecap:round;stroke-linejoin:round;stroke-miterlimit:10;stroke-dasharray:none;stroke-opacity:1"
         id="path20" /><g
         id="g22"
         transform="scale(10)"><text
           transform="matrix(1,0,0,-1,114.645,311.5)"
           style="font-variant:normal;font-weight:normal;font-size:12px;font-family:Monaco;-inkscape-font-specification:Monaco;writing-mode:lr-tb;fill:#000000;fill-opacity:1;fill-rule:nonzero;stroke:none"
           id="text26"><tspan
             x="0 7.2011719 14.402344 21.603516 28.804688 36.005859"
             y="0"
             sodipodi:role="line"
             id="tspan24">Assign</tspan></text></g><path
         d="m 20,2525 h 1247.43 c 5.52,0 10,-4.48 10,-10 v -240.02 c 0,-5.52 -4.48,-10 -10,-10 H 20 c -5.5234,0 -10,4.48 -10,10 V 2515 c 0,5.52 4.4766,10 10,10 z"
         style="fill:#fff7de;fill-opacity:1;fill-rule:nonzero;stroke:none"
         id="path28" /><path
         d="m 20,2525 h 1247.43 c 5.52,0 10,-4.48 10,-10 v -240.02 c 0,-5.52 -4.48,-10 -10,-10 H 20 c -5.5234,0 -10,4.48 -10,10 V 2515 c 0,5.52 4.4766,10 10,10 z"
         style="fill:none;stroke:#000000;stroke-width:10;stroke-linecap:round;stroke-linejoin:round;stroke-miterlimit:10;stroke-dasharray:none;stroke-opacity:1"
         id="path30" /><g
         id="g32"
         transform="scale(10)"><text
           transform="matrix(1,0,0,-1,53.5695,235.5)"
           style="font-variant:normal;font-weight:normal;font-size:12px;font-family:Monaco;-inkscape-font-specification:Monaco;writing-mode:lr-tb;fill:#000000;fill-opacity:1;fill-rule:nonzero;stroke:none"
           id="text36"><tspan
             x="0 7.2011719 14.402344"
             y="0"
             sodipodi:role="line"
             id="tspan34">Var</tspan></text></g><path
         d="M 1486.27,2525 H 2733.7 c 5.52,0 10,-4.48 10,-10 v -240.02 c 0,-5.52 -4.48,-10 -10,-10 H 1486.27 c -5.52,0 -10,4.48 -10,10 V 2515 c 0,5.52 4.48,10 10,10 z"
         style="fill:#fff7de;fill-opacity:1;fill-rule:nonzero;stroke:none"
         id="path38" /><path
         d="M 1486.27,2525 H 2733.7 c 5.52,0 10,-4.48 10,-10 v -240.02 c 0,-5.52 -4.48,-10 -10,-10 H 1486.27 c -5.52,0 -10,4.48 -10,10 V 2515 c 0,5.52 4.48,10 10,10 z"
         style="fill:none;stroke:#000000;stroke-width:10;stroke-linecap:round;stroke-linejoin:round;stroke-miterlimit:10;stroke-dasharray:none;stroke-opacity:1"
         id="path40" /><g
         id="g42"
         transform="scale(10)"><text
           transform="matrix(1,0,0,-1,196.596,235.5)"
           style="font-variant:normal;font-weight:normal;font-size:12px;font-family:Monaco;-inkscape-font-specification:Monaco;writing-mode:lr-tb;fill:#000000;fill-opacity:1;fill-rule:nonzero;stroke:none"
           id="text46"><tspan
             x="0 7.2011719 14.402344 21.603516"
             y="0"
             sodipodi:role="line"
             id="tspan44">Call</tspan></text></g><path
         d="M 1486.27,1765 H 2733.7 c 5.52,0 10,-4.48 10,-10 v -240.02 c 0,-5.52 -4.48,-10 -10,-10 H 1486.27 c -5.52,0 -10,4.48 -10,10 V 1755 c 0,5.52 4.48,10 10,10 z"
         style="fill:#fff7de;fill-opacity:1;fill-rule:nonzero;stroke:none"
         id="path48" /><path
         d="M 1486.27,1765 H 2733.7 c 5.52,0 10,-4.48 10,-10 v -240.02 c 0,-5.52 -4.48,-10 -10,-10 H 1486.27 c -5.52,0 -10,4.48 -10,10 V 1755 c 0,5.52 4.48,10 10,10 z"
         style="fill:none;stroke:#000000;stroke-width:10;stroke-linecap:round;stroke-linejoin:round;stroke-miterlimit:10;stroke-dasharray:none;stroke-opacity:1"
         id="path50" /><g
         id="g52"
         transform="scale(10)"><text
           transform="matrix(1,0,0,-1,185.795,159.5)"
           style="font-variant:normal;font-weight:normal;font-size:12px;font-family:Monaco;-inkscape-font-specification:Monaco;writing-mode:lr-tb;fill:#000000;fill-opacity:1;fill-rule:nonzero;stroke:none"
           id="text56"><tspan
             x="0 7.2011719 14.402344 21.603516 28.804688 36.005859 43.207031"
             y="0"
             sodipodi:role="line"
             id="tspan54">Generic</tspan></text></g><path
         d="M 738.773,1005 H 1986.2 c 5.52,0 10,-4.48 10,-10 V 754.98 c 0,-5.523 -4.48,-10 -10,-10 H 738.773 c -5.523,0 -10,4.477 -10,10 V 995 c 0,5.52 4.477,10 10,10 z"
         style="fill:#fff7de;fill-opacity:1;fill-rule:nonzero;stroke:none"
         id="path58" /><path
         d="M 738.773,1005 H 1986.2 c 5.52,0 10,-4.48 10,-10 V 754.98 c 0,-5.523 -4.48,-10 -10,-10 H 738.773 c -5.523,0 -10,4.477 -10,10 V 995 c 0,5.52 4.477,10 10,10 z"
         style="fill:none;stroke:#000000;stroke-width:10;stroke-linecap:round;stroke-linejoin:round;stroke-miterlimit:10;stroke-dasharray:none;stroke-opacity:1"
         id="path60" /><g
         id="g62"
         transform="scale(10)"><text
           transform="matrix(1,0,0,-1,121.846,83.5)"
           style="font-variant:normal;font-weight:normal;font-size:12px;font-family:Monaco;-inkscape-font-specification:Monaco;writing-mode:lr-tb;fill:#000000;fill-opacity:1;fill-rule:nonzero;stroke:none"
           id="text66"><tspan
             x="0 7.2011719 14.402344 21.603516"
             y="0"
             sodipodi:role="line"
             id="tspan64">Path</tspan></text></g><path
         d="M 2233.77,1005 H 3481.2 c 5.52,0 10,-4.48 10,-10 V 754.98 c 0,-5.523 -4.48,-10 -10,-10 H 2233.77 c -5.52,0 -10,4.477 -10,10 V 995 c 0,5.52 4.48,10 10,10 z"
         style="fill:#fff7de;fill-opacity:1;fill-rule:nonzero;stroke:none"
         id="path68" /><path
         d="M 2233.77,1005 H 3481.2 c 5.52,0 10,-4.48 10,-10 V 754.98 c 0,-5.523 -4.48,-10 -10,-10 H 2233.77 c -5.52,0 -10,4.477 -10,10 V 995 c 0,5.52 4.48,10 10,10 z"
         style="fill:none;stroke:#000000;stroke-width:10;stroke-linecap:round;stroke-linejoin:round;stroke-miterlimit:10;stroke-dasharray:none;stroke-opacity:1"
         id="path70" /><g
         id="g72"
         transform="scale(10)"><text
           transform="matrix(1,0,0,-1,264.145,83.5)"
           style="font-variant:normal;font-weight:normal;font-size:12px;font-family:Monaco;-inkscape-font-specification:Monaco;writing-mode:lr-tb;fill:#000000;fill-opacity:1;fill-rule:nonzero;stroke:none"
           id="text76"><tspan
             x="0 7.2011719 14.402344 21.603516 28.804688 36.005859"
             y="0"
             sodipodi:role="line"
             id="tspan74">TypeOf</tspan></text></g><path
         d="m 1982.11,1504.98 -401.3,-408.01"
         style="fill:none;stroke:#000000;stroke-width:20;stroke-linecap:round;stroke-linejoin:miter;stroke-miterlimit:10;stroke-dasharray:none;stroke-opacity:1"
         id="path78" /><path
         d="m 1513.5,1028.53 92.98,43.2 -51.33,50.48 z"
         style="fill:#000000;fill-opacity:1;fill-rule:nonzero;stroke:none"
         id="path80" /><path
         d="m 1513.5,1028.53 92.98,43.2 -51.33,50.48 z"
         style="fill:none;stroke:#000000;stroke-width:20;stroke-linecap:butt;stroke-linejoin:miter;stroke-miterlimit:10;stroke-dasharray:none;stroke-opacity:1"
         id="path82" /><path
         d="m 2237.86,1504.98 401.3,-408.01"
         style="fill:none;stroke:#000000;stroke-width:20;stroke-linecap:round;stroke-linejoin:miter;stroke-miterlimit:10;stroke-dasharray:none;stroke-opacity:1"
         id="path84" /><path
         d="m 2706.47,1028.53 -41.65,93.68 -51.33,-50.48 z"
         style="fill:#000000;fill-opacity:1;fill-rule:nonzero;stroke:none"
         id="path86" /><path
         d="m 2706.48,1028.53 -41.66,93.68 -51.33,-50.48 z"
         style="fill:none;stroke:#000000;stroke-width:20;stroke-linecap:butt;stroke-linejoin:miter;stroke-miterlimit:10;stroke-dasharray:none;stroke-opacity:1"
         id="path88" /><path
         d="M 2109.98,2264.98 V 1894"
         style="fill:none;stroke:#000000;stroke-width:20;stroke-linecap:round;stroke-linejoin:miter;stroke-miterlimit:10;stroke-dasharray:none;stroke-opacity:1"
         id="path90" /><path
         d="m 2109.98,1798 36,96 h -72 z"
         style="fill:#000000;fill-opacity:1;fill-rule:nonzero;stroke:none"
         id="path92" /><path
         d="m 2109.98,1798 36,96 h -72 z"
         style="fill:none;stroke:#000000;stroke-width:20;stroke-linecap:butt;stroke-linejoin:miter;stroke-miterlimit:10;stroke-dasharray:none;stroke-opacity:1"
         id="path94" /><path
         d="M 1239.53,3024.98 855.313,2618.72"
         style="fill:none;stroke:#000000;stroke-width:20;stroke-linecap:round;stroke-linejoin:miter;stroke-miterlimit:10;stroke-dasharray:none;stroke-opacity:1"
         id="path96" /><path
         d="m 789.344,2548.98 92.121,45.01 -52.309,49.47 z"
         style="fill:#000000;fill-opacity:1;fill-rule:nonzero;stroke:none"
         id="path98" /><path
         d="m 789.348,2548.98 92.117,45.01 -52.309,49.47 z"
         style="fill:none;stroke:#000000;stroke-width:20;stroke-linecap:butt;stroke-linejoin:miter;stroke-miterlimit:10;stroke-dasharray:none;stroke-opacity:1"
         id="path100" /><path
         d="m 1490.36,3024.98 401.3,-408.01"
         style="fill:none;stroke:#000000;stroke-width:20;stroke-linecap:round;stroke-linejoin:miter;stroke-miterlimit:10;stroke-dasharray:none;stroke-opacity:1"
         id="path102" /><path
         d="m 1958.97,2548.53 -41.65,93.68 -51.33,-50.48 z"
         style="fill:#000000;fill-opacity:1;fill-rule:nonzero;stroke:none"
         id="path104" /><path
         d="m 1958.98,2548.53 -41.66,93.68 -51.33,-50.48 z"
         style="fill:none;stroke:#000000;stroke-width:20;stroke-linecap:butt;stroke-linejoin:miter;stroke-miterlimit:10;stroke-dasharray:none;stroke-opacity:1"
         id="path106" /><path
         d="M 1486.27,267.5 H 2733.7 c 5.52,0 10,-4.477 10,-10 V 17.4805 c 0,-5.5235 -4.48,-10.00003 -10,-10.00003 H 1486.27 c -5.52,0 -10,4.47653 -10,10.00003 V 257.5 c 0,5.523 4.48,10 10,10 z"
         style="fill:#fff7de;fill-opacity:1;fill-rule:nonzero;stroke:none"
         id="path108" /><path
         d="M 1486.27,267.5 H 2733.7 c 5.52,0 10,-4.477 10,-10 V 17.4805 c 0,-5.5235 -4.48,-10.00003 -10,-10.00003 H 1486.27 c -5.52,0 -10,4.47653 -10,10.00003 V 257.5 c 0,5.523 4.48,10 10,10 z"
         style="fill:none;stroke:#000000;stroke-width:10;stroke-linecap:round;stroke-linejoin:round;stroke-miterlimit:10;stroke-dasharray:none;stroke-opacity:1"
         id="path110" /><g
         id="g112"
         transform="scale(10)"><text
           transform="matrix(1,0,0,-1,164.191,9.75)"
           style="font-variant:normal;font-weight:normal;font-size:12px;font-family:Monaco;-inkscape-font-specification:Monaco;writing-mode:lr-tb;fill:#000000;fill-opacity:1;fill-rule:nonzero;stroke:none"
           id="text116"><tspan
             x="0 7.2011719 14.402344 21.603516 28.804688 36.005859 43.207031 50.408203 57.609375 64.810547 72.011719 79.212891 86.414062"
             y="0"
             sodipodi:role="line"
             id="tspan114">NumberLiteral</tspan></text></g><path
         d="M 2981.27,267.5 H 4228.7 c 5.52,0 10,-4.477 10,-10 V 17.4805 c 0,-5.5235 -4.48,-10.00003 -10,-10.00003 H 2981.27 c -5.52,0 -10,4.47653 -10,10.00003 V 257.5 c 0,5.523 4.48,10 10,10 z"
         style="fill:#fff7de;fill-opacity:1;fill-rule:nonzero;stroke:none"
         id="path118" /><path
         d="M 2981.27,267.5 H 4228.7 c 5.52,0 10,-4.477 10,-10 V 17.4805 c 0,-5.5235 -4.48,-10.00003 -10,-10.00003 H 2981.27 c -5.52,0 -10,4.47653 -10,10.00003 V 257.5 c 0,5.523 4.48,10 10,10 z"
         style="fill:none;stroke:#000000;stroke-width:10;stroke-linecap:round;stroke-linejoin:round;stroke-miterlimit:10;stroke-dasharray:none;stroke-opacity:1"
         id="path120" /><g
         id="g122"
         transform="scale(10)"><text
           transform="matrix(1,0,0,-1,313.691,9.75)"
           style="font-variant:normal;font-weight:normal;font-size:12px;font-family:Monaco;-inkscape-font-specification:Monaco;writing-mode:lr-tb;fill:#000000;fill-opacity:1;fill-rule:nonzero;stroke:none"
           id="text126"><tspan
             x="0 7.2011719 14.402344 21.603516 28.804688 36.005859 43.207031 50.408203 57.609375 64.810547 72.011719 79.212891 86.414062"
             y="0"
             sodipodi:role="line"
             id="tspan124">NumberLiteral</tspan></text></g><path
         d="M 2725.71,744.98 2333.59,358.102"
         style="fill:none;stroke:#000000;stroke-width:20;stroke-linecap:round;stroke-linejoin:miter;stroke-miterlimit:10;stroke-dasharray:none;stroke-opacity:1"
         id="path128" /><path
         d="m 2265.25,290.676 93.62,41.797 -50.57,51.254 z"
         style="fill:#000000;fill-opacity:1;fill-rule:nonzero;stroke:none"
         id="path130" /><path
         d="m 2265.25,290.676 93.62,41.797 -50.57,51.254 z"
         style="fill:none;stroke:#000000;stroke-width:20;stroke-linecap:butt;stroke-linejoin:miter;stroke-miterlimit:10;stroke-dasharray:none;stroke-opacity:1"
         id="path132" /><path
         d="M 2989.26,744.98 3381.38,358.102"
         style="fill:none;stroke:#000000;stroke-width:20;stroke-linecap:round;stroke-linejoin:miter;stroke-miterlimit:10;stroke-dasharray:none;stroke-opacity:1"
         id="path134" /><path
         d="m 3449.72,290.676 -43.05,93.051 -50.57,-51.254 z"
         style="fill:#000000;fill-opacity:1;fill-rule:nonzero;stroke:none"
         id="path136" /><path
         d="m 3449.72,290.676 -43.05,93.051 -50.57,-51.254 z"
         style="fill:none;stroke:#000000;stroke-width:20;stroke-linecap:butt;stroke-linejoin:miter;stroke-miterlimit:10;stroke-dasharray:none;stroke-opacity:1"
         id="path138" /></g></g></svg>
