<?xml version="1.0" encoding="UTF-8" standalone="no"?>
<svg
   xmlns:dc="http://purl.org/dc/elements/1.1/"
   xmlns:cc="http://creativecommons.org/ns#"
   xmlns:rdf="http://www.w3.org/1999/02/22-rdf-syntax-ns#"
   xmlns:svg="http://www.w3.org/2000/svg"
   xmlns="http://www.w3.org/2000/svg"
   xmlns:sodipodi="http://sodipodi.sourceforge.net/DTD/sodipodi-0.dtd"
   xmlns:inkscape="http://www.inkscape.org/namespaces/inkscape"
   version="1.1"
   id="svg2"
   xml:space="preserve"
   width="360"
   height="302.66666"
   viewBox="0 0 360 302.66666"
   sodipodi:docname="return-recurse.eps"><metadata
     id="metadata8"><rdf:RDF><cc:Work
         rdf:about=""><dc:format>image/svg+xml</dc:format><dc:type
           rdf:resource="http://purl.org/dc/dcmitype/StillImage" /></cc:Work></rdf:RDF></metadata><defs
     id="defs6" /><sodipodi:namedview
     pagecolor="#ffffff"
     bordercolor="#666666"
     borderopacity="1"
     objecttolerance="10"
     gridtolerance="10"
     guidetolerance="10"
     inkscape:pageopacity="0"
     inkscape:pageshadow="2"
     inkscape:window-width="640"
     inkscape:window-height="480"
     id="namedview4" /><g
     id="g10"
     inkscape:groupmode="layer"
     inkscape:label="ink_ext_XXXXXX"
     transform="matrix(1.3333333,0,0,-1.3333333,0,302.66667)"><g
       id="g12"
       transform="scale(0.1)"><path
         d="M 0,0 H 2700 V 2270 H 0 Z"
         style="fill:#ffffff;fill-opacity:1;fill-rule:nonzero;stroke:none"
         id="path14" /><path
         d="M -44646.7,-13180 H 16806.6 V 26220 H -44646.7 Z"
         style="fill:#ffffff;fill-opacity:1;fill-rule:nonzero;stroke:none"
         id="path16" /><path
         d="M 23.7734,2260 H 1271.2 c 5.52,0 10,-4.48 10,-10 v -240.02 c 0,-5.52 -4.48,-10 -10,-10 H 23.7734 c -5.5234,0 -10,4.48 -10,10 V 2250 c 0,5.52 4.4766,10 10,10 z"
         style="fill:#fff7de;fill-opacity:1;fill-rule:nonzero;stroke:none"
         id="path18" /><path
         d="M 23.7734,2260 H 1271.2 c 5.52,0 10,-4.48 10,-10 v -240.02 c 0,-5.52 -4.48,-10 -10,-10 H 23.7734 c -5.5234,0 -10,4.48 -10,10 V 2250 c 0,5.52 4.4766,10 10,10 z"
         style="fill:none;stroke:#000000;stroke-width:10;stroke-linecap:round;stroke-linejoin:round;stroke-miterlimit:10;stroke-dasharray:none;stroke-opacity:1"
         id="path20" /><g
         id="g22"
         transform="scale(10)"><text
           transform="matrix(1,0,0,-1,43.1449,209)"
           style="font-variant:normal;font-weight:normal;font-size:12px;font-family:Monaco;-inkscape-font-specification:Monaco;writing-mode:lr-tb;fill:#000000;fill-opacity:1;fill-rule:nonzero;stroke:none"
           id="text26"><tspan
             x="0 7.2011719 14.402344 21.603516 28.804688 36.005859"
             y="0"
             sodipodi:role="line"
             id="tspan24">Assign</tspan></text></g><path
         d="M 23.7734,1760 H 1271.2 c 5.52,0 10,-4.48 10,-10 v -240.02 c 0,-5.52 -4.48,-10 -10,-10 H 23.7734 c -5.5234,0 -10,4.48 -10,10 V 1750 c 0,5.52 4.4766,10 10,10 z"
         style="fill:#fff7de;fill-opacity:1;fill-rule:nonzero;stroke:none"
         id="path28" /><path
         d="M 23.7734,1760 H 1271.2 c 5.52,0 10,-4.48 10,-10 v -240.02 c 0,-5.52 -4.48,-10 -10,-10 H 23.7734 c -5.5234,0 -10,4.48 -10,10 V 1750 c 0,5.52 4.4766,10 10,10 z"
         style="fill:none;stroke:#000000;stroke-width:10;stroke-linecap:round;stroke-linejoin:round;stroke-miterlimit:10;stroke-dasharray:none;stroke-opacity:1"
         id="path30" /><g
         id="g32"
         transform="scale(10)"><text
           transform="matrix(1,0,0,-1,50.3461,159)"
           style="font-variant:normal;font-weight:normal;font-size:12px;font-family:Monaco;-inkscape-font-specification:Monaco;writing-mode:lr-tb;fill:#000000;fill-opacity:1;fill-rule:nonzero;stroke:none"
           id="text36"><tspan
             x="0 7.2011719 14.402344 21.603516"
             y="0"
             sodipodi:role="line"
             id="tspan34">Call</tspan></text></g><path
         d="M 23.7734,1260 H 1271.2 c 5.52,0 10,-4.48 10,-10 v -240.02 c 0,-5.52 -4.48,-10 -10,-10 H 23.7734 c -5.5234,0 -10,4.48 -10,10 V 1250 c 0,5.52 4.4766,10 10,10 z"
         style="fill:#fff7de;fill-opacity:1;fill-rule:nonzero;stroke:none"
         id="path38" /><path
         d="M 23.7734,1260 H 1271.2 c 5.52,0 10,-4.48 10,-10 v -240.02 c 0,-5.52 -4.48,-10 -10,-10 H 23.7734 c -5.5234,0 -10,4.48 -10,10 V 1250 c 0,5.52 4.4766,10 10,10 z"
         style="fill:none;stroke:#000000;stroke-width:10;stroke-linecap:round;stroke-linejoin:round;stroke-miterlimit:10;stroke-dasharray:none;stroke-opacity:1"
         id="path40" /><g
         id="g42"
         transform="scale(10)"><text
           transform="matrix(1,0,0,-1,39.5445,109)"
           style="font-variant:normal;font-weight:normal;font-size:12px;font-family:Monaco;-inkscape-font-specification:Monaco;writing-mode:lr-tb;fill:#000000;fill-opacity:1;fill-rule:nonzero;stroke:none"
           id="text46"><tspan
             x="0 7.2011719 14.402344 21.603516 28.804688 36.005859 43.207031"
             y="0"
             sodipodi:role="line"
             id="tspan44">Generic</tspan></text></g><path
         d="M 23.7734,765 H 1271.2 c 5.52,0 10,-4.477 10,-10 V 514.98 c 0,-5.523 -4.48,-10 -10,-10 H 23.7734 c -5.5234,0 -10,4.477 -10,10 V 755 c 0,5.523 4.4766,10 10,10 z"
         style="fill:#fff7de;fill-opacity:1;fill-rule:nonzero;stroke:none"
         id="path48" /><path
         d="M 23.7734,765 H 1271.2 c 5.52,0 10,-4.477 10,-10 V 514.98 c 0,-5.523 -4.48,-10 -10,-10 H 23.7734 c -5.5234,0 -10,4.477 -10,10 V 755 c 0,5.523 4.4766,10 10,10 z"
         style="fill:none;stroke:#000000;stroke-width:10;stroke-linecap:round;stroke-linejoin:round;stroke-miterlimit:10;stroke-dasharray:none;stroke-opacity:1"
         id="path50" /><g
         id="g52"
         transform="scale(10)"><text
           transform="matrix(1,0,0,-1,43.1449,59.5)"
           style="font-variant:normal;font-weight:normal;font-size:12px;font-family:Monaco;-inkscape-font-specification:Monaco;writing-mode:lr-tb;fill:#000000;fill-opacity:1;fill-rule:nonzero;stroke:none"
           id="text56"><tspan
             x="0 7.2011719 14.402344 21.603516 28.804688 36.005859"
             y="0"
             sodipodi:role="line"
             id="tspan54">TypeOf</tspan></text></g><path
         d="M 23.7734,271.25 H 1271.2 c 5.52,0 10,-4.477 10,-10 V 21.2305 c 0,-5.5235 -4.48,-10 -10,-10 H 23.7734 c -5.5234,0 -10,4.4765 -10,10 V 261.25 c 0,5.523 4.4766,10 10,10 z"
         style="fill:#fff7de;fill-opacity:1;fill-rule:nonzero;stroke:none"
         id="path58" /><path
         d="M 23.7734,271.25 H 1271.2 c 5.52,0 10,-4.477 10,-10 V 21.2305 c 0,-5.5235 -4.48,-10 -10,-10 H 23.7734 c -5.5234,0 -10,4.4765 -10,10 V 261.25 c 0,5.523 4.4766,10 10,10 z"
         style="fill:none;stroke:#000000;stroke-width:10;stroke-linecap:round;stroke-linejoin:round;stroke-miterlimit:10;stroke-dasharray:none;stroke-opacity:1"
         id="path60" /><g
         id="g62"
         transform="scale(10)"><text
           transform="matrix(1,0,0,-1,17.941,10.125)"
           style="font-variant:normal;font-weight:normal;font-size:12px;font-family:Monaco;-inkscape-font-specification:Monaco;writing-mode:lr-tb;fill:#000000;fill-opacity:1;fill-rule:nonzero;stroke:none"
           id="text66"><tspan
             x="0 7.2011719 14.402344 21.603516 28.804688 36.005859 43.207031 50.408203 57.609375 64.810547 72.011719 79.212891 86.414062"
             y="0"
             sodipodi:role="line"
             id="tspan64">NumberLiteral</tspan></text></g><path
         d="M 647.484,271.25 V 375.98"
         style="fill:none;stroke:#000000;stroke-width:20;stroke-linecap:round;stroke-linejoin:miter;stroke-miterlimit:10;stroke-dasharray:none;stroke-opacity:1"
         id="path68" /><path
         d="m 647.484,471.98 -36,-96 h 72 z"
         style="fill:#000000;fill-opacity:1;fill-rule:nonzero;stroke:none"
         id="path70" /><path
         d="m 647.484,471.98 -36,-96 h 72 z"
         style="fill:none;stroke:#000000;stroke-width:20;stroke-linecap:butt;stroke-linejoin:miter;stroke-miterlimit:10;stroke-dasharray:none;stroke-opacity:1"
         id="path72" /><path
         d="M 647.484,765 V 870.98"
         style="fill:none;stroke:#000000;stroke-width:20;stroke-linecap:round;stroke-linejoin:miter;stroke-miterlimit:10;stroke-dasharray:none;stroke-opacity:1"
         id="path74" /><path
         d="m 647.484,966.98 -36,-96 h 72 z"
         style="fill:#000000;fill-opacity:1;fill-rule:nonzero;stroke:none"
         id="path76" /><path
         d="m 647.484,966.98 -36,-96 h 72 z"
         style="fill:none;stroke:#000000;stroke-width:20;stroke-linecap:butt;stroke-linejoin:miter;stroke-miterlimit:10;stroke-dasharray:none;stroke-opacity:1"
         id="path78" /><path
         d="m 647.484,1260 v 110.98"
         style="fill:none;stroke:#000000;stroke-width:20;stroke-linecap:round;stroke-linejoin:miter;stroke-miterlimit:10;stroke-dasharray:none;stroke-opacity:1"
         id="path80" /><path
         d="m 647.484,1466.98 -36,-96 h 72 z"
         style="fill:#000000;fill-opacity:1;fill-rule:nonzero;stroke:none"
         id="path82" /><path
         d="m 647.484,1466.98 -36,-96 h 72 z"
         style="fill:none;stroke:#000000;stroke-width:20;stroke-linecap:butt;stroke-linejoin:miter;stroke-miterlimit:10;stroke-dasharray:none;stroke-opacity:1"
         id="path84" /><path
         d="m 647.484,1760 v 110.98"
         style="fill:none;stroke:#000000;stroke-width:20;stroke-linecap:round;stroke-linejoin:miter;stroke-miterlimit:10;stroke-dasharray:none;stroke-opacity:1"
         id="path86" /><path
         d="m 647.484,1966.98 -36,-96 h 72 z"
         style="fill:#000000;fill-opacity:1;fill-rule:nonzero;stroke:none"
         id="path88" /><path
         d="m 647.484,1966.98 -36,-96 h 72 z"
         style="fill:none;stroke:#000000;stroke-width:20;stroke-linecap:butt;stroke-linejoin:miter;stroke-miterlimit:10;stroke-dasharray:none;stroke-opacity:1"
         id="path90" /><g
         id="g92"
         transform="scale(10)"><text
           transform="matrix(1,0,0,-1,153.452,10.3203)"
           style="font-variant:normal;font-weight:normal;font-size:11px;font-family:Monaco;-inkscape-font-specification:Monaco;writing-mode:lr-tb;fill:#000000;fill-opacity:1;fill-rule:nonzero;stroke:none"
           id="text104"><tspan
             x="0 6.6010742 13.202148 19.803223 26.404297"
             y="0"
             sodipodi:role="line"
             id="tspan94">Int32</tspan><tspan
             x="0 6.6010742 13.202148 19.803223 26.404297"
             y="-49.375"
             sodipodi:role="line"
             id="tspan96">Int32</tspan><tspan
             x="-7.8015599 -1.2004858 5.4005885 12.001662 18.602737 25.203812 31.804886 38.40596 45.007034 51.608109 58.209183 64.810257 71.411331 78.012405 84.61348 91.214554 97.815628 104.4167"
             y="-98.75"
             sodipodi:role="line"
             id="tspan98">Array(Int32).class</tspan><tspan
             x="-4.2007799 2.4002943 9.0013685 15.602443 22.203516 28.80459 35.405666 42.006741 48.607815 55.208889 61.809963 68.411034"
             y="-149.0938"
             sodipodi:role="line"
             id="tspan100">Array(Int32)</tspan><tspan
             x="-4.2007799 2.4002943 9.0013685 15.602443 22.203516 28.80459 35.405666 42.006741 48.607815 55.208889 61.809963 68.411034"
             y="-199.6797"
             sodipodi:role="line"
             id="tspan102">Array(Int32)</tspan></text></g></g></g></svg>
