<?xml version="1.0" encoding="UTF-8" standalone="no"?>
<svg
   xmlns:dc="http://purl.org/dc/elements/1.1/"
   xmlns:cc="http://creativecommons.org/ns#"
   xmlns:rdf="http://www.w3.org/1999/02/22-rdf-syntax-ns#"
   xmlns:svg="http://www.w3.org/2000/svg"
   xmlns="http://www.w3.org/2000/svg"
   xmlns:sodipodi="http://sodipodi.sourceforge.net/DTD/sodipodi-0.dtd"
   xmlns:inkscape="http://www.inkscape.org/namespaces/inkscape"
   version="1.1"
   id="svg2"
   xml:space="preserve"
   width="648"
   height="304"
   viewBox="0 0 648 304"
   sodipodi:docname="set-type.eps"><metadata
     id="metadata8"><rdf:RDF><cc:Work
         rdf:about=""><dc:format>image/svg+xml</dc:format><dc:type
           rdf:resource="http://purl.org/dc/dcmitype/StillImage" /></cc:Work></rdf:RDF></metadata><defs
     id="defs6" /><sodipodi:namedview
     pagecolor="#ffffff"
     bordercolor="#666666"
     borderopacity="1"
     objecttolerance="10"
     gridtolerance="10"
     guidetolerance="10"
     inkscape:pageopacity="0"
     inkscape:pageshadow="2"
     inkscape:window-width="640"
     inkscape:window-height="480"
     id="namedview4" /><g
     id="g10"
     inkscape:groupmode="layer"
     inkscape:label="ink_ext_XXXXXX"
     transform="matrix(1.3333333,0,0,-1.3333333,0,304)"><g
       id="g12"
       transform="scale(0.1)"><path
         d="M 0,0 H 4860 V 2280 H 0 Z"
         style="fill:#ffffff;fill-opacity:1;fill-rule:nonzero;stroke:none"
         id="path14" /><path
         d="M -33976.7,-15950 H 27476.6 V 23450 H -33976.7 Z"
         style="fill:#ffffff;fill-opacity:1;fill-rule:nonzero;stroke:none"
         id="path16" /><path
         d="M 907.543,2270 H 2154.97 c 5.52,0 10,-4.48 10,-10 v -240.02 c 0,-5.52 -4.48,-10 -10,-10 H 907.543 c -5.523,0 -10,4.48 -10,10 V 2260 c 0,5.52 4.477,10 10,10 z"
         style="fill:#fff7de;fill-opacity:1;fill-rule:nonzero;stroke:none"
         id="path18" /><path
         d="M 907.543,2270 H 2154.97 c 5.52,0 10,-4.48 10,-10 v -240.02 c 0,-5.52 -4.48,-10 -10,-10 H 907.543 c -5.52,0 -10,4.48 -10,10 V 2260 c 0,5.52 4.48,10 10,10 z"
         style="fill:none;stroke:#000000;stroke-width:10;stroke-linecap:round;stroke-linejoin:round;stroke-miterlimit:10;stroke-dasharray:none;stroke-opacity:1"
         id="path20" /><g
         id="g22"
         transform="scale(10)"><text
           transform="matrix(1,0,0,-1,131.522,210)"
           style="font-variant:normal;font-weight:normal;font-size:12px;font-family:Monaco;-inkscape-font-specification:Monaco;writing-mode:lr-tb;fill:#000000;fill-opacity:1;fill-rule:nonzero;stroke:none"
           id="text26"><tspan
             x="0 7.2011719 14.402344 21.603516 28.804688 36.005859"
             y="0"
             sodipodi:role="line"
             id="tspan24">Assign</tspan></text></g><path
         d="M 1182.5,1929.99 898.477,1229.54"
         style="fill:none;stroke:#000000;stroke-width:20;stroke-linecap:round;stroke-linejoin:round;stroke-miterlimit:10;stroke-dasharray:none;stroke-opacity:1"
         id="path28" /><path
         d="m 862.402,1140.57 69.434,75.44 -66.723,27.05 z"
         style="fill:#000000;fill-opacity:1;fill-rule:nonzero;stroke:none"
         id="path30" /><path
         d="m 862.402,1140.57 69.434,75.44 -66.723,27.06 z"
         style="fill:none;stroke:#000000;stroke-width:20;stroke-linecap:butt;stroke-linejoin:miter;stroke-miterlimit:10;stroke-dasharray:none;stroke-opacity:1"
         id="path32" /><path
         d="m 1817.54,1929.99 283.69,-693.92"
         style="fill:none;stroke:#000000;stroke-width:20;stroke-linecap:round;stroke-linejoin:round;stroke-miterlimit:10;stroke-dasharray:none;stroke-opacity:1"
         id="path34" /><path
         d="m 2137.55,1147.21 -3,102.49 -66.64,-27.25 z"
         style="fill:#000000;fill-opacity:1;fill-rule:nonzero;stroke:none"
         id="path36" /><path
         d="m 2137.56,1147.21 -3.01,102.49 -66.64,-27.25 z"
         style="fill:none;stroke:#000000;stroke-width:20;stroke-linecap:butt;stroke-linejoin:miter;stroke-miterlimit:10;stroke-dasharray:none;stroke-opacity:1"
         id="path38" /><g
         id="g40"
         transform="scale(10)"><text
           transform="matrix(1,0,0,-1,44.7543,154.39)"
           style="font-variant:normal;font-weight:normal;font-size:14px;font-family:HelveticaNeue;-inkscape-font-specification:HelveticaNeue;writing-mode:lr-tb;fill:#000000;fill-opacity:1;fill-rule:nonzero;stroke:none"
           id="text44"><tspan
             x="0 6.4819999 14 18.27 26.306 33.824001 170.76556 178.54956 186.06757 189.17557 196.95956"
             y="0"
             sodipodi:role="line"
             id="tspan42">TargetValue</tspan></text></g><path
         d="m 15,1109.99 h 1247.43 c 5.52,0 10,-4.48 10,-10 V 583.273 c 0,-5.523 -4.48,-10 -10,-10 H 15 c -5.52344,0 -10,4.477 -10,10 v 516.717 c 0,5.52 4.47656,10 10,10 z"
         style="fill:#fff7de;fill-opacity:1;fill-rule:nonzero;stroke:none"
         id="path46" /><path
         d="m 15,1109.99 h 1247.43 c 5.52,0 10,-4.48 10,-10 V 583.273 c 0,-5.523 -4.48,-10 -10,-10 H 15 c -5.52344,0 -10,4.477 -10,10 v 516.717 c 0,5.52 4.47656,10 10,10 z"
         style="fill:none;stroke:#000000;stroke-width:10;stroke-linecap:round;stroke-linejoin:round;stroke-miterlimit:10;stroke-dasharray:none;stroke-opacity:1"
         id="path48" /><g
         id="g50"
         transform="scale(10)"><text
           transform="matrix(1,0,0,-1,53.0695,93.9992)"
           style="font-variant:normal;font-weight:normal;font-size:12px;font-family:Monaco;-inkscape-font-specification:Monaco;writing-mode:lr-tb;fill:#000000;fill-opacity:1;fill-rule:nonzero;stroke:none"
           id="text54"><tspan
             x="0 7.2011719 14.402344"
             y="0"
             sodipodi:role="line"
             id="tspan52">Var</tspan></text><text
           transform="matrix(1,0,0,-1,39.8675,79.9972)"
           style="font-variant:normal;font-weight:normal;font-size:10px;font-family:Monaco;-inkscape-font-specification:Monaco;writing-mode:lr-tb;fill:#000000;fill-opacity:1;fill-rule:nonzero;stroke:none"
           id="text60"><tspan
             x="0 6.0009766 12.001953 18.00293 24.003906 30.004883 36.005859 42.006844"
             y="0"
             sodipodi:role="line"
             id="tspan56">name=arr</tspan><tspan
             x="6.0007801 12.001757 18.002733 24.00371 30.004686 36.005661"
             y="13.8352"
             sodipodi:role="line"
             id="tspan58">type=?</tspan></text></g><path
         d="M 1496.27,1109.99 H 2743.7 c 5.52,0 10,-4.48 10,-10 V 583.273 c 0,-5.523 -4.48,-10 -10,-10 H 1496.27 c -5.52,0 -10,4.477 -10,10 v 516.717 c 0,5.52 4.48,10 10,10 z"
         style="fill:#fff7de;fill-opacity:1;fill-rule:nonzero;stroke:none"
         id="path62" /><path
         d="M 1496.27,1109.99 H 2743.7 c 5.52,0 10,-4.48 10,-10 V 583.273 c 0,-5.523 -4.48,-10 -10,-10 H 1496.27 c -5.52,0 -10,4.477 -10,10 v 516.717 c 0,5.52 4.48,10 10,10 z"
         style="fill:none;stroke:#000000;stroke-width:10;stroke-linecap:round;stroke-linejoin:round;stroke-miterlimit:10;stroke-dasharray:none;stroke-opacity:1"
         id="path64" /><g
         id="g66"
         transform="scale(10)"><text
           transform="matrix(1,0,0,-1,168.791,93.9992)"
           style="font-variant:normal;font-weight:normal;font-size:12px;font-family:Monaco;-inkscape-font-specification:Monaco;writing-mode:lr-tb;fill:#000000;fill-opacity:1;fill-rule:nonzero;stroke:none"
           id="text70"><tspan
             x="0 7.2011719 14.402344 21.603516 28.804688 36.005859 43.207031 50.408203 57.609375 64.810547 72.011719 79.212891"
             y="0"
             sodipodi:role="line"
             id="tspan68">ArrayLiteral</tspan></text><text
           transform="matrix(1,0,0,-1,166.991,79.9972)"
           style="font-variant:normal;font-weight:normal;font-size:10px;font-family:Monaco;-inkscape-font-specification:Monaco;writing-mode:lr-tb;fill:#000000;fill-opacity:1;fill-rule:nonzero;stroke:none"
           id="text76"><tspan
             x="0 6.0009766 12.001953 18.00293 24.003906 30.004883 36.005859 42.006836 48.007812 54.008789 60.009766 66.010742 72.011719 78.012695 84.013672"
             y="0"
             sodipodi:role="line"
             id="tspan72">element_count=2</tspan><tspan
             x="-6.0011702 -0.00019344001 6.000783 12.00176 18.002737 24.003714 30.00469 36.005665 42.006641 48.007618 54.008595 60.009571 66.010551 72.011528 78.012505 84.013481 90.014458"
             y="13.8352"
             sodipodi:role="line"
             id="tspan74">type=Array(Int32)</tspan></text></g><path
         d="m 3620,1019.13 h 1140 c 49.71,0 90,-40.294 90,-89.997 v -175 c 0,-49.707 -40.29,-90 -90,-90 H 3620 c -49.71,0 -90,40.293 -90,90 v 175 c 0,49.703 40.29,89.997 90,89.997 z"
         style="fill:#bebfff;fill-opacity:1;fill-rule:nonzero;stroke:none"
         id="path78" /><path
         d="m 3620,1019.13 h 1140 c 49.71,0 90,-40.294 90,-89.997 v -175 c 0,-49.707 -40.29,-90 -90,-90 H 3620 c -49.7,0 -90,40.293 -90,90 v 175 c 0,49.703 40.3,89.997 90,89.997 z"
         style="fill:none;stroke:#000000;stroke-width:10;stroke-linecap:round;stroke-linejoin:round;stroke-miterlimit:10;stroke-dasharray:none;stroke-opacity:1"
         id="path80" /><g
         id="g82"
         transform="scale(10)"><text
           transform="matrix(1,0,0,-1,379.265,80.1633)"
           style="font-variant:normal;font-weight:normal;font-size:12px;font-family:Menlo;-inkscape-font-specification:Menlo-Regular;writing-mode:lr-tb;fill:#000000;fill-opacity:1;fill-rule:nonzero;stroke:none"
           id="text86"><tspan
             x="0 7.2246103 14.449221 21.673832 28.898441 36.123028 43.347614 50.572201 57.796783 65.02137 72.245956"
             y="0"
             sodipodi:role="line"
             id="tspan84">MainVisitor</tspan></text></g><path
         d="M 2753.7,841.633 H 3401"
         style="fill:none;stroke:#000000;stroke-width:20;stroke-linecap:round;stroke-linejoin:miter;stroke-miterlimit:10;stroke-dasharray:none;stroke-opacity:1"
         id="path88" /><path
         d="m 3497,841.633 -96,36 v -72 z"
         style="fill:#000000;fill-opacity:1;fill-rule:nonzero;stroke:none"
         id="path90" /><path
         d="m 3497,841.633 -96,36 v -72 z"
         style="fill:none;stroke:#000000;stroke-width:20;stroke-linecap:butt;stroke-linejoin:miter;stroke-miterlimit:10;stroke-dasharray:none;stroke-opacity:1"
         id="path92" /><g
         id="g94"
         transform="scale(10)"><text
           transform="matrix(1,0,0,-1,297,92.9992)"
           style="font-variant:normal;font-weight:normal;font-size:14px;font-family:HelveticaNeue;-inkscape-font-specification:HelveticaNeue;writing-mode:lr-tb;fill:#000000;fill-opacity:1;fill-rule:nonzero;stroke:none"
           id="text98"><tspan
             x="0 7 10.108 17.108 20.216"
             y="0"
             sodipodi:role="line"
             id="tspan96">visit</tspan></text></g><path
         d="M 4190,664.133 V 299.832 H 2150.04 v 213.746"
         style="fill:none;stroke:#000000;stroke-width:20;stroke-linecap:round;stroke-linejoin:miter;stroke-miterlimit:10;stroke-dasharray:none;stroke-opacity:1"
         id="path100" /><path
         d="m 2150.04,609.578 -36,-96 h 72 z"
         style="fill:#000000;fill-opacity:1;fill-rule:nonzero;stroke:none"
         id="path102" /><path
         d="m 2150.04,609.578 -36,-96 h 72.01 z"
         style="fill:none;stroke:#000000;stroke-width:20;stroke-linecap:butt;stroke-linejoin:miter;stroke-miterlimit:10;stroke-dasharray:none;stroke-opacity:1"
         id="path104" /><g
         id="g106"
         transform="scale(10)"><text
           transform="matrix(1,0,0,-1,284.288,9)"
           style="font-variant:normal;font-weight:normal;font-size:14px;font-family:HelveticaNeue;-inkscape-font-specification:HelveticaNeue;writing-mode:lr-tb;fill:#000000;fill-opacity:1;fill-rule:nonzero;stroke:none"
           id="text110"><tspan
             x="0 7 14.518 18.927999 22.82 27.23 34.23 42.532001"
             y="0"
             sodipodi:role="line"
             id="tspan108">set type</tspan></text></g></g></g></svg>
