<?xml version="1.0" encoding="UTF-8" standalone="no"?>
<svg
   xmlns:dc="http://purl.org/dc/elements/1.1/"
   xmlns:cc="http://creativecommons.org/ns#"
   xmlns:rdf="http://www.w3.org/1999/02/22-rdf-syntax-ns#"
   xmlns:svg="http://www.w3.org/2000/svg"
   xmlns="http://www.w3.org/2000/svg"
   xmlns:sodipodi="http://sodipodi.sourceforge.net/DTD/sodipodi-0.dtd"
   xmlns:inkscape="http://www.inkscape.org/namespaces/inkscape"
   version="1.1"
   id="svg2"
   xml:space="preserve"
   width="454.66666"
   height="284"
   viewBox="0 0 454.66666 284"
   sodipodi:docname="table.eps"><metadata
     id="metadata8"><rdf:RDF><cc:Work
         rdf:about=""><dc:format>image/svg+xml</dc:format><dc:type
           rdf:resource="http://purl.org/dc/dcmitype/StillImage" /></cc:Work></rdf:RDF></metadata><defs
     id="defs6" /><sodipodi:namedview
     pagecolor="#ffffff"
     bordercolor="#666666"
     borderopacity="1"
     objecttolerance="10"
     gridtolerance="10"
     guidetolerance="10"
     inkscape:pageopacity="0"
     inkscape:pageshadow="2"
     inkscape:window-width="640"
     inkscape:window-height="480"
     id="namedview4" /><g
     id="g10"
     inkscape:groupmode="layer"
     inkscape:label="ink_ext_XXXXXX"
     transform="matrix(1.3333333,0,0,-1.3333333,0,284)"><g
       id="g12"
       transform="scale(0.1)"><path
         d="M 0,0 H 3410 V 2130 H 0 Z"
         style="fill:#ffffff;fill-opacity:1;fill-rule:nonzero;stroke:none"
         id="path14" /><path
         d="M -24516.7,-16330 H 36936.6 V 23070 H -24516.7 Z"
         style="fill:#ffffff;fill-opacity:1;fill-rule:nonzero;stroke:none"
         id="path16" /><path
         d="m 2170,2047.49 h 1140 c 49.71,0 90,-40.29 90,-90 v -175 c 0,-49.7 -40.29,-90 -90,-90 H 2170 c -49.71,0 -90,40.3 -90,90 v 175 c 0,49.71 40.29,90 90,90 z"
         style="fill:#bebfff;fill-opacity:1;fill-rule:nonzero;stroke:none"
         id="path18" /><path
         d="m 2170,2047.49 h 1140 c 49.71,0 90,-40.29 90,-90 v -175 c 0,-49.7 -40.29,-90 -90,-90 H 2170 c -49.71,0 -90,40.3 -90,90 v 175 c 0,49.71 40.29,90 90,90 z"
         style="fill:none;stroke:#000000;stroke-width:10;stroke-linecap:round;stroke-linejoin:round;stroke-miterlimit:10;stroke-dasharray:none;stroke-opacity:1"
         id="path20" /><g
         id="g22"
         transform="scale(10)"><text
           transform="matrix(1,0,0,-1,234.265,182.999)"
           style="font-variant:normal;font-weight:normal;font-size:12px;font-family:Menlo;-inkscape-font-specification:Menlo-Regular;writing-mode:lr-tb;fill:#000000;fill-opacity:1;fill-rule:nonzero;stroke:none"
           id="text26"><tspan
             x="0 7.2246103 14.449221 21.673832 28.898441 36.123051 43.347664 50.572273 57.796883 65.021492 72.246101"
             y="0"
             sodipodi:role="line"
             id="tspan24">MainVisitor</tspan></text></g><path
         d="M 10,10 H 1680 V 2120 H 10 Z"
         style="fill:#ffffff;fill-opacity:1;fill-rule:nonzero;stroke:none"
         id="path28" /><path
         d="M 10,10 H 1680 V 2120 H 10 Z"
         style="fill:none;stroke:#000000;stroke-width:10;stroke-linecap:round;stroke-linejoin:round;stroke-miterlimit:10;stroke-dasharray:none;stroke-opacity:1"
         id="path30" /><g
         id="g32"
         transform="scale(10)"><text
           transform="matrix(1,0,0,-1,6,195)"
           style="font-variant:normal;font-weight:normal;font-size:13px;font-family:Menlo;-inkscape-font-specification:Menlo-Regular;writing-mode:lr-tb;fill:#000000;fill-opacity:1;fill-rule:nonzero;stroke:none"
           id="text36"><tspan
             x="0 7.8266606 15.653321 23.47998 31.306641 39.133301 46.959957"
             y="0"
             sodipodi:role="line"
             id="tspan34">Program</tspan></text></g><path
         d="m 281.332,1186.42 h 1220 v 263.918 h -1220 z"
         style="fill:#ffffff;fill-opacity:1;fill-rule:nonzero;stroke:none"
         id="path38" /><path
         d="m 281.332,1186.42 h 1220 v 263.918 h -1220 z"
         style="fill:none;stroke:#000000;stroke-width:10;stroke-linecap:round;stroke-linejoin:round;stroke-miterlimit:10;stroke-dasharray:none;stroke-opacity:1"
         id="path40" /><g
         id="g42"
         transform="scale(10)"><text
           transform="matrix(1,0,0,-1,77.3934,127.338)"
           style="font-variant:normal;font-weight:normal;font-size:13px;font-family:Menlo;-inkscape-font-specification:Menlo-Regular;writing-mode:lr-tb;fill:#000000;fill-opacity:1;fill-rule:nonzero;stroke:none"
           id="text46"><tspan
             x="0 7.8266592 15.653318"
             y="0"
             sodipodi:role="line"
             id="tspan44">Arr</tspan></text></g><path
         d="m 281.332,922.5 h 1220 v 263.922 h -1220 z"
         style="fill:#ffffff;fill-opacity:1;fill-rule:nonzero;stroke:none"
         id="path48" /><path
         d="m 281.332,922.5 h 1220 v 263.922 h -1220 z"
         style="fill:none;stroke:#000000;stroke-width:10;stroke-linecap:round;stroke-linejoin:round;stroke-miterlimit:10;stroke-dasharray:none;stroke-opacity:1"
         id="path50" /><path
         d="m 281.332,658.578 h 1220 V 922.5 h -1220 z"
         style="fill:#ffffff;fill-opacity:1;fill-rule:nonzero;stroke:none"
         id="path52" /><path
         d="m 281.332,658.582 h 1220 V 922.5 h -1220 z"
         style="fill:none;stroke:#000000;stroke-width:10;stroke-linecap:round;stroke-linejoin:round;stroke-miterlimit:10;stroke-dasharray:none;stroke-opacity:1"
         id="path54" /><path
         d="m 281.332,398.578 h 1220 V 662.5 h -1220 z"
         style="fill:#ffffff;fill-opacity:1;fill-rule:nonzero;stroke:none"
         id="path56" /><path
         d="m 281.332,398.582 h 1220 V 662.5 h -1220 z"
         style="fill:none;stroke:#000000;stroke-width:10;stroke-linecap:round;stroke-linejoin:round;stroke-miterlimit:10;stroke-dasharray:none;stroke-opacity:1"
         id="path58" /><path
         d="m 281.332,138.578 h 1220 V 402.5 h -1220 z"
         style="fill:#ffffff;fill-opacity:1;fill-rule:nonzero;stroke:none"
         id="path60" /><path
         d="m 281.332,138.582 h 1220 V 402.5 h -1220 z"
         style="fill:none;stroke:#000000;stroke-width:10;stroke-linecap:round;stroke-linejoin:round;stroke-miterlimit:10;stroke-dasharray:none;stroke-opacity:1"
         id="path62" /><g
         id="g64"
         transform="scale(10)"><text
           transform="matrix(1,0,0,-1,69.5668,152.642)"
           style="font-variant:normal;font-weight:normal;font-size:13px;font-family:Menlo;-inkscape-font-specification:Menlo-Regular;writing-mode:lr-tb;fill:#000000;fill-opacity:1;fill-rule:nonzero;stroke:none"
           id="text68"><tspan
             x="0 7.8266592 15.653318 23.479977 31.306637"
             y="0"
             sodipodi:role="line"
             id="tspan66">Vars:</tspan></text></g><path
         d="M 2161.12,1692.92 1163.36,1387.73"
         style="fill:none;stroke:#000000;stroke-width:20;stroke-linecap:round;stroke-linejoin:miter;stroke-miterlimit:10;stroke-dasharray:none;stroke-opacity:1"
         id="path70" /><path
         d="m 1071.56,1359.65 102.33,-6.34 -21.06,68.85 z"
         style="fill:#000000;fill-opacity:1;fill-rule:nonzero;stroke:none"
         id="path72" /><path
         d="m 1071.56,1359.65 102.33,-6.34 -21.06,68.85 z"
         style="fill:none;stroke:#000000;stroke-width:20;stroke-linecap:butt;stroke-linejoin:miter;stroke-miterlimit:10;stroke-dasharray:none;stroke-opacity:1"
         id="path74" /></g></g></svg>
