<?xml version="1.0" encoding="UTF-8" standalone="no"?>
<svg
   xmlns:dc="http://purl.org/dc/elements/1.1/"
   xmlns:cc="http://creativecommons.org/ns#"
   xmlns:rdf="http://www.w3.org/1999/02/22-rdf-syntax-ns#"
   xmlns:svg="http://www.w3.org/2000/svg"
   xmlns="http://www.w3.org/2000/svg"
   xmlns:sodipodi="http://sodipodi.sourceforge.net/DTD/sodipodi-0.dtd"
   xmlns:inkscape="http://www.inkscape.org/namespaces/inkscape"
   version="1.1"
   id="svg2"
   xml:space="preserve"
   width="506.66666"
   height="258.66666"
   viewBox="0 0 506.66666 258.66666"
   sodipodi:docname="visitor3.eps"><metadata
     id="metadata8"><rdf:RDF><cc:Work
         rdf:about=""><dc:format>image/svg+xml</dc:format><dc:type
           rdf:resource="http://purl.org/dc/dcmitype/StillImage" /></cc:Work></rdf:RDF></metadata><defs
     id="defs6" /><sodipodi:namedview
     pagecolor="#ffffff"
     bordercolor="#666666"
     borderopacity="1"
     objecttolerance="10"
     gridtolerance="10"
     guidetolerance="10"
     inkscape:pageopacity="0"
     inkscape:pageshadow="2"
     inkscape:window-width="640"
     inkscape:window-height="480"
     id="namedview4" /><g
     id="g10"
     inkscape:groupmode="layer"
     inkscape:label="ink_ext_XXXXXX"
     transform="matrix(1.3333333,0,0,-1.3333333,0,258.66667)"><g
       id="g12"
       transform="scale(0.1)"><path
         d="M 0,0 H 3800 V 1940 H 0 Z"
         style="fill:#ffffff;fill-opacity:1;fill-rule:nonzero;stroke:none"
         id="path14" /><path
         d="M -10595,-16700 H 43805 V 16920 H -10595 Z"
         style="fill:#ffffff;fill-opacity:1;fill-rule:nonzero;stroke:none"
         id="path16" /><path
         d="m 20,1895 h 1247.43 c 5.52,0 10,-4.48 10,-10 v -240.02 c 0,-5.52 -4.48,-10 -10,-10 H 20 c -5.5234,0 -10,4.48 -10,10 V 1885 c 0,5.52 4.4766,10 10,10 z"
         style="fill:#fff7de;fill-opacity:1;fill-rule:nonzero;stroke:none"
         id="path18" /><path
         d="m 20,1895 h 1247.43 c 5.52,0 10,-4.48 10,-10 v -240.02 c 0,-5.52 -4.48,-10 -10,-10 H 20 c -5.5234,0 -10,4.48 -10,10 V 1885 c 0,5.52 4.4766,10 10,10 z"
         style="fill:none;stroke:#000000;stroke-width:10;stroke-linecap:round;stroke-linejoin:round;stroke-miterlimit:10;stroke-dasharray:none;stroke-opacity:1"
         id="path20" /><g
         id="g22"
         transform="scale(10)"><text
           transform="matrix(1,0,0,-1,49.9691,172.5)"
           style="font-variant:normal;font-weight:normal;font-size:12px;font-family:Monaco;-inkscape-font-specification:Monaco;writing-mode:lr-tb;fill:#000000;fill-opacity:1;fill-rule:nonzero;stroke:none"
           id="text26"><tspan
             x="0 7.2011719 14.402344 21.603516"
             y="0"
             sodipodi:role="line"
             id="tspan24">Node</tspan></text><text
           transform="matrix(1,0,0,-1,98,8)"
           style="font-variant:normal;font-weight:normal;font-size:13px;font-family:Menlo;-inkscape-font-specification:Menlo-Regular;writing-mode:lr-tb;fill:#000000;fill-opacity:1;fill-rule:nonzero;stroke:none"
           id="text30"><tspan
             x="0 7.8266592 15.653318 23.479977 31.306637 39.133297 46.959953 54.786613 62.613274 70.439934 78.266594 86.093254 93.919907 101.74657 109.57323 117.39989 125.22655 133.05321 140.87987 148.70653 156.53319 164.35985 172.18651 180.01317 187.83981 195.66647 203.49313 211.31979 219.14645"
             y="0"
             sodipodi:role="line"
             id="tspan28">node.accept_children(visitor)</tspan></text></g><path
         d="m 2530,1930 h 1247.43 c 5.52,0 10,-4.48 10,-10 v -240.02 c 0,-5.52 -4.48,-10 -10,-10 H 2530 c -5.52,0 -10,4.48 -10,10 V 1920 c 0,5.52 4.48,10 10,10 z"
         style="fill:#fff7de;fill-opacity:1;fill-rule:nonzero;stroke:none"
         id="path32" /><path
         d="m 2530,1930 h 1247.43 c 5.52,0 10,-4.48 10,-10 v -240.02 c 0,-5.52 -4.48,-10 -10,-10 H 2530 c -5.52,0 -10,4.48 -10,10 V 1920 c 0,5.52 4.48,10 10,10 z"
         style="fill:none;stroke:#000000;stroke-width:10;stroke-linecap:round;stroke-linejoin:round;stroke-miterlimit:10;stroke-dasharray:none;stroke-opacity:1"
         id="path34" /><g
         id="g36"
         transform="scale(10)"><text
           transform="matrix(1,0,0,-1,290.167,176)"
           style="font-variant:normal;font-weight:normal;font-size:12px;font-family:Monaco;-inkscape-font-specification:Monaco;writing-mode:lr-tb;fill:#000000;fill-opacity:1;fill-rule:nonzero;stroke:none"
           id="text40"><tspan
             x="0 7.2011719 14.402344 21.603516 28.804688 36.005859 43.207031"
             y="0"
             sodipodi:role="line"
             id="tspan38">Visitor</tspan></text></g><path
         d="m 1025,1335 h 1247.43 c 5.52,0 10,-4.48 10,-10 v -240.02 c 0,-5.52 -4.48,-10 -10,-10 H 1025 c -5.52,0 -10,4.48 -10,10 V 1325 c 0,5.52 4.48,10 10,10 z"
         style="fill:#fff7de;fill-opacity:1;fill-rule:nonzero;stroke:none"
         id="path42" /><path
         d="m 1025,1335 h 1247.43 c 5.52,0 10,-4.48 10,-10 v -240.02 c 0,-5.52 -4.48,-10 -10,-10 H 1025 c -5.52,0 -10,4.48 -10,10 V 1325 c 0,5.52 4.48,10 10,10 z"
         style="fill:none;stroke:#000000;stroke-width:10;stroke-linecap:round;stroke-linejoin:round;stroke-miterlimit:10;stroke-dasharray:none;stroke-opacity:1"
         id="path44" /><g
         id="g46"
         transform="scale(10)"><text
           transform="matrix(1,0,0,-1,150.469,116.5)"
           style="font-variant:normal;font-weight:normal;font-size:12px;font-family:Monaco;-inkscape-font-specification:Monaco;writing-mode:lr-tb;fill:#000000;fill-opacity:1;fill-rule:nonzero;stroke:none"
           id="text50"><tspan
             x="0 7.2011719 14.402344 21.603516"
             y="0"
             sodipodi:role="line"
             id="tspan48">Node</tspan></text></g><path
         d="m 1025,974.98 h 1247.43 c 5.52,0 10,-4.476 10,-10 V 724.961 c 0,-5.523 -4.48,-10 -10,-10 H 1025 c -5.52,0 -10,4.477 -10,10 V 964.98 c 0,5.524 4.48,10 10,10 z"
         style="fill:#fff7de;fill-opacity:1;fill-rule:nonzero;stroke:none"
         id="path52" /><path
         d="m 1025,974.98 h 1247.43 c 5.52,0 10,-4.476 10,-10 V 724.961 c 0,-5.523 -4.48,-10 -10,-10 H 1025 c -5.52,0 -10,4.477 -10,10 V 964.98 c 0,5.524 4.48,10 10,10 z"
         style="fill:none;stroke:#000000;stroke-width:10;stroke-linecap:round;stroke-linejoin:round;stroke-miterlimit:10;stroke-dasharray:none;stroke-opacity:1"
         id="path54" /><g
         id="g56"
         transform="scale(10)"><text
           transform="matrix(1,0,0,-1,150.469,80.498)"
           style="font-variant:normal;font-weight:normal;font-size:12px;font-family:Monaco;-inkscape-font-specification:Monaco;writing-mode:lr-tb;fill:#000000;fill-opacity:1;fill-rule:nonzero;stroke:none"
           id="text60"><tspan
             x="0 7.2011719 14.402344 21.603516"
             y="0"
             sodipodi:role="line"
             id="tspan58">Node</tspan></text></g><path
         d="m 1025,614.98 h 1247.43 c 5.52,0 10,-4.476 10,-10 V 364.961 c 0,-5.523 -4.48,-10 -10,-10 H 1025 c -5.52,0 -10,4.477 -10,10 V 604.98 c 0,5.524 4.48,10 10,10 z"
         style="fill:#fff7de;fill-opacity:1;fill-rule:nonzero;stroke:none"
         id="path62" /><path
         d="m 1025,614.98 h 1247.43 c 5.52,0 10,-4.476 10,-10 V 364.961 c 0,-5.523 -4.48,-10 -10,-10 H 1025 c -5.52,0 -10,4.477 -10,10 V 604.98 c 0,5.524 4.48,10 10,10 z"
         style="fill:none;stroke:#000000;stroke-width:10;stroke-linecap:round;stroke-linejoin:round;stroke-miterlimit:10;stroke-dasharray:none;stroke-opacity:1"
         id="path64" /><g
         id="g66"
         transform="scale(10)"><text
           transform="matrix(1,0,0,-1,150.469,44.498)"
           style="font-variant:normal;font-weight:normal;font-size:12px;font-family:Monaco;-inkscape-font-specification:Monaco;writing-mode:lr-tb;fill:#000000;fill-opacity:1;fill-rule:nonzero;stroke:none"
           id="text70"><tspan
             x="0 7.2011719 14.402344 21.603516"
             y="0"
             sodipodi:role="line"
             id="tspan68">Node</tspan></text></g><path
         d="m 643.715,1634.98 v -110 L 643.156,1402.7 V 1204.99 H 886"
         style="fill:none;stroke:#000000;stroke-width:20;stroke-linecap:round;stroke-linejoin:miter;stroke-miterlimit:10;stroke-dasharray:none;stroke-opacity:1"
         id="path72" /><path
         d="m 982,1204.99 -96,36 v -72 z"
         style="fill:#000000;fill-opacity:1;fill-rule:nonzero;stroke:none"
         id="path74" /><path
         d="m 982,1204.99 -96,36 v -72 z"
         style="fill:none;stroke:#000000;stroke-width:20;stroke-linecap:butt;stroke-linejoin:miter;stroke-miterlimit:10;stroke-dasharray:none;stroke-opacity:1"
         id="path76" /><path
         d="M 643.715,1524.98 V 840.961 h 8.508 L 826,844.973 h 60"
         style="fill:none;stroke:#000000;stroke-width:20;stroke-linecap:round;stroke-linejoin:miter;stroke-miterlimit:10;stroke-dasharray:none;stroke-opacity:1"
         id="path78" /><path
         d="m 982,844.973 -96,36 v -72 z"
         style="fill:#000000;fill-opacity:1;fill-rule:nonzero;stroke:none"
         id="path80" /><path
         d="m 982,844.973 -96,36 v -72 z"
         style="fill:none;stroke:#000000;stroke-width:20;stroke-linecap:butt;stroke-linejoin:miter;stroke-miterlimit:10;stroke-dasharray:none;stroke-opacity:1"
         id="path82" /><path
         d="m 643.715,1634.98 v -110 L 643.363,531.055 V 484.973 H 886"
         style="fill:none;stroke:#000000;stroke-width:20;stroke-linecap:round;stroke-linejoin:miter;stroke-miterlimit:10;stroke-dasharray:none;stroke-opacity:1"
         id="path84" /><path
         d="m 982,484.973 -96,36 v -72 z"
         style="fill:#000000;fill-opacity:1;fill-rule:nonzero;stroke:none"
         id="path86" /><path
         d="m 982,484.973 -96,36 v -72 z"
         style="fill:none;stroke:#000000;stroke-width:20;stroke-linecap:butt;stroke-linejoin:miter;stroke-miterlimit:10;stroke-dasharray:none;stroke-opacity:1"
         id="path88" /><path
         d="m 2282.43,1204.99 h 870.43 v 82.9 l 0.85,193.09 v 60"
         style="fill:none;stroke:#000000;stroke-width:20;stroke-linecap:round;stroke-linejoin:miter;stroke-miterlimit:10;stroke-dasharray:none;stroke-opacity:1"
         id="path90" /><path
         d="m 3153.71,1636.98 -36,-96 h 72 z"
         style="fill:#000000;fill-opacity:1;fill-rule:nonzero;stroke:none"
         id="path92" /><path
         d="m 3153.71,1636.98 -36,-96 h 72 z"
         style="fill:none;stroke:#000000;stroke-width:20;stroke-linecap:butt;stroke-linejoin:miter;stroke-miterlimit:10;stroke-dasharray:none;stroke-opacity:1"
         id="path94" /><path
         d="m 2282.43,844.973 h 875.09 v 23.152 l -3.81,612.855 v 60"
         style="fill:none;stroke:#000000;stroke-width:20;stroke-linecap:round;stroke-linejoin:miter;stroke-miterlimit:10;stroke-dasharray:none;stroke-opacity:1"
         id="path96" /><path
         d="m 3153.71,1636.98 -36,-96 h 72 z"
         style="fill:#000000;fill-opacity:1;fill-rule:nonzero;stroke:none"
         id="path98" /><path
         d="m 3153.71,1636.98 -36,-96 h 72 z"
         style="fill:none;stroke:#000000;stroke-width:20;stroke-linecap:butt;stroke-linejoin:miter;stroke-miterlimit:10;stroke-dasharray:none;stroke-opacity:1"
         id="path100" /><path
         d="m 2282.43,484.973 h 875.87 v 299.922 l -4.59,696.085 v 60"
         style="fill:none;stroke:#000000;stroke-width:20;stroke-linecap:round;stroke-linejoin:miter;stroke-miterlimit:10;stroke-dasharray:none;stroke-opacity:1"
         id="path102" /><path
         d="m 3153.71,1636.98 -36,-96 h 72 z"
         style="fill:#000000;fill-opacity:1;fill-rule:nonzero;stroke:none"
         id="path104" /><path
         d="m 3153.71,1636.98 -36,-96 h 72 z"
         style="fill:none;stroke:#000000;stroke-width:20;stroke-linecap:butt;stroke-linejoin:miter;stroke-miterlimit:10;stroke-dasharray:none;stroke-opacity:1"
         id="path106" /></g></g></svg>
