<?xml version="1.0" encoding="UTF-8" standalone="no"?>
<svg
   xmlns:dc="http://purl.org/dc/elements/1.1/"
   xmlns:cc="http://creativecommons.org/ns#"
   xmlns:rdf="http://www.w3.org/1999/02/22-rdf-syntax-ns#"
   xmlns:svg="http://www.w3.org/2000/svg"
   xmlns="http://www.w3.org/2000/svg"
   xmlns:sodipodi="http://sodipodi.sourceforge.net/DTD/sodipodi-0.dtd"
   xmlns:inkscape="http://www.inkscape.org/namespaces/inkscape"
   version="1.1"
   id="svg2"
   xml:space="preserve"
   width="600"
   height="225.33333"
   viewBox="0 0 600 225.33333"
   sodipodi:docname="visit-assign1.eps"><metadata
     id="metadata8"><rdf:RDF><cc:Work
         rdf:about=""><dc:format>image/svg+xml</dc:format><dc:type
           rdf:resource="http://purl.org/dc/dcmitype/StillImage" /></cc:Work></rdf:RDF></metadata><defs
     id="defs6" /><sodipodi:namedview
     pagecolor="#ffffff"
     bordercolor="#666666"
     borderopacity="1"
     objecttolerance="10"
     gridtolerance="10"
     guidetolerance="10"
     inkscape:pageopacity="0"
     inkscape:pageshadow="2"
     inkscape:window-width="640"
     inkscape:window-height="480"
     id="namedview4" /><g
     id="g10"
     inkscape:groupmode="layer"
     inkscape:label="ink_ext_XXXXXX"
     transform="matrix(1.3333333,0,0,-1.3333333,0,225.33333)"><g
       id="g12"
       transform="scale(0.1)"><path
         d="M 0,0 H 4500 V 1690 H 0 Z"
         style="fill:#ffffff;fill-opacity:1;fill-rule:nonzero;stroke:none"
         id="path14" /><path
         d="M -26336.7,-19580 H 35116.6 V 19820 H -26336.7 Z"
         style="fill:#ffffff;fill-opacity:1;fill-rule:nonzero;stroke:none"
         id="path16" /><path
         d="m 2647.54,1570 h 1247.43 c 5.52,0 10,-4.48 10,-10 v -240.02 c 0,-5.52 -4.48,-10 -10,-10 H 2647.54 c -5.52,0 -10,4.48 -10,10 V 1560 c 0,5.52 4.48,10 10,10 z"
         style="fill:#fff7de;fill-opacity:1;fill-rule:nonzero;stroke:none"
         id="path18" /><path
         d="m 2647.54,1570 h 1247.43 c 5.52,0 10,-4.48 10,-10 v -240.02 c 0,-5.52 -4.48,-10 -10,-10 H 2647.54 c -5.52,0 -10,4.48 -10,10 V 1560 c 0,5.52 4.48,10 10,10 z"
         style="fill:none;stroke:#000000;stroke-width:10;stroke-linecap:round;stroke-linejoin:round;stroke-miterlimit:10;stroke-dasharray:none;stroke-opacity:1"
         id="path20" /><g
         id="g22"
         transform="scale(10)"><text
           transform="matrix(1,0,0,-1,305.522,140)"
           style="font-variant:normal;font-weight:normal;font-size:12px;font-family:Monaco;-inkscape-font-specification:Monaco;writing-mode:lr-tb;fill:#000000;fill-opacity:1;fill-rule:nonzero;stroke:none"
           id="text26"><tspan
             x="0 7.2011719 14.402344 21.603516 28.804688 36.005859"
             y="0"
             sodipodi:role="line"
             id="tspan24">Assign</tspan></text></g><path
         d="M 2922.5,1229.99 2638.48,529.535"
         style="fill:none;stroke:#000000;stroke-width:20;stroke-linecap:round;stroke-linejoin:round;stroke-miterlimit:10;stroke-dasharray:none;stroke-opacity:1"
         id="path28" /><path
         d="m 2602.4,440.57 69.44,75.438 -66.73,27.055 z"
         style="fill:#000000;fill-opacity:1;fill-rule:nonzero;stroke:none"
         id="path30" /><path
         d="m 2602.4,440.57 69.44,75.438 -66.73,27.055 z"
         style="fill:none;stroke:#000000;stroke-width:20;stroke-linecap:butt;stroke-linejoin:miter;stroke-miterlimit:10;stroke-dasharray:none;stroke-opacity:1"
         id="path32" /><path
         d="M 3557.54,1229.99 3841.23,536.074"
         style="fill:none;stroke:#000000;stroke-width:20;stroke-linecap:round;stroke-linejoin:round;stroke-miterlimit:10;stroke-dasharray:none;stroke-opacity:1"
         id="path34" /><path
         d="m 3877.55,447.211 -3,102.484 -66.64,-27.246 z"
         style="fill:#000000;fill-opacity:1;fill-rule:nonzero;stroke:none"
         id="path36" /><path
         d="m 3877.56,447.211 -3.01,102.484 -66.64,-27.246 z"
         style="fill:none;stroke:#000000;stroke-width:20;stroke-linecap:butt;stroke-linejoin:miter;stroke-miterlimit:10;stroke-dasharray:none;stroke-opacity:1"
         id="path38" /><g
         id="g40"
         transform="scale(10)"><text
           transform="matrix(1,0,0,-1,218.754,84.3902)"
           style="font-variant:normal;font-weight:normal;font-size:14px;font-family:HelveticaNeue;-inkscape-font-specification:HelveticaNeue;writing-mode:lr-tb;fill:#000000;fill-opacity:1;fill-rule:nonzero;stroke:none"
           id="text44"><tspan
             x="0 6.4819999 14 18.269983 26.305983 33.823982 170.76555 178.54955 186.06755 189.17554 196.95955"
             y="0"
             sodipodi:role="line"
             id="tspan42">TargetValue</tspan></text></g><path
         d="m 1755,409.992 h 1247.43 c 5.52,0 10,-4.48 10,-10 V 21.6211 c 0,-5.5234 -4.48,-10 -10,-10 H 1755 c -5.52,0 -10,4.4766 -10,10 V 399.992 c 0,5.52 4.48,10 10,10 z"
         style="fill:#fff7de;fill-opacity:1;fill-rule:nonzero;stroke:none"
         id="path46" /><path
         d="m 1755,409.992 h 1247.43 c 5.52,0 10,-4.48 10,-10 V 21.6211 c 0,-5.5234 -4.48,-10 -10,-10 H 1755 c -5.52,0 -10,4.4766 -10,10 V 399.992 c 0,5.52 4.48,10 10,10 z"
         style="fill:none;stroke:#000000;stroke-width:10;stroke-linecap:round;stroke-linejoin:round;stroke-miterlimit:10;stroke-dasharray:none;stroke-opacity:1"
         id="path48" /><g
         id="g50"
         transform="scale(10)"><text
           transform="matrix(1,0,0,-1,227.07,23.9992)"
           style="font-variant:normal;font-weight:normal;font-size:12px;font-family:Monaco;-inkscape-font-specification:Monaco;writing-mode:lr-tb;fill:#000000;fill-opacity:1;fill-rule:nonzero;stroke:none"
           id="text54"><tspan
             x="0 7.2011719 14.402344"
             y="0"
             sodipodi:role="line"
             id="tspan52">Var</tspan></text><text
           transform="matrix(1,0,0,-1,213.868,9.9972)"
           style="font-variant:normal;font-weight:normal;font-size:10px;font-family:Monaco;-inkscape-font-specification:Monaco;writing-mode:lr-tb;fill:#000000;fill-opacity:1;fill-rule:nonzero;stroke:none"
           id="text58"><tspan
             x="0 6.0009766 12.001953 18.00293 24.003906 30.004883 36.005859 42.006836"
             y="0"
             sodipodi:role="line"
             id="tspan56">name=arr</tspan></text></g><path
         d="M 3236.27,409.992 H 4483.7 c 5.52,0 10,-4.48 10,-10 V 21.6211 c 0,-5.5234 -4.48,-10 -10,-10 H 3236.27 c -5.52,0 -10,4.4766 -10,10 V 399.992 c 0,5.52 4.48,10 10,10 z"
         style="fill:#fff7de;fill-opacity:1;fill-rule:nonzero;stroke:none"
         id="path60" /><path
         d="M 3236.27,409.992 H 4483.7 c 5.52,0 10,-4.48 10,-10 V 21.6211 c 0,-5.5234 -4.48,-10 -10,-10 H 3236.27 c -5.52,0 -10,4.4766 -10,10 V 399.992 c 0,5.52 4.48,10 10,10 z"
         style="fill:none;stroke:#000000;stroke-width:10;stroke-linecap:round;stroke-linejoin:round;stroke-miterlimit:10;stroke-dasharray:none;stroke-opacity:1"
         id="path62" /><g
         id="g64"
         transform="scale(10)"><text
           transform="matrix(1,0,0,-1,342.791,23.9992)"
           style="font-variant:normal;font-weight:normal;font-size:12px;font-family:Monaco;-inkscape-font-specification:Monaco;writing-mode:lr-tb;fill:#000000;fill-opacity:1;fill-rule:nonzero;stroke:none"
           id="text68"><tspan
             x="0 7.2011719 14.402344 21.603516 28.804688 36.005859 43.207031 50.408203 57.609375 64.810547 72.011719 79.212891"
             y="0"
             sodipodi:role="line"
             id="tspan66">ArrayLiteral</tspan></text><text
           transform="matrix(1,0,0,-1,340.991,9.9972)"
           style="font-variant:normal;font-weight:normal;font-size:10px;font-family:Monaco;-inkscape-font-specification:Monaco;writing-mode:lr-tb;fill:#000000;fill-opacity:1;fill-rule:nonzero;stroke:none"
           id="text72"><tspan
             x="0 6.0009766 12.001953 18.00293 24.003906 30.004883 36.005859 42.006836 48.007812 54.008789 60.009766 66.010742 72.011719 78.012695 84.013672"
             y="0"
             sodipodi:role="line"
             id="tspan70">element_count=2</tspan></text></g><path
         d="m 100,1617.49 h 1140 c 49.71,0 90,-40.29 90,-90 v -175 c 0,-49.7 -40.29,-90 -90,-90 H 100 c -49.707,0 -90,40.3 -90,90 v 175 c 0,49.71 40.293,90 90,90 z"
         style="fill:#bebfff;fill-opacity:1;fill-rule:nonzero;stroke:none"
         id="path74" /><path
         d="m 100,1617.49 h 1140 c 49.71,0 90,-40.29 90,-90 v -175 c 0,-49.7 -40.29,-90 -90,-90 H 100 c -49.707,0 -90,40.3 -90,90 v 175 c 0,49.71 40.293,90 90,90 z"
         style="fill:none;stroke:#000000;stroke-width:10;stroke-linecap:round;stroke-linejoin:round;stroke-miterlimit:10;stroke-dasharray:none;stroke-opacity:1"
         id="path76" /><g
         id="g78"
         transform="scale(10)"><text
           transform="matrix(1,0,0,-1,27.2648,139.999)"
           style="font-variant:normal;font-weight:normal;font-size:12px;font-family:Menlo;-inkscape-font-specification:Menlo-Regular;writing-mode:lr-tb;fill:#000000;fill-opacity:1;fill-rule:nonzero;stroke:none"
           id="text82"><tspan
             x="0 7.2246103 14.449221 21.673832 28.898441 36.123051 43.347664 50.572266 57.796875 65.021484 72.246094"
             y="0"
             sodipodi:role="line"
             id="tspan80">MainVisitor</tspan></text></g><path
         d="M 2637.54,1439.99 H 1459"
         style="fill:none;stroke:#000000;stroke-width:20;stroke-linecap:round;stroke-linejoin:miter;stroke-miterlimit:10;stroke-dasharray:none;stroke-opacity:1"
         id="path84" /><path
         d="m 1363,1439.99 96,-36 v 72 z"
         style="fill:#000000;fill-opacity:1;fill-rule:nonzero;stroke:none"
         id="path86" /><path
         d="m 1363,1439.99 96,-36 v 72 z"
         style="fill:none;stroke:#000000;stroke-width:20;stroke-linecap:butt;stroke-linejoin:miter;stroke-miterlimit:10;stroke-dasharray:none;stroke-opacity:1"
         id="path88" /><g
         id="g90"
         transform="scale(10)"><text
           transform="matrix(1,0,0,-1,191.497,151)"
           style="font-variant:normal;font-weight:normal;font-size:14px;font-family:HelveticaNeue;-inkscape-font-specification:HelveticaNeue;writing-mode:lr-tb;fill:#000000;fill-opacity:1;fill-rule:nonzero;stroke:none"
           id="text94"><tspan
             x="0 7 10.108 17.108 20.216"
             y="0"
             sodipodi:role="line"
             id="tspan92">visit</tspan></text></g></g></g></svg>
