<?xml version="1.0" encoding="UTF-8" standalone="no"?>
<svg
   xmlns:dc="http://purl.org/dc/elements/1.1/"
   xmlns:cc="http://creativecommons.org/ns#"
   xmlns:rdf="http://www.w3.org/1999/02/22-rdf-syntax-ns#"
   xmlns:svg="http://www.w3.org/2000/svg"
   xmlns="http://www.w3.org/2000/svg"
   xmlns:sodipodi="http://sodipodi.sourceforge.net/DTD/sodipodi-0.dtd"
   xmlns:inkscape="http://www.inkscape.org/namespaces/inkscape"
   version="1.1"
   id="svg2"
   xml:space="preserve"
   width="506.66666"
   height="120"
   viewBox="0 0 506.66666 120"
   sodipodi:docname="visitor1.eps"><metadata
     id="metadata8"><rdf:RDF><cc:Work
         rdf:about=""><dc:format>image/svg+xml</dc:format><dc:type
           rdf:resource="http://purl.org/dc/dcmitype/StillImage" /></cc:Work></rdf:RDF></metadata><defs
     id="defs6" /><sodipodi:namedview
     pagecolor="#ffffff"
     bordercolor="#666666"
     borderopacity="1"
     objecttolerance="10"
     gridtolerance="10"
     guidetolerance="10"
     inkscape:pageopacity="0"
     inkscape:pageshadow="2"
     inkscape:window-width="640"
     inkscape:window-height="480"
     id="namedview4" /><g
     id="g10"
     inkscape:groupmode="layer"
     inkscape:label="ink_ext_XXXXXX"
     transform="matrix(1.3333333,0,0,-1.3333333,0,120)"><g
       id="g12"
       transform="scale(0.1)"><path
         d="M 0,0 H 3800 V 900 H 0 Z"
         style="fill:#ffffff;fill-opacity:1;fill-rule:nonzero;stroke:none"
         id="path14" /><path
         d="M -21180,-30120 H 54400 V 20980 H -21180 Z"
         style="fill:#ffffff;fill-opacity:1;fill-rule:nonzero;stroke:none"
         id="path16" /><path
         d="m 20,895 h 1247.43 c 5.52,0 10,-4.477 10,-10 V 644.98 c 0,-5.523 -4.48,-10 -10,-10 H 20 c -5.5234,0 -10,4.477 -10,10 V 885 c 0,5.523 4.4766,10 10,10 z"
         style="fill:#fff7de;fill-opacity:1;fill-rule:nonzero;stroke:none"
         id="path18" /><path
         d="m 20,895 h 1247.43 c 5.52,0 10,-4.477 10,-10 V 644.98 c 0,-5.523 -4.48,-10 -10,-10 H 20 c -5.5234,0 -10,4.477 -10,10 V 885 c 0,5.523 4.4766,10 10,10 z"
         style="fill:none;stroke:#000000;stroke-width:10;stroke-linecap:round;stroke-linejoin:round;stroke-miterlimit:10;stroke-dasharray:none;stroke-opacity:1"
         id="path20" /><g
         id="g22"
         transform="scale(10)"><text
           transform="matrix(1,0,0,-1,49.9691,72.5)"
           style="font-variant:normal;font-weight:normal;font-size:12px;font-family:Monaco;-inkscape-font-specification:Monaco;writing-mode:lr-tb;fill:#000000;fill-opacity:1;fill-rule:nonzero;stroke:none"
           id="text26"><tspan
             x="0 7.2011719 14.402344 21.603516"
             y="0"
             sodipodi:role="line"
             id="tspan24">Node</tspan></text><text
           transform="matrix(1,0,0,-1,111.6046,8.5)"
           style="font-variant:normal;font-weight:normal;font-size:13px;font-family:Menlo;-inkscape-font-specification:Menlo-Regular;writing-mode:lr-tb;fill:#000000;fill-opacity:1;fill-rule:nonzero;stroke:none"
           id="text30"><tspan
             x="0 7.8266592 15.653318 23.479977 31.306637 39.133297 46.959953 54.786613 62.613274 70.439934 78.266594 86.093254 93.919907 101.74657 109.57323 117.39989 125.22655 133.05321 140.87987 148.70653"
             y="0"
             sodipodi:role="line"
             id="tspan28">node.accept(visitor)</tspan></text></g><path
         d="m 2530,895 h 1247.43 c 5.52,0 10,-4.477 10,-10 V 644.98 c 0,-5.523 -4.48,-10 -10,-10 H 2530 c -5.52,0 -10,4.477 -10,10 V 885 c 0,5.523 4.48,10 10,10 z"
         style="fill:#fff7de;fill-opacity:1;fill-rule:nonzero;stroke:none"
         id="path32" /><path
         d="m 2530,895 h 1247.43 c 5.52,0 10,-4.477 10,-10 V 644.98 c 0,-5.523 -4.48,-10 -10,-10 H 2530 c -5.52,0 -10,4.477 -10,10 V 885 c 0,5.523 4.48,10 10,10 z"
         style="fill:none;stroke:#000000;stroke-width:10;stroke-linecap:round;stroke-linejoin:round;stroke-miterlimit:10;stroke-dasharray:none;stroke-opacity:1"
         id="path34" /><g
         id="g36"
         transform="scale(10)"><text
           transform="matrix(1,0,0,-1,290.167,72.5)"
           style="font-variant:normal;font-weight:normal;font-size:12px;font-family:Monaco;-inkscape-font-specification:Monaco;writing-mode:lr-tb;fill:#000000;fill-opacity:1;fill-rule:nonzero;stroke:none"
           id="text40"><tspan
             x="0 7.2011719 14.402344 21.603516 28.804688 36.005859 43.207031"
             y="0"
             sodipodi:role="line"
             id="tspan38">Visitor</tspan></text></g><path
         d="M 2520,764.992 H 1406.43"
         style="fill:none;stroke:#000000;stroke-width:20;stroke-linecap:round;stroke-linejoin:round;stroke-miterlimit:10;stroke-dasharray:none;stroke-opacity:1"
         id="path42" /><path
         d="m 1310.43,764.992 96,-36 v 72 z"
         style="fill:#000000;fill-opacity:1;fill-rule:nonzero;stroke:none"
         id="path44" /><path
         d="m 1310.43,764.992 96,-36 v 72 z"
         style="fill:none;stroke:#000000;stroke-width:20;stroke-linecap:butt;stroke-linejoin:miter;stroke-miterlimit:10;stroke-dasharray:none;stroke-opacity:1"
         id="path46" /></g></g></svg>
