<?xml version="1.0" encoding="UTF-8" standalone="no"?>
<svg
   xmlns:dc="http://purl.org/dc/elements/1.1/"
   xmlns:cc="http://creativecommons.org/ns#"
   xmlns:rdf="http://www.w3.org/1999/02/22-rdf-syntax-ns#"
   xmlns:svg="http://www.w3.org/2000/svg"
   xmlns="http://www.w3.org/2000/svg"
   xmlns:sodipodi="http://sodipodi.sourceforge.net/DTD/sodipodi-0.dtd"
   xmlns:inkscape="http://www.inkscape.org/namespaces/inkscape"
   version="1.1"
   id="svg2"
   xml:space="preserve"
   width="464"
   height="61.333332"
   viewBox="0 0 464 61.333332"
   sodipodi:docname="visit-number-literal.eps"><metadata
     id="metadata8"><rdf:RDF><cc:Work
         rdf:about=""><dc:format>image/svg+xml</dc:format><dc:type
           rdf:resource="http://purl.org/dc/dcmitype/StillImage" /></cc:Work></rdf:RDF></metadata><defs
     id="defs6" /><sodipodi:namedview
     pagecolor="#ffffff"
     bordercolor="#666666"
     borderopacity="1"
     objecttolerance="10"
     gridtolerance="10"
     guidetolerance="10"
     inkscape:pageopacity="0"
     inkscape:pageshadow="2"
     inkscape:window-width="640"
     inkscape:window-height="480"
     id="namedview4" /><g
     id="g10"
     inkscape:groupmode="layer"
     inkscape:label="ink_ext_XXXXXX"
     transform="matrix(1.3333333,0,0,-1.3333333,0,61.333333)"><g
       id="g12"
       transform="scale(0.1)"><path
         d="M 0,0 H 3480 V 460 H 0 Z"
         style="fill:#ffffff;fill-opacity:1;fill-rule:nonzero;stroke:none"
         id="path14" /><path
         d="M -25376.7,-24350 H 36076.6 V 15050 H -25376.7 Z"
         style="fill:#ffffff;fill-opacity:1;fill-rule:nonzero;stroke:none"
         id="path16" /><path
         d="M 97.4258,390 H 1237.43 c 49.7,0 90,-40.293 90,-90 V 125 c 0,-49.707 -40.3,-90 -90,-90 H 97.4258 C 47.7227,35 7.42578,75.293 7.42578,125 v 175 c 0,49.707 40.29692,90 90.00002,90 z"
         style="fill:#bebfff;fill-opacity:1;fill-rule:nonzero;stroke:none"
         id="path18" /><path
         d="M 97.4258,390 H 1237.43 c 49.7,0 90,-40.293 90,-90 V 125 c 0,-49.707 -40.3,-90 -90,-90 H 97.4258 C 47.7227,35 7.42578,75.293 7.42578,125 v 175 c 0,49.707 40.29692,90 90.00002,90 z"
         style="fill:none;stroke:#000000;stroke-width:10;stroke-linecap:round;stroke-linejoin:round;stroke-miterlimit:10;stroke-dasharray:none;stroke-opacity:1"
         id="path20" /><g
         id="g22"
         transform="scale(10)"><text
           transform="matrix(1,0,0,-1,27.0074,17.25)"
           style="font-variant:normal;font-weight:normal;font-size:12px;font-family:Menlo;-inkscape-font-specification:Menlo-Regular;writing-mode:lr-tb;fill:#000000;fill-opacity:1;fill-rule:nonzero;stroke:none"
           id="text26"><tspan
             x="0 7.2246103 14.449221 21.673832 28.898441 36.123051 43.347664 50.572266 57.796875 65.021484 72.246094"
             y="0"
             sodipodi:role="line"
             id="tspan24">MainVisitor</tspan></text></g><path
         d="m 2211.9,411.684 h 1247.43 c 5.52,0 10,-4.477 10,-10 V 23.3164 c 0,-5.5234 -4.48,-10 -10,-10 H 2211.9 c -5.52,0 -10,4.4766 -10,10 V 401.684 c 0,5.523 4.48,10 10,10 z"
         style="fill:#fff7de;fill-opacity:1;fill-rule:nonzero;stroke:none"
         id="path28" /><path
         d="m 2211.9,411.684 h 1247.43 c 5.52,0 10,-4.477 10,-10 V 23.3164 c 0,-5.5234 -4.48,-10 -10,-10 H 2211.9 c -5.52,0 -10,4.4766 -10,10 V 401.684 c 0,5.523 4.48,10 10,10 z"
         style="fill:none;stroke:#000000;stroke-width:10;stroke-linecap:round;stroke-linejoin:round;stroke-miterlimit:10;stroke-dasharray:none;stroke-opacity:1"
         id="path30" /><g
         id="g32"
         transform="scale(10)"><text
           transform="matrix(1,0,0,-1,236.754,24.1684)"
           style="font-variant:normal;font-weight:normal;font-size:12px;font-family:Monaco;-inkscape-font-specification:Monaco;writing-mode:lr-tb;fill:#000000;fill-opacity:1;fill-rule:nonzero;stroke:none"
           id="text36"><tspan
             x="0 7.2011719 14.402344 21.603516 28.804688 36.005859 43.207031 50.408203 57.609375 64.810547 72.011719 79.212891 86.414062"
             y="0"
             sodipodi:role="line"
             id="tspan34">NumberLiteral</tspan></text><text
           transform="matrix(1,0,0,-1,250.5563,10.1664)"
           style="font-variant:normal;font-weight:normal;font-size:10px;font-family:Monaco;-inkscape-font-specification:Monaco;writing-mode:lr-tb;fill:#000000;fill-opacity:1;fill-rule:nonzero;stroke:none"
           id="text40"><tspan
             x="0 6.0009766 12.001953 18.00293 24.003906 30.004883 36.005859 42.006836 48.007812 54.008789 60.009766"
             y="0"
             sodipodi:role="line"
             id="tspan38">value=67890</tspan></text></g><path
         d="M 2201.9,212.5 H 1456.43"
         style="fill:none;stroke:#000000;stroke-width:20;stroke-linecap:round;stroke-linejoin:miter;stroke-miterlimit:10;stroke-dasharray:none;stroke-opacity:1"
         id="path42" /><path
         d="m 1360.43,212.5 96,-36 v 72 z"
         style="fill:#000000;fill-opacity:1;fill-rule:nonzero;stroke:none"
         id="path44" /><path
         d="m 1360.43,212.5 96,-36 v 72 z"
         style="fill:none;stroke:#000000;stroke-width:20;stroke-linecap:butt;stroke-linejoin:miter;stroke-miterlimit:10;stroke-dasharray:none;stroke-opacity:1"
         id="path46" /><g
         id="g48"
         transform="scale(10)"><text
           transform="matrix(1,0,0,-1,166,30)"
           style="font-variant:normal;font-weight:normal;font-size:12px;font-family:Menlo;-inkscape-font-specification:Menlo-Regular;writing-mode:lr-tb;fill:#000000;fill-opacity:1;fill-rule:nonzero;stroke:none"
           id="text52"><tspan
             x="0 7.2246103 14.449221 21.673832 28.898441"
             y="0"
             sodipodi:role="line"
             id="tspan50">visit</tspan></text></g></g></g></svg>
