<?xml version="1.0" encoding="UTF-8" standalone="no"?>
<svg
   xmlns:dc="http://purl.org/dc/elements/1.1/"
   xmlns:cc="http://creativecommons.org/ns#"
   xmlns:rdf="http://www.w3.org/1999/02/22-rdf-syntax-ns#"
   xmlns:svg="http://www.w3.org/2000/svg"
   xmlns="http://www.w3.org/2000/svg"
   xmlns:sodipodi="http://sodipodi.sourceforge.net/DTD/sodipodi-0.dtd"
   xmlns:inkscape="http://www.inkscape.org/namespaces/inkscape"
   version="1.1"
   id="svg2"
   xml:space="preserve"
   width="628"
   height="113.33333"
   viewBox="0 0 628 113.33333"
   sodipodi:docname="mangled.eps"><metadata
     id="metadata8"><rdf:RDF><cc:Work
         rdf:about=""><dc:format>image/svg+xml</dc:format><dc:type
           rdf:resource="http://purl.org/dc/dcmitype/StillImage" /></cc:Work></rdf:RDF></metadata><defs
     id="defs6" /><sodipodi:namedview
     pagecolor="#ffffff"
     bordercolor="#666666"
     borderopacity="1"
     objecttolerance="10"
     gridtolerance="10"
     guidetolerance="10"
     inkscape:pageopacity="0"
     inkscape:pageshadow="2"
     inkscape:window-width="640"
     inkscape:window-height="480"
     id="namedview4" /><g
     id="g10"
     inkscape:groupmode="layer"
     inkscape:label="ink_ext_XXXXXX"
     transform="matrix(1.3333333,0,0,-1.3333333,0,113.33333)"><g
       id="g12"
       transform="scale(0.1)"><path
         d="M 0,0 H 4710 V 850 H 0 Z"
         style="fill:#ffffff;fill-opacity:1;fill-rule:nonzero;stroke:none"
         id="path14" /><path
         d="M -17445,-11150 H 15295 V 19460 H -17445 Z"
         style="fill:#ffffff;fill-opacity:1;fill-rule:nonzero;stroke:none"
         id="path16" /><g
         id="g18"
         transform="scale(10)"><text
           transform="matrix(1,0,0,-1,5,67)"
           style="font-variant:normal;font-weight:normal;font-size:13px;font-family:Monaco;-inkscape-font-specification:Monaco;writing-mode:lr-tb;fill:#000000;fill-opacity:1;fill-rule:nonzero;stroke:none"
           id="text22"><tspan
             x="0"
             y="0"
             id="tspan20">@</tspan></text></g><g
         id="g24"
         transform="scale(10)"><text
           transform="matrix(1,0,0,-1,12.8012,67)"
           style="font-variant:normal;font-weight:normal;font-size:13px;font-family:Monaco;-inkscape-font-specification:Monaco;writing-mode:lr-tb;fill:#c3371b;fill-opacity:1;fill-rule:nonzero;stroke:none"
           id="text28"><tspan
             x="0 7.8012695 15.602539 23.403809 31.205082 39.006351 46.807621 54.608894 62.410164 70.211433 78.012703 85.813972 93.615242 101.41653 109.2178 117.01907 124.82034 132.6216 140.42287 148.22414 156.02541 163.82668 171.62794 179.42921 187.23048 195.03175 202.83305 210.63432 218.43559 226.23686 234.03813 241.8394 249.64067 257.44196 265.24323 273.04449 280.84576 288.64703 296.4483 304.24957 312.05084 319.85211 327.65338 335.45465 343.25592 351.05719 358.85846 366.65973 374.461 382.26227 390.06354 397.86499 405.66632 413.46759 421.26886 429.07013 436.8714 444.67267"
             y="0"
             sodipodi:role="line"
             id="tspan26">&quot;*Array(Int32)@Array(T)::unsafe_build&lt;Int32&gt;:Array(Int32)&quot;</tspan></text></g><g
         id="g30"
         transform="scale(10)"><text
           transform="matrix(1,0,0,-1,86.2586,9)"
           style="font-variant:normal;font-weight:normal;font-size:12px;font-family:HelveticaNeue;-inkscape-font-specification:HelveticaNeue;writing-mode:lr-tb;fill:#000000;fill-opacity:1;fill-rule:nonzero;stroke:none"
           id="text34"><tspan
             x="0 3.78 10.224 16.667999 23.112 25.775999 31.775999 38.220001 147.61955 151.17155 157.84357 164.51556 170.95956 174.73956 177.40356 184.29156 212.79144 219.90744 226.35144 230.34744 236.79144 247.02744 253.47144 257.25143 263.69543 267.69144 293.73169 297.51169 303.95569 307.73569 314.40768 318.61969 325.29169 328.62769 334.62769 341.07169 343.73569 350.40768"
             y="0"
             sodipodi:role="line"
             id="tspan32">receiverfunctionparametersreturn value</tspan></text></g><path
         d="m 1071.25,250 -3.69,186.027"
         style="fill:none;stroke:#000000;stroke-width:20;stroke-linecap:round;stroke-linejoin:miter;stroke-miterlimit:10;stroke-dasharray:none;stroke-opacity:1"
         id="path36" /><path
         d="m 1065.66,532.008 -34.09,-96.695 71.98,1.425 z"
         style="fill:#000000;fill-opacity:1;fill-rule:nonzero;stroke:none"
         id="path38" /><path
         d="m 1065.66,532.008 -34.09,-96.695 71.98,1.425 z"
         style="fill:none;stroke:#000000;stroke-width:20;stroke-linecap:butt;stroke-linejoin:miter;stroke-miterlimit:10;stroke-dasharray:none;stroke-opacity:1"
         id="path40" /><path
         d="m 2554.07,250 -2.36,200.297"
         style="fill:none;stroke:#000000;stroke-width:20;stroke-linecap:round;stroke-linejoin:miter;stroke-miterlimit:10;stroke-dasharray:none;stroke-opacity:1"
         id="path42" /><path
         d="m 2550.59,546.289 -34.88,-96.414 72,0.848 z"
         style="fill:#000000;fill-opacity:1;fill-rule:nonzero;stroke:none"
         id="path44" /><path
         d="m 2550.59,546.293 -34.88,-96.418 72,0.848 z"
         style="fill:none;stroke:#000000;stroke-width:20;stroke-linecap:butt;stroke-linejoin:miter;stroke-miterlimit:10;stroke-dasharray:none;stroke-opacity:1"
         id="path46" /><path
         d="M 3295,250 V 436"
         style="fill:none;stroke:#000000;stroke-width:20;stroke-linecap:round;stroke-linejoin:miter;stroke-miterlimit:10;stroke-dasharray:none;stroke-opacity:1"
         id="path48" /><path
         d="m 3295,532 -36,-96 h 72 z"
         style="fill:#000000;fill-opacity:1;fill-rule:nonzero;stroke:none"
         id="path50" /><path
         d="m 3295,532 -36,-96 h 72 z"
         style="fill:none;stroke:#000000;stroke-width:20;stroke-linecap:butt;stroke-linejoin:miter;stroke-miterlimit:10;stroke-dasharray:none;stroke-opacity:1"
         id="path52" /><path
         d="m 4116.66,250 1.91,200.152"
         style="fill:none;stroke:#000000;stroke-width:20;stroke-linecap:round;stroke-linejoin:miter;stroke-miterlimit:10;stroke-dasharray:none;stroke-opacity:1"
         id="path54" /><path
         d="m 4119.49,546.148 -36.92,-95.652 72,-0.687 z"
         style="fill:#000000;fill-opacity:1;fill-rule:nonzero;stroke:none"
         id="path56" /><path
         d="m 4119.49,546.148 -36.92,-95.652 72,-0.687 z"
         style="fill:none;stroke:#000000;stroke-width:20;stroke-linecap:butt;stroke-linejoin:miter;stroke-miterlimit:10;stroke-dasharray:none;stroke-opacity:1"
         id="path58" /><path
         d="M 235,565 H 1912.34"
         style="fill:none;stroke:#000000;stroke-width:10;stroke-linecap:round;stroke-linejoin:miter;stroke-miterlimit:10;stroke-dasharray:none;stroke-opacity:1"
         id="path60" /><path
         d="m 2106,565 h 899"
         style="fill:none;stroke:#000000;stroke-width:10;stroke-linecap:round;stroke-linejoin:miter;stroke-miterlimit:10;stroke-dasharray:none;stroke-opacity:1"
         id="path62" /><path
         d="m 3130,565 h 330"
         style="fill:none;stroke:#000000;stroke-width:10;stroke-linecap:round;stroke-linejoin:miter;stroke-miterlimit:10;stroke-dasharray:none;stroke-opacity:1"
         id="path64" /><path
         d="m 3666,565 899,-2.5"
         style="fill:none;stroke:#000000;stroke-width:10;stroke-linecap:round;stroke-linejoin:miter;stroke-miterlimit:10;stroke-dasharray:none;stroke-opacity:1"
         id="path66" /><path
         d="M 245,555 H 1922.34"
         style="fill:none;stroke:#000000;stroke-width:10;stroke-linecap:round;stroke-linejoin:miter;stroke-miterlimit:10;stroke-dasharray:none;stroke-opacity:1"
         id="path68" /></g></g></svg>
