<?xml version="1.0" encoding="UTF-8" standalone="no"?>
<svg
   xmlns:dc="http://purl.org/dc/elements/1.1/"
   xmlns:cc="http://creativecommons.org/ns#"
   xmlns:rdf="http://www.w3.org/1999/02/22-rdf-syntax-ns#"
   xmlns:svg="http://www.w3.org/2000/svg"
   xmlns="http://www.w3.org/2000/svg"
   xmlns:sodipodi="http://sodipodi.sourceforge.net/DTD/sodipodi-0.dtd"
   xmlns:inkscape="http://www.inkscape.org/namespaces/inkscape"
   version="1.1"
   id="svg2"
   xml:space="preserve"
   width="688"
   height="209.33333"
   viewBox="0 0 688 209.33333"
   sodipodi:docname="platforms.eps"><metadata
     id="metadata8"><rdf:RDF><cc:Work
         rdf:about=""><dc:format>image/svg+xml</dc:format><dc:type
           rdf:resource="http://purl.org/dc/dcmitype/StillImage" /></cc:Work></rdf:RDF></metadata><defs
     id="defs6" /><sodipodi:namedview
     pagecolor="#ffffff"
     bordercolor="#666666"
     borderopacity="1"
     objecttolerance="10"
     gridtolerance="10"
     guidetolerance="10"
     inkscape:pageopacity="0"
     inkscape:pageshadow="2"
     inkscape:window-width="640"
     inkscape:window-height="480"
     id="namedview4" /><g
     id="g10"
     inkscape:groupmode="layer"
     inkscape:label="ink_ext_XXXXXX"
     transform="matrix(1.3333333,0,0,-1.3333333,0,209.33333)"><g
       id="g12"
       transform="scale(0.1)"><path
         d="M 0,0 H 5160 V 1570 H 0 Z"
         style="fill:#ffffff;fill-opacity:1;fill-rule:nonzero;stroke:none"
         id="path14" /><path
         d="M -12465,-20360 H 20275 V 10250 H -12465 Z"
         style="fill:#ffffff;fill-opacity:1;fill-rule:nonzero;stroke:none"
         id="path16" /><path
         d="M 2405,810 3482.35,325.418"
         style="fill:none;stroke:#000000;stroke-width:20;stroke-linecap:round;stroke-linejoin:miter;stroke-miterlimit:10;stroke-dasharray:none;stroke-opacity:1"
         id="path18" /><path
         d="m 3569.91,286.035 -72.79,72.215 -29.53,-65.664 z"
         style="fill:#000000;fill-opacity:1;fill-rule:nonzero;stroke:none"
         id="path20" /><path
         d="m 3569.91,286.035 -72.79,72.215 -29.53,-65.664 z"
         style="fill:none;stroke:#000000;stroke-width:20;stroke-linecap:butt;stroke-linejoin:miter;stroke-miterlimit:10;stroke-dasharray:none;stroke-opacity:1"
         id="path22" /><path
         d="m 100,1000 h 1020 c 49.71,0 90,-40.293 90,-90 V 715 c 0,-49.707 -40.29,-90 -90,-90 H 100 c -49.707,0 -90,40.293 -90,90 v 195 c 0,49.707 40.293,90 90,90 z"
         style="fill:#ffffff;fill-opacity:1;fill-rule:nonzero;stroke:none"
         id="path24" /><path
         d="m 100,1000 h 1020 c 49.71,0 90,-40.293 90,-90 V 715 c 0,-49.707 -40.29,-90 -90,-90 H 100 c -49.707,0 -90,40.293 -90,90 v 195 c 0,49.707 40.293,90 90,90 z"
         style="fill:none;stroke:#000000;stroke-width:10;stroke-linecap:round;stroke-linejoin:round;stroke-miterlimit:10;stroke-dasharray:none;stroke-opacity:1"
         id="path26" /><g
         id="g28"
         transform="scale(10)"><text
           transform="matrix(1,0,0,-1,23.368,75.4742)"
           style="font-variant:normal;font-weight:normal;font-size:16px;font-family:HelveticaNeue;-inkscape-font-specification:HelveticaNeue;writing-mode:lr-tb;fill:#000000;fill-opacity:1;fill-rule:nonzero;stroke:none"
           id="text32"><tspan
             x="0 8.592 17.775999 26.672001 32 36.448002 48 57.183998 66.671997"
             y="0"
             sodipodi:role="line"
             id="tspan30">Your Code</tspan></text></g><path
         d="m 1895,1000 h 1020 c 49.71,0 90,-40.293 90,-90 V 715 c 0,-49.707 -40.29,-90 -90,-90 H 1895 c -49.71,0 -90,40.293 -90,90 v 195 c 0,49.707 40.29,90 90,90 z"
         style="fill:#ffffff;fill-opacity:1;fill-rule:nonzero;stroke:none"
         id="path34" /><path
         d="m 1895,1000 h 1020 c 49.71,0 90,-40.293 90,-90 V 715 c 0,-49.707 -40.29,-90 -90,-90 H 1895 c -49.71,0 -90,40.293 -90,90 v 195 c 0,49.707 40.29,90 90,90 z"
         style="fill:none;stroke:#000000;stroke-width:10;stroke-linecap:round;stroke-linejoin:round;stroke-miterlimit:10;stroke-dasharray:none;stroke-opacity:1"
         id="path36" /><g
         id="g38"
         transform="scale(10)"><text
           transform="matrix(1,0,0,-1,210.708,75.4742)"
           style="font-variant:normal;font-weight:normal;font-size:16px;font-family:HelveticaNeue;-inkscape-font-specification:HelveticaNeue;writing-mode:lr-tb;fill:#000000;fill-opacity:1;fill-rule:nonzero;stroke:none"
           id="text42"><tspan
             x="0 8.8959999 16.32 26.096001 40.032001 44.48 48.624001"
             y="0"
             sodipodi:role="line"
             id="tspan40">LLVM IR</tspan></text></g><path
         d="m 3690,1560 h 1375 c 49.71,0 90,-40.29 90,-90 v -195 c 0,-49.71 -40.29,-90 -90,-90 H 3690 c -49.71,0 -90,40.29 -90,90 v 195 c 0,49.71 40.29,90 90,90 z"
         style="fill:#ffffff;fill-opacity:1;fill-rule:nonzero;stroke:none"
         id="path44" /><path
         d="m 3690,1560 h 1375 c 49.71,0 90,-40.29 90,-90 v -195 c 0,-49.71 -40.29,-90 -90,-90 H 3690 c -49.71,0 -90,40.29 -90,90 v 195 c 0,49.71 40.29,90 90,90 z"
         style="fill:none;stroke:#000000;stroke-width:10;stroke-linecap:round;stroke-linejoin:round;stroke-miterlimit:10;stroke-dasharray:none;stroke-opacity:1"
         id="path46" /><g
         id="g48"
         transform="scale(10)"><text
           transform="matrix(1,0,0,-1,400.854,140.698)"
           style="font-variant:normal;font-weight:normal;font-size:16px;font-family:HelveticaNeue;-inkscape-font-specification:HelveticaNeue;writing-mode:lr-tb;fill:#000000;fill-opacity:1;fill-rule:nonzero;stroke:none"
           id="text54"><tspan
             x="0 10.368 13.92 22.511999 27.552 32.287998 41.472 46.799999 60.448002 64.896004"
             y="0"
             sodipodi:role="line"
             id="tspan50">Platform 1</tspan><tspan
             x="-31.2719 -17.335899 -8.7439003 -0.15189999 8.7440996 12.2961 21.192101 29.7841 34.232101 43.128101 51.7201 60.6161 69.800102 78.696098 87.288101 96.472099"
             y="18.448"
             sodipodi:role="line"
             id="tspan52">Machine Language</tspan></text></g><path
         d="m 3690,1000 h 1375 c 49.71,0 90,-40.293 90,-90 V 715 c 0,-49.707 -40.29,-90 -90,-90 H 3690 c -49.71,0 -90,40.293 -90,90 v 195 c 0,49.707 40.29,90 90,90 z"
         style="fill:#ffffff;fill-opacity:1;fill-rule:nonzero;stroke:none"
         id="path56" /><path
         d="m 3690,1000 h 1375 c 49.71,0 90,-40.293 90,-90 V 715 c 0,-49.707 -40.29,-90 -90,-90 H 3690 c -49.71,0 -90,40.293 -90,90 v 195 c 0,49.707 40.29,90 90,90 z"
         style="fill:none;stroke:#000000;stroke-width:10;stroke-linecap:round;stroke-linejoin:round;stroke-miterlimit:10;stroke-dasharray:none;stroke-opacity:1"
         id="path58" /><g
         id="g60"
         transform="scale(10)"><text
           transform="matrix(1,0,0,-1,400.854,84.698)"
           style="font-variant:normal;font-weight:normal;font-size:16px;font-family:HelveticaNeue;-inkscape-font-specification:HelveticaNeue;writing-mode:lr-tb;fill:#000000;fill-opacity:1;fill-rule:nonzero;stroke:none"
           id="text66"><tspan
             x="0 10.368 13.92 22.511999 27.552 32.287998 41.472 46.799999 60.448002 64.896004"
             y="0"
             sodipodi:role="line"
             id="tspan62">Platform 2</tspan><tspan
             x="-31.2719 -17.335899 -8.7439003 -0.15189999 8.7440996 12.2961 21.192101 29.7841 34.232101 43.128101 51.7201 60.6161 69.800102 78.696098 87.288101 96.472099"
             y="18.448"
             sodipodi:role="line"
             id="tspan64">Machine Language</tspan></text></g><path
         d="m 3690,440 h 1375 c 49.71,0 90,-40.293 90,-90 V 100 c 0,-49.707 -40.29,-90 -90,-90 H 3690 c -49.71,0 -90,40.293 -90,90 v 250 c 0,49.707 40.29,90 90,90 z"
         style="fill:#ffffff;fill-opacity:1;fill-rule:nonzero;stroke:none"
         id="path68" /><path
         d="m 3690,440 h 1375 c 49.71,0 90,-40.293 90,-90 V 100 c 0,-49.707 -40.29,-90 -90,-90 H 3690 c -49.71,0 -90,40.293 -90,90 v 250 c 0,49.707 40.29,90 90,90 z"
         style="fill:none;stroke:#000000;stroke-width:10;stroke-linecap:round;stroke-linejoin:round;stroke-miterlimit:10;stroke-dasharray:none;stroke-opacity:1"
         id="path70" /><g
         id="g72"
         transform="scale(10)"><text
           transform="matrix(1,0,0,-1,400.854,25.948)"
           style="font-variant:normal;font-weight:normal;font-size:16px;font-family:HelveticaNeue;-inkscape-font-specification:HelveticaNeue;writing-mode:lr-tb;fill:#000000;fill-opacity:1;fill-rule:nonzero;stroke:none"
           id="text78"><tspan
             x="0 10.368 13.92 22.511999 27.552 32.287998 41.472 46.799999 60.448002 64.896004"
             y="0"
             sodipodi:role="line"
             id="tspan74">Platform 3</tspan><tspan
             x="-31.2719 -17.335899 -8.7439003 -0.15189999 8.7440996 12.2961 21.192101 29.7841 34.232101 43.128101 51.7201 60.6161 69.800102 78.696098 87.288101 96.472099"
             y="18.448"
             sodipodi:role="line"
             id="tspan76">Machine Language</tspan></text></g><path
         d="m 1210,812.5 h 466"
         style="fill:none;stroke:#000000;stroke-width:20;stroke-linecap:round;stroke-linejoin:miter;stroke-miterlimit:10;stroke-dasharray:none;stroke-opacity:1"
         id="path80" /><path
         d="m 1772,812.5 -96,36 v -72 z"
         style="fill:#000000;fill-opacity:1;fill-rule:nonzero;stroke:none"
         id="path82" /><path
         d="m 1772,812.5 -96,36 v -72 z"
         style="fill:none;stroke:#000000;stroke-width:20;stroke-linecap:butt;stroke-linejoin:miter;stroke-miterlimit:10;stroke-dasharray:none;stroke-opacity:1"
         id="path84" /><path
         d="m 2821.86,1000 660.49,297.08"
         style="fill:none;stroke:#000000;stroke-width:20;stroke-linecap:round;stroke-linejoin:miter;stroke-miterlimit:10;stroke-dasharray:none;stroke-opacity:1"
         id="path86" /><path
         d="m 3569.91,1336.46 -102.32,-6.55 29.53,-65.66 z"
         style="fill:#000000;fill-opacity:1;fill-rule:nonzero;stroke:none"
         id="path88" /><path
         d="m 3569.91,1336.46 -102.32,-6.55 29.53,-65.66 z"
         style="fill:none;stroke:#000000;stroke-width:20;stroke-linecap:butt;stroke-linejoin:miter;stroke-miterlimit:10;stroke-dasharray:none;stroke-opacity:1"
         id="path90" /><path
         d="m 3005,812.5 h 466"
         style="fill:none;stroke:#000000;stroke-width:20;stroke-linecap:round;stroke-linejoin:miter;stroke-miterlimit:10;stroke-dasharray:none;stroke-opacity:1"
         id="path92" /><path
         d="m 3567,812.5 -96,36 v -72 z"
         style="fill:#000000;fill-opacity:1;fill-rule:nonzero;stroke:none"
         id="path94" /><path
         d="m 3567,812.5 -96,36 v -72 z"
         style="fill:none;stroke:#000000;stroke-width:20;stroke-linecap:butt;stroke-linejoin:miter;stroke-miterlimit:10;stroke-dasharray:none;stroke-opacity:1"
         id="path96" /></g></g></svg>
