<?xml version="1.0" encoding="UTF-8"?>
<svg id="Layer_2" data-name="Layer 2" xmlns="http://www.w3.org/2000/svg" width="321.37" height="89.5" viewBox="0 0 321.37 89.5">
  <g id="Layer_1_copy" data-name="Layer 1 copy">
    <g>
      <g isolation="isolate">
        <path d="M82.18,46.12c.31.19.77.35,1.25.35.71,0,1.13-.38,1.13-.92,0-.5-.29-.79-1.02-1.07-.88-.31-1.42-.77-1.42-1.53,0-.84.7-1.46,1.74-1.46.55,0,.95.13,1.19.26l-.19.57c-.18-.1-.54-.26-1.02-.26-.74,0-1.02.44-1.02.81,0,.5.33.75,1.07,1.04.91.35,1.38.79,1.38,1.58,0,.83-.62,1.55-1.89,1.55-.52,0-1.09-.15-1.38-.34l.18-.58Z"/>
        <path d="M86.22,41.65c.34-.06.78-.1,1.33-.1.69,0,1.19.16,1.51.45.3.26.47.65.47,1.13s-.14.87-.42,1.15c-.37.39-.97.59-1.65.59-.21,0-.4,0-.56-.05v2.16h-.7v-5.33ZM86.91,44.24c.15.04.34.06.58.06.84,0,1.35-.41,1.35-1.15s-.5-1.05-1.27-1.05c-.3,0-.54.02-.66.06v2.09Z"/>
      </g>
      <g isolation="isolate">
        <path d="M34.95,58.36v-1.42h-2.41v-.46l2.32-3.32h.76v3.23h.73v.55h-.73v1.42h-.66ZM34.95,56.39v-1.74c0-.27,0-.54.02-.82h-.02c-.16.3-.29.53-.43.77l-1.27,1.77v.02h1.7Z"/>
      </g>
      <g isolation="isolate">
        <path d="M141.57,60.13c.34-.06.78-.1,1.34-.1.69,0,1.19.16,1.51.45.3.26.47.65.47,1.13s-.14.87-.42,1.15c-.37.39-.97.59-1.65.59-.21,0-.4,0-.56-.05v2.16h-.7v-5.33ZM142.27,62.73c.15.04.34.06.58.06.84,0,1.35-.41,1.35-1.15s-.5-1.05-1.27-1.05c-.3,0-.54.02-.66.06v2.09Z"/>
        <path d="M149.6,65.28c-.26.13-.77.26-1.42.26-1.52,0-2.66-.96-2.66-2.73s1.14-2.83,2.81-2.83c.67,0,1.1.14,1.28.24l-.17.57c-.26-.13-.64-.22-1.09-.22-1.26,0-2.1.81-2.1,2.22,0,1.32.76,2.17,2.07,2.17.42,0,.86-.09,1.13-.22l.14.55Z"/>
      </g>
      <g>
        <rect x=".5" y=".5" width="68.76" height="88.5" fill="none" stroke="#000" stroke-miterlimit="10"/>
        <line x1=".5" y1="66.87" x2="69.26" y2="66.87" fill="none" stroke="#000" stroke-miterlimit="10"/>
        <line x1=".5" y1="44.75" x2="69.26" y2="44.75" fill="none" stroke="#000" stroke-miterlimit="10"/>
        <line x1=".5" y1="22.62" x2="69.26" y2="22.62" fill="none" stroke="#000" stroke-miterlimit="10"/>
      </g>
      <path d="M102.56,32.32v2.98h-24.07v3.14l-9.23-4.62,9.23-4.62v3.14h24.07Z" fill="#e6e6e6" stroke="rgba(0, 0, 0, .75)" stroke-linecap="round" stroke-linejoin="round"/>
      <path d="M129.2,51.05v2.98h24.07v3.14l9.23-4.62-9.23-4.62v3.14h-24.07Z" fill="#e6e6e6" stroke="rgba(0, 0, 0, .75)" stroke-linecap="round" stroke-linejoin="round"/>
      <g isolation="isolate">
        <path d="M26.9,78.44c.21.14.58.28.93.28.51,0,.75-.26.75-.58s-.2-.52-.72-.71c-.7-.25-1.02-.63-1.02-1.1,0-.62.5-1.14,1.33-1.14.39,0,.74.11.95.24l-.18.51c-.15-.1-.43-.22-.79-.22-.42,0-.65.24-.65.53,0,.32.23.46.74.66.67.26,1.02.59,1.02,1.17,0,.68-.53,1.16-1.45,1.16-.42,0-.82-.1-1.09-.26l.18-.54Z"/>
        <path d="M30.56,77.35c.02.95.62,1.34,1.33,1.34.5,0,.81-.09,1.07-.2l.12.5c-.25.11-.67.24-1.29.24-1.19,0-1.9-.78-1.9-1.95s.69-2.09,1.81-2.09c1.26,0,1.6,1.11,1.6,1.82,0,.14-.02.26-.02.33h-2.72ZM32.62,76.85c0-.45-.18-1.14-.98-1.14-.71,0-1.02.66-1.08,1.14h2.05Z"/>
        <path d="M34.18,73.48h.7v5.68h-.7v-5.68Z"/>
        <path d="M36.14,79.16v-3.33h-.54v-.54h.54v-.18c0-.54.12-1.04.45-1.35.26-.26.62-.36.94-.36.25,0,.46.06.6.11l-.1.54c-.1-.05-.25-.09-.45-.09-.6,0-.75.53-.75,1.12v.21h.94v.54h-.94v3.33h-.7Z"/>
      </g>
      <g>
        <rect x="162.97" y="7.52" width="158.4" height="63.83" fill="#ccc"/>
        <g isolation="isolate">
          <path d="M167.55,15.43c0-.5-.02-.9-.03-1.26h.63l.03.66h.02c.29-.47.74-.75,1.38-.75.94,0,1.64.79,1.64,1.97,0,1.39-.85,2.08-1.76,2.08-.51,0-.96-.22-1.19-.61h-.02v2.1h-.7v-4.19ZM168.25,16.46c0,.1.02.2.03.29.13.49.55.82,1.06.82.74,0,1.17-.61,1.17-1.5,0-.78-.41-1.44-1.15-1.44-.48,0-.93.34-1.06.87-.02.09-.05.19-.05.29v.66Z"/>
          <path d="M175.34,16.98c0,.4,0,.75.03,1.06h-.62l-.04-.63h-.02c-.18.31-.59.72-1.28.72-.61,0-1.33-.34-1.33-1.7v-2.26h.7v2.14c0,.74.22,1.23.86,1.23.47,0,.8-.33.93-.64.04-.1.06-.23.06-.36v-2.38h.7v2.81Z"/>
          <path d="M177.36,13.05v1.11h1.01v.54h-1.01v2.09c0,.48.14.75.53.75.18,0,.32-.02.41-.05l.03.53c-.14.06-.35.1-.62.1-.33,0-.59-.1-.76-.3-.2-.21-.27-.55-.27-1.01v-2.11h-.6v-.54h.6v-.93l.69-.18Z"/>
          <path d="M179.06,17.31c.21.14.58.28.93.28.51,0,.75-.26.75-.58s-.2-.52-.72-.71c-.7-.25-1.02-.63-1.02-1.09,0-.62.5-1.14,1.33-1.14.39,0,.74.11.95.24l-.18.51c-.15-.1-.43-.22-.79-.22-.42,0-.65.24-.65.53,0,.32.23.46.74.66.67.26,1.02.59,1.02,1.17,0,.68-.53,1.16-1.45,1.16-.42,0-.82-.1-1.09-.26l.18-.54Z"/>
          <path d="M182.72,16.23c.02.95.62,1.34,1.33,1.34.5,0,.81-.09,1.07-.2l.12.5c-.25.11-.67.24-1.29.24-1.19,0-1.9-.78-1.9-1.95s.69-2.09,1.82-2.09c1.26,0,1.6,1.11,1.6,1.82,0,.14-.02.26-.02.33h-2.72ZM184.78,15.72c0-.45-.18-1.14-.98-1.14-.71,0-1.02.66-1.08,1.14h2.05Z"/>
          <path d="M186.33,12.36h.7v5.68h-.7v-5.68Z"/>
          <path d="M188.29,18.03v-3.33h-.54v-.54h.54v-.18c0-.54.12-1.04.45-1.35.26-.26.62-.36.94-.36.25,0,.46.06.6.11l-.1.54c-.1-.05-.25-.09-.45-.09-.6,0-.75.53-.75,1.12v.21h.94v.54h-.94v3.33h-.7Z"/>
        </g>
        <g isolation="isolate">
          <path d="M171.05,43.4c0,1.43-.99,2.05-1.93,2.05-1.05,0-1.86-.77-1.86-1.99,0-1.29.85-2.05,1.92-2.05s1.86.81,1.86,1.99ZM167.98,43.44c0,.85.49,1.49,1.17,1.49s1.18-.63,1.18-1.5c0-.66-.33-1.49-1.16-1.49s-1.19.77-1.19,1.5Z"/>
          <path d="M171.94,42.76c0-.5-.02-.9-.03-1.26h.63l.03.66h.02c.29-.47.74-.75,1.38-.75.94,0,1.64.79,1.64,1.97,0,1.39-.85,2.08-1.76,2.08-.51,0-.96-.22-1.19-.61h-.02v2.1h-.7v-4.19ZM172.64,43.79c0,.1.02.2.03.29.13.49.55.82,1.05.82.74,0,1.18-.61,1.18-1.5,0-.78-.41-1.44-1.15-1.44-.48,0-.93.34-1.06.87-.02.09-.05.19-.05.29v.66Z"/>
          <path d="M177.34,40.39v1.11h1.01v.54h-1.01v2.09c0,.48.14.75.53.75.18,0,.32-.02.41-.05l.03.53c-.14.06-.35.1-.62.1-.33,0-.59-.1-.76-.3-.2-.21-.27-.55-.27-1.01v-2.11h-.6v-.54h.6v-.93l.69-.18Z"/>
          <path d="M182.56,45.97v.4h-4v-.4h4Z"/>
          <path d="M183.14,42.76c0-.5-.02-.9-.03-1.26h.63l.03.66h.02c.29-.47.74-.75,1.38-.75.94,0,1.64.79,1.64,1.97,0,1.39-.85,2.08-1.76,2.08-.51,0-.96-.22-1.19-.61h-.02v2.1h-.7v-4.19ZM183.84,43.79c0,.1.02.2.03.29.13.49.55.82,1.06.82.74,0,1.17-.61,1.17-1.5,0-.78-.41-1.44-1.15-1.44-.48,0-.93.34-1.06.87-.02.09-.05.19-.05.29v.66Z"/>
          <path d="M187.69,39.69h.7v5.68h-.7v-5.68Z"/>
          <path d="M192.82,44.31c0,.4,0,.75.03,1.06h-.62l-.04-.63h-.02c-.18.31-.59.72-1.28.72-.61,0-1.33-.34-1.33-1.7v-2.26h.7v2.14c0,.74.22,1.23.86,1.23.47,0,.8-.33.93-.64.04-.1.06-.23.06-.36v-2.38h.7v2.81Z"/>
          <path d="M193.89,44.65c.21.14.58.28.93.28.51,0,.75-.26.75-.58s-.2-.52-.72-.71c-.7-.25-1.02-.63-1.02-1.09,0-.62.5-1.14,1.33-1.14.39,0,.74.11.95.24l-.18.51c-.15-.1-.43-.22-.79-.22-.42,0-.65.24-.65.53,0,.32.23.46.74.66.67.26,1.02.59,1.02,1.17,0,.68-.53,1.16-1.45,1.16-.42,0-.82-.1-1.09-.26l.18-.54Z"/>
        </g>
        <g isolation="isolate">
          <path d="M171.05,52.51c0,1.43-.99,2.05-1.93,2.05-1.05,0-1.86-.77-1.86-1.99,0-1.29.85-2.05,1.92-2.05s1.86.81,1.86,1.99ZM167.98,52.55c0,.85.49,1.49,1.17,1.49s1.18-.63,1.18-1.5c0-.66-.33-1.49-1.16-1.49s-1.19.77-1.19,1.5Z"/>
          <path d="M171.94,51.87c0-.5-.02-.9-.03-1.26h.63l.03.66h.02c.29-.47.74-.75,1.38-.75.94,0,1.64.79,1.64,1.97,0,1.39-.85,2.08-1.76,2.08-.51,0-.96-.22-1.19-.61h-.02v2.1h-.7v-4.19ZM172.64,52.91c0,.1.02.2.03.29.13.49.55.82,1.05.82.74,0,1.18-.61,1.18-1.5,0-.78-.41-1.44-1.15-1.44-.48,0-.93.34-1.06.87-.02.09-.05.19-.05.29v.66Z"/>
          <path d="M177.34,49.5v1.11h1.01v.54h-1.01v2.09c0,.48.14.75.53.75.18,0,.32-.02.41-.05l.03.53c-.14.06-.35.1-.62.1-.33,0-.59-.1-.76-.3-.2-.21-.27-.55-.27-1.01v-2.11h-.6v-.54h.6v-.93l.69-.18Z"/>
          <path d="M182.56,55.08v.4h-4v-.4h4Z"/>
          <path d="M183.05,53.76c.21.14.58.28.93.28.51,0,.75-.26.75-.58s-.2-.52-.72-.71c-.7-.25-1.02-.63-1.02-1.1,0-.62.5-1.14,1.33-1.14.39,0,.74.11.95.24l-.18.51c-.15-.1-.43-.22-.79-.22-.42,0-.65.24-.65.53,0,.32.23.46.74.66.67.26,1.02.59,1.02,1.17,0,.68-.53,1.16-1.45,1.16-.42,0-.82-.1-1.09-.26l.18-.54Z"/>
          <path d="M186.7,52.67c.02.95.62,1.34,1.33,1.34.5,0,.81-.09,1.07-.2l.12.5c-.25.11-.67.24-1.29.24-1.19,0-1.9-.78-1.9-1.95s.69-2.09,1.82-2.09c1.26,0,1.6,1.11,1.6,1.82,0,.14-.02.26-.02.33h-2.72ZM188.76,52.17c0-.45-.18-1.14-.98-1.14-.71,0-1.02.66-1.08,1.14h2.05Z"/>
          <path d="M190.32,51.66c0-.4,0-.73-.03-1.05h.62l.04.64h.02c.19-.37.64-.73,1.28-.73.54,0,1.37.32,1.37,1.65v2.31h-.7v-2.23c0-.62-.23-1.14-.9-1.14-.46,0-.82.33-.94.72-.03.09-.05.21-.05.33v2.33h-.7v-2.82Z"/>
          <path d="M198.1,48.8v4.68c0,.34,0,.74.03,1h-.63l-.03-.67h-.02c-.22.43-.69.76-1.32.76-.94,0-1.66-.79-1.66-1.97,0-1.29.79-2.08,1.74-2.08.59,0,.99.28,1.17.59h.02v-2.31h.7ZM197.4,52.19c0-.09,0-.21-.03-.3-.1-.45-.49-.82-1.02-.82-.73,0-1.16.64-1.16,1.5,0,.78.38,1.43,1.14,1.43.47,0,.9-.31,1.03-.84.02-.1.03-.19.03-.3v-.67Z"/>
          <path d="M202.68,55.08v.4h-4v-.4h4Z"/>
          <path d="M203.55,50.61l.51,1.97c.11.43.22.83.29,1.23h.02c.09-.39.22-.81.34-1.22l.63-1.98h.59l.6,1.94c.14.46.26.87.34,1.26h.02c.06-.39.17-.8.3-1.25l.55-1.94h.7l-1.25,3.87h-.64l-.59-1.85c-.14-.43-.25-.82-.34-1.27h-.02c-.1.46-.22.86-.35,1.28l-.62,1.84h-.64l-1.17-3.87h.72Z"/>
          <path d="M209.94,49.52c0,.24-.17.43-.45.43-.25,0-.42-.19-.42-.43s.18-.44.44-.44.43.19.43.44ZM209.16,54.48v-3.87h.7v3.87h-.7Z"/>
          <path d="M211.88,49.5v1.11h1.01v.54h-1.01v2.09c0,.48.14.75.53.75.18,0,.32-.02.41-.05l.03.53c-.14.06-.35.1-.62.1-.33,0-.59-.1-.76-.3-.2-.21-.27-.55-.27-1.01v-2.11h-.6v-.54h.6v-.93l.69-.18Z"/>
          <path d="M213.68,48.8h.7v2.42h.02c.11-.2.29-.38.5-.5.21-.12.46-.2.72-.2.52,0,1.35.32,1.35,1.66v2.3h-.7v-2.22c0-.62-.23-1.15-.9-1.15-.46,0-.82.32-.94.7-.04.1-.05.2-.05.34v2.33h-.7v-5.68Z"/>
          <path d="M221.62,52.51c0,1.43-.99,2.05-1.93,2.05-1.05,0-1.86-.77-1.86-1.99,0-1.29.85-2.05,1.92-2.05s1.86.81,1.86,1.99ZM218.55,52.55c0,.85.49,1.49,1.17,1.49s1.18-.63,1.18-1.5c0-.66-.33-1.49-1.16-1.49s-1.19.77-1.19,1.5Z"/>
          <path d="M225.75,53.42c0,.4,0,.75.03,1.06h-.62l-.04-.63h-.02c-.18.31-.59.72-1.28.72-.61,0-1.33-.34-1.33-1.7v-2.26h.7v2.14c0,.74.22,1.23.86,1.23.47,0,.8-.33.93-.64.04-.1.06-.23.06-.36v-2.38h.7v2.81Z"/>
          <path d="M227.77,49.5v1.11h1.01v.54h-1.01v2.09c0,.48.14.75.53.75.18,0,.32-.02.41-.05l.03.53c-.14.06-.35.1-.62.1-.33,0-.59-.1-.76-.3-.2-.21-.27-.55-.27-1.01v-2.11h-.6v-.54h.6v-.93l.69-.18Z"/>
          <path d="M232.98,55.08v.4h-4v-.4h4Z"/>
          <path d="M233.53,54.48c.02-.26.03-.66.03-1v-4.68h.7v2.43h.02c.25-.43.7-.71,1.32-.71.96,0,1.64.8,1.63,1.98,0,1.38-.87,2.07-1.74,2.07-.56,0-1.01-.22-1.3-.73h-.02l-.03.64h-.61ZM234.26,52.93c0,.09.02.18.03.26.14.49.54.82,1.06.82.74,0,1.17-.6,1.17-1.49,0-.78-.4-1.44-1.15-1.44-.48,0-.93.33-1.07.86-.02.08-.04.18-.04.29v.7Z"/>
          <path d="M238.12,48.8h.7v5.68h-.7v-5.68Z"/>
          <path d="M243.51,52.51c0,1.43-.99,2.05-1.93,2.05-1.05,0-1.86-.77-1.86-1.99,0-1.29.85-2.05,1.92-2.05s1.86.81,1.86,1.99ZM240.44,52.55c0,.85.49,1.49,1.17,1.49s1.18-.63,1.18-1.5c0-.66-.33-1.49-1.16-1.49s-1.19.77-1.19,1.5Z"/>
          <path d="M247.16,54.34c-.18.1-.59.22-1.11.22-1.17,0-1.93-.79-1.93-1.97s.82-2.06,2.08-2.06c.42,0,.78.1.98.2l-.16.54c-.17-.1-.43-.18-.82-.18-.89,0-1.37.66-1.37,1.46,0,.9.58,1.45,1.34,1.45.4,0,.66-.1.86-.19l.12.53Z"/>
          <path d="M248.68,52.39h.02c.1-.14.23-.3.34-.44l1.14-1.34h.85l-1.5,1.59,1.7,2.28h-.86l-1.34-1.86-.36.4v1.46h-.7v-5.68h.7v3.58Z"/>
          <path d="M261.91,51.66c0-.4,0-.73-.03-1.05h.62l.03.62h.02c.22-.37.58-.71,1.21-.71.53,0,.93.32,1.1.78h.02c.12-.22.27-.38.43-.5.23-.18.49-.27.86-.27.51,0,1.27.34,1.27,1.68v2.28h-.69v-2.19c0-.74-.27-1.19-.84-1.19-.4,0-.71.3-.83.64-.03.1-.06.22-.06.35v2.39h-.69v-2.32c0-.62-.27-1.06-.81-1.06-.44,0-.76.35-.87.7-.04.1-.06.22-.06.34v2.33h-.69v-2.82Z"/>
          <path d="M269.36,49.52c0,.24-.17.43-.45.43-.25,0-.42-.19-.42-.43s.18-.44.44-.44.43.19.43.44ZM268.58,54.48v-3.87h.7v3.87h-.7Z"/>
          <path d="M273.79,48.8v4.68c0,.34,0,.74.03,1h-.63l-.03-.67h-.02c-.22.43-.69.76-1.32.76-.94,0-1.66-.79-1.66-1.97,0-1.29.79-2.08,1.74-2.08.59,0,.99.28,1.17.59h.02v-2.31h.7ZM273.09,52.19c0-.09,0-.21-.03-.3-.1-.45-.49-.82-1.02-.82-.73,0-1.16.64-1.16,1.5,0,.78.38,1.43,1.14,1.43.47,0,.9-.31,1.03-.84.02-.1.03-.19.03-.3v-.67Z"/>
          <path d="M274.8,51.25c0-.3.2-.5.48-.5s.46.21.47.5c0,.28-.18.5-.48.5-.28,0-.47-.22-.47-.5ZM274.8,54.07c0-.29.2-.5.48-.5s.46.21.47.5c0,.28-.18.5-.48.5-.28,0-.47-.22-.47-.5Z"/>
          <path d="M276.62,51.87c0-.5-.02-.9-.03-1.26h.63l.03.66h.02c.29-.47.74-.75,1.38-.75.94,0,1.64.79,1.64,1.97,0,1.39-.85,2.08-1.76,2.08-.51,0-.96-.22-1.19-.61h-.02v2.1h-.7v-4.19ZM277.32,52.91c0,.1.02.2.03.29.13.49.55.82,1.06.82.74,0,1.17-.61,1.17-1.5,0-.78-.41-1.44-1.15-1.44-.48,0-.93.34-1.06.87-.02.09-.05.19-.05.29v.66Z"/>
          <path d="M284.41,53.42c0,.4,0,.75.03,1.06h-.62l-.04-.63h-.02c-.18.31-.59.72-1.28.72-.61,0-1.33-.34-1.33-1.7v-2.26h.7v2.14c0,.74.22,1.23.86,1.23.47,0,.8-.33.93-.64.04-.1.06-.23.06-.36v-2.38h.7v2.81Z"/>
          <path d="M286.43,49.5v1.11h1.01v.54h-1.01v2.09c0,.48.14.75.53.75.18,0,.32-.02.41-.05l.03.53c-.14.06-.35.1-.62.1-.33,0-.59-.1-.76-.3-.2-.21-.27-.55-.27-1.01v-2.11h-.6v-.54h.6v-.93l.69-.18Z"/>
          <path d="M288.13,53.76c.21.14.58.28.93.28.51,0,.75-.26.75-.58s-.2-.52-.72-.71c-.7-.25-1.02-.63-1.02-1.1,0-.62.5-1.14,1.33-1.14.39,0,.74.11.95.24l-.18.51c-.15-.1-.43-.22-.79-.22-.42,0-.65.24-.65.53,0,.32.23.46.74.66.67.26,1.02.59,1.02,1.17,0,.68-.53,1.16-1.45,1.16-.42,0-.82-.1-1.09-.26l.18-.54Z"/>
          <path d="M295.24,54.48l-.06-.49h-.02c-.22.3-.63.58-1.18.58-.78,0-1.18-.55-1.18-1.11,0-.94.83-1.45,2.33-1.44v-.08c0-.32-.09-.9-.88-.9-.36,0-.74.11-1.01.29l-.16-.46c.32-.21.78-.34,1.27-.34,1.18,0,1.47.81,1.47,1.58v1.45c0,.34.02.66.06.93h-.64ZM295.13,52.51c-.77-.02-1.64.12-1.64.87,0,.46.3.67.66.67.5,0,.82-.32.94-.65.02-.07.04-.15.04-.22v-.67Z"/>
          <path d="M296.95,51.82c0-.46,0-.85-.03-1.21h.62l.02.76h.03c.18-.52.6-.85,1.07-.85.08,0,.14,0,.2.02v.66c-.07-.02-.14-.02-.24-.02-.5,0-.85.38-.94.9-.02.1-.03.21-.03.33v2.06h-.7v-2.66Z"/>
          <path d="M302.83,50.61c-.02.28-.03.59-.03,1.06v2.25c0,.89-.18,1.43-.55,1.77-.38.35-.92.46-1.41.46s-.98-.11-1.29-.32l.18-.54c.26.16.66.3,1.14.3.72,0,1.25-.38,1.25-1.35v-.43h-.02c-.22.36-.63.65-1.23.65-.96,0-1.65-.82-1.65-1.89,0-1.31.86-2.05,1.74-2.05.67,0,1.04.35,1.21.67h.02l.03-.58h.62ZM302.11,52.14c0-.12,0-.22-.04-.32-.13-.41-.47-.74-.98-.74-.67,0-1.15.57-1.15,1.46,0,.76.38,1.39,1.14,1.39.43,0,.82-.27.97-.72.04-.12.06-.26.06-.38v-.7Z"/>
          <path d="M306.73,54.34c-.18.1-.59.22-1.11.22-1.17,0-1.93-.79-1.93-1.97s.82-2.06,2.08-2.06c.42,0,.78.1.98.2l-.16.54c-.17-.1-.43-.18-.82-.18-.89,0-1.37.66-1.37,1.46,0,.9.58,1.45,1.34,1.45.4,0,.66-.1.86-.19l.12.53Z"/>
          <path d="M307.39,51.25c0-.3.2-.5.48-.5s.46.21.47.5c0,.28-.18.5-.48.5-.28,0-.47-.22-.47-.5ZM307.39,54.07c0-.29.2-.5.48-.5s.46.21.47.5c0,.28-.18.5-.48.5-.28,0-.47-.22-.47-.5Z"/>
          <path d="M310.52,49.94h-.02l-.9.49-.14-.54,1.13-.61h.6v5.2h-.68v-4.54Z"/>
        </g>
        <g isolation="isolate">
          <path d="M167.55,57.92h.7v5.68h-.7v-5.68Z"/>
          <path d="M169.83,61.79c.02.95.62,1.34,1.33,1.34.5,0,.81-.09,1.07-.2l.12.5c-.25.11-.67.24-1.29.24-1.19,0-1.9-.78-1.9-1.95s.69-2.09,1.82-2.09c1.26,0,1.6,1.11,1.6,1.82,0,.14-.02.26-.02.33h-2.72ZM171.89,61.28c0-.45-.18-1.14-.98-1.14-.71,0-1.02.66-1.08,1.14h2.05Z"/>
          <path d="M175.59,63.59l-.06-.49h-.02c-.22.3-.63.58-1.18.58-.78,0-1.18-.55-1.18-1.11,0-.94.83-1.45,2.33-1.44v-.08c0-.32-.09-.9-.88-.9-.36,0-.74.11-1.01.29l-.16-.46c.32-.21.78-.34,1.27-.34,1.18,0,1.47.81,1.47,1.58v1.45c0,.34.02.66.06.93h-.64ZM175.48,61.62c-.77-.02-1.64.12-1.64.87,0,.46.3.67.66.67.5,0,.82-.32.94-.65.02-.07.04-.15.04-.22v-.67Z"/>
          <path d="M177.51,59.72l.76,2.17c.13.35.23.67.31.99h.02c.09-.32.2-.64.33-.99l.75-2.17h.74l-1.52,3.87h-.67l-1.47-3.87h.75Z"/>
          <path d="M181.4,61.79c.02.95.62,1.34,1.33,1.34.5,0,.81-.09,1.07-.2l.12.5c-.25.11-.67.24-1.29.24-1.19,0-1.9-.78-1.9-1.95s.69-2.09,1.82-2.09c1.26,0,1.6,1.11,1.6,1.82,0,.14-.02.26-.02.33h-2.72ZM183.46,61.28c0-.45-.18-1.14-.98-1.14-.71,0-1.02.66-1.08,1.14h2.05Z"/>
        </g>
        <g isolation="isolate">
          <path d="M167.55,24.54c0-.5-.02-.9-.03-1.26h.63l.03.66h.02c.29-.47.74-.75,1.38-.75.94,0,1.64.79,1.64,1.97,0,1.39-.85,2.08-1.76,2.08-.51,0-.96-.22-1.19-.61h-.02v2.1h-.7v-4.19ZM168.25,25.57c0,.1.02.2.03.29.13.49.55.82,1.06.82.74,0,1.17-.61,1.17-1.5,0-.78-.41-1.44-1.15-1.44-.48,0-.93.34-1.06.87-.02.09-.05.19-.05.29v.66Z"/>
          <path d="M175.34,26.09c0,.4,0,.75.03,1.06h-.62l-.04-.63h-.02c-.18.31-.59.72-1.28.72-.61,0-1.33-.34-1.33-1.7v-2.26h.7v2.14c0,.74.22,1.23.86,1.23.47,0,.8-.33.93-.64.04-.1.06-.23.06-.36v-2.38h.7v2.81Z"/>
          <path d="M177.36,22.16v1.11h1.01v.54h-1.01v2.09c0,.48.14.75.53.75.18,0,.32-.02.41-.05l.03.53c-.14.06-.35.1-.62.1-.33,0-.59-.1-.76-.3-.2-.21-.27-.55-.27-1.01v-2.11h-.6v-.54h.6v-.93l.69-.18Z"/>
          <path d="M182.61,25.18c0,1.43-.99,2.05-1.93,2.05-1.05,0-1.86-.77-1.86-1.99,0-1.29.85-2.05,1.92-2.05s1.86.81,1.86,1.99ZM179.54,25.22c0,.85.49,1.49,1.17,1.49s1.18-.63,1.18-1.5c0-.66-.33-1.49-1.16-1.49s-1.19.77-1.19,1.5Z"/>
          <path d="M183.47,27.14c.02-.26.03-.66.03-1v-4.68h.7v2.43h.02c.25-.43.7-.71,1.32-.71.96,0,1.64.8,1.63,1.98,0,1.38-.87,2.07-1.74,2.07-.56,0-1.01-.22-1.29-.73h-.02l-.03.64h-.61ZM184.2,25.59c0,.09.02.18.03.26.14.49.54.82,1.05.82.74,0,1.18-.6,1.18-1.49,0-.78-.4-1.44-1.15-1.44-.48,0-.93.33-1.07.86-.02.08-.04.18-.04.29v.7Z"/>
          <path d="M187.11,28.26c.32-.02.6-.11.77-.3.19-.22.26-.53.26-1.46v-3.24h.7v3.51c0,.75-.12,1.24-.46,1.59-.31.31-.82.44-1.2.44l-.07-.55ZM188.93,22.19c0,.23-.16.43-.44.43-.26,0-.43-.2-.43-.43,0-.25.18-.44.45-.44s.42.19.42.44Z"/>
          <path d="M190.39,25.34c.02.95.62,1.34,1.33,1.34.5,0,.81-.09,1.07-.2l.12.5c-.25.11-.67.24-1.29.24-1.19,0-1.9-.78-1.9-1.95s.69-2.09,1.82-2.09c1.26,0,1.6,1.11,1.6,1.82,0,.14-.02.26-.02.33h-2.72ZM192.45,24.83c0-.45-.18-1.14-.98-1.14-.71,0-1.02.66-1.08,1.14h2.05Z"/>
          <path d="M196.76,27c-.18.1-.59.22-1.11.22-1.17,0-1.93-.79-1.93-1.97s.82-2.06,2.08-2.06c.42,0,.78.1.98.2l-.16.54c-.17-.1-.43-.18-.82-.18-.89,0-1.37.66-1.37,1.46,0,.9.58,1.45,1.34,1.45.4,0,.66-.1.86-.19l.12.53Z"/>
          <path d="M198.54,22.16v1.11h1.01v.54h-1.01v2.09c0,.48.14.75.53.75.18,0,.32-.02.41-.05l.03.53c-.14.06-.35.1-.62.1-.33,0-.59-.1-.76-.3-.2-.21-.27-.55-.27-1.01v-2.11h-.6v-.54h.6v-.93l.69-.18Z"/>
        </g>
        <g isolation="isolate">
          <path d="M167.55,33.65c0-.5-.02-.9-.03-1.26h.63l.03.66h.02c.29-.47.74-.75,1.38-.75.94,0,1.64.79,1.64,1.97,0,1.39-.85,2.08-1.76,2.08-.51,0-.96-.22-1.19-.61h-.02v2.1h-.7v-4.19ZM168.25,34.68c0,.1.02.2.03.29.13.49.55.82,1.06.82.74,0,1.17-.61,1.17-1.5,0-.78-.41-1.44-1.15-1.44-.48,0-.93.34-1.06.87-.02.09-.05.19-.05.29v.66Z"/>
          <path d="M175.34,35.2c0,.4,0,.75.03,1.06h-.62l-.04-.63h-.02c-.18.31-.59.72-1.28.72-.61,0-1.33-.34-1.33-1.7v-2.26h.7v2.14c0,.74.22,1.23.86,1.23.47,0,.8-.33.93-.64.04-.1.06-.23.06-.36v-2.38h.7v2.81Z"/>
          <path d="M177.36,31.28v1.11h1.01v.54h-1.01v2.09c0,.48.14.75.53.75.18,0,.32-.02.41-.05l.03.53c-.14.06-.35.1-.62.1-.33,0-.59-.1-.76-.3-.2-.21-.27-.55-.27-1.01v-2.11h-.6v-.54h.6v-.93l.69-.18Z"/>
          <path d="M182.61,34.29c0,1.43-.99,2.05-1.93,2.05-1.05,0-1.86-.77-1.86-1.99,0-1.29.85-2.05,1.92-2.05s1.86.81,1.86,1.99ZM179.54,34.33c0,.85.49,1.49,1.17,1.49s1.18-.63,1.18-1.5c0-.66-.33-1.49-1.16-1.49s-1.19.77-1.19,1.5Z"/>
          <path d="M183.47,36.26c.02-.26.03-.66.03-1v-4.68h.7v2.43h.02c.25-.43.7-.71,1.32-.71.96,0,1.64.8,1.63,1.98,0,1.38-.87,2.07-1.74,2.07-.56,0-1.01-.22-1.29-.73h-.02l-.03.64h-.61ZM184.2,34.71c0,.09.02.18.03.26.14.49.54.82,1.05.82.74,0,1.18-.6,1.18-1.49,0-.78-.4-1.44-1.15-1.44-.48,0-.93.33-1.07.86-.02.08-.04.18-.04.29v.7Z"/>
          <path d="M187.11,37.38c.32-.02.6-.11.77-.3.19-.22.26-.53.26-1.46v-3.24h.7v3.51c0,.75-.12,1.24-.46,1.59-.31.31-.82.44-1.2.44l-.07-.55ZM188.93,31.3c0,.23-.16.43-.44.43-.26,0-.43-.2-.43-.43,0-.25.18-.44.45-.44s.42.19.42.44Z"/>
          <path d="M190.39,34.45c.02.95.62,1.34,1.33,1.34.5,0,.81-.09,1.07-.2l.12.5c-.25.11-.67.24-1.29.24-1.19,0-1.9-.78-1.9-1.95s.69-2.09,1.82-2.09c1.26,0,1.6,1.11,1.6,1.82,0,.14-.02.26-.02.33h-2.72ZM192.45,33.95c0-.45-.18-1.14-.98-1.14-.71,0-1.02.66-1.08,1.14h2.05Z"/>
          <path d="M196.76,36.11c-.18.1-.59.22-1.11.22-1.17,0-1.93-.79-1.93-1.97s.82-2.06,2.08-2.06c.42,0,.78.1.98.2l-.16.54c-.17-.1-.43-.18-.82-.18-.89,0-1.37.66-1.37,1.46,0,.9.58,1.45,1.34,1.45.4,0,.66-.1.86-.19l.12.53Z"/>
          <path d="M198.54,31.28v1.11h1.01v.54h-1.01v2.09c0,.48.14.75.53.75.18,0,.32-.02.41-.05l.03.53c-.14.06-.35.1-.62.1-.33,0-.59-.1-.76-.3-.2-.21-.27-.55-.27-1.01v-2.11h-.6v-.54h.6v-.93l.69-.18Z"/>
        </g>
        <g isolation="isolate">
          <path d="M262.17,27.15v-.43l.55-.54c1.33-1.26,1.93-1.93,1.94-2.72,0-.53-.26-1.02-1.03-1.02-.47,0-.86.24-1.1.44l-.22-.5c.36-.3.87-.53,1.47-.53,1.12,0,1.59.77,1.59,1.51,0,.96-.7,1.74-1.79,2.79l-.42.38v.02h2.33v.58h-3.32Z"/>
        </g>
        <g isolation="isolate">
          <path d="M262.17,36.26v-.43l.55-.54c1.33-1.26,1.93-1.93,1.94-2.72,0-.53-.26-1.02-1.03-1.02-.47,0-.86.24-1.1.44l-.22-.5c.36-.3.87-.53,1.47-.53,1.12,0,1.59.77,1.59,1.51,0,.96-.7,1.73-1.79,2.79l-.42.38v.02h2.33v.58h-3.32Z"/>
        </g>
      </g>
    </g>
  </g>
</svg>