<?xml version="1.0" encoding="UTF-8"?>
<svg id="Layer_2" data-name="Layer 2" xmlns="http://www.w3.org/2000/svg" width="333.57" height="123.47" viewBox="0 0 333.57 123.47">
  <g id="Layer_1_copy" data-name="Layer 1 copy">
    <path d="M70.36,20.66h70.73c2.83,0,5.13,1.65,5.13,3.69v68.62c0,2.04-2.3,3.69-5.13,3.69h-70.73c-2.84,0-5.13-1.65-5.13-3.69V24.35c0-2.04,2.3-3.69,5.13-3.69Z" fill="#fff" stroke="#999" stroke-width="3"/>
    <rect x="175.17" y="13.33" width="158.4" height="63.83" fill="#ccc"/>
    <g isolation="isolate">
      <path d="M11.57,34.7v-2.29l-1.7-3.1h.79l.76,1.49c.21.41.37.74.54,1.11h.02c.15-.35.34-.7.54-1.11l.78-1.49h.79l-1.81,3.09v2.29h-.7Z"/>
      <path d="M14.92,33l-.56,1.7h-.72l1.83-5.39h.84l1.84,5.39h-.74l-.58-1.7h-1.91ZM16.69,32.46l-.53-1.55c-.12-.35-.2-.67-.28-.98h-.02c-.08.32-.17.65-.27.98l-.53,1.56h1.62Z"/>
      <path d="M18.95,29.38c.35-.07.86-.11,1.34-.11.74,0,1.22.14,1.56.44.27.24.42.61.42,1.02,0,.71-.45,1.18-1.02,1.38v.02c.42.14.66.53.79,1.09.18.75.3,1.27.42,1.48h-.72c-.09-.15-.21-.62-.36-1.29-.16-.74-.45-1.02-1.08-1.05h-.66v2.33h-.7v-5.32ZM19.64,31.83h.71c.74,0,1.22-.41,1.22-1.02,0-.7-.5-1-1.24-1.01-.34,0-.58.03-.69.06v1.97Z"/>
      <path d="M24.56,34.7l-1.76-5.39h.75l.84,2.65c.23.73.43,1.38.58,2.01h.02c.15-.62.38-1.3.62-2.01l.91-2.66h.74l-1.93,5.39h-.77Z"/>
      <path d="M7.01,39.34c0,.24-.17.43-.45.43-.25,0-.42-.19-.42-.43s.18-.44.44-.44.43.19.43.44ZM6.22,44.3v-3.87h.7v3.87h-.7Z"/>
      <path d="M8.1,41.47c0-.4,0-.73-.03-1.05h.62l.04.64h.02c.19-.37.64-.73,1.28-.73.54,0,1.37.32,1.37,1.65v2.31h-.7v-2.23c0-.62-.23-1.14-.9-1.14-.46,0-.82.33-.94.72-.03.09-.05.21-.05.33v2.33h-.7v-2.82Z"/>
      <path d="M13.35,39.31v1.11h1.01v.54h-1.01v2.09c0,.48.14.75.53.75.18,0,.32-.02.41-.05l.03.53c-.14.06-.35.1-.62.1-.33,0-.59-.1-.76-.3-.2-.21-.27-.55-.27-1.01v-2.11h-.6v-.54h.6v-.93l.69-.18Z"/>
      <path d="M15.5,42.49c.02.95.62,1.34,1.33,1.34.5,0,.81-.09,1.07-.2l.12.5c-.25.11-.67.24-1.29.24-1.19,0-1.9-.78-1.9-1.95s.69-2.09,1.82-2.09c1.26,0,1.6,1.11,1.6,1.82,0,.14-.02.26-.02.33h-2.72ZM17.56,41.99c0-.45-.18-1.14-.98-1.14-.71,0-1.02.66-1.08,1.14h2.05Z"/>
      <path d="M19.11,41.63c0-.46,0-.85-.03-1.21h.62l.02.76h.03c.18-.52.6-.85,1.07-.85.08,0,.14,0,.2.02v.66c-.07-.02-.14-.02-.24-.02-.5,0-.85.38-.94.9-.02.1-.03.21-.03.33v2.06h-.7v-2.66Z"/>
      <path d="M21.76,41.47c0-.4,0-.73-.03-1.05h.62l.04.64h.02c.19-.37.64-.73,1.28-.73.54,0,1.37.32,1.37,1.65v2.31h-.7v-2.23c0-.62-.23-1.14-.9-1.14-.46,0-.82.33-.94.72-.03.09-.05.21-.05.33v2.33h-.7v-2.82Z"/>
      <path d="M28.34,44.3l-.06-.49h-.02c-.22.3-.63.58-1.18.58-.78,0-1.18-.55-1.18-1.11,0-.94.83-1.45,2.33-1.44v-.08c0-.32-.09-.9-.88-.9-.36,0-.74.11-1.01.29l-.16-.46c.32-.21.78-.34,1.27-.34,1.18,0,1.47.81,1.47,1.58v1.45c0,.34.02.66.06.93h-.64ZM28.24,42.32c-.77-.02-1.64.12-1.64.87,0,.46.3.67.66.67.5,0,.82-.32.94-.65.02-.07.04-.15.04-.22v-.67Z"/>
      <path d="M30.06,38.62h.7v5.68h-.7v-5.68Z"/>
      <path d="M10.48,53.18c.21.14.58.28.93.28.51,0,.75-.26.75-.58s-.2-.52-.72-.71c-.7-.25-1.02-.63-1.02-1.1,0-.62.5-1.14,1.33-1.14.39,0,.74.11.95.24l-.18.51c-.15-.1-.43-.22-.79-.22-.42,0-.65.24-.65.53,0,.32.23.46.74.66.67.26,1.02.59,1.02,1.17,0,.68-.53,1.16-1.45,1.16-.42,0-.82-.1-1.09-.26l.18-.54Z"/>
      <path d="M14.6,48.92v1.11h1.01v.54h-1.01v2.09c0,.48.14.75.53.75.18,0,.32-.02.41-.05l.03.53c-.14.06-.35.1-.62.1-.33,0-.59-.1-.76-.3-.2-.21-.27-.55-.27-1.01v-2.11h-.6v-.54h.6v-.93l.69-.18Z"/>
      <path d="M18.54,53.9l-.06-.49h-.02c-.22.3-.63.58-1.18.58-.78,0-1.18-.55-1.18-1.11,0-.94.83-1.45,2.33-1.44v-.08c0-.32-.09-.9-.88-.9-.36,0-.74.11-1.01.29l-.16-.46c.32-.21.78-.34,1.27-.34,1.18,0,1.47.81,1.47,1.58v1.45c0,.34.02.66.06.93h-.64ZM18.44,51.92c-.77-.02-1.64.12-1.64.87,0,.46.3.67.66.67.5,0,.82-.32.94-.65.02-.07.04-.15.04-.22v-.67Z"/>
      <path d="M23.01,53.75c-.18.1-.59.22-1.11.22-1.17,0-1.93-.79-1.93-1.97s.82-2.06,2.08-2.06c.42,0,.78.1.98.2l-.16.54c-.17-.1-.43-.18-.82-.18-.89,0-1.37.66-1.37,1.46,0,.9.58,1.45,1.34,1.45.4,0,.66-.1.86-.19l.12.53Z"/>
      <path d="M24.53,51.8h.02c.1-.14.23-.3.34-.44l1.14-1.34h.85l-1.5,1.59,1.7,2.28h-.86l-1.34-1.86-.36.4v1.46h-.7v-5.68h.7v3.58Z"/>
    </g>
    <g isolation="isolate">
      <path d="M176.98,6.7v-2.29l-1.7-3.1h.79l.76,1.49c.21.41.37.74.54,1.11h.02c.15-.35.34-.7.54-1.11l.78-1.49h.79l-1.81,3.09v2.29h-.7Z"/>
      <path d="M180.33,5l-.56,1.7h-.72l1.83-5.39h.84l1.84,5.39h-.74l-.58-1.7h-1.91ZM182.09,4.46l-.53-1.55c-.12-.35-.2-.67-.28-.98h-.02c-.08.32-.17.65-.27.98l-.53,1.56h1.62Z"/>
      <path d="M184.35,1.38c.35-.07.86-.11,1.34-.11.74,0,1.22.14,1.56.44.27.24.42.61.42,1.02,0,.71-.45,1.18-1.02,1.38v.02c.42.14.66.53.79,1.09.18.75.3,1.27.42,1.48h-.72c-.09-.15-.21-.62-.36-1.29-.16-.74-.45-1.02-1.08-1.05h-.66v2.33h-.7V1.38ZM185.05,3.83h.71c.74,0,1.22-.41,1.22-1.02,0-.7-.5-1-1.24-1.01-.34,0-.58.03-.69.06v1.97Z"/>
      <path d="M189.97,6.7l-1.76-5.39h.75l.84,2.65c.23.73.43,1.38.58,2.01h.02c.15-.62.38-1.3.62-2.01l.91-2.66h.74l-1.93,5.39h-.77Z"/>
      <path d="M195.7,1.74c0,.24-.17.43-.45.43-.25,0-.42-.19-.42-.43s.18-.44.44-.44.43.19.43.44ZM194.92,6.7v-3.87h.7v3.87h-.7Z"/>
      <path d="M196.79,3.87c0-.4,0-.73-.03-1.05h.62l.04.64h.02c.19-.37.64-.73,1.28-.73.54,0,1.37.32,1.37,1.65v2.31h-.7v-2.23c0-.62-.23-1.14-.9-1.14-.46,0-.82.33-.94.72-.03.09-.05.21-.05.33v2.33h-.7v-2.82Z"/>
      <path d="M201.14,5.98c.21.14.58.28.93.28.51,0,.75-.26.75-.58s-.2-.52-.72-.71c-.7-.25-1.02-.63-1.02-1.09,0-.62.5-1.14,1.33-1.14.39,0,.74.11.95.24l-.18.51c-.15-.1-.43-.22-.79-.22-.42,0-.65.24-.65.53,0,.32.23.46.74.66.67.26,1.02.59,1.02,1.17,0,.68-.53,1.16-1.45,1.16-.42,0-.82-.1-1.09-.26l.18-.54Z"/>
      <path d="M205.25,1.71v1.11h1.01v.54h-1.01v2.09c0,.48.14.75.53.75.18,0,.32-.02.41-.05l.03.53c-.14.06-.35.1-.62.1-.33,0-.59-.1-.76-.3-.2-.21-.27-.55-.27-1.01v-2.11h-.6v-.54h.6v-.93l.69-.18Z"/>
      <path d="M207.05,4.03c0-.46,0-.85-.03-1.21h.62l.02.76h.03c.18-.52.6-.85,1.07-.85.08,0,.14,0,.2.02v.66c-.07-.02-.14-.02-.24-.02-.5,0-.85.38-.94.9-.02.1-.03.21-.03.33v2.06h-.7v-2.66Z"/>
      <path d="M212.9,5.64c0,.4,0,.75.03,1.06h-.62l-.04-.63h-.02c-.18.31-.59.72-1.28.72-.61,0-1.33-.34-1.33-1.7v-2.26h.7v2.14c0,.74.22,1.23.86,1.23.47,0,.8-.33.93-.64.04-.1.06-.23.06-.36v-2.38h.7v2.81Z"/>
      <path d="M216.83,6.55c-.18.1-.59.22-1.11.22-1.17,0-1.93-.79-1.93-1.97s.82-2.06,2.08-2.06c.42,0,.78.1.98.2l-.16.54c-.17-.1-.43-.18-.82-.18-.89,0-1.37.66-1.37,1.46,0,.9.58,1.45,1.34,1.45.4,0,.66-.1.86-.19l.12.53Z"/>
      <path d="M218.61,1.71v1.11h1.01v.54h-1.01v2.09c0,.48.14.75.53.75.18,0,.32-.02.41-.05l.03.53c-.14.06-.35.1-.62.1-.33,0-.59-.1-.76-.3-.2-.21-.27-.55-.27-1.01v-2.11h-.6v-.54h.6v-.93l.69-.18Z"/>
      <path d="M221.19,1.74c0,.24-.17.43-.45.43-.25,0-.42-.19-.42-.43s.18-.44.44-.44.43.19.43.44ZM220.41,6.7v-3.87h.7v3.87h-.7Z"/>
      <path d="M225.78,4.73c0,1.43-.99,2.05-1.93,2.05-1.05,0-1.86-.77-1.86-1.99,0-1.29.85-2.05,1.92-2.05s1.86.81,1.86,1.99ZM222.71,4.77c0,.85.49,1.49,1.17,1.49s1.18-.63,1.18-1.5c0-.66-.33-1.49-1.16-1.49s-1.19.77-1.19,1.5Z"/>
      <path d="M226.67,3.87c0-.4,0-.73-.03-1.05h.62l.04.64h.02c.19-.37.64-.73,1.28-.73.54,0,1.37.32,1.37,1.65v2.31h-.7v-2.23c0-.62-.23-1.14-.9-1.14-.46,0-.82.33-.94.72-.03.09-.05.21-.05.33v2.33h-.7v-2.82Z"/>
      <path d="M231.02,5.98c.21.14.58.28.93.28.51,0,.75-.26.75-.58s-.2-.52-.72-.71c-.7-.25-1.02-.63-1.02-1.09,0-.62.5-1.14,1.33-1.14.39,0,.74.11.95.24l-.18.51c-.15-.1-.43-.22-.79-.22-.42,0-.65.24-.65.53,0,.32.23.46.74.66.67.26,1.02.59,1.02,1.17,0,.68-.53,1.16-1.45,1.16-.42,0-.82-.1-1.09-.26l.18-.54Z"/>
    </g>
    <g isolation="isolate">
      <path d="M16.86,86.19v-.43l.55-.54c1.33-1.26,1.93-1.93,1.94-2.72,0-.53-.26-1.02-1.03-1.02-.47,0-.86.24-1.1.44l-.22-.5c.36-.3.87-.53,1.47-.53,1.12,0,1.59.77,1.59,1.51,0,.96-.7,1.74-1.79,2.79l-.42.38v.02h2.33v.58h-3.32Z"/>
    </g>
    <g isolation="isolate">
      <path d="M16.86,101.95v-.43l.55-.54c1.33-1.26,1.93-1.93,1.94-2.72,0-.53-.26-1.02-1.03-1.02-.47,0-.86.24-1.1.44l-.22-.5c.36-.3.87-.53,1.47-.53,1.12,0,1.59.77,1.59,1.51,0,.96-.7,1.74-1.79,2.79l-.42.38v.02h2.33v.58h-3.32Z"/>
    </g>
    <g isolation="isolate">
      <path d="M10.99,116.99c.21.14.58.28.93.28.51,0,.75-.26.75-.58s-.2-.52-.72-.71c-.7-.25-1.02-.63-1.02-1.1,0-.62.5-1.14,1.33-1.14.39,0,.74.11.95.24l-.18.51c-.15-.1-.43-.22-.79-.22-.42,0-.65.24-.65.53,0,.32.23.46.74.66.67.26,1.02.59,1.02,1.17,0,.68-.53,1.16-1.45,1.16-.42,0-.82-.1-1.09-.26l.18-.54Z"/>
      <path d="M14.64,115.9c.02.95.62,1.34,1.33,1.34.5,0,.81-.09,1.07-.2l.12.5c-.25.11-.67.24-1.29.24-1.19,0-1.9-.78-1.9-1.95s.69-2.09,1.82-2.09c1.26,0,1.6,1.11,1.6,1.82,0,.14-.02.26-.02.33h-2.72ZM16.71,115.4c0-.45-.18-1.14-.98-1.14-.71,0-1.02.66-1.08,1.14h2.05Z"/>
      <path d="M18.26,112.03h.7v5.68h-.7v-5.68Z"/>
      <path d="M20.22,117.71v-3.33h-.54v-.54h.54v-.18c0-.54.12-1.04.45-1.35.26-.26.62-.36.94-.36.25,0,.46.06.6.11l-.1.54c-.1-.05-.25-.09-.45-.09-.6,0-.75.53-.75,1.12v.21h.94v.54h-.94v3.33h-.7Z"/>
    </g>
    <g isolation="isolate">
      <path d="M70.31,32.07c0-.46,0-.85-.03-1.21h.62l.02.76h.03c.18-.52.6-.85,1.07-.85.08,0,.14,0,.2.02v.66c-.07-.02-.14-.02-.24-.02-.5,0-.85.38-.94.9-.02.1-.03.21-.03.33v2.06h-.7v-2.66Z"/>
      <path d="M72.93,34.74c.02-.26.03-.66.03-1v-4.68h.7v2.43h.02c.25-.43.7-.71,1.32-.71.96,0,1.64.8,1.63,1.98,0,1.38-.87,2.07-1.74,2.07-.56,0-1.01-.22-1.3-.73h-.02l-.03.64h-.61ZM73.65,33.19c0,.09.02.18.03.26.14.49.54.82,1.06.82.74,0,1.17-.6,1.17-1.49,0-.78-.4-1.44-1.15-1.44-.48,0-.93.33-1.07.86-.02.08-.04.18-.04.29v.7Z"/>
      <path d="M80.93,35.34v.4h-4v-.4h4Z"/>
      <path d="M84.27,34.59c-.18.1-.59.22-1.11.22-1.17,0-1.93-.79-1.93-1.97s.82-2.06,2.08-2.06c.42,0,.78.1.98.2l-.16.54c-.17-.1-.43-.18-.82-.18-.89,0-1.37.66-1.37,1.46,0,.9.58,1.45,1.34,1.45.4,0,.66-.1.86-.19l.12.53Z"/>
      <path d="M88.55,32.77c0,1.43-.99,2.05-1.93,2.05-1.05,0-1.86-.77-1.86-1.99,0-1.29.85-2.05,1.92-2.05s1.86.81,1.86,1.99ZM85.48,32.81c0,.85.49,1.49,1.17,1.49s1.18-.63,1.18-1.5c0-.66-.33-1.49-1.16-1.49s-1.19.77-1.19,1.5Z"/>
      <path d="M89.44,31.91c0-.4,0-.73-.03-1.05h.62l.04.64h.02c.19-.37.64-.73,1.28-.73.54,0,1.37.32,1.37,1.65v2.31h-.7v-2.23c0-.62-.23-1.14-.9-1.14-.46,0-.82.33-.94.72-.03.09-.05.21-.05.33v2.33h-.7v-2.82Z"/>
      <path d="M94.7,29.75v1.11h1.01v.54h-1.01v2.09c0,.48.14.75.53.75.18,0,.32-.02.41-.05l.03.53c-.14.06-.35.1-.62.1-.33,0-.59-.1-.76-.3-.2-.21-.27-.55-.27-1.01v-2.11h-.6v-.54h.6v-.93l.69-.18Z"/>
      <path d="M96.5,32.07c0-.46,0-.85-.03-1.21h.62l.02.76h.03c.18-.52.6-.85,1.07-.85.08,0,.14,0,.2.02v.66c-.07-.02-.14-.02-.24-.02-.5,0-.85.38-.94.9-.02.1-.03.21-.03.33v2.06h-.7v-2.66Z"/>
      <path d="M102.53,32.77c0,1.43-.99,2.05-1.93,2.05-1.05,0-1.86-.77-1.86-1.99,0-1.29.85-2.05,1.92-2.05s1.86.81,1.86,1.99ZM99.46,32.81c0,.85.49,1.49,1.17,1.49s1.18-.63,1.18-1.5c0-.66-.33-1.49-1.16-1.49s-1.19.77-1.19,1.5Z"/>
      <path d="M103.42,29.06h.7v5.68h-.7v-5.68Z"/>
      <path d="M108.73,35.34v.4h-4v-.4h4Z"/>
      <path d="M109.38,34.74v-3.33h-.54v-.54h.54v-.18c0-.54.12-1.04.45-1.35.26-.26.62-.36.94-.36.25,0,.46.06.6.11l-.1.54c-.1-.05-.25-.09-.45-.09-.6,0-.75.53-.75,1.12v.21h.94v.54h-.94v3.33h-.7Z"/>
      <path d="M111.65,32.07c0-.46,0-.85-.03-1.21h.62l.02.76h.03c.18-.52.6-.85,1.07-.85.08,0,.14,0,.2.02v.66c-.07-.02-.14-.02-.24-.02-.5,0-.85.38-.94.9-.02.1-.03.21-.03.33v2.06h-.7v-2.66Z"/>
      <path d="M116.37,34.74l-.06-.49h-.02c-.22.3-.63.58-1.18.58-.78,0-1.18-.55-1.18-1.11,0-.94.83-1.45,2.33-1.44v-.08c0-.32-.09-.9-.88-.9-.36,0-.74.11-1.01.29l-.16-.46c.32-.21.78-.34,1.27-.34,1.18,0,1.47.81,1.47,1.58v1.45c0,.34.02.66.06.93h-.64ZM116.26,32.76c-.77-.02-1.64.12-1.64.87,0,.46.3.67.66.67.5,0,.82-.32.94-.65.02-.07.04-.15.04-.22v-.67Z"/>
      <path d="M118.08,31.91c0-.4,0-.73-.03-1.05h.62l.03.62h.02c.22-.37.58-.71,1.21-.71.53,0,.93.32,1.1.78h.02c.12-.22.27-.38.43-.5.23-.18.49-.27.86-.27.51,0,1.27.34,1.27,1.68v2.28h-.69v-2.19c0-.74-.27-1.19-.84-1.19-.4,0-.71.3-.83.64-.03.1-.06.22-.06.35v2.39h-.69v-2.32c0-.62-.27-1.06-.81-1.06-.44,0-.76.35-.87.7-.04.1-.06.22-.06.34v2.33h-.69v-2.82Z"/>
      <path d="M125.14,32.93c.02.95.62,1.34,1.33,1.34.5,0,.81-.09,1.07-.2l.12.5c-.25.11-.67.24-1.29.24-1.19,0-1.9-.78-1.9-1.95s.69-2.09,1.82-2.09c1.26,0,1.6,1.11,1.6,1.82,0,.14-.02.26-.02.33h-2.72ZM127.21,32.43c0-.45-.18-1.14-.98-1.14-.71,0-1.02.66-1.08,1.14h2.05Z"/>
      <path d="M132.17,35.34v.4h-4v-.4h4Z"/>
      <path d="M133.61,29.75v1.11h1.01v.54h-1.01v2.09c0,.48.14.75.53.75.18,0,.32-.02.41-.05l.03.53c-.14.06-.35.1-.62.1-.33,0-.59-.1-.76-.3-.2-.21-.27-.55-.27-1.01v-2.11h-.6v-.54h.6v-.93l.69-.18Z"/>
    </g>
    <g isolation="isolate">
      <path d="M102.21,69.26c.21.14.58.28.93.28.51,0,.75-.26.75-.58s-.2-.52-.72-.71c-.7-.25-1.02-.63-1.02-1.1,0-.62.5-1.14,1.33-1.14.39,0,.74.11.95.24l-.18.51c-.15-.1-.43-.22-.79-.22-.42,0-.65.24-.65.53,0,.32.23.46.74.66.67.26,1.02.59,1.02,1.17,0,.68-.53,1.16-1.45,1.16-.42,0-.82-.1-1.09-.26l.18-.54Z"/>
      <path d="M105.48,67.38c0-.5-.02-.9-.03-1.26h.63l.03.66h.02c.29-.47.74-.75,1.38-.75.94,0,1.64.79,1.64,1.97,0,1.39-.85,2.08-1.76,2.08-.51,0-.96-.22-1.19-.61h-.02v2.1h-.7v-4.19ZM106.17,68.41c0,.1.02.2.03.29.13.49.55.82,1.06.82.74,0,1.17-.61,1.17-1.5,0-.78-.41-1.44-1.15-1.44-.48,0-.93.34-1.06.87-.02.09-.05.19-.05.29v.66Z"/>
    </g>
    <g isolation="isolate">
      <path d="M102.31,49.75c0-.5-.02-.9-.03-1.26h.63l.03.66h.02c.29-.47.74-.75,1.38-.75.94,0,1.64.79,1.64,1.97,0,1.39-.85,2.08-1.76,2.08-.51,0-.96-.22-1.19-.61h-.02v2.1h-.7v-4.19ZM103.01,50.78c0,.1.02.2.03.29.13.49.55.82,1.06.82.74,0,1.17-.61,1.17-1.5,0-.78-.41-1.44-1.15-1.44-.48,0-.93.34-1.06.87-.02.09-.05.19-.05.29v.66Z"/>
      <path d="M109.62,52.21c-.18.1-.59.22-1.11.22-1.17,0-1.93-.79-1.93-1.97s.82-2.06,2.08-2.06c.42,0,.78.1.98.2l-.16.54c-.17-.1-.43-.18-.82-.18-.89,0-1.37.66-1.37,1.46,0,.9.58,1.45,1.34,1.45.4,0,.66-.1.86-.19l.12.53Z"/>
    </g>
    <g isolation="isolate">
      <path d="M98.21,86.89c.21.14.58.28.93.28.51,0,.75-.26.75-.58s-.2-.52-.72-.71c-.7-.25-1.02-.63-1.02-1.1,0-.62.5-1.14,1.33-1.14.39,0,.74.11.95.24l-.18.51c-.15-.1-.43-.22-.79-.22-.42,0-.65.24-.65.53,0,.32.23.46.74.66.67.26,1.02.59,1.02,1.17,0,.68-.53,1.16-1.45,1.16-.42,0-.82-.1-1.09-.26l.18-.54Z"/>
      <path d="M101.87,85.8c.02.95.62,1.34,1.33,1.34.5,0,.81-.09,1.07-.2l.12.5c-.25.11-.67.24-1.29.24-1.19,0-1.9-.78-1.9-1.95s.69-2.09,1.82-2.09c1.26,0,1.6,1.11,1.6,1.82,0,.14-.02.26-.02.33h-2.72ZM103.93,85.3c0-.45-.18-1.14-.98-1.14-.71,0-1.02.66-1.08,1.14h2.05Z"/>
      <path d="M105.49,81.93h.7v5.68h-.7v-5.68Z"/>
      <path d="M107.45,87.61v-3.33h-.54v-.54h.54v-.18c0-.54.12-1.04.45-1.35.26-.26.62-.36.94-.36.25,0,.46.06.6.11l-.1.54c-.1-.05-.25-.09-.45-.09-.6,0-.75.53-.75,1.12v.21h.94v.54h-.94v3.33h-.7Z"/>
    </g>
    <g isolation="isolate">
      <path d="M179.75,21.23c0-.5-.02-.9-.03-1.26h.63l.03.66h.02c.29-.47.74-.75,1.38-.75.94,0,1.64.79,1.64,1.97,0,1.39-.85,2.08-1.76,2.08-.51,0-.96-.22-1.19-.61h-.02v2.1h-.7v-4.19ZM180.45,22.26c0,.1.02.2.03.29.13.49.55.82,1.06.82.74,0,1.17-.61,1.17-1.5,0-.78-.41-1.44-1.15-1.44-.48,0-.93.34-1.06.87-.02.09-.05.19-.05.29v.66Z"/>
      <path d="M187.54,22.78c0,.4,0,.75.03,1.06h-.62l-.04-.63h-.02c-.18.31-.59.72-1.28.72-.61,0-1.33-.34-1.33-1.7v-2.26h.7v2.14c0,.74.22,1.23.86,1.23.47,0,.8-.33.93-.64.04-.1.06-.23.06-.36v-2.38h.7v2.81Z"/>
      <path d="M189.56,18.86v1.11h1.01v.54h-1.01v2.09c0,.48.14.75.53.75.18,0,.32-.02.41-.05l.03.53c-.14.06-.35.1-.62.1-.33,0-.59-.1-.76-.3-.2-.21-.27-.55-.27-1.01v-2.11h-.6v-.54h.6v-.93l.69-.18Z"/>
      <path d="M191.26,23.12c.21.14.58.28.93.28.51,0,.75-.26.75-.58s-.2-.52-.72-.71c-.7-.25-1.02-.63-1.02-1.09,0-.62.5-1.14,1.33-1.14.39,0,.74.11.95.24l-.18.51c-.15-.1-.43-.22-.79-.22-.42,0-.65.24-.65.53,0,.32.23.46.74.66.67.26,1.02.59,1.02,1.17,0,.68-.53,1.16-1.45,1.16-.42,0-.82-.1-1.09-.26l.18-.54Z"/>
      <path d="M194.92,22.03c.02.95.62,1.34,1.33,1.34.5,0,.81-.09,1.07-.2l.12.5c-.25.11-.67.24-1.29.24-1.19,0-1.9-.78-1.9-1.95s.69-2.09,1.82-2.09c1.26,0,1.6,1.11,1.6,1.82,0,.14-.02.26-.02.33h-2.72ZM196.98,21.53c0-.45-.18-1.14-.98-1.14-.71,0-1.02.66-1.08,1.14h2.05Z"/>
      <path d="M198.54,18.16h.7v5.68h-.7v-5.68Z"/>
      <path d="M200.5,23.84v-3.33h-.54v-.54h.54v-.18c0-.54.12-1.04.45-1.35.26-.26.62-.36.94-.36.25,0,.46.06.6.11l-.1.54c-.1-.05-.25-.09-.45-.09-.6,0-.75.53-.75,1.12v.21h.94v.54h-.94v3.33h-.7Z"/>
    </g>
    <g isolation="isolate">
      <path d="M183.25,49.21c0,1.43-.99,2.05-1.93,2.05-1.05,0-1.86-.77-1.86-1.99,0-1.29.85-2.05,1.92-2.05s1.86.81,1.86,1.99ZM180.18,49.25c0,.85.49,1.49,1.17,1.49s1.18-.63,1.18-1.5c0-.66-.33-1.49-1.16-1.49s-1.19.77-1.19,1.5Z"/>
      <path d="M184.14,48.57c0-.5-.02-.9-.03-1.26h.63l.03.66h.02c.29-.47.74-.75,1.38-.75.94,0,1.64.79,1.64,1.97,0,1.39-.85,2.08-1.76,2.08-.51,0-.96-.22-1.19-.61h-.02v2.1h-.7v-4.19ZM184.84,49.6c0,.1.02.2.03.29.13.49.55.82,1.05.82.74,0,1.18-.61,1.18-1.5,0-.78-.41-1.44-1.15-1.44-.48,0-.93.34-1.06.87-.02.09-.05.19-.05.29v.66Z"/>
      <path d="M189.54,46.19v1.11h1.01v.54h-1.01v2.09c0,.48.14.75.53.75.18,0,.32-.02.41-.05l.03.53c-.14.06-.35.1-.62.1-.33,0-.59-.1-.76-.3-.2-.21-.27-.55-.27-1.01v-2.11h-.6v-.54h.6v-.93l.69-.18Z"/>
      <path d="M194.76,51.77v.4h-4v-.4h4Z"/>
      <path d="M195.34,48.57c0-.5-.02-.9-.03-1.26h.63l.03.66h.02c.29-.47.74-.75,1.38-.75.94,0,1.64.79,1.64,1.97,0,1.39-.85,2.08-1.76,2.08-.51,0-.96-.22-1.19-.61h-.02v2.1h-.7v-4.19ZM196.04,49.6c0,.1.02.2.03.29.13.49.55.82,1.06.82.74,0,1.17-.61,1.17-1.5,0-.78-.41-1.44-1.15-1.44-.48,0-.93.34-1.06.87-.02.09-.05.19-.05.29v.66Z"/>
      <path d="M199.9,45.5h.7v5.68h-.7v-5.68Z"/>
      <path d="M205.02,50.12c0,.4,0,.75.03,1.06h-.62l-.04-.63h-.02c-.18.31-.59.72-1.28.72-.61,0-1.33-.34-1.33-1.7v-2.26h.7v2.14c0,.74.22,1.23.86,1.23.47,0,.8-.33.93-.64.04-.1.06-.23.06-.36v-2.38h.7v2.81Z"/>
      <path d="M206.1,50.45c.21.14.58.28.93.28.51,0,.75-.26.75-.58s-.2-.52-.72-.71c-.7-.25-1.02-.63-1.02-1.09,0-.62.5-1.14,1.33-1.14.39,0,.74.11.95.24l-.18.51c-.15-.1-.43-.22-.79-.22-.42,0-.65.24-.65.53,0,.32.23.46.74.66.67.26,1.02.59,1.02,1.17,0,.68-.53,1.16-1.45,1.16-.42,0-.82-.1-1.09-.26l.18-.54Z"/>
    </g>
    <g isolation="isolate">
      <path d="M183.25,58.32c0,1.43-.99,2.05-1.93,2.05-1.05,0-1.86-.77-1.86-1.99,0-1.29.85-2.05,1.92-2.05s1.86.81,1.86,1.99ZM180.18,58.36c0,.85.49,1.49,1.17,1.49s1.18-.63,1.18-1.5c0-.66-.33-1.49-1.16-1.49s-1.19.77-1.19,1.5Z"/>
      <path d="M184.14,57.68c0-.5-.02-.9-.03-1.26h.63l.03.66h.02c.29-.47.74-.75,1.38-.75.94,0,1.64.79,1.64,1.97,0,1.39-.85,2.08-1.76,2.08-.51,0-.96-.22-1.19-.61h-.02v2.1h-.7v-4.19ZM184.84,58.71c0,.1.02.2.03.29.13.49.55.82,1.05.82.74,0,1.18-.61,1.18-1.5,0-.78-.41-1.44-1.15-1.44-.48,0-.93.34-1.06.87-.02.09-.05.19-.05.29v.66Z"/>
      <path d="M189.54,55.3v1.11h1.01v.54h-1.01v2.09c0,.48.14.75.53.75.18,0,.32-.02.41-.05l.03.53c-.14.06-.35.1-.62.1-.33,0-.59-.1-.76-.3-.2-.21-.27-.55-.27-1.01v-2.11h-.6v-.54h.6v-.93l.69-.18Z"/>
      <path d="M194.76,60.88v.4h-4v-.4h4Z"/>
      <path d="M195.25,59.57c.21.14.58.28.93.28.51,0,.75-.26.75-.58s-.2-.52-.72-.71c-.7-.25-1.02-.63-1.02-1.1,0-.62.5-1.14,1.33-1.14.39,0,.74.11.95.24l-.18.51c-.15-.1-.43-.22-.79-.22-.42,0-.65.24-.65.53,0,.32.23.46.74.66.67.26,1.02.59,1.02,1.17,0,.68-.53,1.16-1.45,1.16-.42,0-.82-.1-1.09-.26l.18-.54Z"/>
      <path d="M198.9,58.48c.02.95.62,1.34,1.33,1.34.5,0,.81-.09,1.07-.2l.12.5c-.25.11-.67.24-1.29.24-1.19,0-1.9-.78-1.9-1.95s.69-2.09,1.82-2.09c1.26,0,1.6,1.11,1.6,1.82,0,.14-.02.26-.02.33h-2.72ZM200.97,57.97c0-.45-.18-1.14-.98-1.14-.71,0-1.02.66-1.08,1.14h2.05Z"/>
      <path d="M202.52,57.46c0-.4,0-.73-.03-1.05h.62l.04.64h.02c.19-.37.64-.73,1.28-.73.54,0,1.37.32,1.37,1.65v2.31h-.7v-2.23c0-.62-.23-1.14-.9-1.14-.46,0-.82.33-.94.72-.03.09-.05.21-.05.33v2.33h-.7v-2.82Z"/>
      <path d="M210.3,54.61v4.68c0,.34,0,.74.03,1h-.63l-.03-.67h-.02c-.22.43-.69.76-1.32.76-.94,0-1.66-.79-1.66-1.97,0-1.29.79-2.08,1.74-2.08.59,0,.99.28,1.17.59h.02v-2.31h.7ZM209.6,57.99c0-.09,0-.21-.03-.3-.1-.45-.49-.82-1.02-.82-.73,0-1.16.64-1.16,1.5,0,.78.38,1.43,1.14,1.43.47,0,.9-.31,1.03-.84.02-.1.03-.19.03-.3v-.67Z"/>
      <path d="M214.89,60.88v.4h-4v-.4h4Z"/>
      <path d="M215.75,56.42l.51,1.97c.11.43.22.83.29,1.23h.02c.09-.39.22-.81.34-1.22l.63-1.98h.59l.6,1.94c.14.46.26.87.34,1.26h.02c.06-.39.17-.8.3-1.25l.55-1.94h.7l-1.25,3.87h-.64l-.59-1.85c-.14-.43-.25-.82-.34-1.27h-.02c-.1.46-.22.86-.35,1.28l-.62,1.84h-.64l-1.17-3.87h.72Z"/>
      <path d="M222.14,55.33c0,.24-.17.43-.45.43-.25,0-.42-.19-.42-.43s.18-.44.44-.44.43.19.43.44ZM221.36,60.29v-3.87h.7v3.87h-.7Z"/>
      <path d="M224.08,55.3v1.11h1.01v.54h-1.01v2.09c0,.48.14.75.53.75.18,0,.32-.02.41-.05l.03.53c-.14.06-.35.1-.62.1-.33,0-.59-.1-.76-.3-.2-.21-.27-.55-.27-1.01v-2.11h-.6v-.54h.6v-.93l.69-.18Z"/>
      <path d="M225.88,54.61h.7v2.42h.02c.11-.2.29-.38.5-.5.21-.12.46-.2.72-.2.52,0,1.35.32,1.35,1.66v2.3h-.7v-2.22c0-.62-.23-1.15-.9-1.15-.46,0-.82.32-.94.7-.04.1-.05.2-.05.34v2.33h-.7v-5.68Z"/>
      <path d="M233.82,58.32c0,1.43-.99,2.05-1.93,2.05-1.05,0-1.86-.77-1.86-1.99,0-1.29.85-2.05,1.92-2.05s1.86.81,1.86,1.99ZM230.75,58.36c0,.85.49,1.49,1.17,1.49s1.18-.63,1.18-1.5c0-.66-.33-1.49-1.16-1.49s-1.19.77-1.19,1.5Z"/>
      <path d="M237.95,59.23c0,.4,0,.75.03,1.06h-.62l-.04-.63h-.02c-.18.31-.59.72-1.28.72-.61,0-1.33-.34-1.33-1.7v-2.26h.7v2.14c0,.74.22,1.23.86,1.23.47,0,.8-.33.93-.64.04-.1.06-.23.06-.36v-2.38h.7v2.81Z"/>
      <path d="M239.97,55.3v1.11h1.01v.54h-1.01v2.09c0,.48.14.75.53.75.18,0,.32-.02.41-.05l.03.53c-.14.06-.35.1-.62.1-.33,0-.59-.1-.76-.3-.2-.21-.27-.55-.27-1.01v-2.11h-.6v-.54h.6v-.93l.69-.18Z"/>
      <path d="M245.18,60.88v.4h-4v-.4h4Z"/>
      <path d="M245.74,60.29c.02-.26.03-.66.03-1v-4.68h.7v2.43h.02c.25-.43.7-.71,1.32-.71.96,0,1.64.8,1.63,1.98,0,1.38-.87,2.07-1.74,2.07-.56,0-1.01-.22-1.3-.73h-.02l-.03.64h-.61ZM246.46,58.73c0,.09.02.18.03.26.14.49.54.82,1.06.82.74,0,1.17-.6,1.17-1.49,0-.78-.4-1.44-1.15-1.44-.48,0-.93.33-1.07.86-.02.08-.04.18-.04.29v.7Z"/>
      <path d="M250.32,54.61h.7v5.68h-.7v-5.68Z"/>
      <path d="M255.71,58.32c0,1.43-.99,2.05-1.93,2.05-1.05,0-1.86-.77-1.86-1.99,0-1.29.85-2.05,1.92-2.05s1.86.81,1.86,1.99ZM252.64,58.36c0,.85.49,1.49,1.17,1.49s1.18-.63,1.18-1.5c0-.66-.33-1.49-1.16-1.49s-1.19.77-1.19,1.5Z"/>
      <path d="M259.36,60.14c-.18.1-.59.22-1.11.22-1.17,0-1.93-.79-1.93-1.97s.82-2.06,2.08-2.06c.42,0,.78.1.98.2l-.16.54c-.17-.1-.43-.18-.82-.18-.89,0-1.37.66-1.37,1.46,0,.9.58,1.45,1.34,1.45.4,0,.66-.1.86-.19l.12.53Z"/>
      <path d="M260.88,58.19h.02c.1-.14.23-.3.34-.44l1.14-1.34h.85l-1.5,1.59,1.7,2.28h-.86l-1.34-1.86-.36.4v1.46h-.7v-5.68h.7v3.58Z"/>
      <path d="M274.11,57.46c0-.4,0-.73-.03-1.05h.62l.03.62h.02c.22-.37.58-.71,1.21-.71.53,0,.93.32,1.1.78h.02c.12-.22.27-.38.43-.5.23-.18.49-.27.86-.27.51,0,1.27.34,1.27,1.68v2.28h-.69v-2.19c0-.74-.27-1.19-.84-1.19-.4,0-.71.3-.83.64-.03.1-.06.22-.06.35v2.39h-.69v-2.32c0-.62-.27-1.06-.81-1.06-.44,0-.76.35-.87.7-.04.1-.06.22-.06.34v2.33h-.69v-2.82Z"/>
      <path d="M281.57,55.33c0,.24-.17.43-.45.43-.25,0-.42-.19-.42-.43s.18-.44.44-.44.43.19.43.44ZM280.78,60.29v-3.87h.7v3.87h-.7Z"/>
      <path d="M286,54.61v4.68c0,.34,0,.74.03,1h-.63l-.03-.67h-.02c-.22.43-.69.76-1.32.76-.94,0-1.66-.79-1.66-1.97,0-1.29.79-2.08,1.74-2.08.59,0,.99.28,1.17.59h.02v-2.31h.7ZM285.29,57.99c0-.09,0-.21-.03-.3-.1-.45-.49-.82-1.02-.82-.73,0-1.16.64-1.16,1.5,0,.78.38,1.43,1.14,1.43.47,0,.9-.31,1.03-.84.02-.1.03-.19.03-.3v-.67Z"/>
      <path d="M287,57.05c0-.3.2-.5.48-.5s.46.21.47.5c0,.28-.18.5-.48.5-.28,0-.47-.22-.47-.5ZM287,59.88c0-.29.2-.5.48-.5s.46.21.47.5c0,.28-.18.5-.48.5-.28,0-.47-.22-.47-.5Z"/>
      <path d="M288.82,57.68c0-.5-.02-.9-.03-1.26h.63l.03.66h.02c.29-.47.74-.75,1.38-.75.94,0,1.64.79,1.64,1.97,0,1.39-.85,2.08-1.76,2.08-.51,0-.96-.22-1.19-.61h-.02v2.1h-.7v-4.19ZM289.52,58.71c0,.1.02.2.03.29.13.49.55.82,1.06.82.74,0,1.17-.61,1.17-1.5,0-.78-.41-1.44-1.15-1.44-.48,0-.93.34-1.06.87-.02.09-.05.19-.05.29v.66Z"/>
      <path d="M296.61,59.23c0,.4,0,.75.03,1.06h-.62l-.04-.63h-.02c-.18.31-.59.72-1.28.72-.61,0-1.33-.34-1.33-1.7v-2.26h.7v2.14c0,.74.22,1.23.86,1.23.47,0,.8-.33.93-.64.04-.1.06-.23.06-.36v-2.38h.7v2.81Z"/>
      <path d="M298.63,55.3v1.11h1.01v.54h-1.01v2.09c0,.48.14.75.53.75.18,0,.32-.02.41-.05l.03.53c-.14.06-.35.1-.62.1-.33,0-.59-.1-.76-.3-.2-.21-.27-.55-.27-1.01v-2.11h-.6v-.54h.6v-.93l.69-.18Z"/>
      <path d="M300.33,59.57c.21.14.58.28.93.28.51,0,.75-.26.75-.58s-.2-.52-.72-.71c-.7-.25-1.02-.63-1.02-1.1,0-.62.5-1.14,1.33-1.14.39,0,.74.11.95.24l-.18.51c-.15-.1-.43-.22-.79-.22-.42,0-.65.24-.65.53,0,.32.23.46.74.66.67.26,1.02.59,1.02,1.17,0,.68-.53,1.16-1.45,1.16-.42,0-.82-.1-1.09-.26l.18-.54Z"/>
      <path d="M307.44,60.29l-.06-.49h-.02c-.22.3-.63.58-1.18.58-.78,0-1.18-.55-1.18-1.11,0-.94.83-1.45,2.33-1.44v-.08c0-.32-.09-.9-.88-.9-.36,0-.74.11-1.01.29l-.16-.46c.32-.21.78-.34,1.27-.34,1.18,0,1.47.81,1.47,1.58v1.45c0,.34.02.66.06.93h-.64ZM307.33,58.31c-.77-.02-1.64.12-1.64.87,0,.46.3.67.66.67.5,0,.82-.32.94-.65.02-.07.04-.15.04-.22v-.67Z"/>
      <path d="M309.15,57.62c0-.46,0-.85-.03-1.21h.62l.02.76h.03c.18-.52.6-.85,1.07-.85.08,0,.14,0,.2.02v.66c-.07-.02-.14-.02-.24-.02-.5,0-.85.38-.94.9-.02.1-.03.21-.03.33v2.06h-.7v-2.66Z"/>
      <path d="M315.04,56.42c-.02.28-.03.59-.03,1.06v2.25c0,.89-.18,1.43-.55,1.77-.38.35-.92.46-1.41.46s-.98-.11-1.29-.32l.18-.54c.26.16.66.3,1.14.3.72,0,1.25-.38,1.25-1.35v-.43h-.02c-.22.36-.63.65-1.23.65-.96,0-1.65-.82-1.65-1.89,0-1.31.86-2.05,1.74-2.05.67,0,1.04.35,1.21.67h.02l.03-.58h.62ZM314.31,57.94c0-.12,0-.22-.04-.32-.13-.41-.47-.74-.98-.74-.67,0-1.15.57-1.15,1.46,0,.76.38,1.39,1.14,1.39.43,0,.82-.27.97-.72.04-.12.06-.26.06-.38v-.7Z"/>
      <path d="M318.93,60.14c-.18.1-.59.22-1.11.22-1.17,0-1.93-.79-1.93-1.97s.82-2.06,2.08-2.06c.42,0,.78.1.98.2l-.16.54c-.17-.1-.43-.18-.82-.18-.89,0-1.37.66-1.37,1.46,0,.9.58,1.45,1.34,1.45.4,0,.66-.1.86-.19l.12.53Z"/>
      <path d="M319.59,57.05c0-.3.2-.5.48-.5s.46.21.47.5c0,.28-.18.5-.48.5-.28,0-.47-.22-.47-.5ZM319.59,59.88c0-.29.2-.5.48-.5s.46.21.47.5c0,.28-.18.5-.48.5-.28,0-.47-.22-.47-.5Z"/>
      <path d="M322.72,55.74h-.02l-.9.49-.14-.54,1.13-.61h.6v5.2h-.68v-4.54Z"/>
    </g>
    <g isolation="isolate">
      <path d="M179.75,63.72h.7v5.68h-.7v-5.68Z"/>
      <path d="M182.03,67.59c.02.95.62,1.34,1.33,1.34.5,0,.81-.09,1.07-.2l.12.5c-.25.11-.67.24-1.29.24-1.19,0-1.9-.78-1.9-1.95s.69-2.09,1.82-2.09c1.26,0,1.6,1.11,1.6,1.82,0,.14-.02.26-.02.33h-2.72ZM184.09,67.09c0-.45-.18-1.14-.98-1.14-.71,0-1.02.66-1.08,1.14h2.05Z"/>
      <path d="M187.79,69.4l-.06-.49h-.02c-.22.3-.63.58-1.18.58-.78,0-1.18-.55-1.18-1.11,0-.94.83-1.45,2.33-1.44v-.08c0-.32-.09-.9-.88-.9-.36,0-.74.11-1.01.29l-.16-.46c.32-.21.78-.34,1.27-.34,1.18,0,1.47.81,1.47,1.58v1.45c0,.34.02.66.06.93h-.64ZM187.69,67.42c-.77-.02-1.64.12-1.64.87,0,.46.3.67.66.67.5,0,.82-.32.94-.65.02-.07.04-.15.04-.22v-.67Z"/>
      <path d="M189.71,65.53l.76,2.17c.13.35.23.67.31.99h.02c.09-.32.2-.64.33-.99l.75-2.17h.74l-1.52,3.87h-.67l-1.47-3.87h.75Z"/>
      <path d="M193.6,67.59c.02.95.62,1.34,1.33,1.34.5,0,.81-.09,1.07-.2l.12.5c-.25.11-.67.24-1.29.24-1.19,0-1.9-.78-1.9-1.95s.69-2.09,1.82-2.09c1.26,0,1.6,1.11,1.6,1.82,0,.14-.02.26-.02.33h-2.72ZM195.66,67.09c0-.45-.18-1.14-.98-1.14-.71,0-1.02.66-1.08,1.14h2.05Z"/>
    </g>
    <g isolation="isolate">
      <path d="M179.75,30.34c0-.5-.02-.9-.03-1.26h.63l.03.66h.02c.29-.47.74-.75,1.38-.75.94,0,1.64.79,1.64,1.97,0,1.39-.85,2.08-1.76,2.08-.51,0-.96-.22-1.19-.61h-.02v2.1h-.7v-4.19ZM180.45,31.37c0,.1.02.2.03.29.13.49.55.82,1.06.82.74,0,1.17-.61,1.17-1.5,0-.78-.41-1.44-1.15-1.44-.48,0-.93.34-1.06.87-.02.09-.05.19-.05.29v.66Z"/>
      <path d="M187.54,31.89c0,.4,0,.75.03,1.06h-.62l-.04-.63h-.02c-.18.31-.59.72-1.28.72-.61,0-1.33-.34-1.33-1.7v-2.26h.7v2.14c0,.74.22,1.23.86,1.23.47,0,.8-.33.93-.64.04-.1.06-.23.06-.36v-2.38h.7v2.81Z"/>
      <path d="M189.56,27.97v1.11h1.01v.54h-1.01v2.09c0,.48.14.75.53.75.18,0,.32-.02.41-.05l.03.53c-.14.06-.35.1-.62.1-.33,0-.59-.1-.76-.3-.2-.21-.27-.55-.27-1.01v-2.11h-.6v-.54h.6v-.93l.69-.18Z"/>
      <path d="M194.81,30.98c0,1.43-.99,2.05-1.93,2.05-1.05,0-1.86-.77-1.86-1.99,0-1.29.85-2.05,1.92-2.05s1.86.81,1.86,1.99ZM191.74,31.02c0,.85.49,1.49,1.17,1.49s1.18-.63,1.18-1.5c0-.66-.33-1.49-1.16-1.49s-1.19.77-1.19,1.5Z"/>
      <path d="M195.67,32.95c.02-.26.03-.66.03-1v-4.68h.7v2.43h.02c.25-.43.7-.71,1.32-.71.96,0,1.64.8,1.63,1.98,0,1.38-.87,2.07-1.74,2.07-.56,0-1.01-.22-1.29-.73h-.02l-.03.64h-.61ZM196.4,31.4c0,.09.02.18.03.26.14.49.54.82,1.05.82.74,0,1.18-.6,1.18-1.49,0-.78-.4-1.44-1.15-1.44-.48,0-.93.33-1.07.86-.02.08-.04.18-.04.29v.7Z"/>
      <path d="M199.31,34.07c.32-.02.6-.11.77-.3.19-.22.26-.53.26-1.46v-3.24h.7v3.51c0,.75-.12,1.24-.46,1.59-.31.31-.82.44-1.2.44l-.07-.55ZM201.13,27.99c0,.23-.16.43-.44.43-.26,0-.43-.2-.43-.43,0-.25.18-.44.45-.44s.42.19.42.44Z"/>
      <path d="M202.59,31.14c.02.95.62,1.34,1.33,1.34.5,0,.81-.09,1.07-.2l.12.5c-.25.11-.67.24-1.29.24-1.19,0-1.9-.78-1.9-1.95s.69-2.09,1.82-2.09c1.26,0,1.6,1.11,1.6,1.82,0,.14-.02.26-.02.33h-2.72ZM204.65,30.64c0-.45-.18-1.14-.98-1.14-.71,0-1.02.66-1.08,1.14h2.05Z"/>
      <path d="M208.97,32.81c-.18.1-.59.22-1.11.22-1.17,0-1.93-.79-1.93-1.97s.82-2.06,2.08-2.06c.42,0,.78.1.98.2l-.16.54c-.17-.1-.43-.18-.82-.18-.89,0-1.37.66-1.37,1.46,0,.9.58,1.45,1.34,1.45.4,0,.66-.1.86-.19l.12.53Z"/>
      <path d="M210.74,27.97v1.11h1.01v.54h-1.01v2.09c0,.48.14.75.53.75.18,0,.32-.02.41-.05l.03.53c-.14.06-.35.1-.62.1-.33,0-.59-.1-.76-.3-.2-.21-.27-.55-.27-1.01v-2.11h-.6v-.54h.6v-.93l.69-.18Z"/>
    </g>
    <g isolation="isolate">
      <path d="M243.78,32.95v-.43l.55-.54c1.33-1.26,1.93-1.93,1.94-2.72,0-.53-.26-1.02-1.03-1.02-.47,0-.86.24-1.1.44l-.22-.5c.36-.3.87-.53,1.47-.53,1.12,0,1.59.77,1.59,1.51,0,.96-.7,1.74-1.79,2.79l-.42.38v.02h2.33v.58h-3.32Z"/>
    </g>
    <g isolation="isolate">
      <path d="M179.75,39.45c0-.5-.02-.9-.03-1.26h.63l.03.66h.02c.29-.47.74-.75,1.38-.75.94,0,1.64.79,1.64,1.97,0,1.39-.85,2.08-1.76,2.08-.51,0-.96-.22-1.19-.61h-.02v2.1h-.7v-4.19ZM180.45,40.49c0,.1.02.2.03.29.13.49.55.82,1.06.82.74,0,1.17-.61,1.17-1.5,0-.78-.41-1.44-1.15-1.44-.48,0-.93.34-1.06.87-.02.09-.05.19-.05.29v.66Z"/>
      <path d="M187.54,41c0,.4,0,.75.03,1.06h-.62l-.04-.63h-.02c-.18.31-.59.72-1.28.72-.61,0-1.33-.34-1.33-1.7v-2.26h.7v2.14c0,.74.22,1.23.86,1.23.47,0,.8-.33.93-.64.04-.1.06-.23.06-.36v-2.38h.7v2.81Z"/>
      <path d="M189.56,37.08v1.11h1.01v.54h-1.01v2.09c0,.48.14.75.53.75.18,0,.32-.02.41-.05l.03.53c-.14.06-.35.1-.62.1-.33,0-.59-.1-.76-.3-.2-.21-.27-.55-.27-1.01v-2.11h-.6v-.54h.6v-.93l.69-.18Z"/>
      <path d="M194.81,40.09c0,1.43-.99,2.05-1.93,2.05-1.05,0-1.86-.77-1.86-1.99,0-1.29.85-2.05,1.92-2.05s1.86.81,1.86,1.99ZM191.74,40.13c0,.85.49,1.49,1.17,1.49s1.18-.63,1.18-1.5c0-.66-.33-1.49-1.16-1.49s-1.19.77-1.19,1.5Z"/>
      <path d="M195.67,42.06c.02-.26.03-.66.03-1v-4.68h.7v2.43h.02c.25-.43.7-.71,1.32-.71.96,0,1.64.8,1.63,1.98,0,1.38-.87,2.07-1.74,2.07-.56,0-1.01-.22-1.29-.73h-.02l-.03.64h-.61ZM196.4,40.51c0,.09.02.18.03.26.14.49.54.82,1.05.82.74,0,1.18-.6,1.18-1.49,0-.78-.4-1.44-1.15-1.44-.48,0-.93.33-1.07.86-.02.08-.04.18-.04.29v.7Z"/>
      <path d="M199.31,43.18c.32-.02.6-.11.77-.3.19-.22.26-.53.26-1.46v-3.24h.7v3.51c0,.75-.12,1.24-.46,1.59-.31.31-.82.44-1.2.44l-.07-.55ZM201.13,37.1c0,.23-.16.43-.44.43-.26,0-.43-.2-.43-.43,0-.25.18-.44.45-.44s.42.19.42.44Z"/>
      <path d="M202.59,40.25c.02.95.62,1.34,1.33,1.34.5,0,.81-.09,1.07-.2l.12.5c-.25.11-.67.24-1.29.24-1.19,0-1.9-.78-1.9-1.95s.69-2.09,1.82-2.09c1.26,0,1.6,1.11,1.6,1.82,0,.14-.02.26-.02.33h-2.72ZM204.65,39.75c0-.45-.18-1.14-.98-1.14-.71,0-1.02.66-1.08,1.14h2.05Z"/>
      <path d="M208.97,41.92c-.18.1-.59.22-1.11.22-1.17,0-1.93-.79-1.93-1.97s.82-2.06,2.08-2.06c.42,0,.78.1.98.2l-.16.54c-.17-.1-.43-.18-.82-.18-.89,0-1.37.66-1.37,1.46,0,.9.58,1.45,1.34,1.45.4,0,.66-.1.86-.19l.12.53Z"/>
      <path d="M210.74,37.08v1.11h1.01v.54h-1.01v2.09c0,.48.14.75.53.75.18,0,.32-.02.41-.05l.03.53c-.14.06-.35.1-.62.1-.33,0-.59-.1-.76-.3-.2-.21-.27-.55-.27-1.01v-2.11h-.6v-.54h.6v-.93l.69-.18Z"/>
    </g>
    <g isolation="isolate">
      <path d="M243.78,42.06v-.43l.55-.54c1.33-1.26,1.93-1.94,1.94-2.72,0-.53-.26-1.02-1.03-1.02-.47,0-.86.24-1.1.44l-.22-.5c.36-.3.87-.53,1.47-.53,1.12,0,1.59.77,1.59,1.51,0,.96-.7,1.73-1.79,2.79l-.42.38v.02h2.33v.58h-3.32Z"/>
    </g>
    <rect x=".5" y="60.33" width="36" height="62.65" fill="none" stroke="#000" stroke-miterlimit="10"/>
    <line x1=".5" y1="107.31" x2="36.5" y2="107.31" fill="none" stroke="#000" stroke-miterlimit="10"/>
    <line x1=".5" y1="91.65" x2="36.5" y2="91.65" fill="none" stroke="#000" stroke-miterlimit="10"/>
    <line x1=".5" y1="75.99" x2="36.5" y2="75.99" fill="none" stroke="#000" stroke-miterlimit="10"/>
    <g isolation="isolate">
      <path d="M49.77,81.47c.31.19.77.35,1.25.35.71,0,1.13-.38,1.13-.92,0-.5-.29-.79-1.01-1.07-.88-.31-1.42-.77-1.42-1.53,0-.84.7-1.46,1.74-1.46.55,0,.95.13,1.19.26l-.19.57c-.18-.1-.54-.26-1.02-.26-.74,0-1.02.44-1.02.81,0,.5.33.75,1.07,1.04.91.35,1.38.79,1.38,1.58,0,.83-.62,1.55-1.89,1.55-.52,0-1.09-.15-1.38-.34l.18-.58Z"/>
      <path d="M53.8,76.99c.34-.06.78-.1,1.34-.1.69,0,1.19.16,1.51.45.3.26.47.65.47,1.13s-.14.87-.42,1.15c-.37.39-.97.59-1.65.59-.21,0-.4,0-.56-.05v2.16h-.7v-5.33ZM54.5,79.59c.15.04.34.06.58.06.84,0,1.35-.41,1.35-1.15s-.5-1.05-1.27-1.05c-.3,0-.54.02-.66.06v2.09Z"/>
    </g>
    <g isolation="isolate">
      <path d="M153.81,59.01c.34-.06.78-.1,1.33-.1.69,0,1.19.16,1.51.45.3.26.47.65.47,1.13s-.14.87-.42,1.15c-.37.39-.97.59-1.65.59-.21,0-.4,0-.56-.05v2.16h-.7v-5.33ZM154.51,61.61c.15.04.34.06.58.06.84,0,1.35-.41,1.35-1.15s-.5-1.05-1.27-1.05c-.3,0-.54.02-.66.06v2.09Z"/>
      <path d="M161.83,64.16c-.26.13-.77.26-1.42.26-1.52,0-2.66-.96-2.66-2.73s1.14-2.83,2.81-2.83c.67,0,1.1.14,1.28.24l-.17.57c-.26-.13-.64-.22-1.09-.22-1.26,0-2.1.81-2.1,2.22,0,1.32.76,2.17,2.07,2.17.42,0,.86-.09,1.13-.22l.14.55Z"/>
    </g>
    <path d="M62.15,67.67v2.98h-16.07v3.14l-9.23-4.63,9.23-4.62v3.14h16.07Z" fill="#e6e6e6" stroke="rgba(0, 0, 0, .75)" stroke-linecap="round" stroke-linejoin="round"/>
    <path d="M149.44,48.33v2.98h16.07v3.14l9.23-4.62-9.23-4.62v3.14h-16.07Z" fill="#e6e6e6" stroke="rgba(0, 0, 0, .75)" stroke-linecap="round" stroke-linejoin="round"/>
    <line x1="65.23" y1="60.04" x2="146.23" y2="60.04" fill="none" stroke="#999"/>
    <line x1="65.23" y1="77.04" x2="146.23" y2="77.04" fill="none" stroke="#999"/>
  </g>
</svg>