<?xml version="1.0" encoding="UTF-8"?>
<svg id="Layer_2" data-name="Layer 2" xmlns="http://www.w3.org/2000/svg" width="320.9" height="89.5" viewBox="0 0 320.9 89.5">
  <g id="Layer_1_copy" data-name="Layer 1 copy">
    <g>
      <g isolation="isolate">
        <path d="M82.18,46.82c.31.19.77.35,1.25.35.71,0,1.13-.38,1.13-.92,0-.5-.29-.79-1.02-1.07-.88-.31-1.42-.77-1.42-1.53,0-.84.7-1.46,1.74-1.46.55,0,.95.13,1.19.26l-.19.57c-.18-.1-.54-.26-1.02-.26-.74,0-1.02.44-1.02.81,0,.5.33.75,1.07,1.04.91.35,1.38.79,1.38,1.58,0,.83-.62,1.55-1.89,1.55-.52,0-1.09-.15-1.37-.34l.18-.58Z"/>
        <path d="M86.22,42.34c.34-.06.78-.1,1.33-.1.69,0,1.19.16,1.51.45.3.26.47.65.47,1.13s-.14.87-.42,1.15c-.37.39-.97.59-1.65.59-.21,0-.4,0-.56-.05v2.16h-.7v-5.33ZM86.91,44.94c.15.04.34.06.58.06.84,0,1.35-.41,1.35-1.15s-.5-1.05-1.27-1.05c-.3,0-.54.02-.66.06v2.09Z"/>
      </g>
      <g isolation="isolate">
        <path d="M32.78,58.36v-.43l.55-.54c1.33-1.26,1.93-1.93,1.93-2.72,0-.53-.26-1.02-1.03-1.02-.47,0-.86.24-1.1.44l-.22-.5c.36-.3.87-.53,1.47-.53,1.12,0,1.59.77,1.59,1.51,0,.96-.7,1.73-1.79,2.79l-.42.38v.02h2.33v.58h-3.32Z"/>
      </g>
      <g isolation="isolate">
        <path d="M26.9,80.44c.21.14.58.28.93.28.51,0,.75-.26.75-.58s-.2-.52-.72-.71c-.7-.25-1.02-.63-1.02-1.1,0-.62.5-1.14,1.34-1.14.39,0,.74.11.95.24l-.18.51c-.15-.1-.43-.22-.79-.22-.42,0-.65.24-.65.53,0,.32.23.46.74.66.67.26,1.02.59,1.02,1.17,0,.68-.53,1.16-1.45,1.16-.42,0-.82-.1-1.09-.26l.18-.54Z"/>
        <path d="M30.56,79.35c.02.95.62,1.34,1.33,1.34.5,0,.81-.09,1.07-.2l.12.5c-.25.11-.67.24-1.29.24-1.19,0-1.9-.78-1.9-1.95s.69-2.09,1.81-2.09c1.26,0,1.6,1.11,1.6,1.82,0,.14-.02.26-.02.33h-2.72ZM32.62,78.85c0-.45-.18-1.14-.98-1.14-.71,0-1.02.66-1.08,1.14h2.06Z"/>
        <path d="M34.18,75.48h.7v5.68h-.7v-5.68Z"/>
        <path d="M36.14,81.16v-3.33h-.54v-.54h.54v-.18c0-.54.12-1.04.45-1.35.26-.26.62-.36.94-.36.25,0,.46.06.6.11l-.1.54c-.1-.05-.25-.09-.45-.09-.6,0-.75.53-.75,1.12v.21h.94v.54h-.94v3.33h-.7Z"/>
      </g>
      <g isolation="isolate">
        <path d="M141.57,42.34c.34-.06.78-.1,1.34-.1.69,0,1.19.16,1.51.45.29.26.47.65.47,1.13s-.14.87-.42,1.15c-.37.39-.97.59-1.65.59-.21,0-.4,0-.56-.05v2.16h-.7v-5.33ZM142.27,44.94c.15.04.34.06.58.06.84,0,1.35-.41,1.35-1.15s-.5-1.05-1.27-1.05c-.3,0-.54.02-.66.06v2.09Z"/>
        <path d="M149.6,47.49c-.26.13-.77.26-1.42.26-1.52,0-2.66-.96-2.66-2.73s1.14-2.83,2.81-2.83c.67,0,1.09.14,1.28.24l-.17.57c-.26-.13-.64-.22-1.09-.22-1.26,0-2.1.81-2.1,2.22,0,1.32.76,2.17,2.07,2.17.42,0,.86-.09,1.14-.22l.14.55Z"/>
      </g>
      <g>
        <rect x=".5" y=".5" width="68.76" height="88.5" fill="none" stroke="#000" stroke-miterlimit="10"/>
        <line x1=".5" y1="66.87" x2="69.26" y2="66.87" fill="none" stroke="#000" stroke-miterlimit="10"/>
        <line x1=".5" y1="44.75" x2="69.26" y2="44.75" fill="none" stroke="#000" stroke-miterlimit="10"/>
        <line x1=".5" y1="22.62" x2="69.26" y2="22.62" fill="none" stroke="#000" stroke-miterlimit="10"/>
      </g>
      <path d="M102.56,34.18v2.98h-24.07v3.14l-9.23-4.62,9.23-4.62v3.14h24.07Z" fill="#e6e6e6" stroke="rgba(0, 0, 0, .75)" stroke-linecap="round" stroke-linejoin="round"/>
      <path d="M129.2,34.18v2.98h24.07v3.14l9.23-4.62-9.23-4.62v3.14h-24.07Z" fill="#e6e6e6" stroke="rgba(0, 0, 0, .75)" stroke-linecap="round" stroke-linejoin="round"/>
      <g>
        <rect x="162.5" y="8.73" width="158.4" height="63.83" fill="#ccc"/>
        <g isolation="isolate">
          <path d="M167.08,16.64c0-.5-.02-.9-.03-1.26h.63l.03.66h.02c.29-.47.74-.75,1.38-.75.94,0,1.64.79,1.64,1.97,0,1.39-.85,2.08-1.76,2.08-.51,0-.96-.22-1.19-.61h-.02v2.1h-.7v-4.19ZM167.78,17.67c0,.1.02.2.03.29.13.49.55.82,1.06.82.74,0,1.17-.61,1.17-1.5,0-.78-.41-1.44-1.15-1.44-.48,0-.93.34-1.06.87-.02.09-.05.19-.05.29v.66Z"/>
          <path d="M174.87,18.19c0,.4,0,.75.03,1.06h-.62l-.04-.63h-.02c-.18.31-.59.72-1.28.72-.61,0-1.33-.34-1.33-1.7v-2.26h.7v2.14c0,.74.22,1.23.86,1.23.47,0,.8-.33.93-.64.04-.1.06-.23.06-.36v-2.38h.7v2.81Z"/>
          <path d="M176.89,14.26v1.11h1.01v.54h-1.01v2.09c0,.48.14.75.53.75.18,0,.32-.02.41-.05l.03.53c-.14.06-.35.1-.62.1-.33,0-.59-.1-.76-.3-.2-.21-.27-.55-.27-1.01v-2.11h-.6v-.54h.6v-.93l.69-.18Z"/>
          <path d="M178.59,18.52c.21.14.58.28.93.28.51,0,.75-.26.75-.58s-.2-.52-.72-.71c-.7-.25-1.02-.63-1.02-1.09,0-.62.5-1.14,1.33-1.14.39,0,.74.11.95.24l-.18.51c-.15-.1-.43-.22-.79-.22-.42,0-.65.24-.65.53,0,.32.23.46.74.66.67.26,1.02.59,1.02,1.17,0,.68-.53,1.16-1.45,1.16-.42,0-.82-.1-1.09-.26l.18-.54Z"/>
          <path d="M182.25,17.44c.02.95.62,1.34,1.33,1.34.5,0,.81-.09,1.07-.2l.12.5c-.25.11-.67.24-1.29.24-1.19,0-1.9-.78-1.9-1.95s.69-2.09,1.82-2.09c1.26,0,1.6,1.11,1.6,1.82,0,.14-.02.26-.02.33h-2.72ZM184.31,16.93c0-.45-.18-1.14-.98-1.14-.71,0-1.02.66-1.08,1.14h2.05Z"/>
          <path d="M185.87,13.57h.7v5.68h-.7v-5.68Z"/>
          <path d="M187.83,19.24v-3.33h-.54v-.54h.54v-.18c0-.54.12-1.04.45-1.35.26-.26.62-.36.94-.36.25,0,.46.06.6.11l-.1.54c-.1-.05-.25-.09-.45-.09-.6,0-.75.53-.75,1.12v.21h.94v.54h-.94v3.33h-.7Z"/>
        </g>
        <g isolation="isolate">
          <path d="M170.59,44.61c0,1.43-.99,2.05-1.93,2.05-1.05,0-1.86-.77-1.86-1.99,0-1.29.85-2.05,1.92-2.05s1.86.81,1.86,1.99ZM167.52,44.65c0,.85.49,1.49,1.17,1.49s1.18-.63,1.18-1.5c0-.66-.33-1.49-1.16-1.49s-1.19.77-1.19,1.5Z"/>
          <path d="M171.48,43.97c0-.5-.02-.9-.03-1.26h.63l.03.66h.02c.29-.47.74-.75,1.38-.75.94,0,1.64.79,1.64,1.97,0,1.39-.85,2.08-1.76,2.08-.51,0-.96-.22-1.19-.61h-.02v2.1h-.7v-4.19ZM172.17,45c0,.1.02.2.03.29.13.49.55.82,1.05.82.74,0,1.18-.61,1.18-1.5,0-.78-.41-1.44-1.15-1.44-.48,0-.93.34-1.06.87-.02.09-.05.19-.05.29v.66Z"/>
          <path d="M176.88,41.6v1.11h1.01v.54h-1.01v2.09c0,.48.14.75.53.75.18,0,.32-.02.41-.05l.03.53c-.14.06-.35.1-.62.1-.33,0-.59-.1-.76-.3-.2-.21-.27-.55-.27-1.01v-2.11h-.6v-.54h.6v-.93l.69-.18Z"/>
          <path d="M182.09,47.18v.4h-4v-.4h4Z"/>
          <path d="M182.68,43.97c0-.5-.02-.9-.03-1.26h.63l.03.66h.02c.29-.47.74-.75,1.38-.75.94,0,1.64.79,1.64,1.97,0,1.39-.85,2.08-1.76,2.08-.51,0-.96-.22-1.19-.61h-.02v2.1h-.7v-4.19ZM183.37,45c0,.1.02.2.03.29.13.49.55.82,1.06.82.74,0,1.17-.61,1.17-1.5,0-.78-.41-1.44-1.15-1.44-.48,0-.93.34-1.06.87-.02.09-.05.19-.05.29v.66Z"/>
          <path d="M187.23,40.9h.7v5.68h-.7v-5.68Z"/>
          <path d="M192.35,45.52c0,.4,0,.75.03,1.06h-.62l-.04-.63h-.02c-.18.31-.59.72-1.28.72-.61,0-1.33-.34-1.33-1.7v-2.26h.7v2.14c0,.74.22,1.23.86,1.23.47,0,.8-.33.93-.64.04-.1.06-.23.06-.36v-2.38h.7v2.81Z"/>
          <path d="M193.43,45.86c.21.14.58.28.93.28.51,0,.75-.26.75-.58s-.2-.52-.72-.71c-.7-.25-1.02-.63-1.02-1.09,0-.62.5-1.14,1.33-1.14.39,0,.74.11.95.24l-.18.51c-.15-.1-.43-.22-.79-.22-.42,0-.65.24-.65.53,0,.32.23.46.74.66.67.26,1.02.59,1.02,1.17,0,.68-.53,1.16-1.45,1.16-.42,0-.82-.1-1.09-.26l.18-.54Z"/>
        </g>
        <g isolation="isolate">
          <path d="M170.59,53.73c0,1.43-.99,2.05-1.93,2.05-1.05,0-1.86-.77-1.86-1.99,0-1.29.85-2.05,1.92-2.05s1.86.81,1.86,1.99ZM167.52,53.77c0,.85.49,1.49,1.17,1.49s1.18-.63,1.18-1.5c0-.66-.33-1.49-1.16-1.49s-1.19.77-1.19,1.5Z"/>
          <path d="M171.48,53.09c0-.5-.02-.9-.03-1.26h.63l.03.66h.02c.29-.47.74-.75,1.38-.75.94,0,1.64.79,1.64,1.97,0,1.39-.85,2.08-1.76,2.08-.51,0-.96-.22-1.19-.61h-.02v2.1h-.7v-4.19ZM172.17,54.12c0,.1.02.2.03.29.13.49.55.82,1.05.82.74,0,1.18-.61,1.18-1.5,0-.78-.41-1.44-1.15-1.44-.48,0-.93.34-1.06.87-.02.09-.05.19-.05.29v.66Z"/>
          <path d="M176.88,50.71v1.11h1.01v.54h-1.01v2.09c0,.48.14.75.53.75.18,0,.32-.02.41-.05l.03.53c-.14.06-.35.1-.62.1-.33,0-.59-.1-.76-.3-.2-.21-.27-.55-.27-1.01v-2.11h-.6v-.54h.6v-.93l.69-.18Z"/>
          <path d="M182.09,56.29v.4h-4v-.4h4Z"/>
          <path d="M182.58,54.97c.21.14.58.28.93.28.51,0,.75-.26.75-.58s-.2-.52-.72-.71c-.7-.25-1.02-.63-1.02-1.1,0-.62.5-1.14,1.33-1.14.39,0,.74.11.95.24l-.18.51c-.15-.1-.43-.22-.79-.22-.42,0-.65.24-.65.53,0,.32.23.46.74.66.67.26,1.02.59,1.02,1.17,0,.68-.53,1.16-1.45,1.16-.42,0-.82-.1-1.09-.26l.18-.54Z"/>
          <path d="M186.24,53.89c.02.95.62,1.34,1.33,1.34.5,0,.81-.09,1.07-.2l.12.5c-.25.11-.67.24-1.29.24-1.19,0-1.9-.78-1.9-1.95s.69-2.09,1.82-2.09c1.26,0,1.6,1.11,1.6,1.82,0,.14-.02.26-.02.33h-2.72ZM188.3,53.38c0-.45-.18-1.14-.98-1.14-.71,0-1.02.66-1.08,1.14h2.05Z"/>
          <path d="M189.85,52.87c0-.4,0-.73-.03-1.05h.62l.04.64h.02c.19-.37.64-.73,1.28-.73.54,0,1.37.32,1.37,1.65v2.31h-.7v-2.23c0-.62-.23-1.14-.9-1.14-.46,0-.82.33-.94.72-.03.09-.05.21-.05.33v2.33h-.7v-2.82Z"/>
          <path d="M197.63,50.02v4.68c0,.34,0,.74.03,1h-.63l-.03-.67h-.02c-.22.43-.69.76-1.32.76-.94,0-1.66-.79-1.66-1.97,0-1.29.79-2.08,1.74-2.08.59,0,.99.28,1.17.59h.02v-2.31h.7ZM196.93,53.4c0-.09,0-.21-.03-.3-.1-.45-.49-.82-1.02-.82-.73,0-1.16.64-1.16,1.5,0,.78.38,1.43,1.14,1.43.47,0,.9-.31,1.03-.84.02-.1.03-.19.03-.3v-.67Z"/>
          <path d="M202.22,56.29v.4h-4v-.4h4Z"/>
          <path d="M203.08,51.82l.51,1.97c.11.43.22.83.29,1.23h.02c.09-.39.22-.81.34-1.22l.63-1.98h.59l.6,1.94c.14.46.26.87.34,1.26h.02c.06-.39.17-.8.3-1.25l.55-1.94h.7l-1.25,3.87h-.64l-.59-1.85c-.14-.43-.25-.82-.34-1.27h-.02c-.1.46-.22.86-.35,1.28l-.62,1.84h-.64l-1.17-3.87h.72Z"/>
          <path d="M209.47,50.74c0,.24-.17.43-.45.43-.25,0-.42-.19-.42-.43s.18-.44.44-.44.43.19.43.44ZM208.69,55.69v-3.87h.7v3.87h-.7Z"/>
          <path d="M211.41,50.71v1.11h1.01v.54h-1.01v2.09c0,.48.14.75.53.75.18,0,.32-.02.41-.05l.03.53c-.14.06-.35.1-.62.1-.33,0-.59-.1-.76-.3-.2-.21-.27-.55-.27-1.01v-2.11h-.6v-.54h.6v-.93l.69-.18Z"/>
          <path d="M213.21,50.02h.7v2.42h.02c.11-.2.29-.38.5-.5.21-.12.46-.2.72-.2.52,0,1.35.32,1.35,1.66v2.3h-.7v-2.22c0-.62-.23-1.15-.9-1.15-.46,0-.82.32-.94.7-.04.1-.05.2-.05.34v2.33h-.7v-5.68Z"/>
          <path d="M221.15,53.73c0,1.43-.99,2.05-1.93,2.05-1.05,0-1.86-.77-1.86-1.99,0-1.29.85-2.05,1.92-2.05s1.86.81,1.86,1.99ZM218.08,53.77c0,.85.49,1.49,1.17,1.49s1.18-.63,1.18-1.5c0-.66-.33-1.49-1.16-1.49s-1.19.77-1.19,1.5Z"/>
          <path d="M225.28,54.64c0,.4,0,.75.03,1.06h-.62l-.04-.63h-.02c-.18.31-.59.72-1.28.72-.61,0-1.33-.34-1.33-1.7v-2.26h.7v2.14c0,.74.22,1.23.86,1.23.47,0,.8-.33.93-.64.04-.1.06-.23.06-.36v-2.38h.7v2.81Z"/>
          <path d="M227.3,50.71v1.11h1.01v.54h-1.01v2.09c0,.48.14.75.53.75.18,0,.32-.02.41-.05l.03.53c-.14.06-.35.1-.62.1-.33,0-.59-.1-.76-.3-.2-.21-.27-.55-.27-1.01v-2.11h-.6v-.54h.6v-.93l.69-.18Z"/>
          <path d="M232.51,56.29v.4h-4v-.4h4Z"/>
          <path d="M233.07,55.69c.02-.26.03-.66.03-1v-4.68h.7v2.43h.02c.25-.43.7-.71,1.32-.71.96,0,1.64.8,1.63,1.98,0,1.38-.87,2.07-1.74,2.07-.56,0-1.01-.22-1.3-.73h-.02l-.03.64h-.61ZM233.79,54.14c0,.09.02.18.03.26.14.49.54.82,1.06.82.74,0,1.17-.6,1.17-1.49,0-.78-.4-1.44-1.15-1.44-.48,0-.93.33-1.07.86-.02.08-.04.18-.04.29v.7Z"/>
          <path d="M237.65,50.02h.7v5.68h-.7v-5.68Z"/>
          <path d="M243.04,53.73c0,1.43-.99,2.05-1.93,2.05-1.05,0-1.86-.77-1.86-1.99,0-1.29.85-2.05,1.92-2.05s1.86.81,1.86,1.99ZM239.97,53.77c0,.85.49,1.49,1.17,1.49s1.18-.63,1.18-1.5c0-.66-.33-1.49-1.16-1.49s-1.19.77-1.19,1.5Z"/>
          <path d="M246.69,55.55c-.18.1-.59.22-1.11.22-1.17,0-1.93-.79-1.93-1.97s.82-2.06,2.08-2.06c.42,0,.78.1.98.2l-.16.54c-.17-.1-.43-.18-.82-.18-.89,0-1.37.66-1.37,1.46,0,.9.58,1.45,1.34,1.45.4,0,.66-.1.86-.19l.12.53Z"/>
          <path d="M248.21,53.6h.02c.1-.14.23-.3.34-.44l1.14-1.34h.85l-1.5,1.59,1.7,2.28h-.86l-1.34-1.86-.36.4v1.46h-.7v-5.68h.7v3.58Z"/>
          <path d="M261.44,52.87c0-.4,0-.73-.03-1.05h.62l.03.62h.02c.22-.37.58-.71,1.21-.71.53,0,.93.32,1.1.78h.02c.12-.22.27-.38.43-.5.23-.18.49-.27.86-.27.51,0,1.27.34,1.27,1.68v2.28h-.69v-2.19c0-.74-.27-1.19-.84-1.19-.4,0-.71.3-.83.64-.03.1-.06.22-.06.35v2.39h-.69v-2.32c0-.62-.27-1.06-.81-1.06-.44,0-.76.35-.87.7-.04.1-.06.22-.06.34v2.33h-.69v-2.82Z"/>
          <path d="M268.9,50.74c0,.24-.17.43-.45.43-.25,0-.42-.19-.42-.43s.18-.44.44-.44.43.19.43.44ZM268.11,55.69v-3.87h.7v3.87h-.7Z"/>
          <path d="M273.33,50.02v4.68c0,.34,0,.74.03,1h-.63l-.03-.67h-.02c-.22.43-.69.76-1.32.76-.94,0-1.66-.79-1.66-1.97,0-1.29.79-2.08,1.74-2.08.59,0,.99.28,1.17.59h.02v-2.31h.7ZM272.63,53.4c0-.09,0-.21-.03-.3-.1-.45-.49-.82-1.02-.82-.73,0-1.16.64-1.16,1.5,0,.78.38,1.43,1.14,1.43.47,0,.9-.31,1.03-.84.02-.1.03-.19.03-.3v-.67Z"/>
          <path d="M274.33,52.46c0-.3.2-.5.48-.5s.46.21.47.5c0,.28-.18.5-.48.5-.28,0-.47-.22-.47-.5ZM274.33,55.28c0-.29.2-.5.48-.5s.46.21.47.5c0,.28-.18.5-.48.5-.28,0-.47-.22-.47-.5Z"/>
          <path d="M276.15,53.09c0-.5-.02-.9-.03-1.26h.63l.03.66h.02c.29-.47.74-.75,1.38-.75.94,0,1.64.79,1.64,1.97,0,1.39-.85,2.08-1.76,2.08-.51,0-.96-.22-1.19-.61h-.02v2.1h-.7v-4.19ZM276.85,54.12c0,.1.02.2.03.29.13.49.55.82,1.06.82.74,0,1.17-.61,1.17-1.5,0-.78-.41-1.44-1.15-1.44-.48,0-.93.34-1.06.87-.02.09-.05.19-.05.29v.66Z"/>
          <path d="M283.94,54.64c0,.4,0,.75.03,1.06h-.62l-.04-.63h-.02c-.18.31-.59.72-1.28.72-.61,0-1.33-.34-1.33-1.7v-2.26h.7v2.14c0,.74.22,1.23.86,1.23.47,0,.8-.33.93-.64.04-.1.06-.23.06-.36v-2.38h.7v2.81Z"/>
          <path d="M285.96,50.71v1.11h1.01v.54h-1.01v2.09c0,.48.14.75.53.75.18,0,.32-.02.41-.05l.03.53c-.14.06-.35.1-.62.1-.33,0-.59-.1-.76-.3-.2-.21-.27-.55-.27-1.01v-2.11h-.6v-.54h.6v-.93l.69-.18Z"/>
          <path d="M287.67,54.97c.21.14.58.28.93.28.51,0,.75-.26.75-.58s-.2-.52-.72-.71c-.7-.25-1.02-.63-1.02-1.1,0-.62.5-1.14,1.33-1.14.39,0,.74.11.95.24l-.18.51c-.15-.1-.43-.22-.79-.22-.42,0-.65.24-.65.53,0,.32.23.46.74.66.67.26,1.02.59,1.02,1.17,0,.68-.53,1.16-1.45,1.16-.42,0-.82-.1-1.09-.26l.18-.54Z"/>
          <path d="M294.77,55.69l-.06-.49h-.02c-.22.3-.63.58-1.18.58-.78,0-1.18-.55-1.18-1.11,0-.94.83-1.45,2.33-1.44v-.08c0-.32-.09-.9-.88-.9-.36,0-.74.11-1.01.29l-.16-.46c.32-.21.78-.34,1.27-.34,1.18,0,1.47.81,1.47,1.58v1.45c0,.34.02.66.06.93h-.64ZM294.66,53.72c-.77-.02-1.64.12-1.64.87,0,.46.3.67.66.67.5,0,.82-.32.94-.65.02-.07.04-.15.04-.22v-.67Z"/>
          <path d="M296.48,53.03c0-.46,0-.85-.03-1.21h.62l.02.76h.03c.18-.52.6-.85,1.07-.85.08,0,.14,0,.2.02v.66c-.07-.02-.14-.02-.24-.02-.5,0-.85.38-.94.9-.02.1-.03.21-.03.33v2.06h-.7v-2.66Z"/>
          <path d="M302.37,51.82c-.02.28-.03.59-.03,1.06v2.25c0,.89-.18,1.43-.55,1.77-.38.35-.92.46-1.41.46s-.98-.11-1.29-.32l.18-.54c.26.16.66.3,1.14.3.72,0,1.25-.38,1.25-1.35v-.43h-.02c-.22.36-.63.65-1.23.65-.96,0-1.65-.82-1.65-1.89,0-1.31.86-2.05,1.74-2.05.67,0,1.04.35,1.21.67h.02l.03-.58h.62ZM301.64,53.35c0-.12,0-.22-.04-.32-.13-.41-.47-.74-.98-.74-.67,0-1.15.57-1.15,1.46,0,.76.38,1.39,1.14,1.39.43,0,.82-.27.97-.72.04-.12.06-.26.06-.38v-.7Z"/>
          <path d="M306.26,55.55c-.18.1-.59.22-1.11.22-1.17,0-1.93-.79-1.93-1.97s.82-2.06,2.08-2.06c.42,0,.78.1.98.2l-.16.54c-.17-.1-.43-.18-.82-.18-.89,0-1.37.66-1.37,1.46,0,.9.58,1.45,1.34,1.45.4,0,.66-.1.86-.19l.12.53Z"/>
          <path d="M306.92,52.46c0-.3.2-.5.48-.5s.46.21.47.5c0,.28-.18.5-.48.5-.28,0-.47-.22-.47-.5ZM306.92,55.28c0-.29.2-.5.48-.5s.46.21.47.5c0,.28-.18.5-.48.5-.28,0-.47-.22-.47-.5Z"/>
          <path d="M310.05,51.15h-.02l-.9.49-.14-.54,1.13-.61h.6v5.2h-.68v-4.54Z"/>
        </g>
        <g isolation="isolate">
          <path d="M167.08,59.13h.7v5.68h-.7v-5.68Z"/>
          <path d="M169.36,63c.02.95.62,1.34,1.33,1.34.5,0,.81-.09,1.07-.2l.12.5c-.25.11-.67.24-1.29.24-1.19,0-1.9-.78-1.9-1.95s.69-2.09,1.82-2.09c1.26,0,1.6,1.11,1.6,1.82,0,.14-.02.26-.02.33h-2.72ZM171.43,62.49c0-.45-.18-1.14-.98-1.14-.71,0-1.02.66-1.08,1.14h2.05Z"/>
          <path d="M175.12,64.8l-.06-.49h-.02c-.22.3-.63.58-1.18.58-.78,0-1.18-.55-1.18-1.11,0-.94.83-1.45,2.33-1.44v-.08c0-.32-.09-.9-.88-.9-.36,0-.74.11-1.01.29l-.16-.46c.32-.21.78-.34,1.27-.34,1.18,0,1.47.81,1.47,1.58v1.45c0,.34.02.66.06.93h-.64ZM175.02,62.83c-.77-.02-1.64.12-1.64.87,0,.46.3.67.66.67.5,0,.82-.32.94-.65.02-.07.04-.15.04-.22v-.67Z"/>
          <path d="M177.04,60.93l.76,2.17c.13.35.23.67.31.99h.02c.09-.32.2-.64.33-.99l.75-2.17h.74l-1.52,3.87h-.67l-1.47-3.87h.75Z"/>
          <path d="M180.93,63c.02.95.62,1.34,1.33,1.34.5,0,.81-.09,1.07-.2l.12.5c-.25.11-.67.24-1.29.24-1.19,0-1.9-.78-1.9-1.95s.69-2.09,1.82-2.09c1.26,0,1.6,1.11,1.6,1.82,0,.14-.02.26-.02.33h-2.72ZM182.99,62.49c0-.45-.18-1.14-.98-1.14-.71,0-1.02.66-1.08,1.14h2.05Z"/>
        </g>
        <g isolation="isolate">
          <path d="M167.08,25.75c0-.5-.02-.9-.03-1.26h.63l.03.66h.02c.29-.47.74-.75,1.38-.75.94,0,1.64.79,1.64,1.97,0,1.39-.85,2.08-1.76,2.08-.51,0-.96-.22-1.19-.61h-.02v2.1h-.7v-4.19ZM167.78,26.78c0,.1.02.2.03.29.13.49.55.82,1.06.82.74,0,1.17-.61,1.17-1.5,0-.78-.41-1.44-1.15-1.44-.48,0-.93.34-1.06.87-.02.09-.05.19-.05.29v.66Z"/>
          <path d="M174.87,27.3c0,.4,0,.75.03,1.06h-.62l-.04-.63h-.02c-.18.31-.59.72-1.28.72-.61,0-1.33-.34-1.33-1.7v-2.26h.7v2.14c0,.74.22,1.23.86,1.23.47,0,.8-.33.93-.64.04-.1.06-.23.06-.36v-2.38h.7v2.81Z"/>
          <path d="M176.89,23.37v1.11h1.01v.54h-1.01v2.09c0,.48.14.75.53.75.18,0,.32-.02.41-.05l.03.53c-.14.06-.35.1-.62.1-.33,0-.59-.1-.76-.3-.2-.21-.27-.55-.27-1.01v-2.11h-.6v-.54h.6v-.93l.69-.18Z"/>
          <path d="M182.15,26.39c0,1.43-.99,2.05-1.93,2.05-1.05,0-1.86-.77-1.86-1.99,0-1.29.85-2.05,1.92-2.05s1.86.81,1.86,1.99ZM179.08,26.43c0,.85.49,1.49,1.17,1.49s1.18-.63,1.18-1.5c0-.66-.33-1.49-1.16-1.49s-1.19.77-1.19,1.5Z"/>
          <path d="M183,28.36c.02-.26.03-.66.03-1v-4.68h.7v2.43h.02c.25-.43.7-.71,1.32-.71.96,0,1.64.8,1.63,1.98,0,1.38-.87,2.07-1.74,2.07-.56,0-1.01-.22-1.29-.73h-.02l-.03.64h-.61ZM183.73,26.81c0,.09.02.18.03.26.14.49.54.82,1.05.82.74,0,1.18-.6,1.18-1.49,0-.78-.4-1.44-1.15-1.44-.48,0-.93.33-1.07.86-.02.08-.04.18-.04.29v.7Z"/>
          <path d="M186.64,29.48c.32-.02.6-.11.77-.3.19-.22.26-.53.26-1.46v-3.24h.7v3.51c0,.75-.12,1.24-.46,1.59-.31.31-.82.44-1.2.44l-.07-.55ZM188.46,23.4c0,.23-.16.43-.44.43-.26,0-.43-.2-.43-.43,0-.25.18-.44.45-.44s.42.19.42.44Z"/>
          <path d="M189.92,26.55c.02.95.62,1.34,1.33,1.34.5,0,.81-.09,1.07-.2l.12.5c-.25.11-.67.24-1.29.24-1.19,0-1.9-.78-1.9-1.95s.69-2.09,1.82-2.09c1.26,0,1.6,1.11,1.6,1.82,0,.14-.02.26-.02.33h-2.72ZM191.99,26.05c0-.45-.18-1.14-.98-1.14-.71,0-1.02.66-1.08,1.14h2.05Z"/>
          <path d="M196.3,28.21c-.18.1-.59.22-1.11.22-1.17,0-1.93-.79-1.93-1.97s.82-2.06,2.08-2.06c.42,0,.78.1.98.2l-.16.54c-.17-.1-.43-.18-.82-.18-.89,0-1.37.66-1.37,1.46,0,.9.58,1.45,1.34,1.45.4,0,.66-.1.86-.19l.12.53Z"/>
          <path d="M198.08,23.37v1.11h1.01v.54h-1.01v2.09c0,.48.14.75.53.75.18,0,.32-.02.41-.05l.03.53c-.14.06-.35.1-.62.1-.33,0-.59-.1-.76-.3-.2-.21-.27-.55-.27-1.01v-2.11h-.6v-.54h.6v-.93l.69-.18Z"/>
        </g>
        <g isolation="isolate">
          <path d="M167.08,34.86c0-.5-.02-.9-.03-1.26h.63l.03.66h.02c.29-.47.74-.75,1.38-.75.94,0,1.64.79,1.64,1.97,0,1.39-.85,2.08-1.76,2.08-.51,0-.96-.22-1.19-.61h-.02v2.1h-.7v-4.19ZM167.78,35.89c0,.1.02.2.03.29.13.49.55.82,1.06.82.74,0,1.17-.61,1.17-1.5,0-.78-.41-1.44-1.15-1.44-.48,0-.93.34-1.06.87-.02.09-.05.19-.05.29v.66Z"/>
          <path d="M174.87,36.41c0,.4,0,.75.03,1.06h-.62l-.04-.63h-.02c-.18.31-.59.72-1.28.72-.61,0-1.33-.34-1.33-1.7v-2.26h.7v2.14c0,.74.22,1.23.86,1.23.47,0,.8-.33.93-.64.04-.1.06-.23.06-.36v-2.38h.7v2.81Z"/>
          <path d="M176.89,32.49v1.11h1.01v.54h-1.01v2.09c0,.48.14.75.53.75.18,0,.32-.02.41-.05l.03.53c-.14.06-.35.1-.62.1-.33,0-.59-.1-.76-.3-.2-.21-.27-.55-.27-1.01v-2.11h-.6v-.54h.6v-.93l.69-.18Z"/>
          <path d="M182.15,35.5c0,1.43-.99,2.05-1.93,2.05-1.05,0-1.86-.77-1.86-1.99,0-1.29.85-2.05,1.92-2.05s1.86.81,1.86,1.99ZM179.08,35.54c0,.85.49,1.49,1.17,1.49s1.18-.63,1.18-1.5c0-.66-.33-1.49-1.16-1.49s-1.19.77-1.19,1.5Z"/>
          <path d="M183,37.47c.02-.26.03-.66.03-1v-4.68h.7v2.43h.02c.25-.43.7-.71,1.32-.71.96,0,1.64.8,1.63,1.98,0,1.38-.87,2.07-1.74,2.07-.56,0-1.01-.22-1.29-.73h-.02l-.03.64h-.61ZM183.73,35.92c0,.09.02.18.03.26.14.49.54.82,1.05.82.74,0,1.18-.6,1.18-1.49,0-.78-.4-1.44-1.15-1.44-.48,0-.93.33-1.07.86-.02.08-.04.18-.04.29v.7Z"/>
          <path d="M186.64,38.59c.32-.02.6-.11.77-.3.19-.22.26-.53.26-1.46v-3.24h.7v3.51c0,.75-.12,1.24-.46,1.59-.31.31-.82.44-1.2.44l-.07-.55ZM188.46,32.51c0,.23-.16.43-.44.43-.26,0-.43-.2-.43-.43,0-.25.18-.44.45-.44s.42.19.42.44Z"/>
          <path d="M189.92,35.66c.02.95.62,1.34,1.33,1.34.5,0,.81-.09,1.07-.2l.12.5c-.25.11-.67.24-1.29.24-1.19,0-1.9-.78-1.9-1.95s.69-2.09,1.82-2.09c1.26,0,1.6,1.11,1.6,1.82,0,.14-.02.26-.02.33h-2.72ZM191.99,35.16c0-.45-.18-1.14-.98-1.14-.71,0-1.02.66-1.08,1.14h2.05Z"/>
          <path d="M196.3,37.33c-.18.1-.59.22-1.11.22-1.17,0-1.93-.79-1.93-1.97s.82-2.06,2.08-2.06c.42,0,.78.1.98.2l-.16.54c-.17-.1-.43-.18-.82-.18-.89,0-1.37.66-1.37,1.46,0,.9.58,1.45,1.34,1.45.4,0,.66-.1.86-.19l.12.53Z"/>
          <path d="M198.08,32.49v1.11h1.01v.54h-1.01v2.09c0,.48.14.75.53.75.18,0,.32-.02.41-.05l.03.53c-.14.06-.35.1-.62.1-.33,0-.59-.1-.76-.3-.2-.21-.27-.55-.27-1.01v-2.11h-.6v-.54h.6v-.93l.69-.18Z"/>
        </g>
        <g isolation="isolate">
          <path d="M261.7,28.36v-.43l.55-.54c1.33-1.26,1.93-1.93,1.94-2.72,0-.53-.26-1.02-1.03-1.02-.47,0-.86.24-1.1.44l-.22-.5c.36-.3.87-.53,1.47-.53,1.12,0,1.59.77,1.59,1.51,0,.96-.7,1.74-1.79,2.79l-.42.38v.02h2.33v.58h-3.32Z"/>
        </g>
        <g isolation="isolate">
          <path d="M261.7,37.47v-.43l.55-.54c1.33-1.26,1.93-1.93,1.94-2.72,0-.53-.26-1.02-1.03-1.02-.47,0-.86.24-1.1.44l-.22-.5c.36-.3.87-.53,1.47-.53,1.12,0,1.59.77,1.59,1.51,0,.96-.7,1.73-1.79,2.79l-.42.38v.02h2.33v.58h-3.32Z"/>
        </g>
      </g>
    </g>
  </g>
</svg>