<?xml version="1.0" encoding="UTF-8"?>
<svg id="Layer_2" data-name="Layer 2" xmlns="http://www.w3.org/2000/svg" width="127.23" height="192.53" viewBox="0 0 127.23 192.53">
  <g id="Layer_1_copy" data-name="Layer 1 copy">
    <g isolation="isolate">
      <path d="M72.9,188.73c.02.95.62,1.34,1.33,1.34.5,0,.81-.09,1.07-.2l.12.5c-.25.11-.67.24-1.29.24-1.19,0-1.9-.78-1.9-1.95s.69-2.09,1.82-2.09c1.26,0,1.6,1.11,1.6,1.82,0,.14-.02.26-.02.33h-2.72ZM74.96,188.22c0-.45-.18-1.14-.98-1.14-.71,0-1.02.66-1.08,1.14h2.05Z"/>
      <path d="M77.36,185.55v1.11h1.01v.54h-1.01v2.09c0,.48.14.75.53.75.18,0,.32-.02.41-.05l.03.53c-.14.06-.35.1-.62.1-.33,0-.59-.1-.76-.3-.2-.21-.27-.55-.27-1.01v-2.11h-.6v-.54h.6v-.93l.69-.18Z"/>
      <path d="M81.87,190.39c-.18.1-.59.22-1.11.22-1.17,0-1.93-.79-1.93-1.97s.82-2.06,2.08-2.06c.42,0,.78.1.98.2l-.16.54c-.17-.1-.43-.18-.82-.18-.89,0-1.37.66-1.37,1.46,0,.9.58,1.45,1.34,1.45.4,0,.66-.1.86-.19l.12.53Z"/>
      <path d="M82.45,190.12c0-.3.2-.5.48-.5s.47.21.47.5-.18.5-.48.5c-.28,0-.47-.22-.47-.5Z"/>
      <path d="M84.1,190.12c0-.3.2-.5.48-.5s.47.21.47.5-.18.5-.48.5c-.28,0-.47-.22-.47-.5Z"/>
      <path d="M85.76,190.12c0-.3.2-.5.48-.5s.47.21.47.5-.18.5-.48.5c-.28,0-.47-.22-.47-.5Z"/>
    </g>
    <g>
      <line x1="80.55" y1="165.29" x2="80.55" y2="174.25" fill="none" stroke="#000"/>
      <polygon points="78.47 172.76 80.64 180.9 82.83 172.76 78.47 172.76"/>
    </g>
    <path d="M41.11,124.34h78.88c3.16,0,5.73,2.57,5.73,5.73v29.49c0,3.16-2.57,5.73-5.73,5.73H41.11c-3.16,0-5.73-2.57-5.73-5.73v-29.49c0-3.16,2.57-5.73,5.73-5.73Z" fill="#fff" stroke="#999" stroke-miterlimit="10" stroke-width="3"/>
    <g isolation="isolate">
      <path d="M45.14,132.86c0-.46,0-.85-.03-1.21h.62l.02.76h.03c.18-.52.6-.85,1.07-.85.08,0,.14,0,.2.02v.66c-.07-.02-.14-.02-.24-.02-.5,0-.85.38-.94.9-.02.1-.03.21-.03.33v2.06h-.7v-2.66Z"/>
      <path d="M47.76,135.52c.02-.26.03-.66.03-1v-4.68h.7v2.43h.02c.25-.43.7-.71,1.32-.71.96,0,1.64.8,1.63,1.97,0,1.38-.87,2.07-1.74,2.07-.56,0-1.01-.22-1.3-.73h-.02l-.03.64h-.61ZM48.48,133.97c0,.09.02.18.03.26.14.49.54.82,1.06.82.74,0,1.17-.6,1.17-1.49,0-.78-.4-1.44-1.15-1.44-.48,0-.93.33-1.07.86-.02.08-.04.18-.04.29v.7Z"/>
      <path d="M55.75,136.12v.4h-4v-.4h4Z"/>
      <path d="M59.1,135.38c-.18.1-.59.22-1.11.22-1.17,0-1.93-.79-1.93-1.97s.82-2.06,2.08-2.06c.42,0,.78.1.98.2l-.16.54c-.17-.1-.43-.18-.82-.18-.89,0-1.37.66-1.37,1.46,0,.9.58,1.45,1.34,1.45.4,0,.66-.1.86-.19l.12.53Z"/>
      <path d="M63.38,133.56c0,1.43-.99,2.05-1.93,2.05-1.05,0-1.86-.77-1.86-1.99,0-1.29.85-2.05,1.92-2.05s1.86.81,1.86,1.99ZM60.31,133.6c0,.85.49,1.49,1.17,1.49s1.18-.63,1.18-1.5c0-.66-.33-1.49-1.16-1.49s-1.19.77-1.19,1.5Z"/>
      <path d="M64.27,132.7c0-.4,0-.73-.03-1.05h.62l.04.64h.02c.19-.37.64-.73,1.28-.73.54,0,1.37.32,1.37,1.65v2.31h-.7v-2.23c0-.62-.23-1.14-.9-1.14-.46,0-.82.33-.94.72-.03.09-.05.21-.05.33v2.33h-.7v-2.82Z"/>
      <path d="M69.52,130.54v1.11h1.01v.54h-1.01v2.09c0,.48.14.75.53.75.18,0,.32-.02.41-.05l.03.53c-.14.06-.35.1-.62.1-.33,0-.59-.1-.76-.3-.2-.21-.27-.55-.27-1.01v-2.11h-.6v-.54h.6v-.93l.69-.18Z"/>
      <path d="M71.32,132.86c0-.46,0-.85-.03-1.21h.62l.02.76h.03c.18-.52.6-.85,1.07-.85.08,0,.14,0,.2.02v.66c-.07-.02-.14-.02-.24-.02-.5,0-.85.38-.94.9-.02.1-.03.21-.03.33v2.06h-.7v-2.66Z"/>
      <path d="M77.36,133.56c0,1.43-.99,2.05-1.93,2.05-1.05,0-1.86-.77-1.86-1.99,0-1.29.85-2.05,1.92-2.05s1.86.81,1.86,1.99ZM74.29,133.6c0,.85.49,1.49,1.17,1.49s1.18-.63,1.18-1.5c0-.66-.33-1.49-1.16-1.49s-1.19.77-1.19,1.5Z"/>
      <path d="M78.25,129.85h.7v5.68h-.7v-5.68Z"/>
      <path d="M83.55,136.12v.4h-4v-.4h4Z"/>
      <path d="M84.21,135.52v-3.33h-.54v-.54h.54v-.18c0-.54.12-1.04.45-1.35.26-.26.62-.36.94-.36.25,0,.46.06.6.11l-.1.54c-.1-.05-.25-.09-.45-.09-.6,0-.75.53-.75,1.12v.21h.94v.54h-.94v3.33h-.7Z"/>
      <path d="M86.48,132.86c0-.46,0-.85-.03-1.21h.62l.02.76h.03c.18-.52.6-.85,1.07-.85.08,0,.14,0,.2.02v.66c-.07-.02-.14-.02-.24-.02-.5,0-.85.38-.94.9-.02.1-.03.21-.03.33v2.06h-.7v-2.66Z"/>
      <path d="M91.19,135.52l-.06-.49h-.02c-.22.3-.63.58-1.18.58-.78,0-1.18-.55-1.18-1.11,0-.94.83-1.45,2.33-1.44v-.08c0-.32-.09-.9-.88-.9-.36,0-.74.11-1.01.29l-.16-.46c.32-.21.78-.34,1.27-.34,1.18,0,1.47.81,1.47,1.58v1.45c0,.34.02.66.06.93h-.64ZM91.09,133.55c-.77-.02-1.64.12-1.64.87,0,.46.3.67.66.67.5,0,.82-.32.94-.65.02-.07.04-.15.04-.22v-.67Z"/>
      <path d="M92.91,132.7c0-.4,0-.73-.03-1.05h.62l.03.62h.02c.22-.37.58-.71,1.21-.71.53,0,.93.32,1.1.78h.02c.12-.22.27-.38.43-.5.23-.18.49-.27.86-.27.51,0,1.27.34,1.27,1.68v2.28h-.69v-2.19c0-.74-.27-1.19-.84-1.19-.4,0-.71.3-.83.64-.03.1-.06.22-.06.35v2.39h-.69v-2.32c0-.62-.27-1.06-.81-1.06-.44,0-.76.35-.87.7-.04.1-.06.22-.06.34v2.33h-.69v-2.82Z"/>
      <path d="M99.97,133.72c.02.95.62,1.34,1.33,1.34.5,0,.81-.09,1.07-.2l.12.5c-.25.11-.67.24-1.29.24-1.19,0-1.9-.78-1.9-1.95s.69-2.09,1.82-2.09c1.26,0,1.6,1.11,1.6,1.82,0,.14-.02.26-.02.33h-2.72ZM102.03,133.21c0-.45-.18-1.14-.98-1.14-.71,0-1.02.66-1.08,1.14h2.05Z"/>
      <path d="M107,136.12v.4h-4v-.4h4Z"/>
      <path d="M108.43,130.54v1.11h1.01v.54h-1.01v2.09c0,.48.14.75.53.75.18,0,.32-.02.41-.05l.03.53c-.14.06-.35.1-.62.1-.33,0-.59-.1-.76-.3-.2-.21-.27-.55-.27-1.01v-2.11h-.6v-.54h.6v-.93l.69-.18Z"/>
    </g>
    <path d="M41.11,83.39h78.88c3.16,0,5.73,2.56,5.73,5.73v29.49c0,3.16-2.57,5.73-5.73,5.73H41.11c-3.16,0-5.73-2.56-5.73-5.73v-29.49c0-3.16,2.57-5.73,5.73-5.73Z" fill="#fff" stroke="#999" stroke-miterlimit="10" stroke-width="3"/>
    <g isolation="isolate">
      <path d="M45.14,91.92c0-.46,0-.85-.03-1.21h.62l.02.76h.03c.18-.52.6-.85,1.07-.85.08,0,.14,0,.2.02v.66c-.07-.02-.14-.02-.24-.02-.5,0-.85.38-.94.9-.02.1-.03.21-.03.33v2.06h-.7v-2.66Z"/>
      <path d="M47.76,94.58c.02-.26.03-.66.03-1v-4.68h.7v2.43h.02c.25-.43.7-.71,1.32-.71.96,0,1.64.8,1.63,1.98,0,1.38-.87,2.07-1.74,2.07-.56,0-1.01-.22-1.3-.73h-.02l-.03.64h-.61ZM48.48,93.03c0,.09.02.18.03.26.14.49.54.82,1.06.82.74,0,1.17-.6,1.17-1.49,0-.78-.4-1.44-1.15-1.44-.48,0-.93.33-1.07.86-.02.08-.04.18-.04.29v.7Z"/>
      <path d="M55.75,95.18v.4h-4v-.4h4Z"/>
      <path d="M59.1,94.43c-.18.1-.59.22-1.11.22-1.17,0-1.93-.79-1.93-1.97s.82-2.06,2.08-2.06c.42,0,.78.1.98.2l-.16.54c-.17-.1-.43-.18-.82-.18-.89,0-1.37.66-1.37,1.46,0,.9.58,1.45,1.34,1.45.4,0,.66-.1.86-.19l.12.53Z"/>
      <path d="M63.38,92.61c0,1.43-.99,2.05-1.93,2.05-1.05,0-1.86-.77-1.86-1.99,0-1.29.85-2.05,1.92-2.05s1.86.81,1.86,1.99ZM60.31,92.65c0,.85.49,1.49,1.17,1.49s1.18-.63,1.18-1.5c0-.66-.33-1.49-1.16-1.49s-1.19.77-1.19,1.5Z"/>
      <path d="M64.27,91.76c0-.4,0-.73-.03-1.05h.62l.04.64h.02c.19-.37.64-.73,1.28-.73.54,0,1.37.32,1.37,1.65v2.31h-.7v-2.23c0-.62-.23-1.14-.9-1.14-.46,0-.82.33-.94.72-.03.09-.05.21-.05.33v2.33h-.7v-2.82Z"/>
      <path d="M69.52,89.6v1.11h1.01v.54h-1.01v2.09c0,.48.14.75.53.75.18,0,.32-.02.41-.05l.03.53c-.14.06-.35.1-.62.1-.33,0-.59-.1-.76-.3-.2-.21-.27-.55-.27-1.01v-2.11h-.6v-.54h.6v-.93l.69-.18Z"/>
      <path d="M71.32,91.92c0-.46,0-.85-.03-1.21h.62l.02.76h.03c.18-.52.6-.85,1.07-.85.08,0,.14,0,.2.02v.66c-.07-.02-.14-.02-.24-.02-.5,0-.85.38-.94.9-.02.1-.03.21-.03.33v2.06h-.7v-2.66Z"/>
      <path d="M77.36,92.61c0,1.43-.99,2.05-1.93,2.05-1.05,0-1.86-.77-1.86-1.99,0-1.29.85-2.05,1.92-2.05s1.86.81,1.86,1.99ZM74.29,92.65c0,.85.49,1.49,1.17,1.49s1.18-.63,1.18-1.5c0-.66-.33-1.49-1.16-1.49s-1.19.77-1.19,1.5Z"/>
      <path d="M78.25,88.9h.7v5.68h-.7v-5.68Z"/>
      <path d="M83.55,95.18v.4h-4v-.4h4Z"/>
      <path d="M84.21,94.58v-3.33h-.54v-.54h.54v-.18c0-.54.12-1.04.45-1.35.26-.26.62-.36.94-.36.25,0,.46.06.6.11l-.1.54c-.1-.05-.25-.09-.45-.09-.6,0-.75.53-.75,1.12v.21h.94v.54h-.94v3.33h-.7Z"/>
      <path d="M86.48,91.92c0-.46,0-.85-.03-1.21h.62l.02.76h.03c.18-.52.6-.85,1.07-.85.08,0,.14,0,.2.02v.66c-.07-.02-.14-.02-.24-.02-.5,0-.85.38-.94.9-.02.1-.03.21-.03.33v2.06h-.7v-2.66Z"/>
      <path d="M91.19,94.58l-.06-.49h-.02c-.22.3-.63.58-1.18.58-.78,0-1.18-.55-1.18-1.11,0-.94.83-1.45,2.33-1.44v-.08c0-.32-.09-.9-.88-.9-.36,0-.74.11-1.01.29l-.16-.46c.32-.21.78-.34,1.27-.34,1.18,0,1.47.81,1.47,1.58v1.45c0,.34.02.66.06.93h-.64ZM91.09,92.6c-.77-.02-1.64.12-1.64.87,0,.46.3.67.66.67.5,0,.82-.32.94-.65.02-.07.04-.15.04-.22v-.67Z"/>
      <path d="M92.91,91.76c0-.4,0-.73-.03-1.05h.62l.03.62h.02c.22-.37.58-.71,1.21-.71.53,0,.93.32,1.1.78h.02c.12-.22.27-.38.43-.5.23-.18.49-.27.86-.27.51,0,1.27.34,1.27,1.68v2.28h-.69v-2.19c0-.74-.27-1.19-.84-1.19-.4,0-.71.3-.83.64-.03.1-.06.22-.06.35v2.39h-.69v-2.32c0-.62-.27-1.06-.81-1.06-.44,0-.76.35-.87.7-.04.1-.06.22-.06.34v2.33h-.69v-2.82Z"/>
      <path d="M99.97,92.77c.02.95.62,1.34,1.33,1.34.5,0,.81-.09,1.07-.2l.12.5c-.25.11-.67.24-1.29.24-1.19,0-1.9-.78-1.9-1.95s.69-2.09,1.82-2.09c1.26,0,1.6,1.11,1.6,1.82,0,.14-.02.26-.02.33h-2.72ZM102.03,92.27c0-.45-.18-1.14-.98-1.14-.71,0-1.02.66-1.08,1.14h2.05Z"/>
      <path d="M107,95.18v.4h-4v-.4h4Z"/>
      <path d="M108.43,89.6v1.11h1.01v.54h-1.01v2.09c0,.48.14.75.53.75.18,0,.32-.02.41-.05l.03.53c-.14.06-.35.1-.62.1-.33,0-.59-.1-.76-.3-.2-.21-.27-.55-.27-1.01v-2.11h-.6v-.54h.6v-.93l.69-.18Z"/>
    </g>
    <path d="M41.11,42.45h78.88c3.16,0,5.73,2.56,5.73,5.73v29.49c0,3.16-2.57,5.73-5.73,5.73H41.11c-3.16,0-5.73-2.57-5.73-5.73v-29.49c0-3.16,2.57-5.73,5.73-5.73Z" fill="#fff" stroke="#999" stroke-miterlimit="10" stroke-width="3"/>
    <g isolation="isolate">
      <path d="M45.14,50.97c0-.46,0-.85-.03-1.21h.62l.02.76h.03c.18-.52.6-.85,1.07-.85.08,0,.14,0,.2.02v.66c-.07-.02-.14-.02-.24-.02-.5,0-.85.38-.94.9-.02.1-.03.21-.03.33v2.06h-.7v-2.66Z"/>
      <path d="M47.76,53.63c.02-.26.03-.66.03-1v-4.68h.7v2.43h.02c.25-.43.7-.71,1.32-.71.96,0,1.64.8,1.63,1.98,0,1.38-.87,2.07-1.74,2.07-.56,0-1.01-.22-1.3-.73h-.02l-.03.64h-.61ZM48.48,52.08c0,.09.02.18.03.26.14.49.54.82,1.06.82.74,0,1.17-.6,1.17-1.49,0-.78-.4-1.44-1.15-1.44-.48,0-.93.33-1.07.86-.02.08-.04.18-.04.29v.7Z"/>
      <path d="M55.75,54.23v.4h-4v-.4h4Z"/>
      <path d="M59.1,53.49c-.18.1-.59.22-1.11.22-1.17,0-1.93-.79-1.93-1.97s.82-2.06,2.08-2.06c.42,0,.78.1.98.2l-.16.54c-.17-.1-.43-.18-.82-.18-.89,0-1.37.66-1.37,1.46,0,.9.58,1.45,1.34,1.45.4,0,.66-.1.86-.19l.12.53Z"/>
      <path d="M63.38,51.66c0,1.43-.99,2.05-1.93,2.05-1.05,0-1.86-.77-1.86-1.99,0-1.29.85-2.05,1.92-2.05s1.86.81,1.86,1.99ZM60.31,51.7c0,.85.49,1.49,1.17,1.49s1.18-.63,1.18-1.5c0-.66-.33-1.49-1.16-1.49s-1.19.77-1.19,1.5Z"/>
      <path d="M64.27,50.81c0-.4,0-.73-.03-1.05h.62l.04.64h.02c.19-.37.64-.73,1.28-.73.54,0,1.37.32,1.37,1.65v2.31h-.7v-2.23c0-.62-.23-1.14-.9-1.14-.46,0-.82.33-.94.72-.03.09-.05.21-.05.33v2.33h-.7v-2.82Z"/>
      <path d="M69.52,48.65v1.11h1.01v.54h-1.01v2.09c0,.48.14.75.53.75.18,0,.32-.02.41-.05l.03.53c-.14.06-.35.1-.62.1-.33,0-.59-.1-.76-.3-.2-.21-.27-.55-.27-1.01v-2.11h-.6v-.54h.6v-.93l.69-.18Z"/>
      <path d="M71.32,50.97c0-.46,0-.85-.03-1.21h.62l.02.76h.03c.18-.52.6-.85,1.07-.85.08,0,.14,0,.2.02v.66c-.07-.02-.14-.02-.24-.02-.5,0-.85.38-.94.9-.02.1-.03.21-.03.33v2.06h-.7v-2.66Z"/>
      <path d="M77.36,51.66c0,1.43-.99,2.05-1.93,2.05-1.05,0-1.86-.77-1.86-1.99,0-1.29.85-2.05,1.92-2.05s1.86.81,1.86,1.99ZM74.29,51.7c0,.85.49,1.49,1.17,1.49s1.18-.63,1.18-1.5c0-.66-.33-1.49-1.16-1.49s-1.19.77-1.19,1.5Z"/>
      <path d="M78.25,47.95h.7v5.68h-.7v-5.68Z"/>
      <path d="M83.55,54.23v.4h-4v-.4h4Z"/>
      <path d="M84.21,53.63v-3.33h-.54v-.54h.54v-.18c0-.54.12-1.04.45-1.35.26-.26.62-.36.94-.36.25,0,.46.06.6.11l-.1.54c-.1-.05-.25-.09-.45-.09-.6,0-.75.53-.75,1.12v.21h.94v.54h-.94v3.33h-.7Z"/>
      <path d="M86.48,50.97c0-.46,0-.85-.03-1.21h.62l.02.76h.03c.18-.52.6-.85,1.07-.85.08,0,.14,0,.2.02v.66c-.07-.02-.14-.02-.24-.02-.5,0-.85.38-.94.9-.02.1-.03.21-.03.33v2.06h-.7v-2.66Z"/>
      <path d="M91.19,53.63l-.06-.49h-.02c-.22.3-.63.58-1.18.58-.78,0-1.18-.55-1.18-1.11,0-.94.83-1.45,2.33-1.44v-.08c0-.32-.09-.9-.88-.9-.36,0-.74.11-1.01.29l-.16-.46c.32-.21.78-.34,1.27-.34,1.18,0,1.47.81,1.47,1.58v1.45c0,.34.02.66.06.93h-.64ZM91.09,51.66c-.77-.02-1.64.12-1.64.87,0,.46.3.67.66.67.5,0,.82-.32.94-.65.02-.07.04-.15.04-.22v-.67Z"/>
      <path d="M92.91,50.81c0-.4,0-.73-.03-1.05h.62l.03.62h.02c.22-.37.58-.71,1.21-.71.53,0,.93.32,1.1.78h.02c.12-.22.27-.38.43-.5.23-.18.49-.27.86-.27.51,0,1.27.34,1.27,1.68v2.28h-.69v-2.19c0-.74-.27-1.19-.84-1.19-.4,0-.71.3-.83.64-.03.1-.06.22-.06.35v2.39h-.69v-2.32c0-.62-.27-1.06-.81-1.06-.44,0-.76.35-.87.7-.04.1-.06.22-.06.34v2.33h-.69v-2.82Z"/>
      <path d="M99.97,51.82c.02.95.62,1.34,1.33,1.34.5,0,.81-.09,1.07-.2l.12.5c-.25.11-.67.24-1.29.24-1.19,0-1.9-.78-1.9-1.95s.69-2.09,1.82-2.09c1.26,0,1.6,1.11,1.6,1.82,0,.14-.02.26-.02.33h-2.72ZM102.03,51.32c0-.45-.18-1.14-.98-1.14-.71,0-1.02.66-1.08,1.14h2.05Z"/>
      <path d="M107,54.23v.4h-4v-.4h4Z"/>
      <path d="M108.43,48.65v1.11h1.01v.54h-1.01v2.09c0,.48.14.75.53.75.18,0,.32-.02.41-.05l.03.53c-.14.06-.35.1-.62.1-.33,0-.59-.1-.76-.3-.2-.21-.27-.55-.27-1.01v-2.11h-.6v-.54h.6v-.93l.69-.18Z"/>
    </g>
    <path d="M41.11,1.5h78.88c3.16,0,5.73,2.57,5.73,5.73v29.49c0,3.16-2.57,5.73-5.73,5.73H41.11c-3.16,0-5.73-2.56-5.73-5.73V7.23c0-3.16,2.57-5.73,5.73-5.73Z" fill="#fff" stroke="#999" stroke-miterlimit="10" stroke-width="3"/>
    <g isolation="isolate">
      <path d="M45.14,10.02c0-.46,0-.85-.03-1.21h.62l.02.76h.03c.18-.52.6-.85,1.07-.85.08,0,.14,0,.2.02v.66c-.07-.02-.14-.02-.24-.02-.5,0-.85.38-.94.9-.02.1-.03.21-.03.33v2.06h-.7v-2.66Z"/>
      <path d="M47.76,12.68c.02-.26.03-.66.03-1v-4.68h.7v2.43h.02c.25-.43.7-.71,1.32-.71.96,0,1.64.8,1.63,1.98,0,1.38-.87,2.07-1.74,2.07-.56,0-1.01-.22-1.3-.73h-.02l-.03.64h-.61ZM48.48,11.13c0,.09.02.18.03.26.14.49.54.82,1.06.82.74,0,1.17-.6,1.17-1.49,0-.78-.4-1.44-1.15-1.44-.48,0-.93.33-1.07.86-.02.08-.04.18-.04.29v.7Z"/>
      <path d="M55.75,13.28v.4h-4v-.4h4Z"/>
      <path d="M59.1,12.54c-.18.1-.59.22-1.11.22-1.17,0-1.93-.79-1.93-1.97s.82-2.06,2.08-2.06c.42,0,.78.1.98.2l-.16.54c-.17-.1-.43-.18-.82-.18-.89,0-1.37.66-1.37,1.46,0,.9.58,1.45,1.34,1.45.4,0,.66-.1.86-.19l.12.53Z"/>
      <path d="M63.38,10.72c0,1.43-.99,2.05-1.93,2.05-1.05,0-1.86-.77-1.86-1.99,0-1.29.85-2.05,1.92-2.05s1.86.81,1.86,1.99ZM60.31,10.76c0,.85.49,1.49,1.17,1.49s1.18-.63,1.18-1.5c0-.66-.33-1.49-1.16-1.49s-1.19.77-1.19,1.5Z"/>
      <path d="M64.27,9.86c0-.4,0-.73-.03-1.05h.62l.04.64h.02c.19-.37.64-.73,1.28-.73.54,0,1.37.32,1.37,1.65v2.31h-.7v-2.23c0-.62-.23-1.14-.9-1.14-.46,0-.82.33-.94.72-.03.09-.05.21-.05.33v2.33h-.7v-2.82Z"/>
      <path d="M69.52,7.7v1.11h1.01v.54h-1.01v2.09c0,.48.14.75.53.75.18,0,.32-.02.41-.05l.03.53c-.14.06-.35.1-.62.1-.33,0-.59-.1-.76-.3-.2-.21-.27-.55-.27-1.01v-2.11h-.6v-.54h.6v-.93l.69-.18Z"/>
      <path d="M71.32,10.02c0-.46,0-.85-.03-1.21h.62l.02.76h.03c.18-.52.6-.85,1.07-.85.08,0,.14,0,.2.02v.66c-.07-.02-.14-.02-.24-.02-.5,0-.85.38-.94.9-.02.1-.03.21-.03.33v2.06h-.7v-2.66Z"/>
      <path d="M77.36,10.72c0,1.43-.99,2.05-1.93,2.05-1.05,0-1.86-.77-1.86-1.99,0-1.29.85-2.05,1.92-2.05s1.86.81,1.86,1.99ZM74.29,10.76c0,.85.49,1.49,1.17,1.49s1.18-.63,1.18-1.5c0-.66-.33-1.49-1.16-1.49s-1.19.77-1.19,1.5Z"/>
      <path d="M78.25,7.01h.7v5.68h-.7v-5.68Z"/>
      <path d="M83.55,13.28v.4h-4v-.4h4Z"/>
      <path d="M84.21,12.68v-3.33h-.54v-.54h.54v-.18c0-.54.12-1.04.45-1.35.26-.26.62-.36.94-.36.25,0,.46.06.6.11l-.1.54c-.1-.05-.25-.09-.45-.09-.6,0-.75.53-.75,1.12v.21h.94v.54h-.94v3.33h-.7Z"/>
      <path d="M86.48,10.02c0-.46,0-.85-.03-1.21h.62l.02.76h.03c.18-.52.6-.85,1.07-.85.08,0,.14,0,.2.02v.66c-.07-.02-.14-.02-.24-.02-.5,0-.85.38-.94.9-.02.1-.03.21-.03.33v2.06h-.7v-2.66Z"/>
      <path d="M91.19,12.68l-.06-.49h-.02c-.22.3-.63.58-1.18.58-.78,0-1.18-.55-1.18-1.11,0-.94.83-1.45,2.33-1.44v-.08c0-.32-.09-.9-.88-.9-.36,0-.74.11-1.01.29l-.16-.46c.32-.21.78-.34,1.27-.34,1.18,0,1.47.81,1.47,1.58v1.45c0,.34.02.66.06.93h-.64ZM91.09,10.71c-.77-.02-1.64.12-1.64.87,0,.46.3.67.66.67.5,0,.82-.32.94-.65.02-.07.04-.15.04-.22v-.67Z"/>
      <path d="M92.91,9.86c0-.4,0-.73-.03-1.05h.62l.03.62h.02c.22-.37.58-.71,1.21-.71.53,0,.93.32,1.1.78h.02c.12-.22.27-.38.43-.5.23-.18.49-.27.86-.27.51,0,1.27.34,1.27,1.68v2.28h-.69v-2.19c0-.74-.27-1.19-.84-1.19-.4,0-.71.3-.83.64-.03.1-.06.22-.06.35v2.39h-.69v-2.32c0-.62-.27-1.06-.81-1.06-.44,0-.76.35-.87.7-.04.1-.06.22-.06.34v2.33h-.69v-2.82Z"/>
      <path d="M99.97,10.88c.02.95.62,1.34,1.33,1.34.5,0,.81-.09,1.07-.2l.12.5c-.25.11-.67.24-1.29.24-1.19,0-1.9-.78-1.9-1.95s.69-2.09,1.82-2.09c1.26,0,1.6,1.11,1.6,1.82,0,.14-.02.26-.02.33h-2.72ZM102.03,10.37c0-.45-.18-1.14-.98-1.14-.71,0-1.02.66-1.08,1.14h2.05Z"/>
      <path d="M107,13.28v.4h-4v-.4h4Z"/>
      <path d="M108.43,7.7v1.11h1.01v.54h-1.01v2.09c0,.48.14.75.53.75.18,0,.32-.02.41-.05l.03.53c-.14.06-.35.1-.62.1-.33,0-.59-.1-.76-.3-.2-.21-.27-.55-.27-1.01v-2.11h-.6v-.54h.6v-.93l.69-.18Z"/>
    </g>
    <g isolation="isolate">
      <path d="M14.73,36.42c-.26.13-.77.26-1.42.26-1.52,0-2.66-.96-2.66-2.73s1.14-2.83,2.81-2.83c.67,0,1.09.14,1.28.24l-.17.57c-.26-.13-.64-.22-1.09-.22-1.26,0-2.1.81-2.1,2.22,0,1.32.76,2.17,2.07,2.17.42,0,.86-.09,1.13-.22l.14.55Z"/>
      <path d="M15.61,31.21h2.9v.58h-2.21v1.79h2.04v.58h-2.04v2.44h-.7v-5.39Z"/>
      <path d="M19.5,31.27c.34-.06.78-.1,1.34-.1.69,0,1.19.16,1.51.45.3.26.47.65.47,1.13s-.14.87-.42,1.15c-.37.39-.97.59-1.65.59-.21,0-.4,0-.56-.05v2.16h-.7v-5.33ZM20.2,33.87c.15.04.34.06.58.06.84,0,1.35-.41,1.35-1.15s-.5-1.05-1.27-1.05c-.3,0-.54.02-.66.06v2.09Z"/>
    </g>
    <g isolation="isolate">
      <path d="M69.21,153.69v-6.37h1.46v.44h-.92v5.49h.92v.44h-1.46Z"/>
      <path d="M74.23,150.27h-2.09v1.94h2.33v.58h-3.03v-5.39h2.91v.58h-2.21v1.7h2.09v.58Z"/>
      <path d="M76.63,152.79l-1.76-5.39h.75l.84,2.65c.23.73.43,1.38.58,2.01h.02c.15-.62.38-1.3.62-2.01l.91-2.66h.74l-1.93,5.39h-.77Z"/>
      <path d="M80.32,151.1l-.56,1.7h-.72l1.83-5.39h.84l1.84,5.39h-.74l-.58-1.7h-1.91ZM82.09,150.56l-.53-1.55c-.12-.35-.2-.67-.28-.98h-.02c-.08.32-.17.65-.27.98l-.53,1.56h1.62Z"/>
      <path d="M84.35,147.41h.7v4.8h2.3v.58h-3v-5.39Z"/>
      <path d="M89.13,147.31v6.38h-1.46v-.44h.92v-5.5h-.92v-.44h1.46Z"/>
    </g>
    <g isolation="isolate">
      <path d="M65.21,112.74v-6.37h1.46v.44h-.92v5.49h.92v.44h-1.46Z"/>
      <path d="M71.98,109.48c-.04-.75-.09-1.66-.08-2.33h-.02c-.18.63-.41,1.3-.68,2.05l-.95,2.61h-.53l-.87-2.57c-.26-.76-.47-1.46-.62-2.09h-.02c-.02.67-.06,1.58-.1,2.38l-.14,2.31h-.66l.38-5.39h.89l.92,2.61c.22.66.41,1.25.54,1.81h.02c.14-.54.33-1.13.57-1.81l.96-2.61h.89l.34,5.39h-.68l-.14-2.37Z"/>
      <path d="M76.66,109.32h-2.09v1.94h2.33v.58h-3.03v-5.39h2.91v.58h-2.21v1.7h2.09v.58Z"/>
      <path d="M78.95,107.05h-1.64v-.59h3.99v.59h-1.65v4.8h-.7v-4.8Z"/>
      <path d="M82.6,106.46v2.25h2.61v-2.25h.7v5.39h-.7v-2.53h-2.61v2.53h-.7v-5.39h.7Z"/>
      <path d="M91.73,109.1c0,1.86-1.13,2.84-2.5,2.84s-2.42-1.1-2.42-2.73c0-1.71,1.06-2.83,2.5-2.83s2.42,1.13,2.42,2.73ZM87.55,109.19c0,1.15.62,2.18,1.72,2.18s1.73-1.02,1.73-2.24c0-1.07-.56-2.19-1.72-2.19s-1.73,1.06-1.73,2.25Z"/>
      <path d="M92.63,106.53c.42-.06.93-.11,1.48-.11,1,0,1.71.23,2.18.67.48.44.76,1.06.76,1.94s-.27,1.6-.78,2.09c-.5.5-1.34.78-2.38.78-.5,0-.91-.02-1.26-.06v-5.3ZM93.33,111.3c.18.03.43.04.7.04,1.49,0,2.29-.83,2.29-2.29,0-1.27-.71-2.08-2.18-2.08-.36,0-.63.03-.82.07v4.25Z"/>
      <path d="M98.91,106.36v6.38h-1.46v-.44h.92v-5.5h-.92v-.44h1.46Z"/>
    </g>
    <g isolation="isolate">
      <path d="M67.21,71.8v-6.37h1.46v.44h-.92v5.49h.92v.44h-1.46Z"/>
      <path d="M69.43,65.58c.3-.06.78-.11,1.27-.11.7,0,1.14.12,1.48.39.28.21.45.53.45.95,0,.52-.34.98-.91,1.18v.02c.51.13,1.11.55,1.11,1.35,0,.46-.18.82-.46,1.08-.38.34-.98.5-1.86.5-.48,0-.85-.03-1.08-.06v-5.3ZM70.13,67.79h.63c.74,0,1.17-.38,1.17-.9,0-.63-.48-.88-1.18-.88-.32,0-.5.02-.62.05v1.74ZM70.13,70.37c.14.02.33.03.58.03.72,0,1.38-.26,1.38-1.05,0-.74-.63-1.04-1.39-1.04h-.58v2.06Z"/>
      <path d="M73.77,65.51h.7v4.8h2.3v.58h-3v-5.39Z"/>
      <path d="M81.84,68.15c0,1.85-1.13,2.84-2.5,2.84s-2.42-1.1-2.42-2.73c0-1.71,1.06-2.83,2.5-2.83s2.42,1.13,2.42,2.73ZM77.66,68.24c0,1.15.62,2.18,1.72,2.18s1.73-1.02,1.73-2.24c0-1.07-.56-2.19-1.72-2.19s-1.73,1.06-1.73,2.25Z"/>
      <path d="M86.51,70.73c-.26.13-.77.26-1.42.26-1.52,0-2.66-.96-2.66-2.73s1.14-2.83,2.81-2.83c.67,0,1.09.14,1.28.24l-.17.57c-.26-.13-.64-.22-1.09-.22-1.26,0-2.1.81-2.1,2.22,0,1.32.76,2.17,2.07,2.17.42,0,.86-.09,1.13-.22l.14.55Z"/>
      <path d="M87.39,65.51h.7v2.6h.02c.14-.21.29-.4.42-.58l1.65-2.02h.86l-1.95,2.29,2.1,3.1h-.82l-1.77-2.65-.51.59v2.05h-.7v-5.39Z"/>
      <path d="M92.92,65.42v6.38h-1.46v-.44h.92v-5.5h-.92v-.44h1.46Z"/>
    </g>
    <g isolation="isolate">
      <path d="M65.21,30.85v-6.37h1.46v.44h-.92v5.49h.92v.44h-1.46Z"/>
      <path d="M71.98,27.59c-.04-.75-.09-1.65-.08-2.33h-.02c-.18.63-.41,1.3-.68,2.05l-.95,2.61h-.53l-.87-2.57c-.26-.76-.47-1.46-.62-2.09h-.02c-.02.67-.06,1.58-.1,2.38l-.14,2.31h-.66l.38-5.39h.89l.92,2.61c.22.66.41,1.25.54,1.81h.02c.14-.54.33-1.13.57-1.81l.96-2.61h.89l.34,5.39h-.68l-.14-2.37Z"/>
      <path d="M76.66,27.43h-2.09v1.94h2.33v.58h-3.03v-5.39h2.91v.58h-2.21v1.7h2.09v.58Z"/>
      <path d="M78.95,25.16h-1.64v-.59h3.99v.59h-1.65v4.8h-.7v-4.8Z"/>
      <path d="M82.6,24.57v2.25h2.61v-2.25h.7v5.39h-.7v-2.53h-2.61v2.53h-.7v-5.39h.7Z"/>
      <path d="M91.73,27.21c0,1.85-1.13,2.84-2.5,2.84s-2.42-1.1-2.42-2.73c0-1.71,1.06-2.83,2.5-2.83s2.42,1.13,2.42,2.73ZM87.55,27.29c0,1.15.62,2.18,1.72,2.18s1.73-1.02,1.73-2.24c0-1.07-.56-2.19-1.72-2.19s-1.73,1.06-1.73,2.25Z"/>
      <path d="M92.63,24.64c.42-.06.93-.11,1.48-.11,1,0,1.71.23,2.18.67.48.44.76,1.06.76,1.94s-.27,1.6-.78,2.09c-.5.5-1.34.78-2.38.78-.5,0-.91-.02-1.26-.06v-5.3ZM93.33,29.4c.18.03.43.04.7.04,1.49,0,2.29-.83,2.29-2.29,0-1.27-.71-2.08-2.18-2.08-.36,0-.63.03-.82.07v4.25Z"/>
      <path d="M98.91,24.47v6.38h-1.46v-.44h.92v-5.5h-.92v-.44h1.46Z"/>
    </g>
    <path d="M.5,21.31v2.98h24.07v3.14l9.23-4.62-9.23-4.62v3.14H.5Z" fill="#e6e6e6" stroke="rgba(0, 0, 0, .75)" stroke-linecap="round" stroke-linejoin="round"/>
  </g>
</svg>