<?xml version="1.0" encoding="UTF-8" standalone="no"?>
<svg
   xmlns:dc="http://purl.org/dc/elements/1.1/"
   xmlns:cc="http://creativecommons.org/ns#"
   xmlns:rdf="http://www.w3.org/1999/02/22-rdf-syntax-ns#"
   xmlns:svg="http://www.w3.org/2000/svg"
   xmlns="http://www.w3.org/2000/svg"
   xmlns:sodipodi="http://sodipodi.sourceforge.net/DTD/sodipodi-0.dtd"
   xmlns:inkscape="http://www.inkscape.org/namespaces/inkscape"
   version="1.1"
   id="svg2"
   xml:space="preserve"
   width="1056"
   height="588"
   viewBox="0 0 1056 588"
   sodipodi:docname="assembly-table.eps"><metadata
     id="metadata8"><rdf:RDF><cc:Work
         rdf:about=""><dc:format>image/svg+xml</dc:format><dc:type
           rdf:resource="http://purl.org/dc/dcmitype/StillImage" /></cc:Work></rdf:RDF></metadata><defs
     id="defs6" /><sodipodi:namedview
     pagecolor="#ffffff"
     bordercolor="#666666"
     borderopacity="1"
     objecttolerance="10"
     gridtolerance="10"
     guidetolerance="10"
     inkscape:pageopacity="0"
     inkscape:pageshadow="2"
     inkscape:window-width="640"
     inkscape:window-height="480"
     id="namedview4" /><g
     id="g10"
     inkscape:groupmode="layer"
     inkscape:label="ink_ext_XXXXXX"
     transform="matrix(1.3333333,0,0,-1.3333333,0,588)"><g
       id="g12"
       transform="scale(0.1)"><path
         d="M 0,0 H 7920 V 4410 H 0 Z"
         style="fill:#ffffff;fill-opacity:1;fill-rule:nonzero;stroke:none"
         id="path14" /><path
         d="M -12970,-8530 H 18360 V 17380 H -12970 Z"
         style="fill:#ffffff;fill-opacity:1;fill-rule:nonzero;stroke:none"
         id="path16" /><path
         d="m 10,3300 h 3950 v 550 H 10 Z"
         style="fill:#ffffff;fill-opacity:1;fill-rule:nonzero;stroke:none"
         id="path18" /><path
         d="m 10,3300 h 3950 v 550 H 10 Z"
         style="fill:none;stroke:#000000;stroke-width:10;stroke-linecap:round;stroke-linejoin:round;stroke-miterlimit:10;stroke-dasharray:none;stroke-opacity:1"
         id="path20" /><g
         id="g22"
         transform="scale(10)"><text
           transform="matrix(1,0,0,-1,6,352.5)"
           style="font-variant:normal;font-weight:normal;font-size:14px;font-family:Menlo;-inkscape-font-specification:Menlo-Regular;writing-mode:lr-tb;fill:#000000;fill-opacity:1;fill-rule:nonzero;stroke:none"
           id="text26"><tspan
             x="0 8.4287109 16.857422 25.286133 33.714844 42.143555 50.572262 59.000973 67.42968 75.858391 84.287094 92.715805 101.14451 109.57322 118.00193 126.43063 134.85934 143.28806 151.71677 160.14546 168.57417 177.00288 185.43159 193.86031 202.289 210.71771 219.14642 227.57513 236.00385 244.43254 252.86125 261.28998 269.71866 278.14737 286.57608 295.00479 303.4335 311.86221 320.29092 328.71964 337.14835 345.57706 354.00574"
             y="0"
             sodipodi:role="line"
             id="tspan24">_*Pointer(Int32)@Pointer(T)#[]&lt;Int32&gt;:Int32</tspan></text></g><path
         d="m 10,3850 h 3950 v 550 H 10 Z"
         style="fill:#ffffff;fill-opacity:1;fill-rule:nonzero;stroke:none"
         id="path28" /><path
         d="m 10,3850 h 3950 v 550 H 10 Z"
         style="fill:none;stroke:#000000;stroke-width:10;stroke-linecap:round;stroke-linejoin:round;stroke-miterlimit:10;stroke-dasharray:none;stroke-opacity:1"
         id="path30" /><g
         id="g32"
         transform="scale(10)"><text
           transform="matrix(1,0,0,-1,146.392,407.203)"
           style="font-variant:normal;font-weight:bold;font-size:14px;font-family:HelveticaNeue;-inkscape-font-specification:HelveticaNeue-Bold;writing-mode:lr-tb;fill:#000000;fill-opacity:1;fill-rule:nonzero;stroke:none"
           id="text36"><tspan
             x="0 9.6040001 17.122 24.639999 32.675999 45.360001 53.914001 57.512001 64.792 68.683998 79.057999 87.612 96.166"
             y="0"
             sodipodi:role="line"
             id="tspan34">Assembly Code</tspan></text></g><path
         d="m 3960,3850 h 3950 v 550 H 3960 Z"
         style="fill:#ffffff;fill-opacity:1;fill-rule:nonzero;stroke:none"
         id="path38" /><path
         d="m 3960,3850 h 3950 v 550 H 3960 Z"
         style="fill:none;stroke:#000000;stroke-width:10;stroke-linecap:round;stroke-linejoin:round;stroke-miterlimit:10;stroke-dasharray:none;stroke-opacity:1"
         id="path40" /><g
         id="g42"
         transform="scale(10)"><text
           transform="matrix(1,0,0,-1,564.73,407.203)"
           style="font-variant:normal;font-weight:bold;font-size:14px;font-family:HelveticaNeue;-inkscape-font-specification:HelveticaNeue-Bold;writing-mode:lr-tb;fill:#000000;fill-opacity:1;fill-rule:nonzero;stroke:none"
           id="text46"><tspan
             x="0 12.698 20.733999 28.77 37.071999 40.683998 48.986"
             y="0"
             sodipodi:role="line"
             id="tspan44">Meaning</tspan></text></g><path
         d="m 10,2750 h 3950 v 550 H 10 Z"
         style="fill:#ffffff;fill-opacity:1;fill-rule:nonzero;stroke:none"
         id="path48" /><path
         d="m 10,2750 h 3950 v 550 H 10 Z"
         style="fill:none;stroke:#000000;stroke-width:10;stroke-linecap:round;stroke-linejoin:round;stroke-miterlimit:10;stroke-dasharray:none;stroke-opacity:1"
         id="path50" /><g
         id="g52"
         transform="scale(10)"><text
           transform="matrix(1,0,0,-1,6,298.084)"
           style="font-variant:normal;font-weight:normal;font-size:14px;font-family:Monaco;-inkscape-font-specification:Monaco;writing-mode:lr-tb;fill:#33bbc8;fill-opacity:1;fill-rule:nonzero;stroke:none"
           id="text56"><tspan
             x="0 8.4013672 16.802734 25.204102 33.605469"
             y="0"
             sodipodi:role="line"
             id="tspan54">callq</tspan></text></g><g
         id="g58"
         transform="scale(10)" /><g
         id="g60"
         transform="scale(10)"><text
           transform="matrix(1,0,0,-1,56.4082,298.084)"
           style="font-variant:normal;font-weight:normal;font-size:14px;font-family:Monaco;-inkscape-font-specification:Monaco;writing-mode:lr-tb;fill:#c3371b;fill-opacity:1;fill-rule:nonzero;stroke:none"
           id="text64"><tspan
             x="0 8.4013672 16.802734 25.204102 33.605469 42.006836 50.408203 58.80957 67.210938 75.612305 84.013672"
             y="0"
             sodipodi:role="line"
             id="tspan62">0x100089bc0</tspan></text></g><path
         d="m 10,2200 h 3950 v 550 H 10 Z"
         style="fill:#ffffff;fill-opacity:1;fill-rule:nonzero;stroke:none"
         id="path66" /><path
         d="m 10,2200 h 3950 v 550 H 10 Z"
         style="fill:none;stroke:#000000;stroke-width:10;stroke-linecap:round;stroke-linejoin:round;stroke-miterlimit:10;stroke-dasharray:none;stroke-opacity:1"
         id="path68" /><g
         id="g70"
         transform="scale(10)"><text
           transform="matrix(1,0,0,-1,6,243.084)"
           style="font-variant:normal;font-weight:normal;font-size:14px;font-family:Monaco;-inkscape-font-specification:Monaco;writing-mode:lr-tb;fill:#33bbc8;fill-opacity:1;fill-rule:nonzero;stroke:none"
           id="text74"><tspan
             x="0 8.4013672 16.802734 25.204102 33.605469 42.006836"
             y="0"
             sodipodi:role="line"
             id="tspan72">movslq</tspan></text></g><g
         id="g76"
         transform="scale(10)"><text
           transform="matrix(1,0,0,-1,73.210934,243.084)"
           style="font-variant:normal;font-weight:normal;font-size:14px;font-family:Monaco;-inkscape-font-specification:Monaco;writing-mode:lr-tb;fill:#000000;fill-opacity:1;fill-rule:nonzero;stroke:none"
           id="text80"><tspan
             x="0"
             y="0"
             id="tspan78">%</tspan></text></g><g
         id="g82"
         transform="scale(10)"><text
           transform="matrix(1,0,0,-1,81.6125,243.084)"
           style="font-variant:normal;font-weight:normal;font-size:14px;font-family:Monaco;-inkscape-font-specification:Monaco;writing-mode:lr-tb;fill:#33bbc8;fill-opacity:1;fill-rule:nonzero;stroke:none"
           id="text86"><tspan
             x="0 8.4013672 16.802734"
             y="0"
             sodipodi:role="line"
             id="tspan84">esi</tspan></text></g><g
         id="g88"
         transform="scale(10)"><text
           transform="matrix(1,0,0,-1,106.816,243.084)"
           style="font-variant:normal;font-weight:normal;font-size:14px;font-family:Monaco;-inkscape-font-specification:Monaco;writing-mode:lr-tb;fill:#000000;fill-opacity:1;fill-rule:nonzero;stroke:none"
           id="text92"><tspan
             x="0 8.4013672 16.802734"
             y="0"
             sodipodi:role="line"
             id="tspan90">, %</tspan></text></g><g
         id="g94"
         transform="scale(10)"><text
           transform="matrix(1,0,0,-1,132.021,243.084)"
           style="font-variant:normal;font-weight:normal;font-size:14px;font-family:Monaco;-inkscape-font-specification:Monaco;writing-mode:lr-tb;fill:#33bbc8;fill-opacity:1;fill-rule:nonzero;stroke:none"
           id="text98"><tspan
             x="0 8.4013672 16.802734"
             y="0"
             sodipodi:role="line"
             id="tspan96">rax</tspan></text></g><path
         d="m 10,1652.5 h 3950 v 550 H 10 Z"
         style="fill:#ffffff;fill-opacity:1;fill-rule:nonzero;stroke:none"
         id="path100" /><path
         d="m 10,1652.5 h 3950 v 550 H 10 Z"
         style="fill:none;stroke:#000000;stroke-width:10;stroke-linecap:round;stroke-linejoin:round;stroke-miterlimit:10;stroke-dasharray:none;stroke-opacity:1"
         id="path102" /><g
         id="g104"
         transform="scale(10)"><text
           transform="matrix(1,0,0,-1,6,188.334)"
           style="font-variant:normal;font-weight:normal;font-size:14px;font-family:Monaco;-inkscape-font-specification:Monaco;writing-mode:lr-tb;fill:#33bbc8;fill-opacity:1;fill-rule:nonzero;stroke:none"
           id="text108"><tspan
             x="0 8.4013672 16.802734 25.204102"
             y="0"
             sodipodi:role="line"
             id="tspan106">shlq</tspan></text></g><g
         id="g110"
         transform="scale(10)"><text
           transform="matrix(1,0,0,-1,56.408234,188.334)"
           style="font-variant:normal;font-weight:normal;font-size:14px;font-family:Monaco;-inkscape-font-specification:Monaco;writing-mode:lr-tb;fill:#000000;fill-opacity:1;fill-rule:nonzero;stroke:none"
           id="text114"><tspan
             x="0"
             y="0"
             id="tspan112">$</tspan></text></g><g
         id="g116"
         transform="scale(10)"><text
           transform="matrix(1,0,0,-1,64.8098,188.334)"
           style="font-variant:normal;font-weight:normal;font-size:14px;font-family:Monaco;-inkscape-font-specification:Monaco;writing-mode:lr-tb;fill:#c3371b;fill-opacity:1;fill-rule:nonzero;stroke:none"
           id="text120"><tspan
             x="0"
             y="0"
             id="tspan118">2</tspan></text></g><g
         id="g122"
         transform="scale(10)"><text
           transform="matrix(1,0,0,-1,73.2109,188.334)"
           style="font-variant:normal;font-weight:normal;font-size:14px;font-family:Monaco;-inkscape-font-specification:Monaco;writing-mode:lr-tb;fill:#000000;fill-opacity:1;fill-rule:nonzero;stroke:none"
           id="text126"><tspan
             x="0 8.4013672 16.802734"
             y="0"
             sodipodi:role="line"
             id="tspan124">, %</tspan></text></g><g
         id="g128"
         transform="scale(10)"><text
           transform="matrix(1,0,0,-1,98.4152,188.334)"
           style="font-variant:normal;font-weight:normal;font-size:14px;font-family:Monaco;-inkscape-font-specification:Monaco;writing-mode:lr-tb;fill:#33bbc8;fill-opacity:1;fill-rule:nonzero;stroke:none"
           id="text132"><tspan
             x="0 8.4013672 16.802734"
             y="0"
             sodipodi:role="line"
             id="tspan130">rax</tspan></text></g><path
         d="m 10,1105.63 h 3950 v 550 H 10 Z"
         style="fill:#ffffff;fill-opacity:1;fill-rule:nonzero;stroke:none"
         id="path134" /><path
         d="m 10,1105.63 h 3950 v 550 H 10 Z"
         style="fill:none;stroke:#000000;stroke-width:10;stroke-linecap:round;stroke-linejoin:round;stroke-miterlimit:10;stroke-dasharray:none;stroke-opacity:1"
         id="path136" /><g
         id="g138"
         transform="scale(10)"><text
           transform="matrix(1,0,0,-1,6,133.647)"
           style="font-variant:normal;font-weight:normal;font-size:14px;font-family:Monaco;-inkscape-font-specification:Monaco;writing-mode:lr-tb;fill:#33bbc8;fill-opacity:1;fill-rule:nonzero;stroke:none"
           id="text142"><tspan
             x="0 8.4013672 16.802734 25.204102"
             y="0"
             sodipodi:role="line"
             id="tspan140">addq</tspan></text></g><g
         id="g144"
         transform="scale(10)"><text
           transform="matrix(1,0,0,-1,56.408234,133.647)"
           style="font-variant:normal;font-weight:normal;font-size:14px;font-family:Monaco;-inkscape-font-specification:Monaco;writing-mode:lr-tb;fill:#000000;fill-opacity:1;fill-rule:nonzero;stroke:none"
           id="text148"><tspan
             x="0"
             y="0"
             id="tspan146">%</tspan></text></g><g
         id="g150"
         transform="scale(10)"><text
           transform="matrix(1,0,0,-1,64.8098,133.647)"
           style="font-variant:normal;font-weight:normal;font-size:14px;font-family:Monaco;-inkscape-font-specification:Monaco;writing-mode:lr-tb;fill:#33bbc8;fill-opacity:1;fill-rule:nonzero;stroke:none"
           id="text154"><tspan
             x="0 8.4013672 16.802734"
             y="0"
             sodipodi:role="line"
             id="tspan152">rax</tspan></text></g><g
         id="g156"
         transform="scale(10)"><text
           transform="matrix(1,0,0,-1,90.0137,133.647)"
           style="font-variant:normal;font-weight:normal;font-size:14px;font-family:Monaco;-inkscape-font-specification:Monaco;writing-mode:lr-tb;fill:#000000;fill-opacity:1;fill-rule:nonzero;stroke:none"
           id="text160"><tspan
             x="0 8.4013672 16.802734"
             y="0"
             sodipodi:role="line"
             id="tspan158">, %</tspan></text></g><g
         id="g162"
         transform="scale(10)"><text
           transform="matrix(1,0,0,-1,115.218,133.647)"
           style="font-variant:normal;font-weight:normal;font-size:14px;font-family:Monaco;-inkscape-font-specification:Monaco;writing-mode:lr-tb;fill:#33bbc8;fill-opacity:1;fill-rule:nonzero;stroke:none"
           id="text166"><tspan
             x="0 8.4013672 16.802734"
             y="0"
             sodipodi:role="line"
             id="tspan164">rdi</tspan></text></g><path
         d="m 10,558.906 h 3950 v 550 H 10 Z"
         style="fill:#ffffff;fill-opacity:1;fill-rule:nonzero;stroke:none"
         id="path168" /><path
         d="m 10,558.906 h 3950 v 550 H 10 Z"
         style="fill:none;stroke:#000000;stroke-width:10;stroke-linecap:round;stroke-linejoin:round;stroke-miterlimit:10;stroke-dasharray:none;stroke-opacity:1"
         id="path170" /><g
         id="g172"
         transform="scale(10)"><text
           transform="matrix(1,0,0,-1,6,88.5598)"
           style="font-variant:normal;font-weight:normal;font-size:14px;font-family:Monaco;-inkscape-font-specification:Monaco;writing-mode:lr-tb;fill:#33bbc8;fill-opacity:1;fill-rule:nonzero;stroke:none"
           id="text176"><tspan
             x="0 8.4013672 16.802734 25.204102"
             y="0"
             sodipodi:role="line"
             id="tspan174">movq</tspan></text></g><g
         id="g178"
         transform="scale(10)"><text
           transform="matrix(1,0,0,-1,56.408234,88.5598)"
           style="font-variant:normal;font-weight:normal;font-size:14px;font-family:Monaco;-inkscape-font-specification:Monaco;writing-mode:lr-tb;fill:#000000;fill-opacity:1;fill-rule:nonzero;stroke:none"
           id="text182"><tspan
             x="0"
             y="0"
             id="tspan180">%</tspan></text></g><g
         id="g184"
         transform="scale(10)"><text
           transform="matrix(1,0,0,-1,64.8098,88.5598)"
           style="font-variant:normal;font-weight:normal;font-size:14px;font-family:Monaco;-inkscape-font-specification:Monaco;writing-mode:lr-tb;fill:#33bbc8;fill-opacity:1;fill-rule:nonzero;stroke:none"
           id="text188"><tspan
             x="0 8.4013672 16.802734"
             y="0"
             sodipodi:role="line"
             id="tspan186">rdi</tspan></text></g><g
         id="g190"
         transform="scale(10)"><text
           transform="matrix(1,0,0,-1,90.0137,88.5598)"
           style="font-variant:normal;font-weight:normal;font-size:14px;font-family:Monaco;-inkscape-font-specification:Monaco;writing-mode:lr-tb;fill:#000000;fill-opacity:1;fill-rule:nonzero;stroke:none"
           id="text194"><tspan
             x="0 8.4013672 16.802734"
             y="0"
             sodipodi:role="line"
             id="tspan192">, %</tspan></text></g><g
         id="g196"
         transform="scale(10)"><text
           transform="matrix(1,0,0,-1,115.218,88.5598)"
           style="font-variant:normal;font-weight:normal;font-size:14px;font-family:Monaco;-inkscape-font-specification:Monaco;writing-mode:lr-tb;fill:#33bbc8;fill-opacity:1;fill-rule:nonzero;stroke:none"
           id="text202"><tspan
             x="0 8.4013672 16.802734"
             y="0"
             sodipodi:role="line"
             id="tspan198">rax</tspan><tspan
             x="-109.218 -100.81664 -92.415268 -84.013901"
             y="19.1691"
             sodipodi:role="line"
             id="tspan200">retq</tspan></text></g><path
         d="m 3960,3300 h 3950 v 550 H 3960 Z"
         style="fill:#ffffff;fill-opacity:1;fill-rule:nonzero;stroke:none"
         id="path204" /><path
         d="m 3960,3300 h 3950 v 550 H 3960 Z"
         style="fill:none;stroke:#000000;stroke-width:10;stroke-linecap:round;stroke-linejoin:round;stroke-miterlimit:10;stroke-dasharray:none;stroke-opacity:1"
         id="path206" /><g
         id="g208"
         transform="scale(10)"><text
           transform="matrix(1,0,0,-1,401,360.892)"
           style="font-variant:normal;font-weight:normal;font-size:14px;font-family:HelveticaNeue;-inkscape-font-specification:HelveticaNeue;writing-mode:lr-tb;fill:#000000;fill-opacity:1;fill-rule:nonzero;stroke:none"
           id="text214"><tspan
             x="0 8.0360003 15.82 23.337999 27.23 34.748001 42 50.301998 57.82 65.603996 73.905998 81.424004 89.725998 93.617996 101.402 108.92 120.862 128.38 132.272 140.308 144.452 148.34399 155.862 159.754 167.272 175.308 183.61 190.61 194.502 202.53799 206.68201 210.57401 214.98399 222.76801 230.286 234.17799 242.214 249.73199 257.51599 265.034 269.69601 272.80399 280.32199 284.21399 293.28601 301.32199 304.42999 312.21399 316.62399 324.142 328.80399 332.42999 340.452 344.09201 351.87601 355.50201 359.12799"
             y="0"
             sodipodi:role="line"
             id="tspan210">The expanded name of a copy of the generic Pointer(T)#[] </tspan><tspan
             x="0 7.5180001 19.459999 22.568001 26.978001 31.388 38.905998 47.208 51.099998 55.243999 63.279999 67.942001 71.834 79.351997 83.244003 90.244003 98.545998 106.064 113.582 116.69 123.942 131.46001 135.35201 139.76199 146.76199 155.064 162.582 166.474 174.50999 182.91 186.536 194.32001 198.73 206.51401 214.298"
             y="16.3922"
             sodipodi:role="line"
             id="tspan212">emitted for a speciﬁc type T=Int32 </tspan></text></g><path
         d="m 3960,2750 h 3950 v 550 H 3960 Z"
         style="fill:#ffffff;fill-opacity:1;fill-rule:nonzero;stroke:none"
         id="path216" /><path
         d="m 3960,2750 h 3950 v 550 H 3960 Z"
         style="fill:none;stroke:#000000;stroke-width:10;stroke-linecap:round;stroke-linejoin:round;stroke-miterlimit:10;stroke-dasharray:none;stroke-opacity:1"
         id="path218" /><g
         id="g220"
         transform="scale(10)"><text
           transform="matrix(1,0,0,-1,401,305.892)"
           style="font-variant:normal;font-weight:normal;font-size:14px;font-family:HelveticaNeue;-inkscape-font-specification:HelveticaNeue;writing-mode:lr-tb;fill:#000000;fill-opacity:1;fill-rule:nonzero;stroke:none"
           id="text226"><tspan
             x="0 9.0719995 17.108 20.216 28 32.41 39.928001 44.59 48.216 56.237999 59.877998 67.662003 71.288002 74.914001 78.806 86.323997 93.842003 96.949997 100.058 107.058 110.95 120.022 128.058 131.166 138.95 143.36 150.87801 155.53999 159.166 167.188 170.828 178.612 187.01199 190.90401 195.314 203.35001 207.242 215.54401 223.062 227.724 231.868 239.90401 244.56599 256.508 260.39999 264.81 272.59399 280.112 284.004 292.306 300.34201 303.45001 311.23401 315.64401 323.16199 327.82401"
             y="0"
             sodipodi:role="line"
             id="tspan222">Pointer(T)#[] calls Pointer(T)#+ to perform the pointer </tspan><tspan
             x="0 7.5180001 12.18 15.288 19.698 27.482 39.424 46.942001 51.352001 54.459999 61.978001"
             y="16.3922"
             sodipodi:role="line"
             id="tspan224">arithmetic.</tspan></text></g><path
         d="m 3960,2202.5 h 3950 v 550 H 3960 Z"
         style="fill:#ffffff;fill-opacity:1;fill-rule:nonzero;stroke:none"
         id="path228" /><path
         d="m 3960,2202.5 h 3950 v 550 H 3960 Z"
         style="fill:none;stroke:#000000;stroke-width:10;stroke-linecap:round;stroke-linejoin:round;stroke-miterlimit:10;stroke-dasharray:none;stroke-opacity:1"
         id="path230" /><g
         id="g232"
         transform="scale(10)"><text
           transform="matrix(1,0,0,-1,401,251.142)"
           style="font-variant:normal;font-weight:normal;font-size:14px;font-family:HelveticaNeue;-inkscape-font-specification:HelveticaNeue;writing-mode:lr-tb;fill:#000000;fill-opacity:1;fill-rule:nonzero;stroke:none"
           id="text238"><tspan
             x="0 9.0719995 12.18 20.216 28 31.892 39.41 46.661999 51.071999 58.59 66.374001 74.676003 78.568001 86.085999 93.870003 102.172 106.064 118.006 126.042 133.04201 140.56 144.452 148.862 156.646 164.164 168.056 175.57401 180.23599 184.89799 192.416 199.416 203.308 206.416 214.2 222.502 230.02 237.272 241.164 245.308 249.718 257.754 269.69601 273.58801 277.99799 285.78201 293.29999 297.19199 304.97601 312.76001 316.65201 324.95401 328.06201 332.47198 336.36401 344.918 353.98999 357.616"
             y="0"
             sodipodi:role="line"
             id="tspan234">Sign extend and move the array index from the 32 bit ESI </tspan><tspan
             x="0 4.4099998 11.928 19.964001 23.072001 30.072001 34.481998 42 46.661999 50.554001 54.964001 63 66.891998 71.302002 79.085999 86.603996 90.496002 98.279999 106.064 109.956 118.258 121.366 125.776 129.668 139.244 148.32997 156.88397 160.77597 165.18596 172.70396 180.73996 183.84796 190.84796 195.25797 202.77597"
             y="16.3922"
             sodipodi:role="line"
             id="tspan236">register to the 64 bit RAX register</tspan></text></g><path
         d="m 3960,1655.63 h 3950 v 550 H 3960 Z"
         style="fill:#ffffff;fill-opacity:1;fill-rule:nonzero;stroke:none"
         id="path240" /><path
         d="m 3960,1655.63 h 3950 v 550 H 3960 Z"
         style="fill:none;stroke:#000000;stroke-width:10;stroke-linecap:round;stroke-linejoin:round;stroke-miterlimit:10;stroke-dasharray:none;stroke-opacity:1"
         id="path242" /><g
         id="g244"
         transform="scale(10)"><text
           transform="matrix(1,0,0,-1,401,196.455)"
           style="font-variant:normal;font-weight:normal;font-size:14px;font-family:HelveticaNeue;-inkscape-font-specification:HelveticaNeue;writing-mode:lr-tb;fill:#000000;fill-opacity:1;fill-rule:nonzero;stroke:none"
           id="text250"><tspan
             x="0 9.0719995 16.856001 19.964001 24.108 28.518 32.41 36.82 44.604 52.122002 56.014 59.122002 66.905998 75.208 82.725998 89.977997 93.870003 96.977997 104.496 108.64 113.05 116.942 121.352 131.964 135.07201 142.59 150.108 154 157.892 169.834 177.618 180.726 185.136 188.244 196.54601 199.65401 206.65401 209.76199 217.54601 225.582 229.474 232.582 236.992 240.884 249.186 256.186 260.078 267.862 271.754 275.646 280.056 287.84 295.358 299.25 306.25 309.358 316.078 323.59601 327.48801 335.52399 339.668 343.56 347.97 355.754 363.272"
             y="0"
             sodipodi:role="line"
             id="tspan246">Shift the index left twice, multiplying it by 4, the size of the </tspan><tspan
             x="0 3.6259999 11.41 15.82 23.604 31.388 35.279999 39.689999 46.689999 54.992001 62.509998"
             y="16.3922"
             sodipodi:role="line"
             id="tspan248">Int32 type.</tspan></text></g><path
         d="m 3960,1108.91 h 3950 v 550 H 3960 Z"
         style="fill:#ffffff;fill-opacity:1;fill-rule:nonzero;stroke:none"
         id="path252" /><path
         d="m 3960,1108.91 h 3950 v 550 H 3960 Z"
         style="fill:none;stroke:#000000;stroke-width:10;stroke-linecap:round;stroke-linejoin:round;stroke-miterlimit:10;stroke-dasharray:none;stroke-opacity:1"
         id="path254" /><g
         id="g256"
         transform="scale(10)"><text
           transform="matrix(1,0,0,-1,400.986,141.783)"
           style="font-variant:normal;font-weight:normal;font-size:14px;font-family:HelveticaNeue;-inkscape-font-specification:HelveticaNeue;writing-mode:lr-tb;fill:#000000;fill-opacity:1;fill-rule:nonzero;stroke:none"
           id="text262"><tspan
             x="0 9.0860004 17.388 25.690001 29.582001 33.992001 41.776001 44.883999 51.883999 55.776001 63.028 70.811996 74.704002 77.811996 85.596001 93.898003 101.416 108.668 112.56 119.56 127.078 130.186 137.97 145.48801 149.38 153.78999 161.826 165.718 170.12801 177.912 185.42999 189.32201 197.62399 205.66 208.76801 216.552 220.96201 228.48 233.142 235.998 242.998 246.89 254.92599 259.58801 262.69601 270.73199 273.84 281.62399 289.142 292.25 296.142 303.66 311.96201 320.26401 324.67401 332.19199 339.19199 346.19199 350.08401 353.97601 357.08401 364.86801"
             y="0"
             sodipodi:role="line"
             id="tspan258">Add this x4 index value to the pointer’s original address, in </tspan><tspan
             x="0.0139893 4.4239893 12.20799 19.725988 23.617989 31.401989 39.185989 43.077988 51.37999 54.487988 58.897991 62.789989 72.37999 82.235992 85.861992 89.75399 94.163986 101.68199 109.71799 112.82599 119.82599 124.23599 131.75398 135.12799"
             y="16.3922"
             sodipodi:role="line"
             id="tspan260">the 64 bit RDI register.</tspan></text></g><path
         d="m 3960,562.227 h 3950 v 550 H 3960 Z"
         style="fill:#ffffff;fill-opacity:1;fill-rule:nonzero;stroke:none"
         id="path264" /><path
         d="m 3960,562.227 h 3950 v 550 H 3960 Z"
         style="fill:none;stroke:#000000;stroke-width:10;stroke-linecap:round;stroke-linejoin:round;stroke-miterlimit:10;stroke-dasharray:none;stroke-opacity:1"
         id="path266" /><g
         id="g268"
         transform="scale(10)"><text
           transform="matrix(1,0,0,-1,401,87.1148)"
           style="font-variant:normal;font-weight:normal;font-size:14px;font-family:HelveticaNeue;-inkscape-font-specification:HelveticaNeue;writing-mode:lr-tb;fill:#000000;fill-opacity:1;fill-rule:nonzero;stroke:none"
           id="text274"><tspan
             x="0 9.5900002 17.108 21.518 29.302 34.216 42 45.891998 50.301998 58.085999 65.603996 69.496002 77.279999 84.797997 95.410004 99.302002 106.82 115.122 123.424 127.83395 135.35194 142.35194 149.35194 153.24394 156.86995 165.17195 173.20795 176.31595 184.09995 188.50995 196.02795 200.68996 204.58195 212.98195 216.87395 219.98195 227.76595 236.06795 243.58595 250.83795 255.76595 263.53595 267.17596 271.06796 275.21194 279.62195 287.65796 299.59995 303.49194 312.56396 320.59995 323.70795 331.49194 335.90195 343.41995 348.08194 351.70795 359.72995 363.37003 371.15402 379.55402"
             y="0"
             sodipodi:role="line"
             id="tspan270">Return the new address (pointer + index*4) from Pointer(T)#+ </tspan><tspan
             x="0 4.4099998 12.446 16.337999 25.41 33.445999 36.554001 44.338001 48.748001 56.265999 60.928001 64.554001 72.575996 76.216064 84.000061 87.62606 91.25206"
             y="16.3922"
             sodipodi:role="line"
             id="tspan272">to Pointer(T)#[].</tspan></text></g><path
         d="m 10,8.90625 h 3950 v 550 H 10 Z"
         style="fill:#ffffff;fill-opacity:1;fill-rule:nonzero;stroke:none"
         id="path276" /><path
         d="m 10,8.90625 h 3950 v 550 H 10 Z"
         style="fill:none;stroke:#000000;stroke-width:10;stroke-linecap:round;stroke-linejoin:round;stroke-miterlimit:10;stroke-dasharray:none;stroke-opacity:1"
         id="path278" /><g
         id="g280"
         transform="scale(10)"><text
           transform="matrix(1,0,0,-1,6,23.975)"
           style="font-variant:normal;font-weight:normal;font-size:14px;font-family:Monaco;-inkscape-font-specification:Monaco;writing-mode:lr-tb;fill:#33bbc8;fill-opacity:1;fill-rule:nonzero;stroke:none"
           id="text284"><tspan
             x="0 8.4013672 16.802734 25.204102"
             y="0"
             sodipodi:role="line"
             id="tspan282">movl</tspan></text></g><g
         id="g286"
         transform="scale(10)"><text
           transform="matrix(1,0,0,-1,56.408234,23.975)"
           style="font-variant:normal;font-weight:normal;font-size:14px;font-family:Monaco;-inkscape-font-specification:Monaco;writing-mode:lr-tb;fill:#000000;fill-opacity:1;fill-rule:nonzero;stroke:none"
           id="text290"><tspan
             x="0 8.4013672"
             y="0"
             sodipodi:role="line"
             id="tspan288">(%</tspan></text></g><g
         id="g292"
         transform="scale(10)"><text
           transform="matrix(1,0,0,-1,73.2109,23.975)"
           style="font-variant:normal;font-weight:normal;font-size:14px;font-family:Monaco;-inkscape-font-specification:Monaco;writing-mode:lr-tb;fill:#33bbc8;fill-opacity:1;fill-rule:nonzero;stroke:none"
           id="text296"><tspan
             x="0 8.4013672 16.802734"
             y="0"
             sodipodi:role="line"
             id="tspan294">rax</tspan></text></g><g
         id="g298"
         transform="scale(10)"><text
           transform="matrix(1,0,0,-1,98.4152,23.975)"
           style="font-variant:normal;font-weight:normal;font-size:14px;font-family:Monaco;-inkscape-font-specification:Monaco;writing-mode:lr-tb;fill:#000000;fill-opacity:1;fill-rule:nonzero;stroke:none"
           id="text302"><tspan
             x="0 8.4013672 16.802734 25.204102"
             y="0"
             sodipodi:role="line"
             id="tspan300">), %</tspan></text></g><g
         id="g304"
         transform="scale(10)"><text
           transform="matrix(1,0,0,-1,132.021,23.975)"
           style="font-variant:normal;font-weight:normal;font-size:14px;font-family:Monaco;-inkscape-font-specification:Monaco;writing-mode:lr-tb;fill:#33bbc8;fill-opacity:1;fill-rule:nonzero;stroke:none"
           id="text308"><tspan
             x="0 8.4013672 16.802734"
             y="0"
             sodipodi:role="line"
             id="tspan306">eax</tspan></text></g><path
         d="m 3960,5.3125 h 3950 v 550 H 3960 Z"
         style="fill:#ffffff;fill-opacity:1;fill-rule:nonzero;stroke:none"
         id="path310" /><path
         d="m 3960,5.3125 h 3950 v 550 H 3960 Z"
         style="fill:none;stroke:#000000;stroke-width:10;stroke-linecap:round;stroke-linejoin:round;stroke-miterlimit:10;stroke-dasharray:none;stroke-opacity:1"
         id="path312" /><g
         id="g314"
         transform="scale(10)"><text
           transform="matrix(1,0,0,-1,400.986,31.4234)"
           style="font-variant:normal;font-weight:normal;font-size:14px;font-family:HelveticaNeue;-inkscape-font-specification:HelveticaNeue;writing-mode:lr-tb;fill:#000000;fill-opacity:1;fill-rule:nonzero;stroke:none"
           id="text320"><tspan
             x="0 9.0860004 16.604 21.014 28.798 36.316002 39.424 42.532001 49.532001 53.424 61.726002 69.244003 73.653999 81.171997 85.316002 92.834 97.24395 104.76195 112.54595 120.06395 127.58195 131.47395 135.88396 143.66795 151.18594 155.07796 162.59595 170.88399 174.00595 181.78995 188.78995 193.19995 200.71796 209.01994 212.91196 221.21394 229.24995 232.35796 240.14195 244.55196 252.06995 255.44391 259.33591 263.22791 271.26392 279.56592 283.97592 291.49393 294.6019 302.38593 305.49393 313.27792 321.3139 325.2059 329.61591 337.3999 344.91791 348.80991 352.43591 360.21991 364.62991 372.41391 380.19791"
             y="0"
             sodipodi:role="line"
             id="tspan316">Actually dereference the adjusted pointer, obtaining the Int32 </tspan><tspan
             x="0.0139893 7.0139894 14.531989 17.63999 25.42399 32.94199 36.833988 44.35199 52.13599 60.437988 64.329987 71.329987 78.847992 85.847992 88.955986 96.73999 104.77599 108.66799 111.77599 116.18599 120.07799 123.18599 130.96999 134.86198 139.27199 147.05598 154.57399 158.46599 166.24998 174.034 177.92599 186.228 189.33598 193.74599 197.63799 206.17802 215.26399 223.81799 227.70999 232.12 239.63799 247.674 250.78198 257.78198 262.19199 269.70999 273.08398"
             y="16.3922"
             sodipodi:role="line"
             id="tspan318">value and saving it in the 32 bit EAX register.</tspan></text></g></g></g></svg>
